<?xml version="1.0" encoding="UTF-8"?><svg xmlns="http://www.w3.org/2000/svg" xmlns:xlink="http://www.w3.org/1999/xlink" width="288" zoomAndPan="magnify" viewBox="0 0 288 215.999996" height="215.999996" preserveAspectRatio="xMidYMid meet" version="1.0"><defs><clipPath id="clip-0"><path d="M 43.003906 15.324219 L 224.503906 15.324219 L 224.503906 194.574219 L 43.003906 194.574219 Z M 43.003906 15.324219 " clip-rule="nonzero"/></clipPath></defs><rect x="-28.8" width="345.6" fill="rgb(100%, 100%, 100%)" y="-21.6" height="259.199995" fill-opacity="1"/><rect x="-28.8" width="345.6" fill="rgb(100%, 100%, 100%)" y="-21.6" height="259.199995" fill-opacity="1"/><rect x="-28.8" width="345.6" fill="rgb(100%, 100%, 100%)" y="-21.6" height="259.199995" fill-opacity="1"/><g clip-path="url(#clip-0)"><path fill="rgb(0%, 0%, 0%)" d="M 207.652344 101.089844 L 207.652344 85.046875 L 221.050781 85.046875 C 222.472656 85.046875 223.488281 84.03125 223.488281 82.609375 L 223.488281 18.027344 C 223.488281 16.605469 222.269531 15.589844 221.050781 15.386719 L 126.445312 15.386719 C 125.023438 15.386719 124.007812 16.605469 124.007812 17.824219 L 124.007812 33.257812 L 110.40625 33.257812 C 81.984375 33.257812 59.042969 56.207031 59.042969 84.640625 L 59.042969 100.886719 C 49.09375 101.699219 43.003906 109.824219 43.003906 122.617188 L 43.003906 138.863281 C 43.003906 152.269531 49.703125 160.59375 60.460938 160.796875 C 64.726562 178.871094 79.546875 192.480469 103.707031 193.089844 C 103.707031 193.089844 119.339844 193.089844 119.542969 192.886719 C 120.960938 193.902344 122.585938 194.511719 124.210938 194.511719 L 137.609375 194.511719 C 141.875 194.308594 145.324219 190.652344 145.121094 186.183594 C 144.917969 182.121094 141.671875 178.871094 137.609375 178.667969 L 124.007812 178.667969 C 119.746094 178.667969 116.292969 182.121094 116.292969 186.386719 C 116.292969 186.792969 116.292969 187.199219 116.496094 187.605469 L 104.113281 187.605469 C 85.027344 186.792969 72.847656 177.449219 67.363281 165.265625 C 67.769531 165.265625 75.6875 165.265625 75.6875 165.265625 C 80.765625 165.265625 84.824219 161.203125 84.824219 156.328125 L 84.824219 105.152344 C 84.824219 100.074219 80.765625 96.214844 75.6875 96.214844 L 68.378906 96.214844 C 66.757812 96.214844 65.335938 96.621094 63.914062 97.433594 L 63.914062 84.640625 C 63.914062 59.050781 84.621094 38.335938 110.203125 38.335938 L 123.804688 38.335938 L 123.804688 82.609375 C 123.804688 84.03125 125.023438 85.046875 126.242188 85.046875 L 141.671875 85.046875 L 141.671875 100.277344 C 141.671875 101.292969 142.28125 102.308594 143.292969 102.714844 C 144.511719 103.324219 145.527344 102.714844 146.136719 102.105469 L 163.191406 85.046875 L 202.578125 85.046875 L 202.578125 97.027344 C 201.359375 96.417969 200.140625 96.214844 198.71875 96.214844 L 191.410156 96.214844 C 186.335938 96.214844 182.476562 100.277344 182.476562 105.152344 L 182.476562 156.734375 C 182.476562 161.8125 186.539062 165.671875 191.410156 165.671875 L 198.71875 165.671875 C 201.96875 165.671875 205.011719 163.84375 206.636719 161 C 217.601562 161 224.503906 152.675781 224.503906 139.066406 L 224.503906 122.820312 C 224.300781 110.027344 218.007812 101.699219 207.652344 101.089844 Z M 124.007812 183.949219 L 137.609375 183.949219 C 139.03125 184.152344 140.25 185.371094 140.046875 186.996094 C 139.84375 188.417969 138.828125 189.433594 137.609375 189.433594 L 124.007812 189.433594 C 122.585938 189.230469 121.367188 188.011719 121.570312 186.386719 C 121.773438 185.167969 122.789062 184.152344 124.007812 183.949219 Z M 47.875 138.863281 L 47.875 122.617188 C 47.875 117.742188 49.09375 106.980469 58.839844 105.964844 L 58.839844 155.515625 C 49.09375 154.300781 47.875 143.738281 47.875 138.863281 Z M 143.699219 34.273438 L 203.996094 34.273438 C 205.417969 34.273438 206.433594 35.492188 206.433594 36.710938 C 206.433594 37.929688 205.214844 39.148438 203.996094 39.148438 L 143.699219 39.148438 C 142.28125 39.148438 141.265625 37.929688 141.265625 36.710938 C 141.265625 35.492188 142.28125 34.273438 143.699219 34.273438 Z M 171.3125 50.113281 C 171.3125 51.535156 170.09375 52.550781 168.875 52.550781 L 158.925781 52.550781 C 157.507812 52.550781 156.492188 51.332031 156.492188 50.113281 C 156.492188 48.894531 157.707031 47.675781 158.925781 47.675781 L 168.875 47.675781 C 170.09375 47.675781 171.3125 48.691406 171.3125 50.113281 Z M 143.699219 47.472656 L 148.777344 47.472656 C 150.195312 47.472656 151.210938 48.691406 151.210938 49.910156 C 151.210938 51.128906 149.996094 52.347656 148.777344 52.347656 L 143.699219 52.347656 C 142.28125 52.347656 141.265625 51.128906 141.265625 49.910156 C 141.265625 48.691406 142.28125 47.472656 143.699219 47.472656 Z M 181.257812 65.753906 L 143.699219 65.753906 C 142.28125 65.753906 141.265625 64.535156 141.265625 63.316406 C 141.265625 62.097656 142.484375 60.878906 143.699219 60.878906 L 181.054688 60.878906 C 182.476562 60.878906 183.492188 62.097656 183.492188 63.316406 C 183.492188 64.535156 182.476562 65.753906 181.257812 65.753906 Z M 188.972656 52.550781 L 178.824219 52.550781 C 177.402344 52.550781 176.386719 51.332031 176.386719 50.113281 C 176.386719 48.894531 177.605469 47.675781 178.824219 47.675781 L 188.769531 47.675781 C 190.191406 47.675781 191.207031 48.894531 191.207031 50.113281 C 191.207031 51.332031 190.191406 52.550781 188.972656 52.550781 Z M 196.28125 50.113281 C 196.28125 48.691406 197.5 47.675781 198.71875 47.675781 L 203.792969 47.675781 C 205.214844 47.675781 206.230469 48.894531 206.230469 50.113281 C 206.230469 51.332031 205.011719 52.550781 203.792969 52.550781 L 198.71875 52.550781 C 197.5 52.550781 196.28125 51.535156 196.28125 50.113281 Z M 219.222656 139.269531 C 219.222656 144.144531 218.007812 155.109375 207.652344 155.921875 L 207.652344 106.371094 C 218.007812 107.183594 219.222656 118.148438 219.222656 123.023438 Z M 219.222656 139.269531 " fill-opacity="1" fill-rule="nonzero"/></g></svg>