<svg width="24" height="35" viewBox="0 0 24 35" fill="none" xmlns="http://www.w3.org/2000/svg">
<path d="M23.637 34.8982H0.4104V30.7263L9.24634 21.8435C11.8557 19.1716 13.5823 17.281 14.426 16.1716C15.2854 15.0466 15.9104 13.9919 16.301 13.0076C16.6917 12.0232 16.887 10.9685 16.887 9.84351C16.887 8.29663 16.4182 7.07788 15.4807 6.18726C14.5588 5.29663 13.2776 4.85132 11.637 4.85132C10.3245 4.85132 9.05103 5.09351 7.81665 5.57788C6.5979 6.06226 5.18384 6.93726 3.57446 8.20288L0.5979 4.57007C2.50415 2.96069 4.35571 1.82007 6.15259 1.14819C7.94946 0.476318 9.86353 0.140381 11.8948 0.140381C15.0823 0.140381 17.637 0.976318 19.5588 2.64819C21.4807 4.30444 22.4417 6.53882 22.4417 9.35132C22.4417 10.8982 22.1604 12.3669 21.5979 13.7576C21.051 15.1482 20.1995 16.5857 19.0432 18.0701C17.9026 19.5388 15.9963 21.531 13.3245 24.0466L7.37134 29.8123V30.0466H23.637V34.8982Z" fill="#DD285D"/>
</svg>
