<svg width="24" height="36" viewBox="0 0 24 36" fill="none" xmlns="http://www.w3.org/2000/svg">
<path d="M22.135 8.50757C22.135 10.6794 21.5022 12.4919 20.2366 13.9451C18.9709 15.3826 17.1897 16.3513 14.8928 16.8513V17.0388C17.6428 17.3826 19.7053 18.2419 21.0803 19.6169C22.4553 20.9763 23.1428 22.7888 23.1428 25.0544C23.1428 28.3513 21.9788 30.8982 19.6506 32.6951C17.3225 34.4763 14.01 35.3669 9.71313 35.3669C5.91626 35.3669 2.71313 34.7498 0.10376 33.5154V28.6169C1.55688 29.3357 3.09595 29.8904 4.72095 30.281C6.34595 30.6716 7.90845 30.8669 9.40845 30.8669C12.0647 30.8669 14.0491 30.3748 15.3616 29.3904C16.6741 28.406 17.3303 26.8826 17.3303 24.8201C17.3303 22.9919 16.6038 21.6482 15.1506 20.7888C13.6975 19.9294 11.4163 19.4998 8.30688 19.4998H5.33032V15.0232H8.35376C13.8225 15.0232 16.5569 13.1326 16.5569 9.35132C16.5569 7.88257 16.0803 6.74976 15.1272 5.95288C14.1741 5.15601 12.7678 4.75757 10.9084 4.75757C9.61157 4.75757 8.36157 4.94507 7.15845 5.32007C5.95532 5.67944 4.53345 6.39038 2.89282 7.45288L0.19751 3.60913C3.33813 1.29663 6.98657 0.140381 11.1428 0.140381C14.5959 0.140381 17.2913 0.882568 19.2288 2.36694C21.1663 3.85132 22.135 5.89819 22.135 8.50757Z" fill="#DD285D"/>
</svg>
