<svg width="551" height="551" viewBox="0 0 551 551" fill="none" xmlns="http://www.w3.org/2000/svg">
<g opacity="0.8">
<path fill-rule="evenodd" clip-rule="evenodd" d="M519.012 529.874C396.965 591.654 69.7191 468.093 59.2525 303.729C48.7859 139.364 357.51 -54.7911 506.472 14.3757C655.434 83.5426 641.059 468.093 519.012 529.874Z" fill="url(#paint0_linear)"/>
<mask id="mask0" mask-type="alpha" maskUnits="userSpaceOnUse" x="58" y="0" width="557" height="547">
<path fill-rule="evenodd" clip-rule="evenodd" d="M519.012 529.874C396.965 591.654 69.7191 468.093 59.2525 303.729C48.7859 139.364 357.51 -54.7911 506.472 14.3757C655.434 83.5426 641.059 468.093 519.012 529.874Z" fill="white"/>
</mask>
<g mask="url(#mask0)">
</g>
</g>
<g filter="url(#filter0_d)">
<path d="M124.01 143.486C124.01 135.467 130.509 128.968 138.528 128.968H579.513C587.531 128.968 594.031 135.467 594.031 143.486V381.218C594.031 389.237 587.531 395.737 579.513 395.737H138.528C130.509 395.737 124.01 389.237 124.01 381.218V143.486Z" fill="url(#paint1_linear)"/>
<mask id="mask1" mask-type="alpha" maskUnits="userSpaceOnUse" x="124" y="128" width="471" height="268">
<path d="M124.01 143.486C124.01 135.467 130.509 128.968 138.528 128.968H579.513C587.531 128.968 594.031 135.467 594.031 143.486V381.218C594.031 389.237 587.531 395.737 579.513 395.737H138.528C130.509 395.737 124.01 389.237 124.01 381.218V143.486Z" fill="white"/>
</mask>
<g mask="url(#mask1)">
<g style="mix-blend-mode:overlay" opacity="0.254699">
<path d="M215.935 532.242L750.172 266.242L940.649 550.76L406.412 816.76L215.935 532.242Z" fill="white"/>
</g>
<g style="mix-blend-mode:overlay" opacity="0.254699">
<path d="M163.988 465.042L698.225 199.042L888.701 483.56L354.464 749.56L163.988 465.042Z" fill="white"/>
</g>
<g style="mix-blend-mode:overlay" opacity="0.254699">
<path d="M86.0654 409.042L620.303 143.042L810.779 427.56L276.542 693.56L86.0654 409.042Z" fill="white"/>
</g>
</g>
<path d="M172.868 270.362H168.97L163.781 261.884L158.549 270.362H154.919L161.796 259.616L155.359 249.634H159.13L163.922 257.475L168.714 249.634H172.372L165.893 259.672L172.868 270.362Z" fill="white"/>
<path d="M195.867 270.362H191.968L186.779 261.884L181.548 270.362H177.918L184.794 259.616L178.358 249.634H182.129L186.921 257.475L191.713 249.634H195.371L188.892 259.672L195.867 270.362Z" fill="white"/>
<path d="M218.866 270.362H214.967L209.778 261.884L204.546 270.362H200.917L207.793 259.616L201.356 249.634H205.127L209.92 257.475L214.712 249.634H218.37L211.89 259.672L218.866 270.362Z" fill="white"/>
<path d="M241.864 270.362H237.965L232.776 261.884L227.545 270.362H223.915L230.792 259.616L224.355 249.634H228.126L232.918 257.475L237.71 249.634H241.368L234.889 259.672L241.864 270.362Z" fill="white"/>
<path d="M277.342 270.362H273.443L268.254 261.884L263.022 270.362H259.393L266.269 259.616L259.832 249.634H263.603L268.396 257.475L273.188 249.634H276.845L270.366 259.672L277.342 270.362Z" fill="white"/>
<path d="M300.34 270.362H296.441L291.252 261.884L286.021 270.362H282.391L289.267 259.616L282.831 249.634H286.602L291.394 257.475L296.186 249.634H299.844L293.365 259.672L300.34 270.362Z" fill="white"/>
<path d="M323.339 270.362H319.44L314.251 261.884L309.019 270.362H305.39L312.266 259.616L305.829 249.634H309.601L314.393 257.475L319.185 249.634H322.843L316.363 259.672L323.339 270.362Z" fill="white"/>
<path d="M346.338 270.362H342.439L337.25 261.884L332.018 270.362H328.388L335.265 259.616L328.828 249.634H332.599L337.391 257.475L342.183 249.634H345.841L339.362 259.672L346.338 270.362Z" fill="white"/>
<path d="M381.815 270.362H377.916L372.727 261.884L367.495 270.362H363.866L370.742 259.616L364.305 249.634H368.077L372.869 257.475L377.661 249.634H381.319L374.839 259.672L381.815 270.362Z" fill="white"/>
<path d="M404.814 270.362H400.915L395.726 261.884L390.494 270.362H386.864L393.741 259.616L387.304 249.634H391.075L395.867 257.475L400.659 249.634H404.317L397.838 259.672L404.814 270.362Z" fill="white"/>
<path d="M427.812 270.362H423.913L418.724 261.884L413.493 270.362H409.863L416.739 259.616L410.303 249.634H414.074L418.866 257.475L423.658 249.634H427.316L420.837 259.672L427.812 270.362Z" fill="white"/>
<path d="M450.811 270.362H446.912L441.723 261.884L436.491 270.362H432.862L439.738 259.616L433.301 249.634H437.073L441.865 257.475L446.657 249.634H450.315L443.835 259.672L450.811 270.362Z" fill="white"/>
<path d="M486.288 270.362H482.389L477.2 261.884L471.969 270.362H468.339L475.215 259.616L468.779 249.634H472.55L477.342 257.475L482.134 249.634H485.792L479.313 259.672L486.288 270.362Z" fill="white"/>
<path d="M509.287 270.362H505.388L500.199 261.884L494.967 270.362H491.338L498.214 259.616L491.777 249.634H495.548L500.341 257.475L505.133 249.634H508.79L502.311 259.672L509.287 270.362Z" fill="white"/>
<path d="M532.285 270.362H528.386L523.197 261.884L517.966 270.362H514.336L521.212 259.616L514.776 249.634H518.547L523.339 257.475L528.131 249.634H531.789L525.31 259.672L532.285 270.362Z" fill="white"/>
<path d="M555.284 270.362H551.385L546.196 261.884L540.964 270.362H537.335L544.211 259.616L537.774 249.634H541.546L546.338 257.475L551.13 249.634H554.788L548.309 259.672L555.284 270.362Z" fill="white"/>
<path d="M156.518 361.447C155.881 361.447 155.348 361.366 154.92 361.203V359.244C155.465 359.381 155.94 359.449 156.343 359.449C157.616 359.449 158.253 358.643 158.253 357.032V343.22H160.592V356.954C160.592 358.409 160.245 359.52 159.549 360.287C158.861 361.061 157.85 361.447 156.518 361.447Z" fill="white"/>
<path d="M173.605 352.061C173.605 353.822 173.153 355.196 172.25 356.184C171.347 357.171 170.089 357.665 168.478 357.665C167.471 357.665 166.58 357.438 165.807 356.983C165.034 356.528 164.439 355.875 164.023 355.024C163.608 354.172 163.4 353.185 163.4 352.061C163.4 350.313 163.848 348.948 164.745 347.967C165.641 346.986 166.905 346.495 168.536 346.495C170.096 346.495 171.331 346.999 172.24 348.006C173.15 349.006 173.605 350.358 173.605 352.061ZM165.758 352.061C165.758 354.549 166.678 355.794 168.517 355.794C170.336 355.794 171.246 354.549 171.246 352.061C171.246 349.598 170.33 348.366 168.497 348.366C167.536 348.366 166.837 348.685 166.402 349.322C165.973 349.958 165.758 350.871 165.758 352.061Z" fill="white"/>
<path d="M183.489 354.4C183.489 355.453 183.105 356.262 182.338 356.827C181.572 357.386 180.474 357.665 179.044 357.665C177.608 357.665 176.454 357.448 175.584 357.012V355.033C176.851 355.618 178.03 355.911 179.122 355.911C180.532 355.911 181.237 355.485 181.237 354.634C181.237 354.361 181.159 354.133 181.003 353.952C180.847 353.77 180.59 353.581 180.233 353.386C179.876 353.191 179.379 352.97 178.742 352.723C177.501 352.243 176.659 351.762 176.217 351.281C175.782 350.8 175.564 350.176 175.564 349.409C175.564 348.487 175.935 347.772 176.675 347.265C177.423 346.752 178.436 346.495 179.716 346.495C180.984 346.495 182.183 346.752 183.313 347.265L182.572 348.99C181.409 348.509 180.431 348.269 179.639 348.269C178.43 348.269 177.826 348.613 177.826 349.302C177.826 349.64 177.981 349.926 178.293 350.16C178.612 350.394 179.301 350.715 180.36 351.125C181.25 351.469 181.897 351.784 182.299 352.07C182.702 352.356 183.001 352.688 183.196 353.065C183.391 353.435 183.489 353.88 183.489 354.4Z" fill="white"/>
<path d="M195.458 357.47H193.158V350.842C193.158 350.01 192.989 349.39 192.651 348.98C192.32 348.571 191.79 348.366 191.062 348.366C190.101 348.366 189.392 348.656 188.937 349.234C188.489 349.806 188.265 350.767 188.265 352.119V357.47H185.974V342.304H188.265V346.154C188.265 346.771 188.226 347.431 188.148 348.132H188.294C188.606 347.613 189.038 347.21 189.59 346.924C190.149 346.638 190.799 346.495 191.54 346.495C194.152 346.495 195.458 347.811 195.458 350.443V357.47Z" fill="white"/>
<path d="M206.248 357.47L205.927 356.057H205.81C205.491 356.557 205.037 356.95 204.445 357.236C203.86 357.522 203.191 357.665 202.437 357.665C201.131 357.665 200.156 357.34 199.513 356.691C198.87 356.041 198.548 355.056 198.548 353.737V346.69H200.858V353.337C200.858 354.163 201.027 354.783 201.365 355.199C201.703 355.609 202.233 355.813 202.954 355.813C203.916 355.813 204.621 355.527 205.069 354.956C205.524 354.377 205.751 353.412 205.751 352.061V346.69H208.052V357.47H206.248Z" fill="white"/>
<path d="M218.062 357.47L217.604 355.969H217.526C217.006 356.626 216.483 357.074 215.957 357.314C215.43 357.548 214.754 357.665 213.929 357.665C212.87 357.665 212.042 357.379 211.444 356.807C210.852 356.236 210.557 355.427 210.557 354.38C210.557 353.269 210.969 352.431 211.795 351.866C212.62 351.3 213.877 350.992 215.567 350.94L217.428 350.881V350.306C217.428 349.617 217.266 349.104 216.941 348.766C216.623 348.422 216.126 348.249 215.45 348.249C214.897 348.249 214.368 348.331 213.861 348.493C213.354 348.656 212.867 348.847 212.399 349.068L211.658 347.431C212.243 347.125 212.883 346.895 213.578 346.739C214.274 346.576 214.93 346.495 215.547 346.495C216.918 346.495 217.952 346.794 218.647 347.392C219.349 347.989 219.7 348.928 219.7 350.209V357.47H218.062ZM214.651 355.911C215.482 355.911 216.148 355.68 216.649 355.219C217.156 354.751 217.409 354.098 217.409 353.259V352.324L216.025 352.382C214.946 352.421 214.16 352.603 213.666 352.928C213.179 353.246 212.935 353.737 212.935 354.4C212.935 354.881 213.078 355.254 213.364 355.521C213.65 355.781 214.079 355.911 214.651 355.911Z" fill="white"/>
<path d="M228.326 343.22H232.556C234.519 343.22 235.935 343.506 236.806 344.078C237.683 344.649 238.122 345.553 238.122 346.787C238.122 347.619 237.907 348.311 237.479 348.863C237.05 349.416 236.432 349.763 235.627 349.906V350.004C236.627 350.192 237.362 350.566 237.829 351.125C238.304 351.677 238.541 352.428 238.541 353.376C238.541 354.657 238.093 355.661 237.196 356.388C236.306 357.11 235.064 357.47 233.472 357.47H228.326V343.22ZM230.655 349.107H232.897C233.872 349.107 234.584 348.954 235.032 348.649C235.48 348.337 235.705 347.811 235.705 347.07C235.705 346.401 235.461 345.917 234.973 345.618C234.493 345.319 233.726 345.169 232.673 345.169H230.655V349.107ZM230.655 350.998V355.511H233.131C234.106 355.511 234.84 355.326 235.334 354.956C235.834 354.579 236.085 353.987 236.085 353.182C236.085 352.441 235.831 351.892 235.324 351.534C234.818 351.177 234.047 350.998 233.014 350.998H230.655Z" fill="white"/>
<path d="M248.006 357.47L247.547 355.969H247.469C246.95 356.626 246.426 357.074 245.9 357.314C245.374 357.548 244.698 357.665 243.873 357.665C242.813 357.665 241.985 357.379 241.387 356.807C240.796 356.236 240.5 355.427 240.5 354.38C240.5 353.269 240.913 352.431 241.738 351.866C242.563 351.3 243.821 350.992 245.51 350.94L247.372 350.881V350.306C247.372 349.617 247.209 349.104 246.885 348.766C246.566 348.422 246.069 348.249 245.393 348.249C244.841 348.249 244.311 348.331 243.804 348.493C243.298 348.656 242.81 348.847 242.342 349.068L241.602 347.431C242.186 347.125 242.826 346.895 243.522 346.739C244.217 346.576 244.873 346.495 245.491 346.495C246.862 346.495 247.895 346.794 248.59 347.392C249.292 347.989 249.643 348.928 249.643 350.209V357.47H248.006ZM244.594 355.911C245.426 355.911 246.092 355.68 246.592 355.219C247.099 354.751 247.352 354.098 247.352 353.259V352.324L245.968 352.382C244.89 352.421 244.103 352.603 243.61 352.928C243.122 353.246 242.878 353.737 242.878 354.4C242.878 354.881 243.021 355.254 243.307 355.521C243.593 355.781 244.022 355.911 244.594 355.911Z" fill="white"/>
<path d="M260.082 354.4C260.082 355.453 259.699 356.262 258.932 356.827C258.165 357.386 257.067 357.665 255.638 357.665C254.201 357.665 253.048 357.448 252.177 357.012V355.033C253.444 355.618 254.624 355.911 255.716 355.911C257.126 355.911 257.831 355.485 257.831 354.634C257.831 354.361 257.753 354.133 257.597 353.952C257.441 353.77 257.184 353.581 256.827 353.386C256.469 353.191 255.972 352.97 255.335 352.723C254.094 352.243 253.253 351.762 252.811 351.281C252.376 350.8 252.158 350.176 252.158 349.409C252.158 348.487 252.528 347.772 253.269 347.265C254.016 346.752 255.03 346.495 256.31 346.495C257.577 346.495 258.776 346.752 259.907 347.265L259.166 348.99C258.003 348.509 257.025 348.269 256.232 348.269C255.024 348.269 254.419 348.613 254.419 349.302C254.419 349.64 254.575 349.926 254.887 350.16C255.205 350.394 255.894 350.715 256.953 351.125C257.844 351.469 258.49 351.784 258.893 352.07C259.296 352.356 259.595 352.688 259.79 353.065C259.985 353.435 260.082 353.88 260.082 354.4Z" fill="white"/>
<path d="M269.81 354.4C269.81 355.453 269.427 356.262 268.66 356.827C267.893 357.386 266.795 357.665 265.365 357.665C263.929 357.665 262.776 357.448 261.905 357.012V355.033C263.172 355.618 264.352 355.911 265.443 355.911C266.853 355.911 267.558 355.485 267.558 354.634C267.558 354.361 267.48 354.133 267.325 353.952C267.169 353.77 266.912 353.581 266.554 353.386C266.197 353.191 265.7 352.97 265.063 352.723C263.822 352.243 262.98 351.762 262.539 351.281C262.103 350.8 261.886 350.176 261.886 349.409C261.886 348.487 262.256 347.772 262.997 347.265C263.744 346.752 264.758 346.495 266.038 346.495C267.305 346.495 268.504 346.752 269.635 347.265L268.894 348.99C267.731 348.509 266.753 348.269 265.96 348.269C264.751 348.269 264.147 348.613 264.147 349.302C264.147 349.64 264.303 349.926 264.615 350.16C264.933 350.394 265.622 350.715 266.681 351.125C267.571 351.469 268.218 351.784 268.621 352.07C269.024 352.356 269.323 352.688 269.518 353.065C269.713 353.435 269.81 353.88 269.81 354.4Z" fill="white"/>
<path d="M485.155 344.945C483.631 344.945 482.438 344.501 481.575 343.615C480.719 342.723 480.291 341.498 480.291 339.938C480.291 338.337 480.689 337.079 481.487 336.163C482.284 335.248 483.38 334.79 484.774 334.79C486.068 334.79 487.09 335.183 487.84 335.968C488.59 336.754 488.966 337.835 488.966 339.211V340.337H482.435C482.464 341.288 482.721 342.02 483.206 342.534C483.69 343.042 484.373 343.296 485.253 343.296C485.832 343.296 486.369 343.243 486.865 343.137C487.368 343.025 487.905 342.841 488.478 342.587V344.28C487.97 344.522 487.456 344.693 486.936 344.794C486.417 344.894 485.823 344.945 485.155 344.945ZM484.774 336.367C484.113 336.367 483.581 336.577 483.179 336.996C482.783 337.416 482.547 338.027 482.47 338.83H486.919C486.907 338.021 486.712 337.41 486.334 336.996C485.956 336.577 485.436 336.367 484.774 336.367Z" fill="white"/>
<path d="M493.511 339.761L490.224 334.967H492.599L494.832 338.396L497.082 334.967H499.439L496.143 339.761L499.608 344.767H497.251L494.832 341.099L492.421 344.767H490.064L493.511 339.761Z" fill="white"/>
<path d="M506.298 344.945C505.057 344.945 504.094 344.499 503.409 343.607H503.285C503.368 344.434 503.409 344.936 503.409 345.113V349.127H501.327V334.967H503.01C503.058 335.15 503.155 335.587 503.303 336.278H503.409C504.059 335.286 505.034 334.79 506.333 334.79C507.556 334.79 508.507 335.233 509.187 336.119C509.872 337.005 510.214 338.248 510.214 339.849C510.214 341.45 509.866 342.7 509.169 343.598C508.478 344.496 507.521 344.945 506.298 344.945ZM505.793 336.491C504.966 336.491 504.36 336.733 503.976 337.218C503.598 337.702 503.409 338.476 503.409 339.539V339.849C503.409 341.043 503.598 341.908 503.976 342.446C504.354 342.977 504.972 343.243 505.828 343.243C506.549 343.243 507.104 342.948 507.494 342.357C507.884 341.766 508.079 340.925 508.079 339.832C508.079 338.733 507.884 337.903 507.494 337.342C507.11 336.775 506.543 336.491 505.793 336.491Z" fill="white"/>
<path d="M514.716 344.767H512.634V334.967H514.716V344.767ZM512.51 332.371C512.51 331.998 512.61 331.712 512.811 331.511C513.018 331.31 513.31 331.21 513.688 331.21C514.054 331.21 514.338 331.31 514.539 331.511C514.745 331.712 514.849 331.998 514.849 332.371C514.849 332.725 514.745 333.006 514.539 333.212C514.338 333.413 514.054 333.514 513.688 333.514C513.31 333.514 513.018 333.413 512.811 333.212C512.61 333.006 512.51 332.725 512.51 332.371Z" fill="white"/>
<path d="M522.673 334.79C523.093 334.79 523.438 334.819 523.71 334.878L523.506 336.819C523.211 336.748 522.904 336.713 522.585 336.713C521.752 336.713 521.075 336.984 520.555 337.528C520.041 338.071 519.784 338.777 519.784 339.646V344.767H517.702V334.967H519.333L519.607 336.695H519.714C520.039 336.11 520.461 335.646 520.981 335.304C521.507 334.961 522.071 334.79 522.673 334.79Z" fill="white"/>
<path d="M529.815 344.945C528.291 344.945 527.098 344.501 526.235 343.615C525.379 342.723 524.951 341.498 524.951 339.938C524.951 338.337 525.349 337.079 526.147 336.163C526.944 335.248 528.04 334.79 529.434 334.79C530.728 334.79 531.75 335.183 532.5 335.968C533.25 336.754 533.626 337.835 533.626 339.211V340.337H527.095C527.124 341.288 527.381 342.02 527.866 342.534C528.35 343.042 529.033 343.296 529.913 343.296C530.492 343.296 531.029 343.243 531.525 343.137C532.028 343.025 532.565 342.841 533.138 342.587V344.28C532.63 344.522 532.116 344.693 531.596 344.794C531.076 344.894 530.483 344.945 529.815 344.945ZM529.434 336.367C528.773 336.367 528.241 336.577 527.839 336.996C527.443 337.416 527.207 338.027 527.13 338.83H531.579C531.567 338.021 531.372 337.41 530.994 336.996C530.616 336.577 530.096 336.367 529.434 336.367Z" fill="white"/>
<path d="M542.575 341.976C542.575 342.933 542.227 343.669 541.53 344.182C540.833 344.691 539.834 344.945 538.535 344.945C537.229 344.945 536.18 344.747 535.389 344.351V342.552C536.541 343.084 537.613 343.35 538.605 343.35C539.887 343.35 540.528 342.963 540.528 342.189C540.528 341.941 540.457 341.734 540.316 341.568C540.174 341.403 539.941 341.232 539.616 341.055C539.291 340.877 538.839 340.676 538.26 340.452C537.132 340.015 536.367 339.578 535.965 339.141C535.569 338.703 535.371 338.136 535.371 337.439C535.371 336.6 535.708 335.951 536.381 335.49C537.061 335.023 537.982 334.79 539.146 334.79C540.298 334.79 541.388 335.023 542.416 335.49L541.742 337.058C540.685 336.621 539.796 336.402 539.075 336.402C537.976 336.402 537.427 336.716 537.427 337.342C537.427 337.649 537.569 337.909 537.852 338.121C538.142 338.334 538.768 338.627 539.731 338.999C540.54 339.312 541.128 339.598 541.494 339.858C541.86 340.118 542.132 340.419 542.309 340.762C542.487 341.099 542.575 341.503 542.575 341.976Z" fill="white"/>
<path d="M551.631 344.767H549.549V334.967H551.631V344.767ZM549.425 332.371C549.425 331.998 549.525 331.712 549.726 331.511C549.933 331.31 550.225 331.21 550.603 331.21C550.97 331.21 551.253 331.31 551.454 331.511C551.661 331.712 551.764 331.998 551.764 332.371C551.764 332.725 551.661 333.006 551.454 333.212C551.253 333.413 550.97 333.514 550.603 333.514C550.225 333.514 549.933 333.413 549.726 333.212C549.525 333.006 549.425 332.725 549.425 332.371Z" fill="white"/>
<path d="M563.239 344.767H561.148V338.742C561.148 337.986 560.995 337.421 560.687 337.049C560.386 336.677 559.905 336.491 559.243 336.491C558.363 336.491 557.719 336.751 557.311 337.271C556.904 337.791 556.7 338.662 556.7 339.885V344.767H554.618V334.967H556.248L556.54 336.252H556.647C556.942 335.785 557.362 335.425 557.905 335.171C558.448 334.917 559.051 334.79 559.713 334.79C562.064 334.79 563.239 335.986 563.239 338.378V344.767Z" fill="white"/>
<path d="M516.481 362.852L512.865 357.579H515.477L517.933 361.351L520.409 357.579H523.002L519.376 362.852L523.187 368.359H520.594L517.933 364.324L515.282 368.359H512.689L516.481 362.852Z" fill="white"/>
<path d="M527.476 362.852L523.86 357.579H526.472L528.928 361.351L531.404 357.579H533.997L530.371 362.852L534.182 368.359H531.589L528.928 364.324L526.277 368.359H523.684L527.476 362.852Z" fill="white"/>
<path d="M542.058 354.109L536.755 368.359H534.591L539.904 354.109H542.058Z" fill="white"/>
<path d="M546.269 362.852L542.652 357.579H545.265L547.721 361.351L550.197 357.579H552.789L549.163 362.852L552.975 368.359H550.382L547.721 364.324L545.07 368.359H542.477L546.269 362.852Z" fill="white"/>
<path d="M557.263 362.852L553.647 357.579H556.259L558.716 361.351L561.192 357.579H563.784L560.158 362.852L563.97 368.359H561.377L558.716 364.324L556.065 368.359H553.472L557.263 362.852Z" fill="white"/>
<path d="M154.92 179.972H160.001V171.454H163.709L168.261 179.972H173.87L168.766 170.632C171.5 169.459 173.013 167.077 173.013 163.792C173.013 159.016 169.857 155.942 164.401 155.942H154.92V179.972ZM160.001 167.37V160.096H163.427C166.36 160.096 167.78 161.398 167.78 163.792C167.78 166.174 166.36 167.37 163.45 167.37H160.001Z" fill="white"/>
<path d="M184.433 180.324C188.891 180.324 191.895 178.153 192.599 174.809L187.976 174.504C187.472 175.877 186.181 176.593 184.515 176.593C182.016 176.593 180.432 174.938 180.432 172.252V172.24H192.705V170.867C192.705 164.742 188.997 161.715 184.233 161.715C178.93 161.715 175.492 165.481 175.492 171.043C175.492 176.757 178.883 180.324 184.433 180.324ZM180.432 169.142C180.537 167.089 182.098 165.446 184.315 165.446C186.486 165.446 187.988 166.995 188 169.142H180.432Z" fill="white"/>
<path d="M210.962 167.089C210.516 163.768 207.841 161.715 203.288 161.715C198.677 161.715 195.638 163.85 195.65 167.323C195.638 170.022 197.339 171.77 200.859 172.474L203.98 173.096C205.553 173.413 206.268 173.988 206.292 174.892C206.268 175.959 205.107 176.722 203.359 176.722C201.575 176.722 200.39 175.959 200.085 174.493L195.169 174.751C195.638 178.2 198.571 180.324 203.347 180.324C208.017 180.324 211.361 177.942 211.373 174.387C211.361 171.782 209.659 170.222 206.163 169.506L202.901 168.849C201.223 168.485 200.601 167.91 200.613 167.042C200.601 165.962 201.822 165.258 203.37 165.258C205.107 165.258 206.139 166.209 206.386 167.37L210.962 167.089Z" fill="white"/>
<path d="M222.733 180.324C227.192 180.324 230.196 178.153 230.9 174.809L226.277 174.504C225.772 175.877 224.482 176.593 222.815 176.593C220.316 176.593 218.732 174.938 218.732 172.252V172.24H231.005V170.867C231.005 164.742 227.298 161.715 222.534 161.715C217.23 161.715 213.793 165.481 213.793 171.043C213.793 176.757 217.183 180.324 222.733 180.324ZM218.732 169.142C218.838 167.089 220.398 165.446 222.616 165.446C224.787 165.446 226.289 166.995 226.3 169.142H218.732Z" fill="white"/>
<path d="M243.853 161.95H240.462V157.632H235.464V161.95H233V165.704H235.464V175.091C235.441 178.623 237.846 180.371 241.472 180.218C242.762 180.172 243.677 179.913 244.182 179.749L243.396 176.03C243.149 176.077 242.621 176.194 242.152 176.194C241.155 176.194 240.462 175.818 240.462 174.434V165.704H243.853V161.95Z" fill="white"/>
<path d="M276.053 164.355C275.384 158.805 271.183 155.614 265.622 155.614C259.274 155.614 254.428 160.096 254.428 167.957C254.428 175.795 259.192 180.301 265.622 180.301C271.782 180.301 275.501 176.206 276.053 171.782L270.914 171.759C270.432 174.328 268.414 175.807 265.704 175.807C262.055 175.807 259.579 173.096 259.579 167.957C259.579 162.959 262.02 160.107 265.739 160.107C268.52 160.107 270.526 161.715 270.914 164.355H276.053Z" fill="white"/>
<path d="M284.741 180.312C287.405 180.312 289.13 179.151 290.01 177.473H290.15V179.972H294.891V167.816C294.891 163.522 291.253 161.715 287.241 161.715C282.923 161.715 280.083 163.78 279.391 167.065L284.014 167.441C284.354 166.244 285.422 165.364 287.217 165.364C288.918 165.364 289.892 166.221 289.892 167.699V167.769C289.892 168.931 288.66 169.084 285.527 169.389C281.961 169.717 278.757 170.914 278.757 174.938C278.757 178.505 281.303 180.312 284.741 180.312ZM286.173 176.863C284.636 176.863 283.533 176.147 283.533 174.774C283.533 173.366 284.694 172.674 286.454 172.428C287.546 172.275 289.329 172.017 289.927 171.618V173.53C289.927 175.42 288.367 176.863 286.173 176.863Z" fill="white"/>
<path d="M298.769 179.972H303.767V169.776C303.767 167.558 305.386 166.033 307.592 166.033C308.284 166.033 309.235 166.15 309.704 166.303V161.867C309.258 161.762 308.636 161.691 308.132 161.691C306.114 161.691 304.459 162.865 303.802 165.094H303.614V161.95H298.769V179.972Z" fill="white"/>
<path d="M318.091 180.265C321 180.265 322.514 178.588 323.206 177.086H323.417V179.972H328.345V155.942H323.359V164.977H323.206C322.537 163.51 321.094 161.715 318.079 161.715C314.125 161.715 310.781 164.789 310.781 170.984C310.781 177.015 313.984 180.265 318.091 180.265ZM319.675 176.288C317.222 176.288 315.885 174.105 315.885 170.961C315.885 167.84 317.199 165.693 319.675 165.693C322.103 165.693 323.464 167.746 323.464 170.961C323.464 174.176 322.08 176.288 319.675 176.288Z" fill="white"/>
</g>
<g filter="url(#filter1_d)">
<g filter="url(#filter2_dddd)">
<rect x="29.1099" y="222.001" width="367.557" height="219.564" rx="24" fill="white"/>
</g>
<mask id="mask2" mask-type="alpha" maskUnits="userSpaceOnUse" x="29" y="222" width="368" height="220">
<rect x="29.1099" y="222.001" width="367.557" height="219.564" rx="24" fill="white"/>
</mask>
<g mask="url(#mask2)">
</g>
</g>
<path d="M131.556 318.075C103.714 318.075 76.4933 326.571 66.3632 330.819V345.034H356.053V254.353C347.557 258.437 322.918 266.411 292.331 265.627C261.745 264.842 220.44 284.58 203.611 294.547C191.193 302.389 159.397 318.075 131.556 318.075Z" fill="url(#paint2_linear)"/>
<path d="M66.3632 330.819C76.4933 326.571 103.714 318.075 131.556 318.075C159.397 318.075 191.193 302.389 203.611 294.547C220.44 284.58 261.745 264.842 292.331 265.627C322.918 266.411 347.557 258.437 356.053 254.353" stroke="#DD285D" stroke-width="3.5"/>
<rect x="212.434" y="283.763" width="7.84271" height="7.84271" rx="3.92135" fill="#DD285D"/>
<rect x="63.4221" y="327.878" width="5.88203" height="5.88203" rx="2.94101" fill="#DD285D"/>
<g filter="url(#filter3_d)">
<rect x="347.72" y="247.49" width="14.5567" height="14.5567" rx="7" fill="#DD285D"/>
<rect x="348.72" y="248.49" width="12.5567" height="12.5567" rx="6" stroke="white" stroke-width="2"/>
</g>
<path d="M69.7893 396.655C68.7164 396.655 67.8726 397.035 67.2581 397.796C66.6435 398.556 66.3362 399.605 66.3362 400.944C66.3362 402.345 66.6305 403.405 67.219 404.124C67.8127 404.842 68.6695 405.202 69.7893 405.202C70.2737 405.202 70.7424 405.155 71.1956 405.061C71.6487 404.962 72.12 404.837 72.6096 404.686V406.288C71.7138 406.626 70.6982 406.796 69.5627 406.796C67.8909 406.796 66.607 406.29 65.7112 405.28C64.8153 404.264 64.3674 402.814 64.3674 400.928C64.3674 399.741 64.5836 398.702 65.0159 397.811C65.4534 396.921 66.0836 396.238 66.9065 395.764C67.7294 395.29 68.6956 395.053 69.8049 395.053C70.9716 395.053 72.0497 395.298 73.0393 395.788L72.3674 397.342C71.982 397.16 71.5732 397.001 71.1409 396.866C70.7138 396.725 70.2633 396.655 69.7893 396.655ZM79.5081 397.842C79.8778 397.842 80.1825 397.869 80.4221 397.921L80.2424 399.632C79.982 399.569 79.7112 399.538 79.4299 399.538C78.6956 399.538 78.0992 399.777 77.6409 400.257C77.1877 400.736 76.9612 401.358 76.9612 402.124V406.639H75.1252V397.999H76.5627L76.8049 399.522H76.8987C77.1851 399.007 77.5575 398.598 78.0159 398.296C78.4794 397.994 78.9768 397.842 79.5081 397.842ZM86.0549 406.796C84.7112 406.796 83.6591 406.405 82.8987 405.624C82.1435 404.837 81.7659 403.757 81.7659 402.382C81.7659 400.97 82.1174 399.861 82.8206 399.053C83.5237 398.246 84.4898 397.842 85.719 397.842C86.8596 397.842 87.7607 398.189 88.4221 398.882C89.0836 399.574 89.4143 400.527 89.4143 401.741V402.733H83.6565C83.6825 403.572 83.9091 404.217 84.3362 404.671C84.7633 405.119 85.3648 405.342 86.1409 405.342C86.6513 405.342 87.1252 405.296 87.5627 405.202C88.0055 405.103 88.4794 404.941 88.9846 404.717V406.21C88.5367 406.423 88.0836 406.574 87.6252 406.663C87.1669 406.751 86.6435 406.796 86.0549 406.796ZM85.719 399.233C85.1357 399.233 84.6669 399.418 84.3127 399.788C83.9638 400.158 83.7555 400.697 83.6877 401.405H87.6096C87.5992 400.691 87.4273 400.152 87.094 399.788C86.7607 399.418 86.3023 399.233 85.719 399.233ZM94.6643 406.796C93.5862 406.796 92.745 406.405 92.1409 405.624C91.5367 404.842 91.2346 403.746 91.2346 402.335C91.2346 400.918 91.5393 399.816 92.1487 399.03C92.7633 398.238 93.6122 397.842 94.6956 397.842C95.831 397.842 96.6956 398.262 97.2893 399.1H97.3831C97.2945 398.48 97.2502 397.991 97.2502 397.632V394.483H99.094V406.639H97.6565L97.3362 405.507H97.2502C96.6617 406.366 95.7997 406.796 94.6643 406.796ZM95.1565 405.311C95.9117 405.311 96.4612 405.1 96.8049 404.678C97.1487 404.251 97.3258 403.561 97.3362 402.608V402.35C97.3362 401.262 97.1591 400.488 96.8049 400.03C96.4508 399.572 95.8961 399.342 95.1409 399.342C94.495 399.342 93.9976 399.605 93.6487 400.132C93.2997 400.652 93.1252 401.397 93.1252 402.366C93.1252 403.324 93.2945 404.056 93.6331 404.561C93.9716 405.061 94.4794 405.311 95.1565 405.311ZM103.805 406.639H101.969V397.999H103.805V406.639ZM101.86 395.71C101.86 395.382 101.948 395.129 102.125 394.952C102.308 394.775 102.565 394.686 102.899 394.686C103.222 394.686 103.472 394.775 103.649 394.952C103.831 395.129 103.922 395.382 103.922 395.71C103.922 396.022 103.831 396.27 103.649 396.452C103.472 396.629 103.222 396.717 102.899 396.717C102.565 396.717 102.308 396.629 102.125 396.452C101.948 396.27 101.86 396.022 101.86 395.71ZM109.906 405.311C110.354 405.311 110.802 405.241 111.25 405.1V406.483C111.047 406.572 110.784 406.645 110.461 406.702C110.143 406.764 109.813 406.796 109.469 406.796C107.729 406.796 106.86 405.879 106.86 404.046V399.389H105.68V398.577L106.946 397.905L107.571 396.077H108.703V397.999H111.164V399.389H108.703V404.014C108.703 404.457 108.813 404.785 109.031 404.999C109.255 405.207 109.547 405.311 109.906 405.311ZM124.422 403.538C124.422 404.553 124.055 405.35 123.321 405.928C122.586 406.507 121.573 406.796 120.281 406.796C118.99 406.796 117.933 406.595 117.11 406.194V404.428C117.63 404.673 118.183 404.866 118.766 405.007C119.354 405.147 119.901 405.217 120.406 405.217C121.146 405.217 121.69 405.077 122.039 404.796C122.393 404.514 122.571 404.137 122.571 403.663C122.571 403.236 122.409 402.874 122.086 402.577C121.763 402.28 121.097 401.928 120.086 401.522C119.045 401.1 118.31 400.619 117.883 400.077C117.456 399.535 117.242 398.884 117.242 398.124C117.242 397.171 117.581 396.421 118.258 395.874C118.935 395.327 119.844 395.053 120.985 395.053C122.078 395.053 123.167 395.293 124.25 395.772L123.656 397.296C122.641 396.869 121.735 396.655 120.938 396.655C120.334 396.655 119.875 396.788 119.563 397.053C119.25 397.314 119.094 397.66 119.094 398.092C119.094 398.389 119.156 398.645 119.281 398.858C119.406 399.066 119.612 399.264 119.899 399.452C120.185 399.639 120.701 399.887 121.446 400.194C122.284 400.543 122.899 400.869 123.289 401.171C123.68 401.473 123.966 401.814 124.149 402.194C124.331 402.574 124.422 403.022 124.422 403.538ZM130.172 406.796C128.865 406.796 127.87 406.415 127.188 405.655C126.511 404.889 126.172 403.793 126.172 402.366C126.172 400.913 126.526 399.796 127.235 399.014C127.948 398.233 128.977 397.842 130.321 397.842C131.232 397.842 132.052 398.012 132.781 398.35L132.227 399.827C131.451 399.525 130.81 399.374 130.305 399.374C128.81 399.374 128.063 400.366 128.063 402.35C128.063 403.319 128.248 404.048 128.617 404.538C128.992 405.022 129.539 405.264 130.258 405.264C131.076 405.264 131.849 405.061 132.578 404.655V406.257C132.25 406.449 131.899 406.587 131.524 406.671C131.154 406.754 130.703 406.796 130.172 406.796ZM142.524 402.303C142.524 403.715 142.162 404.816 141.438 405.608C140.714 406.4 139.706 406.796 138.414 406.796C137.607 406.796 136.893 406.613 136.274 406.249C135.654 405.884 135.177 405.361 134.844 404.678C134.511 403.996 134.344 403.204 134.344 402.303C134.344 400.902 134.703 399.809 135.422 399.022C136.141 398.236 137.154 397.842 138.461 397.842C139.711 397.842 140.701 398.246 141.43 399.053C142.159 399.855 142.524 400.939 142.524 402.303ZM136.235 402.303C136.235 404.298 136.972 405.296 138.446 405.296C139.904 405.296 140.633 404.298 140.633 402.303C140.633 400.329 139.899 399.342 138.43 399.342C137.659 399.342 137.099 399.598 136.75 400.108C136.406 400.619 136.235 401.35 136.235 402.303ZM149.274 397.842C149.643 397.842 149.948 397.869 150.188 397.921L150.008 399.632C149.748 399.569 149.477 399.538 149.196 399.538C148.461 399.538 147.865 399.777 147.406 400.257C146.953 400.736 146.727 401.358 146.727 402.124V406.639H144.891V397.999H146.328L146.571 399.522H146.664C146.951 399.007 147.323 398.598 147.781 398.296C148.245 397.994 148.742 397.842 149.274 397.842ZM155.821 406.796C154.477 406.796 153.425 406.405 152.664 405.624C151.909 404.837 151.531 403.757 151.531 402.382C151.531 400.97 151.883 399.861 152.586 399.053C153.289 398.246 154.255 397.842 155.485 397.842C156.625 397.842 157.526 398.189 158.188 398.882C158.849 399.574 159.18 400.527 159.18 401.741V402.733H153.422C153.448 403.572 153.675 404.217 154.102 404.671C154.529 405.119 155.13 405.342 155.906 405.342C156.417 405.342 156.891 405.296 157.328 405.202C157.771 405.103 158.245 404.941 158.75 404.717V406.21C158.302 406.423 157.849 406.574 157.391 406.663C156.933 406.751 156.409 406.796 155.821 406.796ZM155.485 399.233C154.901 399.233 154.433 399.418 154.078 399.788C153.729 400.158 153.521 400.697 153.453 401.405H157.375C157.365 400.691 157.193 400.152 156.86 399.788C156.526 399.418 156.068 399.233 155.485 399.233Z" fill="#4F5665"/>
<path d="M71.3932 380.183C75.0836 380.183 77.6574 377.677 77.6574 374.208C77.6574 370.85 75.3222 368.43 72.1518 368.43C70.737 368.43 69.4842 368.992 68.8364 369.759H68.7342L69.237 365.132H76.7455V362.49H66.6205L65.7086 371.49L68.5637 371.958C69.1518 371.311 70.2597 370.876 71.308 370.884C73.2256 370.893 74.6063 372.308 74.5978 374.285C74.6063 376.237 73.2597 377.626 71.3932 377.626C69.8165 377.626 68.5467 376.629 68.4359 375.197H65.3677C65.4529 378.095 67.9842 380.183 71.3932 380.183ZM87.1546 380.183C90.9217 380.208 93.4529 377.617 93.4444 374.166C93.4529 370.867 91.1006 368.481 88.041 368.481C86.166 368.481 84.5126 369.393 83.6773 370.893H83.558C83.5665 367.22 84.9131 364.987 87.3336 364.987C88.8336 364.987 89.8478 365.856 90.1717 367.194H93.2824C92.9074 364.373 90.6319 362.251 87.3336 362.251C83.1404 362.251 80.4898 365.745 80.4898 371.711C80.4813 378.112 83.8052 380.166 87.1546 380.183ZM87.1376 377.626C85.2711 377.626 83.9074 376.083 83.8989 374.259C83.916 372.427 85.3307 370.893 87.1802 370.893C89.0296 370.893 90.3847 372.359 90.3762 374.234C90.3847 376.143 88.987 377.626 87.1376 377.626ZM103.027 380.277C107.237 380.285 109.751 376.961 109.751 371.234C109.751 365.541 107.22 362.251 103.027 362.251C98.8336 362.251 96.3109 365.532 96.3023 371.234C96.3023 376.953 98.8165 380.277 103.027 380.277ZM103.027 377.609C100.853 377.609 99.4898 375.427 99.4984 371.234C99.5069 367.075 100.862 364.884 103.027 364.884C105.2 364.884 106.555 367.075 106.564 371.234C106.564 375.427 105.209 377.609 103.027 377.609Z" fill="#DD285D"/>
<path d="M308.736 380.367H312.018L319.433 365.614V362.912H307.543V365.554H316.16V365.674L308.736 380.367ZM328.259 362.674C324.474 362.648 321.96 365.248 321.96 368.657C321.969 371.946 324.312 374.324 327.372 374.324C329.256 374.324 330.892 373.412 331.736 371.912H331.855C331.847 375.645 330.491 377.87 328.08 377.87C326.571 377.87 325.557 377 325.241 375.611H322.131C322.489 378.5 324.773 380.606 328.08 380.606C332.264 380.606 334.932 377.111 334.923 371.103C334.915 364.745 331.608 362.691 328.259 362.674ZM328.267 365.231C330.134 365.231 331.506 366.782 331.506 368.563C331.514 370.37 330.074 371.921 328.233 371.921C326.375 371.921 325.037 370.455 325.028 368.588C325.028 366.713 326.418 365.231 328.267 365.231ZM344.463 380.699C348.673 380.708 351.187 377.384 351.187 371.657C351.187 365.963 348.656 362.674 344.463 362.674C340.27 362.674 337.747 365.955 337.739 371.657C337.739 377.375 340.253 380.699 344.463 380.699ZM344.463 378.032C342.29 378.032 340.926 375.85 340.935 371.657C340.943 367.498 342.298 365.307 344.463 365.307C346.636 365.307 347.991 367.498 348 371.657C348 375.85 346.645 378.032 344.463 378.032Z" fill="#DD285D"/>
<path d="M289.223 369.864L282.365 375.873C281.966 376.222 281.926 376.829 282.276 377.228C282.625 377.627 283.232 377.667 283.631 377.317L291.314 370.585C291.751 370.202 291.75 369.522 291.313 369.14L283.63 362.427C283.231 362.078 282.624 362.119 282.275 362.518C281.926 362.918 281.967 363.525 282.366 363.874L289.223 369.864Z" fill="#DD285D"/>
<rect x="125.183" y="369.052" width="164.697" height="0.980338" fill="#DD285D" stroke="#DD285D"/>
<path fill-rule="evenodd" clip-rule="evenodd" d="M497.034 435.964C512.876 432.64 546.496 456.785 542.658 475.893C538.821 495 497.588 507.737 482.68 495.269C467.772 482.801 481.192 439.287 497.034 435.964Z" fill="url(#paint3_linear)"/>
<mask id="mask3" mask-type="alpha" maskUnits="userSpaceOnUse" x="469" y="431" width="82" height="80">
<path fill-rule="evenodd" clip-rule="evenodd" d="M497.034 435.964C512.876 432.64 546.496 456.785 542.658 475.893C538.821 495 497.588 507.737 482.68 495.269C467.772 482.801 481.192 439.287 497.034 435.964Z" fill="white"/>
</mask>
<g mask="url(#mask3)">
</g>
<path fill-rule="evenodd" clip-rule="evenodd" d="M302.516 93.3159C281.022 104.196 223.391 82.4358 221.548 53.4896C219.705 24.5434 274.074 -9.64927 300.308 2.53169C326.542 14.7127 324.01 82.4358 302.516 93.3159Z" fill="url(#paint4_linear)"/>
<mask id="mask4" mask-type="alpha" maskUnits="userSpaceOnUse" x="221" y="0" width="99" height="97">
<path fill-rule="evenodd" clip-rule="evenodd" d="M302.516 93.3159C281.022 104.196 223.391 82.4358 221.548 53.4896C219.705 24.5434 274.074 -9.64927 300.308 2.53169C326.542 14.7127 324.01 82.4358 302.516 93.3159Z" fill="white"/>
</mask>
<g mask="url(#mask4)">
</g>
<defs>
<filter id="filter0_d" x="112.01" y="108.968" width="510.022" height="306.769" filterUnits="userSpaceOnUse" color-interpolation-filters="sRGB">
<feFlood flood-opacity="0" result="BackgroundImageFix"/>
<feColorMatrix in="SourceAlpha" type="matrix" values="0 0 0 0 0 0 0 0 0 0 0 0 0 0 0 0 0 0 127 0"/>
<feOffset dx="8"/>
<feGaussianBlur stdDeviation="10"/>
<feColorMatrix type="matrix" values="0 0 0 0 0 0 0 0 0 0 0 0 0 0 0 0 0 0 0.1 0"/>
<feBlend mode="normal" in2="BackgroundImageFix" result="effect1_dropShadow"/>
<feBlend mode="normal" in="SourceGraphic" in2="effect1_dropShadow" result="shape"/>
</filter>
<filter id="filter1_d" x="0.109863" y="198.001" width="417.557" height="269.564" filterUnits="userSpaceOnUse" color-interpolation-filters="sRGB">
<feFlood flood-opacity="0" result="BackgroundImageFix"/>
<feColorMatrix in="SourceAlpha" type="matrix" values="0 0 0 0 0 0 0 0 0 0 0 0 0 0 0 0 0 0 127 0"/>
<feOffset dx="-4" dy="1"/>
<feGaussianBlur stdDeviation="12.5"/>
<feColorMatrix type="matrix" values="0 0 0 0 0.620833 0 0 0 0 0.620833 0 0 0 0 0.620833 0 0 0 0.1 0"/>
<feBlend mode="normal" in2="BackgroundImageFix" result="effect1_dropShadow"/>
<feBlend mode="normal" in="SourceGraphic" in2="effect1_dropShadow" result="shape"/>
</filter>
<filter id="filter2_dddd" x="19.1099" y="222.001" width="476.557" height="328.564" filterUnits="userSpaceOnUse" color-interpolation-filters="sRGB">
<feFlood flood-opacity="0" result="BackgroundImageFix"/>
<feColorMatrix in="SourceAlpha" type="matrix" values="0 0 0 0 0 0 0 0 0 0 0 0 0 0 0 0 0 0 127 0"/>
<feOffset dx="55" dy="65"/>
<feGaussianBlur stdDeviation="22"/>
<feColorMatrix type="matrix" values="0 0 0 0 0.770833 0 0 0 0 0.408613 0 0 0 0 0.305122 0 0 0 0.13 0"/>
<feBlend mode="normal" in2="BackgroundImageFix" result="effect1_dropShadow"/>
<feColorMatrix in="SourceAlpha" type="matrix" values="0 0 0 0 0 0 0 0 0 0 0 0 0 0 0 0 0 0 127 0"/>
<feOffset dx="20" dy="30"/>
<feGaussianBlur stdDeviation="15"/>
<feColorMatrix type="matrix" values="0 0 0 0 0.4 0 0 0 0 0.244444 0 0 0 0 0.2 0 0 0 0.06 0"/>
<feBlend mode="normal" in2="effect1_dropShadow" result="effect2_dropShadow"/>
<feColorMatrix in="SourceAlpha" type="matrix" values="0 0 0 0 0 0 0 0 0 0 0 0 0 0 0 0 0 0 127 0"/>
<feOffset dx="10" dy="20"/>
<feGaussianBlur stdDeviation="10"/>
<feColorMatrix type="matrix" values="0 0 0 0 0.4 0 0 0 0 0.244444 0 0 0 0 0.2 0 0 0 0.04 0"/>
<feBlend mode="normal" in2="effect2_dropShadow" result="effect3_dropShadow"/>
<feColorMatrix in="SourceAlpha" type="matrix" values="0 0 0 0 0 0 0 0 0 0 0 0 0 0 0 0 0 0 127 0"/>
<feOffset dx="1" dy="10"/>
<feGaussianBlur stdDeviation="5"/>
<feColorMatrix type="matrix" values="0 0 0 0 0.4 0 0 0 0 0.244444 0 0 0 0 0.2 0 0 0 0.02 0"/>
<feBlend mode="normal" in2="effect3_dropShadow" result="effect4_dropShadow"/>
<feBlend mode="normal" in="SourceGraphic" in2="effect4_dropShadow" result="shape"/>
</filter>
<filter id="filter3_d" x="343.72" y="245.49" width="22.5567" height="22.5567" filterUnits="userSpaceOnUse" color-interpolation-filters="sRGB">
<feFlood flood-opacity="0" result="BackgroundImageFix"/>
<feColorMatrix in="SourceAlpha" type="matrix" values="0 0 0 0 0 0 0 0 0 0 0 0 0 0 0 0 0 0 127 0"/>
<feOffset dy="2"/>
<feGaussianBlur stdDeviation="2"/>
<feColorMatrix type="matrix" values="0 0 0 0 0.268354 0 0 0 0 0.268354 0 0 0 0 0.31049 0 0 0 0.15 0"/>
<feBlend mode="normal" in2="BackgroundImageFix" result="effect1_dropShadow"/>
<feBlend mode="normal" in="SourceGraphic" in2="effect1_dropShadow" result="shape"/>
</filter>
<linearGradient id="paint0_linear" x1="58.9929" y1="273.032" x2="614.372" y2="273.032" gradientUnits="userSpaceOnUse">
<stop stop-color="#F4F4F4"/>
<stop offset="1" stop-color="#FF447B"/>
</linearGradient>
<linearGradient id="paint1_linear" x1="173.599" y1="104.716" x2="516.536" y2="482.803" gradientUnits="userSpaceOnUse">
<stop stop-color="#F96D96"/>
<stop offset="1" stop-color="#BA1D4B"/>
</linearGradient>
<linearGradient id="paint2_linear" x1="211.453" y1="149.457" x2="211.453" y2="332.29" gradientUnits="userSpaceOnUse">
<stop stop-color="#DD285D"/>
<stop offset="1" stop-color="white"/>
</linearGradient>
<linearGradient id="paint3_linear" x1="541.748" y1="479.409" x2="478.269" y2="462.4" gradientUnits="userSpaceOnUse">
<stop stop-color="#F4F4F4"/>
<stop offset="1" stop-color="#FF447B"/>
</linearGradient>
<linearGradient id="paint4_linear" x1="221.502" y1="48.0835" x2="319.31" y2="48.0835" gradientUnits="userSpaceOnUse">
<stop stop-color="#F4F4F4"/>
<stop offset="1" stop-color="#FF447B"/>
</linearGradient>
</defs>
</svg>
