<svg width="261" height="415" viewBox="0 0 261 415" fill="none" xmlns="http://www.w3.org/2000/svg">
<rect x="261" y="411.955" width="261" height="411.955" rx="12" transform="rotate(-180 261 411.955)" fill="#E73E70"/>
<mask id="mask0" mask-type="alpha" maskUnits="userSpaceOnUse" x="0" y="0" width="261" height="412">
<rect x="261" y="411.955" width="261" height="411.955" rx="12" transform="rotate(-180 261 411.955)" fill="#E73E70"/>
</mask>
<g mask="url(#mask0)">
<path d="M129.945 225.557C138.169 335.7 189.913 367.485 214.757 369.61L262.416 369.61L262.416 37.7211L-0.0448784 37.7211C64.2765 63.3917 119.664 87.8774 129.945 225.557Z" fill="url(#paint0_linear)"/>
<path d="M78.927 194.025C74.9543 66.2351 49.9602 29.3579 37.9598 26.893L14.9385 26.893L14.9385 411.955L141.717 411.955C110.647 382.172 83.8928 353.763 78.927 194.025Z" fill="url(#paint1_linear)"/>
<path d="M113.323 361.342C26.9072 364.485 1.96954 384.254 0.30272 393.746L0.302717 411.955L260.695 411.955L260.695 311.678C240.554 336.253 221.343 357.415 113.323 361.342Z" fill="url(#paint2_linear)"/>
<path d="M147.675 103.107C234.091 96.7055 259.029 56.4316 260.695 37.0948L260.695 -0.000137329L0.303515 -0.000160093L0.303497 204.282C20.444 154.219 39.6549 111.108 147.675 103.107Z" fill="url(#paint3_linear)"/>
</g>
<g opacity="0.5">
<rect y="1.52588e-05" width="261" height="414.316" rx="12" fill="#E73E70"/>
<mask id="mask1" mask-type="alpha" maskUnits="userSpaceOnUse" x="0" y="0" width="261" height="415">
<rect y="0.000106812" width="261" height="414.316" rx="12" fill="#E73E70"/>
</mask>
<g mask="url(#mask1)">
<path d="M131.053 187.466C122.829 76.6915 71.0852 44.7245 46.2414 42.5878L-1.41797 42.5878L-1.41801 376.378L261.043 376.379C196.722 350.561 141.334 325.935 131.053 187.466Z" fill="url(#paint4_linear)"/>
<path d="M182.073 219.179C186.046 347.701 211.04 384.79 223.04 387.269L246.061 387.269L246.061 3.60275e-05L119.283 3.05176e-05C150.353 29.9541 177.107 58.5256 182.073 219.179Z" fill="url(#paint5_linear)"/>
<path d="M147.677 50.9028C234.093 47.7426 259.03 27.8597 260.697 18.3133L260.697 -0.00012207L0.305438 -0.000167729L0.30542 100.852C20.446 76.1364 39.6569 54.8532 147.677 50.9028Z" fill="url(#paint6_linear)"/>
<path d="M113.325 310.618C26.9091 317.056 1.97149 357.561 0.304673 377.009L0.30467 414.316L260.697 414.316L260.697 208.863C240.556 259.213 221.345 302.571 113.325 310.618Z" fill="url(#paint7_linear)"/>
</g>
</g>
<path d="M35.378 45L34.65 42.62H31.01L30.282 45H28L31.528 34.962H34.118L37.66 45H35.378ZM33.418 38.518C33.3713 38.3593 33.3107 38.1587 33.236 37.916C33.1613 37.6733 33.0867 37.426 33.012 37.174C32.9373 36.922 32.8767 36.7027 32.83 36.516C32.7833 36.7027 32.718 36.936 32.634 37.216C32.5593 37.4867 32.4847 37.748 32.41 38C32.3447 38.2427 32.2933 38.4153 32.256 38.518L31.542 40.842H34.146L33.418 38.518ZM40.578 45L37.666 37.356H39.85L41.32 41.71C41.404 41.9713 41.4693 42.242 41.516 42.522C41.572 42.802 41.6047 43.054 41.614 43.278H41.67C41.698 42.774 41.8007 42.2513 41.978 41.71L43.448 37.356H45.632L42.72 45H40.578ZM49.8647 37.202C50.8914 37.202 51.6754 37.426 52.2167 37.874C52.7674 38.3127 53.0427 38.9893 53.0427 39.904V45H51.5867L51.1807 43.964H51.1247C50.7981 44.3747 50.4527 44.6733 50.0887 44.86C49.7247 45.0467 49.2254 45.14 48.5907 45.14C47.9094 45.14 47.3447 44.944 46.8967 44.552C46.4487 44.1507 46.2247 43.5393 46.2247 42.718C46.2247 41.906 46.5094 41.3087 47.0787 40.926C47.6481 40.534 48.5021 40.3193 49.6407 40.282L50.9707 40.24V39.904C50.9707 39.5027 50.8634 39.2087 50.6487 39.022C50.4434 38.8353 50.1541 38.742 49.7807 38.742C49.4074 38.742 49.0434 38.798 48.6887 38.91C48.3341 39.0127 47.9794 39.1433 47.6247 39.302L46.9387 37.888C47.3494 37.6733 47.8021 37.5053 48.2967 37.384C48.8007 37.2627 49.3234 37.202 49.8647 37.202ZM50.1587 41.486C49.4867 41.5047 49.0201 41.626 48.7587 41.85C48.4974 42.074 48.3667 42.368 48.3667 42.732C48.3667 43.0493 48.4601 43.278 48.6467 43.418C48.8334 43.5487 49.0761 43.614 49.3747 43.614C49.8227 43.614 50.2007 43.4833 50.5087 43.222C50.8167 42.9513 50.9707 42.5733 50.9707 42.088V41.458L50.1587 41.486ZM56.2279 34.36C56.5359 34.36 56.8019 34.4347 57.0259 34.584C57.2499 34.724 57.3619 34.99 57.3619 35.382C57.3619 35.7647 57.2499 36.0307 57.0259 36.18C56.8019 36.3293 56.5359 36.404 56.2279 36.404C55.9106 36.404 55.6399 36.3293 55.4159 36.18C55.2013 36.0307 55.0939 35.7647 55.0939 35.382C55.0939 34.99 55.2013 34.724 55.4159 34.584C55.6399 34.4347 55.9106 34.36 56.2279 34.36ZM57.2639 37.356V45H55.1779V37.356H57.2639ZM61.5296 45H59.4436V34.36H61.5296V45ZM63.4152 44.02C63.4152 43.5907 63.5319 43.292 63.7652 43.124C63.9985 42.9467 64.2832 42.858 64.6192 42.858C64.9459 42.858 65.2259 42.9467 65.4592 43.124C65.6925 43.292 65.8092 43.5907 65.8092 44.02C65.8092 44.4307 65.6925 44.7293 65.4592 44.916C65.2259 45.0933 64.9459 45.182 64.6192 45.182C64.2832 45.182 63.9985 45.0933 63.7652 44.916C63.5319 44.7293 63.4152 44.4307 63.4152 44.02ZM71.5061 45V35.004H73.6201V43.25H77.6801V45H71.5061ZM80.3041 34.36C80.6121 34.36 80.8781 34.4347 81.1021 34.584C81.3261 34.724 81.4381 34.99 81.4381 35.382C81.4381 35.7647 81.3261 36.0307 81.1021 36.18C80.8781 36.3293 80.6121 36.404 80.3041 36.404C79.9868 36.404 79.7161 36.3293 79.4921 36.18C79.2774 36.0307 79.1701 35.7647 79.1701 35.382C79.1701 34.99 79.2774 34.724 79.4921 34.584C79.7161 34.4347 79.9868 34.36 80.3041 34.36ZM81.3401 37.356V45H79.2541V37.356H81.3401ZM92.4937 37.216C93.3617 37.216 94.0151 37.44 94.4537 37.888C94.9017 38.3267 95.1257 39.036 95.1257 40.016V45H93.0397V40.534C93.0397 39.4327 92.6571 38.882 91.8917 38.882C91.3411 38.882 90.9491 39.078 90.7157 39.47C90.4824 39.862 90.3657 40.4267 90.3657 41.164V45H88.2797V40.534C88.2797 39.4327 87.8971 38.882 87.1317 38.882C86.5531 38.882 86.1517 39.1013 85.9277 39.54C85.7131 39.9693 85.6057 40.59 85.6057 41.402V45H83.5197V37.356H85.1157L85.3957 38.336H85.5077C85.7411 37.944 86.0584 37.6593 86.4597 37.482C86.8704 37.3047 87.2951 37.216 87.7337 37.216C88.2937 37.216 88.7697 37.3093 89.1617 37.496C89.5537 37.6733 89.8524 37.9533 90.0577 38.336H90.2397C90.4731 37.944 90.7951 37.6593 91.2057 37.482C91.6257 37.3047 92.0551 37.216 92.4937 37.216ZM98.3236 34.36C98.6316 34.36 98.8976 34.4347 99.1216 34.584C99.3456 34.724 99.4576 34.99 99.4576 35.382C99.4576 35.7647 99.3456 36.0307 99.1216 36.18C98.8976 36.3293 98.6316 36.404 98.3236 36.404C98.0063 36.404 97.7356 36.3293 97.5116 36.18C97.297 36.0307 97.1896 35.7647 97.1896 35.382C97.1896 34.99 97.297 34.724 97.5116 34.584C97.7356 34.4347 98.0063 34.36 98.3236 34.36ZM99.3596 37.356V45H97.2736V37.356H99.3596ZM104.759 43.474C104.993 43.474 105.217 43.4507 105.431 43.404C105.646 43.3573 105.861 43.3013 106.075 43.236V44.79C105.851 44.8833 105.571 44.9627 105.235 45.028C104.909 45.1027 104.549 45.14 104.157 45.14C103.7 45.14 103.289 45.0653 102.925 44.916C102.571 44.7667 102.286 44.51 102.071 44.146C101.866 43.7727 101.763 43.2593 101.763 42.606V38.924H100.769V38.042L101.917 37.342L102.519 35.732H103.849V37.356H105.991V38.924H103.849V42.606C103.849 42.8953 103.933 43.1147 104.101 43.264C104.269 43.404 104.489 43.474 104.759 43.474Z" fill="white"/>
<g opacity="0.6">
<path d="M202.868 355.97C202.868 349.873 203.969 345.383 206.171 342.501C208.374 339.578 211.719 338.116 216.208 338.116C218.244 338.116 220.031 338.513 221.569 339.306C223.065 340.058 224.353 341.081 225.434 342.376C226.473 343.629 227.325 344.986 227.99 346.448L247.377 333.293L247.377 343.817L230.296 354.466L230.296 359.541L247.377 359.541L247.377 369L202.868 369L202.868 355.97ZM210.597 356.659L210.597 359.541L222.629 359.541L222.629 356.471C222.629 353.339 222.109 351.105 221.07 349.768C220.031 348.39 218.494 347.701 216.457 347.701C214.338 347.701 212.842 348.432 211.969 349.893C211.055 351.313 210.597 353.569 210.597 356.659Z" fill="white"/>
<path d="M212.717 314.301C212.717 309.582 214.068 305.844 216.769 303.088C219.429 300.332 223.231 298.954 228.177 298.954L232.665 298.954L232.665 321.004C235.283 320.921 237.34 320.148 238.836 318.687C240.332 317.183 241.081 315.116 241.081 312.485C241.081 310.271 240.873 308.267 240.457 306.471C240 304.675 239.314 302.817 238.4 300.895L245.569 300.895C246.4 302.566 247.003 304.341 247.377 306.22C247.792 308.058 248 310.292 248 312.923C248 316.348 247.377 319.376 246.13 322.007C244.842 324.638 242.909 326.705 240.332 328.209C237.756 329.712 234.514 330.464 230.608 330.464C226.618 330.464 223.314 329.796 220.696 328.459C218.036 327.081 216.042 325.181 214.712 322.758C213.382 320.336 212.717 317.517 212.717 314.301ZM219.325 314.239C219.325 316.035 219.906 317.538 221.07 318.749C222.234 319.919 224.042 320.608 226.494 320.816L226.494 307.724C224.416 307.766 222.712 308.308 221.382 309.353C220.01 310.397 219.325 312.025 219.325 314.239Z" fill="white"/>
<path d="M237.278 267.517C240.727 267.517 243.387 268.749 245.257 271.213C247.086 273.635 248 277.269 248 282.113C248 284.494 247.834 286.54 247.501 288.253C247.21 289.965 246.712 291.677 246.005 293.389L238.338 293.389C239.169 291.552 239.855 289.568 240.395 287.438C240.935 285.308 241.205 283.429 241.205 281.8C241.205 279.963 240.935 278.668 240.395 277.916C239.855 277.123 239.148 276.726 238.275 276.726C237.694 276.726 237.174 276.893 236.717 277.227C236.26 277.519 235.74 278.188 235.158 279.232C234.577 280.276 233.829 281.905 232.914 284.118C232 286.248 231.107 288.002 230.234 289.38C229.319 290.758 228.239 291.782 226.992 292.45C225.704 293.118 224.104 293.452 222.192 293.452C219.034 293.452 216.665 292.22 215.086 289.756C213.506 287.292 212.717 284.014 212.717 279.921C212.717 277.791 212.925 275.765 213.34 273.844C213.756 271.923 214.442 269.939 215.397 267.893L222.068 270.712C221.361 272.383 220.779 273.97 220.322 275.473C219.823 276.976 219.574 278.501 219.574 280.046C219.574 282.802 220.322 284.181 221.818 284.181C222.358 284.181 222.857 284.014 223.314 283.679C223.73 283.304 224.187 282.615 224.686 281.612C225.184 280.568 225.849 279.044 226.681 277.039C227.47 275.076 228.301 273.385 229.174 271.965C230.005 270.545 231.065 269.459 232.353 268.707C233.6 267.914 235.242 267.517 237.278 267.517Z" fill="white"/>
<path d="M212.717 246.151C212.717 241.432 214.068 237.694 216.769 234.938C219.429 232.181 223.231 230.803 228.177 230.803L232.665 230.803L232.665 252.854C235.283 252.77 237.34 251.998 238.836 250.536C240.332 249.033 241.081 246.965 241.081 244.334C241.081 242.121 240.873 240.116 240.457 238.32C240 236.525 239.314 234.666 238.4 232.745L245.569 232.745C246.4 234.415 247.003 236.19 247.377 238.07C247.792 239.907 248 242.142 248 244.773C248 248.197 247.377 251.225 246.13 253.856C244.842 256.487 242.909 258.555 240.332 260.058C237.756 261.562 234.514 262.313 230.608 262.313C226.618 262.313 223.314 261.645 220.696 260.309C218.036 258.93 216.042 257.03 214.712 254.608C213.382 252.186 212.717 249.367 212.717 246.151ZM219.325 246.088C219.325 247.884 219.906 249.388 221.07 250.599C222.234 251.768 224.042 252.457 226.494 252.666L226.494 239.573C224.416 239.615 222.712 240.158 221.382 241.202C220.01 242.246 219.325 243.875 219.325 246.088Z" fill="white"/>
<path d="M240.582 208.826C240.582 207.782 240.478 206.78 240.27 205.819C240.062 204.858 239.813 203.898 239.522 202.937L246.442 202.937C246.857 203.94 247.21 205.193 247.501 206.696C247.834 208.158 248 209.766 248 211.52C248 213.566 247.668 215.404 247.003 217.032C246.338 218.619 245.195 219.893 243.574 220.854C241.912 221.773 239.626 222.232 236.717 222.232L220.322 222.232L220.322 226.68L216.395 226.68L213.278 221.543L206.109 218.849L206.109 212.898L213.34 212.898L213.34 203.313L220.322 203.313L220.322 212.898L236.717 212.898C238.005 212.898 238.982 212.522 239.647 211.77C240.27 211.019 240.582 210.037 240.582 208.826Z" fill="white"/>
<path d="M210.099 160.066C210.099 163.699 211.449 166.477 214.151 168.398C216.852 170.319 220.551 171.279 225.247 171.279C229.984 171.279 233.662 170.402 236.281 168.648C238.857 166.852 240.145 163.992 240.145 160.066C240.145 158.228 239.938 156.412 239.522 154.616C239.106 152.778 238.525 150.795 237.777 148.665L245.694 148.665C246.483 150.627 247.065 152.569 247.439 154.491C247.813 156.412 248 158.562 248 160.943C248 165.537 247.065 169.337 245.195 172.344C243.283 175.309 240.623 177.502 237.216 178.922C233.766 180.342 229.756 181.052 225.184 181.052C220.696 181.052 216.727 180.237 213.278 178.609C209.829 176.98 207.127 174.62 205.174 171.53C203.221 168.398 202.244 164.576 202.244 160.066C202.244 157.852 202.535 155.639 203.117 153.426C203.657 151.17 204.405 149.02 205.361 146.973L213.029 150.043C212.239 151.713 211.553 153.405 210.971 155.117C210.39 156.788 210.099 158.437 210.099 160.066Z" fill="white"/>
<path d="M212.655 125.88C212.655 121.286 213.652 117.778 215.647 115.355C217.6 112.891 220.613 111.659 224.686 111.659L247.377 111.659L247.377 118.174L242.764 119.991L242.764 120.242C244.592 121.703 245.922 123.248 246.753 124.877C247.584 126.506 248 128.74 248 131.58C248 134.629 247.127 137.156 245.382 139.16C243.595 141.165 240.873 142.167 237.216 142.167C233.6 142.167 230.94 140.893 229.236 138.346C227.491 135.798 226.535 131.977 226.369 126.882L226.182 120.931L224.686 120.931C222.899 120.931 221.59 121.411 220.758 122.371C219.927 123.29 219.512 124.585 219.512 126.255C219.512 127.926 219.761 129.555 220.26 131.142C220.717 132.729 221.299 134.316 222.005 135.903L215.709 138.972C214.753 137.135 214.005 135.109 213.465 132.896C212.925 130.641 212.655 128.302 212.655 125.88ZM231.73 124.564C231.813 127.571 232.353 129.659 233.351 130.829C234.348 131.998 235.657 132.583 237.278 132.583C238.691 132.583 239.709 132.165 240.332 131.33C240.914 130.494 241.205 129.409 241.205 128.072C241.205 126.068 240.623 124.376 239.46 122.998C238.255 121.62 236.571 120.931 234.41 120.931L231.605 120.931L231.73 124.564Z" fill="white"/>
<path d="M212.717 82.9984C212.717 82.539 212.738 81.9961 212.779 81.3696C212.821 80.7432 212.883 80.242 212.966 79.8661L221.694 80.5552C221.61 80.8476 221.548 81.2861 221.506 81.8708C221.423 82.4137 221.382 82.8939 221.382 83.3116C221.382 84.8986 221.673 86.4229 222.255 87.8847C222.795 89.3464 223.688 90.5366 224.935 91.4554C226.182 92.3324 227.886 92.7709 230.047 92.7709L247.377 92.7709L247.377 102.105L213.34 102.105L213.34 95.0261L219.075 93.648L219.075 93.2094C217.33 92.2071 215.834 90.8289 214.587 89.0749C213.34 87.3208 212.717 85.2953 212.717 82.9984Z" fill="white"/>
<path d="M248 64.044C248 67.8444 246.525 70.9557 243.574 73.378C240.582 75.7585 236.197 76.9487 230.421 76.9487C224.603 76.9487 220.197 75.7376 217.205 73.3153C214.213 70.8931 212.717 67.7191 212.717 63.7934C212.717 61.3293 213.195 59.3038 214.151 57.7168C215.106 56.1298 216.291 54.8769 217.704 53.9582L217.704 53.645C217.039 53.7702 216.083 53.9164 214.836 54.0835C213.548 54.2505 212.239 54.334 210.909 54.334L200 54.334L200 45L247.377 45L247.377 52.1415L242.951 53.9582L242.951 54.334C244.364 55.2528 245.569 56.4848 246.566 58.0301C247.522 59.5753 248 61.5799 248 64.044ZM240.582 60.7864C240.582 58.1971 239.834 56.3804 238.338 55.3364C236.8 54.2923 234.514 53.7494 231.481 53.7076L230.483 53.7076C227.158 53.7076 224.623 54.2296 222.878 55.2737C221.132 56.276 220.26 58.1554 220.26 60.9117C220.26 62.9581 221.153 64.566 222.94 65.7354C224.686 66.9047 227.221 67.4894 230.545 67.4894C233.87 67.4894 236.384 66.9047 238.088 65.7354C239.751 64.566 240.582 62.9164 240.582 60.7864Z" fill="white"/>
</g>
<path d="M32.764 113.934C31.98 113.934 31.372 114.214 30.94 114.774C30.516 115.334 30.304 116.094 30.304 117.054C30.304 118.022 30.504 118.782 30.904 119.334C31.304 119.878 31.92 120.15 32.752 120.15C33.112 120.15 33.464 120.114 33.808 120.042C34.152 119.962 34.512 119.858 34.888 119.73V121.038C34.536 121.182 34.18 121.286 33.82 121.35C33.468 121.414 33.06 121.446 32.596 121.446C31.716 121.446 30.988 121.266 30.412 120.906C29.836 120.538 29.408 120.026 29.128 119.37C28.848 118.706 28.708 117.93 28.708 117.042C28.708 116.178 28.864 115.418 29.176 114.762C29.488 114.098 29.944 113.578 30.544 113.202C31.152 112.826 31.892 112.638 32.764 112.638C33.196 112.638 33.62 112.69 34.036 112.794C34.46 112.89 34.856 113.026 35.224 113.202L34.696 114.462C34.392 114.326 34.076 114.206 33.748 114.102C33.428 113.99 33.1 113.934 32.764 113.934ZM39.1812 114.702C40.0212 114.702 40.6572 114.886 41.0892 115.254C41.5292 115.622 41.7492 116.19 41.7492 116.958V121.326H40.6812L40.3812 120.426H40.3332C40.0532 120.778 39.7572 121.038 39.4452 121.206C39.1332 121.366 38.7092 121.446 38.1732 121.446C37.5892 121.446 37.1052 121.282 36.7212 120.954C36.3372 120.626 36.1452 120.118 36.1452 119.43C36.1452 118.758 36.3892 118.254 36.8772 117.918C37.3732 117.582 38.1212 117.394 39.1212 117.354L40.2492 117.318V116.994C40.2492 116.586 40.1492 116.294 39.9492 116.118C39.7492 115.934 39.4692 115.842 39.1092 115.842C38.7812 115.842 38.4652 115.89 38.1612 115.986C37.8652 116.082 37.5692 116.194 37.2732 116.322L36.7932 115.266C37.1132 115.098 37.4772 114.962 37.8852 114.858C38.3012 114.754 38.7332 114.702 39.1812 114.702ZM39.4572 118.278C38.7932 118.302 38.3332 118.418 38.0772 118.626C37.8212 118.826 37.6932 119.098 37.6932 119.442C37.6932 119.754 37.7812 119.978 37.9572 120.114C38.1412 120.242 38.3812 120.306 38.6772 120.306C39.1172 120.306 39.4892 120.182 39.7932 119.934C40.0972 119.678 40.2492 119.302 40.2492 118.806V118.254L39.4572 118.278ZM47.0519 114.702C47.1559 114.702 47.2679 114.706 47.3879 114.714C47.5159 114.722 47.6239 114.738 47.7119 114.762L47.5799 116.166C47.4999 116.15 47.4039 116.138 47.2919 116.13C47.1799 116.114 47.0799 116.106 46.9919 116.106C46.6719 116.106 46.3719 116.174 46.0919 116.31C45.8119 116.438 45.5839 116.642 45.4079 116.922C45.2399 117.194 45.1559 117.538 45.1559 117.954V121.326H43.6439V114.822H44.8079L45.0239 115.95H45.0959C45.2879 115.606 45.5519 115.314 45.8879 115.074C46.2239 114.826 46.6119 114.702 47.0519 114.702ZM50.8309 121.446C50.0709 121.446 49.4589 121.162 48.9949 120.594C48.5309 120.026 48.2989 119.19 48.2989 118.086C48.2989 116.966 48.5349 116.122 49.0069 115.554C49.4789 114.986 50.0989 114.702 50.8669 114.702C51.3469 114.702 51.7389 114.794 52.0429 114.978C52.3549 115.162 52.6029 115.386 52.7869 115.65H52.8589C52.8349 115.538 52.8109 115.366 52.7869 115.134C52.7629 114.902 52.7509 114.686 52.7509 114.486V112.206H54.2629V121.326H53.0869L52.8109 120.474H52.7509C52.5669 120.746 52.3229 120.978 52.0189 121.17C51.7149 121.354 51.3189 121.446 50.8309 121.446ZM51.2869 120.222C51.8469 120.222 52.2389 120.062 52.4629 119.742C52.6949 119.422 52.8149 118.938 52.8229 118.29V118.098C52.8229 117.402 52.7109 116.87 52.4869 116.502C52.2709 116.126 51.8629 115.938 51.2629 115.938C50.7989 115.938 50.4429 116.13 50.1949 116.514C49.9549 116.89 49.8349 117.422 49.8349 118.11C49.8349 118.798 49.9589 119.322 50.2069 119.682C50.4549 120.042 50.8149 120.222 51.2869 120.222ZM57.7067 114.378C57.7067 114.634 57.6947 114.886 57.6707 115.134C57.6547 115.374 57.6387 115.554 57.6227 115.674H57.7187C57.9267 115.346 58.1987 115.102 58.5347 114.942C58.8707 114.782 59.2427 114.702 59.6507 114.702C60.3867 114.702 60.9627 114.89 61.3787 115.266C61.7947 115.642 62.0027 116.25 62.0027 117.09V121.326H60.4907V117.39C60.4907 116.414 60.0907 115.926 59.2907 115.926C58.6827 115.926 58.2667 116.118 58.0427 116.502C57.8187 116.886 57.7067 117.434 57.7067 118.146V121.326H56.1947V112.206H57.7067V114.378ZM69.7019 118.062C69.7019 119.142 69.4219 119.978 68.8619 120.57C68.3019 121.154 67.5419 121.446 66.5819 121.446C65.9899 121.446 65.4619 121.314 64.9979 121.05C64.5339 120.786 64.1699 120.402 63.9059 119.898C63.6419 119.394 63.5099 118.782 63.5099 118.062C63.5099 116.982 63.7859 116.154 64.3379 115.578C64.8979 114.994 65.6579 114.702 66.6179 114.702C67.2179 114.702 67.7499 114.834 68.2139 115.098C68.6779 115.354 69.0419 115.734 69.3059 116.238C69.5699 116.734 69.7019 117.342 69.7019 118.062ZM65.0579 118.062C65.0579 118.75 65.1779 119.282 65.4179 119.658C65.6659 120.034 66.0619 120.222 66.6059 120.222C67.1499 120.222 67.5419 120.034 67.7819 119.658C68.0299 119.282 68.1539 118.75 68.1539 118.062C68.1539 117.374 68.0299 116.846 67.7819 116.478C67.5419 116.11 67.1459 115.926 66.5939 115.926C66.0579 115.926 65.6659 116.11 65.4179 116.478C65.1779 116.846 65.0579 117.374 65.0579 118.062ZM72.777 121.326H71.265V112.206H72.777V121.326ZM76.8583 121.446C76.0983 121.446 75.4863 121.162 75.0223 120.594C74.5583 120.026 74.3263 119.19 74.3263 118.086C74.3263 116.966 74.5623 116.122 75.0343 115.554C75.5063 114.986 76.1263 114.702 76.8943 114.702C77.3743 114.702 77.7663 114.794 78.0703 114.978C78.3823 115.162 78.6303 115.386 78.8143 115.65H78.8863C78.8623 115.538 78.8383 115.366 78.8143 115.134C78.7903 114.902 78.7783 114.686 78.7783 114.486V112.206H80.2903V121.326H79.1143L78.8383 120.474H78.7783C78.5943 120.746 78.3503 120.978 78.0463 121.17C77.7423 121.354 77.3463 121.446 76.8583 121.446ZM77.3143 120.222C77.8743 120.222 78.2663 120.062 78.4903 119.742C78.7223 119.422 78.8423 118.938 78.8503 118.29V118.098C78.8503 117.402 78.7383 116.87 78.5143 116.502C78.2983 116.126 77.8903 115.938 77.2903 115.938C76.8263 115.938 76.4703 116.13 76.2223 116.514C75.9823 116.89 75.8623 117.422 75.8623 118.11C75.8623 118.798 75.9863 119.322 76.2343 119.682C76.4823 120.042 76.8423 120.222 77.3143 120.222ZM84.838 114.702C85.71 114.702 86.398 114.962 86.902 115.482C87.414 116.002 87.67 116.726 87.67 117.654V118.422H83.374C83.39 119.014 83.554 119.474 83.866 119.802C84.178 120.122 84.61 120.282 85.162 120.282C85.578 120.282 85.954 120.242 86.29 120.162C86.626 120.074 86.97 119.95 87.322 119.79V121.002C87.002 121.154 86.67 121.266 86.326 121.338C85.982 121.41 85.57 121.446 85.09 121.446C84.458 121.446 83.894 121.326 83.398 121.086C82.91 120.838 82.526 120.466 82.246 119.97C81.974 119.474 81.838 118.858 81.838 118.122C81.838 117.01 82.114 116.162 82.666 115.578C83.218 114.994 83.942 114.702 84.838 114.702ZM84.838 115.818C84.43 115.818 84.098 115.95 83.842 116.214C83.594 116.47 83.45 116.854 83.41 117.366H86.206C86.198 116.918 86.082 116.55 85.858 116.262C85.642 115.966 85.302 115.818 84.838 115.818ZM92.6027 114.702C92.7067 114.702 92.8187 114.706 92.9387 114.714C93.0667 114.722 93.1747 114.738 93.2627 114.762L93.1307 116.166C93.0507 116.15 92.9547 116.138 92.8427 116.13C92.7307 116.114 92.6307 116.106 92.5427 116.106C92.2227 116.106 91.9227 116.174 91.6427 116.31C91.3627 116.438 91.1347 116.642 90.9587 116.922C90.7907 117.194 90.7067 117.538 90.7067 117.954V121.326H89.1947V114.822H90.3587L90.5747 115.95H90.6467C90.8387 115.606 91.1027 115.314 91.4387 115.074C91.7747 114.826 92.1627 114.702 92.6027 114.702ZM105.013 121.326H103.105L99.0493 114.606H99.0013C99.0253 114.966 99.0453 115.354 99.0613 115.77C99.0853 116.178 99.1013 116.59 99.1093 117.006V121.326H97.7293V112.758H99.6253L103.669 119.43H103.705C103.689 119.11 103.673 118.742 103.657 118.326C103.641 117.91 103.629 117.506 103.621 117.114V112.758H105.013V121.326ZM109.693 114.702C110.533 114.702 111.169 114.886 111.601 115.254C112.041 115.622 112.261 116.19 112.261 116.958V121.326H111.193L110.893 120.426H110.845C110.565 120.778 110.269 121.038 109.957 121.206C109.645 121.366 109.221 121.446 108.685 121.446C108.101 121.446 107.617 121.282 107.233 120.954C106.849 120.626 106.657 120.118 106.657 119.43C106.657 118.758 106.901 118.254 107.389 117.918C107.885 117.582 108.633 117.394 109.633 117.354L110.761 117.318V116.994C110.761 116.586 110.661 116.294 110.461 116.118C110.261 115.934 109.981 115.842 109.621 115.842C109.293 115.842 108.977 115.89 108.673 115.986C108.377 116.082 108.081 116.194 107.785 116.322L107.305 115.266C107.625 115.098 107.989 114.962 108.397 114.858C108.813 114.754 109.245 114.702 109.693 114.702ZM109.969 118.278C109.305 118.302 108.845 118.418 108.589 118.626C108.333 118.826 108.205 119.098 108.205 119.442C108.205 119.754 108.293 119.978 108.469 120.114C108.653 120.242 108.893 120.306 109.189 120.306C109.629 120.306 110.001 120.182 110.305 119.934C110.609 119.678 110.761 119.302 110.761 118.806V118.254L109.969 118.278ZM121.608 114.702C122.344 114.702 122.896 114.89 123.264 115.266C123.64 115.642 123.828 116.25 123.828 117.09V121.326H122.316V117.378C122.316 116.41 121.948 115.926 121.212 115.926C120.684 115.926 120.308 116.098 120.084 116.442C119.86 116.786 119.748 117.286 119.748 117.942V121.326H118.236V117.378C118.236 116.41 117.864 115.926 117.12 115.926C116.568 115.926 116.188 116.118 115.98 116.502C115.772 116.886 115.668 117.434 115.668 118.146V121.326H114.156V114.822H115.32L115.536 115.674H115.62C115.812 115.338 116.08 115.094 116.424 114.942C116.776 114.782 117.14 114.702 117.516 114.702C118.004 114.702 118.412 114.786 118.74 114.954C119.076 115.114 119.332 115.366 119.508 115.71H119.628C119.828 115.358 120.108 115.102 120.468 114.942C120.828 114.782 121.208 114.702 121.608 114.702ZM128.338 114.702C129.21 114.702 129.898 114.962 130.402 115.482C130.914 116.002 131.17 116.726 131.17 117.654V118.422H126.874C126.89 119.014 127.054 119.474 127.366 119.802C127.678 120.122 128.11 120.282 128.662 120.282C129.078 120.282 129.454 120.242 129.79 120.162C130.126 120.074 130.47 119.95 130.822 119.79V121.002C130.502 121.154 130.17 121.266 129.826 121.338C129.482 121.41 129.07 121.446 128.59 121.446C127.958 121.446 127.394 121.326 126.898 121.086C126.41 120.838 126.026 120.466 125.746 119.97C125.474 119.474 125.338 118.858 125.338 118.122C125.338 117.01 125.614 116.162 126.166 115.578C126.718 114.994 127.442 114.702 128.338 114.702ZM128.338 115.818C127.93 115.818 127.598 115.95 127.342 116.214C127.094 116.47 126.95 116.854 126.91 117.366H129.706C129.698 116.918 129.582 116.55 129.358 116.262C129.142 115.966 128.802 115.818 128.338 115.818Z" fill="#F3F3F3"/>
<path d="M32.764 190.07C31.98 190.07 31.372 190.35 30.94 190.91C30.516 191.47 30.304 192.23 30.304 193.19C30.304 194.158 30.504 194.918 30.904 195.47C31.304 196.014 31.92 196.286 32.752 196.286C33.112 196.286 33.464 196.25 33.808 196.178C34.152 196.098 34.512 195.994 34.888 195.866V197.174C34.536 197.318 34.18 197.422 33.82 197.486C33.468 197.55 33.06 197.582 32.596 197.582C31.716 197.582 30.988 197.402 30.412 197.042C29.836 196.674 29.408 196.162 29.128 195.506C28.848 194.842 28.708 194.066 28.708 193.178C28.708 192.314 28.864 191.554 29.176 190.898C29.488 190.234 29.944 189.714 30.544 189.338C31.152 188.962 31.892 188.774 32.764 188.774C33.196 188.774 33.62 188.826 34.036 188.93C34.46 189.026 34.856 189.162 35.224 189.338L34.696 190.598C34.392 190.462 34.076 190.342 33.748 190.238C33.428 190.126 33.1 190.07 32.764 190.07ZM39.1812 190.838C40.0212 190.838 40.6572 191.022 41.0892 191.39C41.5292 191.758 41.7492 192.326 41.7492 193.094V197.462H40.6812L40.3812 196.562H40.3332C40.0532 196.914 39.7572 197.174 39.4452 197.342C39.1332 197.502 38.7092 197.582 38.1732 197.582C37.5892 197.582 37.1052 197.418 36.7212 197.09C36.3372 196.762 36.1452 196.254 36.1452 195.566C36.1452 194.894 36.3892 194.39 36.8772 194.054C37.3732 193.718 38.1212 193.53 39.1212 193.49L40.2492 193.454V193.13C40.2492 192.722 40.1492 192.43 39.9492 192.254C39.7492 192.07 39.4692 191.978 39.1092 191.978C38.7812 191.978 38.4652 192.026 38.1612 192.122C37.8652 192.218 37.5692 192.33 37.2732 192.458L36.7932 191.402C37.1132 191.234 37.4772 191.098 37.8852 190.994C38.3012 190.89 38.7332 190.838 39.1812 190.838ZM39.4572 194.414C38.7932 194.438 38.3332 194.554 38.0772 194.762C37.8212 194.962 37.6932 195.234 37.6932 195.578C37.6932 195.89 37.7812 196.114 37.9572 196.25C38.1412 196.378 38.3812 196.442 38.6772 196.442C39.1172 196.442 39.4892 196.318 39.7932 196.07C40.0972 195.814 40.2492 195.438 40.2492 194.942V194.39L39.4572 194.414ZM47.0519 190.838C47.1559 190.838 47.2679 190.842 47.3879 190.85C47.5159 190.858 47.6239 190.874 47.7119 190.898L47.5799 192.302C47.4999 192.286 47.4039 192.274 47.2919 192.266C47.1799 192.25 47.0799 192.242 46.9919 192.242C46.6719 192.242 46.3719 192.31 46.0919 192.446C45.8119 192.574 45.5839 192.778 45.4079 193.058C45.2399 193.33 45.1559 193.674 45.1559 194.09V197.462H43.6439V190.958H44.8079L45.0239 192.086H45.0959C45.2879 191.742 45.5519 191.45 45.8879 191.21C46.2239 190.962 46.6119 190.838 47.0519 190.838ZM50.8309 197.582C50.0709 197.582 49.4589 197.298 48.9949 196.73C48.5309 196.162 48.2989 195.326 48.2989 194.222C48.2989 193.102 48.5349 192.258 49.0069 191.69C49.4789 191.122 50.0989 190.838 50.8669 190.838C51.3469 190.838 51.7389 190.93 52.0429 191.114C52.3549 191.298 52.6029 191.522 52.7869 191.786H52.8589C52.8349 191.674 52.8109 191.502 52.7869 191.27C52.7629 191.038 52.7509 190.822 52.7509 190.622V188.342H54.2629V197.462H53.0869L52.8109 196.61H52.7509C52.5669 196.882 52.3229 197.114 52.0189 197.306C51.7149 197.49 51.3189 197.582 50.8309 197.582ZM51.2869 196.358C51.8469 196.358 52.2389 196.198 52.4629 195.878C52.6949 195.558 52.8149 195.074 52.8229 194.426V194.234C52.8229 193.538 52.7109 193.006 52.4869 192.638C52.2709 192.262 51.8629 192.074 51.2629 192.074C50.7989 192.074 50.4429 192.266 50.1949 192.65C49.9549 193.026 49.8349 193.558 49.8349 194.246C49.8349 194.934 49.9589 195.458 50.2069 195.818C50.4549 196.178 50.8149 196.358 51.2869 196.358ZM66.7398 197.462H64.8318L60.7758 190.742H60.7278C60.7518 191.102 60.7718 191.49 60.7878 191.906C60.8118 192.314 60.8278 192.726 60.8358 193.142V197.462H59.4558V188.894H61.3518L65.3958 195.566H65.4318C65.4158 195.246 65.3998 194.878 65.3838 194.462C65.3678 194.046 65.3558 193.642 65.3478 193.25V188.894H66.7398V197.462ZM74.5995 190.958V197.462H73.4115L73.2075 196.622H73.1355C72.9195 196.958 72.6275 197.202 72.2595 197.354C71.8995 197.506 71.5155 197.582 71.1075 197.582C70.3795 197.582 69.8075 197.394 69.3915 197.018C68.9835 196.642 68.7795 196.038 68.7795 195.206V190.958H70.2915V194.906C70.2915 195.874 70.6915 196.358 71.4915 196.358C72.0995 196.358 72.5155 196.17 72.7395 195.794C72.9715 195.41 73.0875 194.858 73.0875 194.138V190.958H74.5995ZM83.9787 190.838C84.7147 190.838 85.2667 191.026 85.6347 191.402C86.0107 191.778 86.1987 192.386 86.1987 193.226V197.462H84.6867V193.514C84.6867 192.546 84.3187 192.062 83.5827 192.062C83.0547 192.062 82.6787 192.234 82.4547 192.578C82.2307 192.922 82.1187 193.422 82.1187 194.078V197.462H80.6067V193.514C80.6067 192.546 80.2347 192.062 79.4907 192.062C78.9387 192.062 78.5587 192.254 78.3507 192.638C78.1427 193.022 78.0387 193.57 78.0387 194.282V197.462H76.5267V190.958H77.6907L77.9067 191.81H77.9907C78.1827 191.474 78.4507 191.23 78.7947 191.078C79.1467 190.918 79.5107 190.838 79.8867 190.838C80.3747 190.838 80.7827 190.922 81.1107 191.09C81.4467 191.25 81.7027 191.502 81.8787 191.846H81.9987C82.1987 191.494 82.4787 191.238 82.8387 191.078C83.1987 190.918 83.5787 190.838 83.9787 190.838ZM89.6051 190.502C89.6051 190.758 89.5971 191.006 89.5811 191.246C89.5651 191.486 89.5491 191.674 89.5331 191.81H89.6051C89.7811 191.538 90.0211 191.31 90.3251 191.126C90.6291 190.934 91.0251 190.838 91.5131 190.838C92.2651 190.838 92.8731 191.122 93.3371 191.69C93.8091 192.258 94.0451 193.094 94.0451 194.198C94.0451 195.318 93.8091 196.162 93.3371 196.73C92.8651 197.298 92.2451 197.582 91.4771 197.582C90.9891 197.582 90.5971 197.494 90.3011 197.318C90.0131 197.142 89.7811 196.938 89.6051 196.706H89.4971L89.2211 197.462H88.0931V188.342H89.6051V190.502ZM91.0811 192.062C90.5371 192.062 90.1571 192.226 89.9411 192.554C89.7251 192.882 89.6131 193.386 89.6051 194.066V194.198C89.6051 194.894 89.7091 195.426 89.9171 195.794C90.1331 196.162 90.5291 196.346 91.1051 196.346C91.5531 196.346 91.8971 196.162 92.1371 195.794C92.3771 195.418 92.4971 194.882 92.4971 194.186C92.4971 193.474 92.3731 192.942 92.1251 192.59C91.8851 192.238 91.5371 192.062 91.0811 192.062ZM98.2208 190.838C99.0928 190.838 99.7808 191.098 100.285 191.618C100.797 192.138 101.053 192.862 101.053 193.79V194.558H96.7568C96.7728 195.15 96.9368 195.61 97.2488 195.938C97.5608 196.258 97.9928 196.418 98.5448 196.418C98.9608 196.418 99.3368 196.378 99.6728 196.298C100.009 196.21 100.353 196.086 100.705 195.926V197.138C100.385 197.29 100.053 197.402 99.7088 197.474C99.3648 197.546 98.9528 197.582 98.4728 197.582C97.8408 197.582 97.2768 197.462 96.7808 197.222C96.2928 196.974 95.9088 196.602 95.6288 196.106C95.3568 195.61 95.2208 194.994 95.2208 194.258C95.2208 193.146 95.4968 192.298 96.0488 191.714C96.6008 191.13 97.3248 190.838 98.2208 190.838ZM98.2208 191.954C97.8128 191.954 97.4808 192.086 97.2248 192.35C96.9768 192.606 96.8328 192.99 96.7928 193.502H99.5888C99.5808 193.054 99.4648 192.686 99.2408 192.398C99.0248 192.102 98.6848 191.954 98.2208 191.954ZM105.985 190.838C106.089 190.838 106.201 190.842 106.321 190.85C106.449 190.858 106.557 190.874 106.645 190.898L106.513 192.302C106.433 192.286 106.337 192.274 106.225 192.266C106.113 192.25 106.013 192.242 105.925 192.242C105.605 192.242 105.305 192.31 105.025 192.446C104.745 192.574 104.517 192.778 104.341 193.058C104.173 193.33 104.089 193.674 104.089 194.09V197.462H102.577V190.958H103.741L103.957 192.086H104.029C104.221 191.742 104.485 191.45 104.821 191.21C105.157 190.962 105.545 190.838 105.985 190.838Z" fill="#F3F3F3"/>
<path d="M35.572 265.031L32.608 273.599H30.964L28 265.031H29.572L31.3 270.275C31.348 270.419 31.404 270.607 31.468 270.839C31.532 271.063 31.592 271.295 31.648 271.535C31.712 271.775 31.76 271.983 31.792 272.159C31.816 271.983 31.856 271.775 31.912 271.535C31.968 271.295 32.028 271.063 32.092 270.839C32.156 270.607 32.216 270.419 32.272 270.275L34 265.031H35.572ZM38.8999 266.975C39.7399 266.975 40.3759 267.159 40.8079 267.527C41.2479 267.895 41.4679 268.463 41.4679 269.231V273.599H40.3999L40.0999 272.699H40.0519C39.7719 273.051 39.4759 273.311 39.1639 273.479C38.8519 273.639 38.4279 273.719 37.8919 273.719C37.3079 273.719 36.8239 273.555 36.4399 273.227C36.0559 272.899 35.8639 272.391 35.8639 271.703C35.8639 271.031 36.1079 270.527 36.5959 270.191C37.0919 269.855 37.8399 269.667 38.8399 269.627L39.9679 269.591V269.267C39.9679 268.859 39.8679 268.567 39.6679 268.391C39.4679 268.207 39.1879 268.115 38.8279 268.115C38.4999 268.115 38.1839 268.163 37.8799 268.259C37.5839 268.355 37.2879 268.467 36.9919 268.595L36.5119 267.539C36.8319 267.371 37.1959 267.235 37.6039 267.131C38.0199 267.027 38.4519 266.975 38.8999 266.975ZM39.1759 270.551C38.5119 270.575 38.0519 270.691 37.7959 270.899C37.5399 271.099 37.4119 271.371 37.4119 271.715C37.4119 272.027 37.4999 272.251 37.6759 272.387C37.8599 272.515 38.0999 272.579 38.3959 272.579C38.8359 272.579 39.2079 272.455 39.5119 272.207C39.8159 271.951 39.9679 271.575 39.9679 271.079V270.527L39.1759 270.551ZM44.8746 273.599H43.3626V264.479H44.8746V273.599ZM47.5639 264.587C47.7959 264.587 47.9919 264.647 48.1519 264.767C48.3199 264.879 48.4039 265.083 48.4039 265.379C48.4039 265.675 48.3199 265.883 48.1519 266.003C47.9919 266.123 47.7959 266.183 47.5639 266.183C47.3319 266.183 47.1319 266.123 46.9639 266.003C46.8039 265.883 46.7239 265.675 46.7239 265.379C46.7239 265.083 46.8039 264.879 46.9639 264.767C47.1319 264.647 47.3319 264.587 47.5639 264.587ZM48.3199 267.095V273.599H46.8079V267.095H48.3199ZM52.4013 273.719C51.6413 273.719 51.0293 273.435 50.5653 272.867C50.1013 272.299 49.8693 271.463 49.8693 270.359C49.8693 269.239 50.1053 268.395 50.5773 267.827C51.0493 267.259 51.6693 266.975 52.4373 266.975C52.9173 266.975 53.3093 267.067 53.6133 267.251C53.9253 267.435 54.1733 267.659 54.3573 267.923H54.4293C54.4053 267.811 54.3813 267.639 54.3573 267.407C54.3333 267.175 54.3213 266.959 54.3213 266.759V264.479H55.8333V273.599H54.6573L54.3813 272.747H54.3213C54.1373 273.019 53.8933 273.251 53.5893 273.443C53.2853 273.627 52.8893 273.719 52.4013 273.719ZM52.8573 272.495C53.4173 272.495 53.8093 272.335 54.0333 272.015C54.2653 271.695 54.3853 271.211 54.3933 270.563V270.371C54.3933 269.675 54.2813 269.143 54.0573 268.775C53.8413 268.399 53.4333 268.211 52.8333 268.211C52.3693 268.211 52.0133 268.403 51.7653 268.787C51.5253 269.163 51.4053 269.695 51.4053 270.383C51.4053 271.071 51.5293 271.595 51.7773 271.955C52.0253 272.315 52.3853 272.495 52.8573 272.495ZM64.0982 273.599H62.5622V266.327H60.1022V265.031H66.5582V266.327H64.0982V273.599ZM68.4819 264.587C68.7139 264.587 68.9099 264.647 69.0699 264.767C69.2379 264.879 69.3219 265.083 69.3219 265.379C69.3219 265.675 69.2379 265.883 69.0699 266.003C68.9099 266.123 68.7139 266.183 68.4819 266.183C68.2499 266.183 68.0499 266.123 67.8819 266.003C67.7219 265.883 67.6419 265.675 67.6419 265.379C67.6419 265.083 67.7219 264.879 67.8819 264.767C68.0499 264.647 68.2499 264.587 68.4819 264.587ZM69.2379 267.095V273.599H67.7259V267.095H69.2379ZM72.6832 273.599H71.1712V264.479H72.6832V273.599ZM76.1285 273.599H74.6165V264.479H76.1285V273.599Z" fill="#F3F3F3"/>
<path d="M32.764 335.315C31.98 335.315 31.372 335.595 30.94 336.155C30.516 336.715 30.304 337.475 30.304 338.435C30.304 339.403 30.504 340.163 30.904 340.715C31.304 341.259 31.92 341.531 32.752 341.531C33.112 341.531 33.464 341.495 33.808 341.423C34.152 341.343 34.512 341.239 34.888 341.111V342.419C34.536 342.563 34.18 342.667 33.82 342.731C33.468 342.795 33.06 342.827 32.596 342.827C31.716 342.827 30.988 342.647 30.412 342.287C29.836 341.919 29.408 341.407 29.128 340.751C28.848 340.087 28.708 339.311 28.708 338.423C28.708 337.559 28.864 336.799 29.176 336.143C29.488 335.479 29.944 334.959 30.544 334.583C31.152 334.207 31.892 334.019 32.764 334.019C33.196 334.019 33.62 334.071 34.036 334.175C34.46 334.271 34.856 334.407 35.224 334.583L34.696 335.843C34.392 335.707 34.076 335.587 33.748 335.483C33.428 335.371 33.1 335.315 32.764 335.315ZM43.1892 334.139L40.2252 342.707H38.5812L35.6172 334.139H37.1892L38.9172 339.383C38.9652 339.527 39.0212 339.715 39.0852 339.947C39.1492 340.171 39.2092 340.403 39.2652 340.643C39.3292 340.883 39.3772 341.091 39.4092 341.267C39.4332 341.091 39.4732 340.883 39.5292 340.643C39.5852 340.403 39.6452 340.171 39.7092 339.947C39.7732 339.715 39.8332 339.527 39.8892 339.383L41.6172 334.139H43.1892ZM50.7595 334.139L47.7955 342.707H46.1515L43.1875 334.139H44.7595L46.4875 339.383C46.5355 339.527 46.5915 339.715 46.6555 339.947C46.7195 340.171 46.7795 340.403 46.8355 340.643C46.8995 340.883 46.9475 341.091 46.9795 341.267C47.0035 341.091 47.0435 340.883 47.0995 340.643C47.1555 340.403 47.2155 340.171 47.2795 339.947C47.3435 339.715 47.4035 339.527 47.4595 339.383L49.1875 334.139H50.7595Z" fill="#F3F3F3"/>
<defs>
<linearGradient id="paint0_linear" x1="340.182" y1="66.8127" x2="-17.1798" y2="4.28277" gradientUnits="userSpaceOnUse">
<stop stop-color="#D90041"/>
<stop offset="1" stop-color="#E73E71" stop-opacity="0"/>
</linearGradient>
<linearGradient id="paint1_linear" x1="118.755" y1="207.31" x2="14.6625" y2="216.188" gradientUnits="userSpaceOnUse">
<stop stop-color="#EF4679"/>
<stop offset="1" stop-color="#F3779C" stop-opacity="0"/>
</linearGradient>
<linearGradient id="paint2_linear" x1="122.307" y1="329.84" x2="130.499" y2="411.955" gradientUnits="userSpaceOnUse">
<stop stop-color="#EF4679"/>
<stop offset="1" stop-color="#F3779C" stop-opacity="0"/>
</linearGradient>
<linearGradient id="paint3_linear" x1="23.1281" y1="-60.5279" x2="-25.1768" y2="217.75" gradientUnits="userSpaceOnUse">
<stop stop-color="#D90041"/>
<stop offset="1" stop-color="#E73E71" stop-opacity="0"/>
</linearGradient>
<linearGradient id="paint4_linear" x1="-79.1836" y1="347.12" x2="278.299" y2="409.315" gradientUnits="userSpaceOnUse">
<stop stop-color="#D90041"/>
<stop offset="1" stop-color="#E73E71" stop-opacity="0"/>
</linearGradient>
<linearGradient id="paint5_linear" x1="142.245" y1="205.818" x2="246.346" y2="196.99" gradientUnits="userSpaceOnUse">
<stop stop-color="#EF4679"/>
<stop offset="1" stop-color="#F3779C" stop-opacity="0"/>
</linearGradient>
<linearGradient id="paint6_linear" x1="138.693" y1="82.5862" x2="130.408" y2="0.00920643" gradientUnits="userSpaceOnUse">
<stop stop-color="#EF4679"/>
<stop offset="1" stop-color="#F3779C" stop-opacity="0"/>
</linearGradient>
<linearGradient id="paint7_linear" x1="237.872" y1="475.191" x2="286.716" y2="195.412" gradientUnits="userSpaceOnUse">
<stop stop-color="#D90041"/>
<stop offset="1" stop-color="#E73E71" stop-opacity="0"/>
</linearGradient>
</defs>
</svg>
