<svg width="39" height="39" viewBox="0 0 39 39" fill="none" xmlns="http://www.w3.org/2000/svg">
<path d="M18.8723 1.09375L1.21875 9.59362V14.0157H37.7812V9.57016L18.8723 1.09375ZM35.3438 11.5782H3.65625V11.1253L18.909 3.7814L35.3438 11.1487V11.5782Z" fill="#11B836"/>
<path d="M3.65625 31.0781H35.3438V33.5156H3.65625V31.0781Z" fill="#11B836"/>
<path d="M1.21875 35.3438H37.7812V37.7812H1.21875V35.3438Z" fill="#11B836"/>
<path d="M4.26562 16.4531H6.70312V28.6406H4.26562V16.4531Z" fill="#11B836"/>
<path d="M32.2969 16.4531H34.7344V28.6406H32.2969V16.4531Z" fill="#11B836"/>
<path d="M24.9844 16.4531H27.4219V28.6406H24.9844V16.4531Z" fill="#11B836"/>
<path d="M11.5781 16.4531H14.0156V28.6406H11.5781V16.4531Z" fill="#11B836"/>
<path d="M18.2812 16.4531H20.7188V28.6406H18.2812V16.4531Z" fill="#11B836"/>
</svg>
