<svg width="39" height="39" viewBox="0 0 39 39" fill="none" xmlns="http://www.w3.org/2000/svg">
<g clip-path="url(#clip0_354:205)">
<path d="M14.812 5.20824e-05C14.5943 0.0324264 14.3864 0.112316 14.203 0.234052C14.203 0.234052 12.3055 1.42805 10.2655 2.71955C8.22552 4.00955 5.95602 5.43155 5.43702 5.71955C5.40501 5.73345 5.37349 5.74846 5.34252 5.76455C3.45852 6.92705 3.06702 8.82605 2.99952 9.89105C2.99502 9.94055 2.99952 9.98105 2.99952 10.0336C2.98302 10.4326 2.99952 10.6891 2.99952 10.6891V30.2835C2.99952 33.1305 6.31902 34.5 9.46902 34.5C10.519 34.5 11.569 34.3305 12.469 34.0305C13.069 33.7305 13.4995 33.1306 13.4995 32.5305V16.7806C13.4995 13.3306 14.2495 11.7106 16.4995 10.3606C17.0995 10.0606 23.3905 5.71805 23.3905 5.71805C23.6905 5.41805 23.9995 4.80905 23.9995 4.35905V4.21805C23.9995 3.61805 23.6995 3.15905 23.2495 2.85905C22.7995 2.55905 22.1995 2.55905 21.7495 2.85905C21.5995 3.00905 12.4495 9.16955 10.4995 10.2196C8.54952 11.4196 6.73002 11.7091 6.28002 11.1091C6.14052 10.9696 6.01902 10.5421 5.99952 10.1251V10.0786V10.0306C6.00102 9.62255 6.10602 8.85455 6.93702 8.34305C7.78002 7.87355 9.87252 6.53705 11.9065 5.25005C12.766 4.70555 12.8725 4.64705 13.546 4.21805C13.6347 4.58449 13.8581 4.90411 14.1717 5.11328C14.4854 5.32245 14.8663 5.40583 15.2387 5.34683C15.6111 5.28782 15.9476 5.09076 16.1812 4.79487C16.4148 4.49897 16.5285 4.12595 16.4995 3.75005V1.50005C16.5012 1.28625 16.4571 1.07456 16.3703 0.879171C16.2835 0.683783 16.1559 0.509215 15.9961 0.367167C15.8363 0.22512 15.648 0.118877 15.4438 0.0555614C15.2395 -0.00775462 15.0242 -0.0266807 14.812 5.20824e-05ZM26.812 5.25005C26.5735 5.28972 26.3481 5.38647 26.155 5.53205C26.155 5.53205 18.604 10.6126 17.296 11.4841C17.2802 11.4997 17.2647 11.5157 17.2495 11.5321C16.1635 12.3466 15.52 13.3156 15.2335 14.2021C15.031 14.8306 15.001 15.3436 14.9995 15.7501V16.2195C14.9974 16.266 14.9974 16.3126 14.9995 16.3591V34.5C14.9995 37.35 18.2815 39 21.2815 39C22.6315 39 23.8495 38.709 24.7495 38.109C26.5495 37.059 35.2495 30.282 35.2495 30.282C35.6995 29.982 35.9995 29.559 35.9995 29.109V9.60905C35.9995 8.85905 35.7085 8.40905 35.1085 8.10905C34.6585 7.80905 33.919 7.95005 33.469 8.25005C31.069 10.0501 24.6085 15.132 23.1085 16.032C21.0085 17.232 19.03 17.532 18.28 16.782C17.98 16.482 17.9995 16.2001 17.9995 15.7501C18.0085 15.4921 18.037 15.2701 18.094 15.0931C18.178 14.8321 18.349 14.5111 18.9835 14.0161C19.0135 13.9921 18.9985 13.9936 19.03 13.9696C20.1145 13.2451 23.431 10.9846 25.594 9.51455C25.7166 9.8433 25.9505 10.1187 26.2551 10.2928C26.5596 10.467 26.9156 10.5288 27.2611 10.4677C27.6066 10.4065 27.9197 10.2261 28.1459 9.958C28.3722 9.68986 28.4973 9.35089 28.4995 9.00005V6.75005C28.5012 6.53625 28.4571 6.32456 28.3703 6.12917C28.2835 5.93378 28.1559 5.75921 27.9961 5.61717C27.8363 5.47512 27.648 5.36888 27.4438 5.30556C27.2395 5.24225 27.0242 5.22332 26.812 5.25005ZM32.9995 16.2195V19.2195L25.4995 25.0306V22.0306L32.9995 16.2195Z" fill="#F62727"/>
</g>
<defs>
<clipPath id="clip0_354:205">
<rect width="39" height="39" fill="white"/>
</clipPath>
</defs>
</svg>
