<svg width="39" height="39" viewBox="0 0 39 39" fill="none" xmlns="http://www.w3.org/2000/svg">
<path d="M19.5005 33.9517C27.4819 33.9517 33.9522 27.4814 33.9522 19.5C33.9522 11.5186 27.4819 5.04834 19.5005 5.04834C11.5191 5.04834 5.04883 11.5186 5.04883 19.5C5.04883 27.4814 11.5191 33.9517 19.5005 33.9517Z" fill="white"/>
<path d="M19.5005 33.9517C27.4819 33.9517 33.9522 27.4814 33.9522 19.5C33.9522 11.5186 27.4819 5.04834 19.5005 5.04834C11.5191 5.04834 5.04883 11.5186 5.04883 19.5C5.04883 27.4814 11.5191 33.9517 19.5005 33.9517Z" stroke="#2563FF" stroke-width="2" stroke-linecap="round" stroke-linejoin="round"/>
<path d="M11.1914 16.5641L14.1278 19.5005L17.0658 16.5625" stroke="#2563FF" stroke-width="2" stroke-miterlimit="7" stroke-linecap="round" stroke-linejoin="round"/>
<path d="M13.6133 17.1438C13.6133 13.8922 16.2507 11.2559 19.5012 11.2559C22.7507 11.2559 25.3891 13.8911 25.3891 17.1438V21.8525V17.1438V21.8525C25.3891 25.1041 22.7517 27.7404 19.5012 27.7404C18.4049 27.7404 17.3303 27.4345 16.3983 26.8571C15.4663 26.2797 14.714 25.4537 14.2259 24.472" stroke="#2563FF" stroke-width="2" stroke-miterlimit="7" stroke-linecap="round" stroke-linejoin="round"/>
</svg>
