<?xml version="1.0" encoding="utf-8"?>
<!-- Generator: Adobe Illustrator 23.0.4, SVG Export Plug-In . SVG Version: 6.00 Build 0)  -->
<svg version="1.1" id="Layer_1" xmlns="http://www.w3.org/2000/svg" xmlns:xlink="http://www.w3.org/1999/xlink" x="0px" y="0px"
	 viewBox="0 0 140 140" style="enable-background:new 0 0 140 140;" xml:space="preserve">
<style type="text/css">
	.st0{fill:#003B4D;}
</style>
<g>
	<path class="st0" d="M110,20.72H48.28V30H30v89.28h61.72V110H110V20.72z M32,117.28V32h39.44v18.28h18.28v67H32z M73.44,33.41
		L88.3,48.28H73.44V33.41z M108,108H91.72V94.75h9.36v-2h-9.36V80.55h9.36v-2h-9.36V66.36h9.36v-2h-9.36V52.17h9.36v-2h-9.36v-1.3
		L80.82,37.97h20.25v-2H78.82L72.85,30H50.28v-7.28H108V108z"/>
	<rect x="38.93" y="59.45" class="st0" width="43.86" height="2"/>
	<rect x="38.93" y="73.64" class="st0" width="43.86" height="2"/>
	<rect x="38.93" y="87.83" class="st0" width="43.86" height="2"/>
	<rect x="38.93" y="102.03" class="st0" width="43.86" height="2"/>
</g>
</svg>
