<svg width="538" height="450" viewBox="0 0 538 450" fill="none" xmlns="http://www.w3.org/2000/svg">
<g clip-path="url(#clip0_850:644)">
<path d="M474.21 27.3361H0.743708C0.544994 27.3317 0.355909 27.2497 0.21693 27.1078C0.0779511 26.9659 0.00012207 26.7752 0.00012207 26.5767C0.00012207 26.3782 0.0779511 26.1876 0.21693 26.0456C0.355909 25.9037 0.544994 25.8218 0.743708 25.8174H474.21C474.409 25.8218 474.598 25.9037 474.737 26.0456C474.876 26.1876 474.954 26.3782 474.954 26.5767C474.954 26.7752 474.876 26.9659 474.737 27.1078C474.598 27.2497 474.409 27.3317 474.21 27.3361Z" fill="#CACACA"/>
<path d="M17.4826 16.7054C22.0006 16.7054 25.6632 12.9657 25.6632 8.35269C25.6632 3.73963 22.0006 0 17.4826 0C12.9646 0 9.302 3.73963 9.302 8.35269C9.302 12.9657 12.9646 16.7054 17.4826 16.7054Z" fill="#3F3D56"/>
<path d="M45.7429 16.7054C50.2609 16.7054 53.9235 12.9657 53.9235 8.35269C53.9235 3.73963 50.2609 0 45.7429 0C41.2248 0 37.5623 3.73963 37.5623 8.35269C37.5623 12.9657 41.2248 16.7054 45.7429 16.7054Z" fill="#3F3D56"/>
<path d="M74.0031 16.7054C78.5211 16.7054 82.1837 12.9657 82.1837 8.35269C82.1837 3.73963 78.5211 0 74.0031 0C69.4851 0 65.8225 3.73963 65.8225 8.35269C65.8225 12.9657 69.4851 16.7054 74.0031 16.7054Z" fill="#3F3D56"/>
<path d="M457.275 2.07031H437.201C436.803 2.0782 436.424 2.24162 436.145 2.52547C435.867 2.80932 435.71 3.19097 435.71 3.58846C435.71 3.98596 435.867 4.36761 436.145 4.65146C436.424 4.93531 436.803 5.09873 437.201 5.10662H457.275C457.673 5.09873 458.052 4.93531 458.331 4.65146C458.609 4.36761 458.765 3.98596 458.765 3.58846C458.765 3.19097 458.609 2.80932 458.331 2.52547C458.052 2.24162 457.673 2.0782 457.275 2.07031Z" fill="#3F3D56"/>
<path d="M457.275 7.76892H437.201C436.803 7.77681 436.424 7.94023 436.145 8.22408C435.867 8.50793 435.71 8.88959 435.71 9.28708C435.71 9.68458 435.867 10.0662 436.145 10.3501C436.424 10.6339 436.803 10.7973 437.201 10.8052H457.275C457.673 10.7973 458.052 10.6339 458.331 10.3501C458.609 10.0662 458.765 9.68458 458.765 9.28708C458.765 8.88959 458.609 8.50793 458.331 8.22408C458.052 7.94023 457.673 7.77681 457.275 7.76892Z" fill="#3F3D56"/>
<path d="M457.275 13.4602H437.201C436.803 13.4681 436.424 13.6315 436.145 13.9154C435.867 14.1992 435.71 14.5809 435.71 14.9784C435.71 15.3759 435.867 15.7575 436.145 16.0414C436.424 16.3252 436.803 16.4886 437.201 16.4965H457.275C457.673 16.4886 458.052 16.3252 458.331 16.0414C458.609 15.7575 458.765 15.3759 458.765 14.9784C458.765 14.5809 458.609 14.1992 458.331 13.9154C458.052 13.6315 457.673 13.4681 457.275 13.4602Z" fill="#3F3D56"/>
<path d="M449.779 52.9753H18.5307C16.1428 52.9789 13.8537 53.9279 12.1652 55.6144C10.4767 57.3008 9.52651 59.5871 9.52295 61.9721V63.4229C9.52651 65.8079 10.4767 68.0942 12.1652 69.7806C13.8537 71.4671 16.1428 72.4161 18.5307 72.4197H449.779C452.167 72.4161 454.456 71.4671 456.144 69.7806C457.833 68.0942 458.783 65.8079 458.787 63.4229V61.9721C458.783 59.5871 457.833 57.3008 456.144 55.6144C454.456 53.9279 452.167 52.9789 449.779 52.9753Z" fill="#F0F0F0"/>
<path d="M70.5743 66.2873H29.5244C28.606 66.286 27.7256 65.9206 27.0766 65.2715C26.4276 64.6223 26.0631 63.7425 26.0631 62.8251C26.0631 61.9078 26.4276 61.0279 27.0766 60.3788C27.7256 59.7297 28.606 59.3643 29.5244 59.363H70.5743C75.0447 59.3006 75.0894 66.3502 70.5743 66.2873Z" fill="white"/>
<path d="M193.373 66.2873H152.323C151.405 66.286 150.524 65.9206 149.875 65.2715C149.226 64.6223 148.862 63.7425 148.862 62.8251C148.862 61.9078 149.226 61.0279 149.875 60.3788C150.524 59.7297 151.405 59.3643 152.323 59.363H193.373C197.843 59.3006 197.888 66.3502 193.373 66.2873Z" fill="white"/>
<path d="M316.172 66.2873H275.122C274.204 66.286 273.323 65.9206 272.674 65.2715C272.025 64.6223 271.661 63.7425 271.661 62.8251C271.661 61.9078 272.025 61.0279 272.674 60.3788C273.323 59.7297 274.204 59.3643 275.122 59.363H316.172C320.642 59.3006 320.687 66.3502 316.172 66.2873Z" fill="white"/>
<path d="M432.606 66.6612H391.556C390.637 66.6612 389.755 66.2965 389.105 65.6472C388.455 64.9979 388.09 64.1173 388.09 63.1991C388.09 62.2808 388.455 61.4002 389.105 60.7509C389.755 60.1016 390.637 59.7369 391.556 59.7369H432.606C437.076 59.6745 437.121 66.7241 432.606 66.6612Z" fill="#DD285D"/>
<path d="M368.56 52.9752H367.062V72.4195H368.56V52.9752Z" fill="white"/>
<path d="M213.597 340.761H37.596C36.0278 340.759 34.5243 340.136 33.4154 339.028C32.3065 337.921 31.6827 336.419 31.6809 334.853V309.107C31.6827 307.541 32.3065 306.039 33.4154 304.932C34.5243 303.824 36.0278 303.201 37.596 303.2H213.597C215.166 303.201 216.669 303.824 217.778 304.932C218.887 306.039 219.511 307.541 219.512 309.107V334.853C219.511 336.419 218.887 337.921 217.778 339.028C216.669 340.136 215.166 340.759 213.597 340.761Z" fill="#F0F0F0"/>
<path d="M196.497 336.776H41.5867C40.0184 336.774 38.515 336.151 37.4061 335.043C36.2972 333.936 35.6734 332.434 35.6716 330.868V313.095C35.6734 311.529 36.2972 310.028 37.4061 308.92C38.515 307.812 40.0184 307.189 41.5867 307.188H209.608C211.176 307.189 212.679 307.812 213.788 308.92C214.897 310.028 215.521 311.529 215.523 313.095V317.773C215.517 322.811 213.511 327.641 209.944 331.204C206.377 334.766 201.541 336.77 196.497 336.776Z" fill="white"/>
<path d="M143.062 320.149H72.3225C71.9179 320.149 71.5299 319.988 71.2438 319.702C70.9577 319.417 70.797 319.029 70.797 318.625C70.797 318.221 70.9577 317.833 71.2438 317.548C71.5299 317.262 71.9179 317.101 72.3225 317.101H143.062C143.466 317.101 143.854 317.262 144.14 317.548C144.426 317.833 144.587 318.221 144.587 318.625C144.587 319.029 144.426 319.417 144.14 319.702C143.854 319.988 143.466 320.149 143.062 320.149Z" fill="#E6E6E6"/>
<path d="M178.871 326.38H72.3225C72.1218 326.381 71.9231 326.342 71.7376 326.265C71.5522 326.189 71.3836 326.077 71.2416 325.935C71.0996 325.794 70.9869 325.626 70.91 325.44C70.8332 325.255 70.7936 325.057 70.7936 324.857C70.7936 324.656 70.8332 324.458 70.91 324.273C70.9869 324.088 71.0996 323.92 71.2416 323.778C71.3836 323.637 71.5522 323.524 71.7376 323.448C71.9231 323.372 72.1218 323.333 72.3225 323.333H178.871C179.275 323.334 179.662 323.495 179.947 323.78C180.233 324.066 180.393 324.453 180.393 324.857C180.393 325.26 180.233 325.647 179.947 325.933C179.662 326.218 179.275 326.379 178.871 326.38Z" fill="#E6E6E6"/>
<path d="M224.84 273.743H24.1613C22.56 273.741 21.0248 273.105 19.8925 271.974C18.7602 270.843 18.1233 269.31 18.1215 267.711V114.499C18.1233 112.899 18.7602 111.366 19.8925 110.235C21.0248 109.104 22.56 108.468 24.1613 108.466H224.84C226.441 108.468 227.976 109.104 229.109 110.235C230.241 111.366 230.878 112.899 230.88 114.499V267.711C230.878 269.31 230.241 270.843 229.109 271.974C227.976 273.105 226.441 273.741 224.84 273.743Z" fill="white"/>
<path d="M224.84 274.491H24.1615C22.3617 274.489 20.6362 273.774 19.3635 272.503C18.0908 271.232 17.3749 269.508 17.3728 267.711V114.499C17.3749 112.701 18.0908 110.978 19.3635 109.707C20.6362 108.436 22.3617 107.721 24.1615 107.719H224.84C226.64 107.721 228.365 108.436 229.638 109.707C230.911 110.978 231.626 112.701 231.629 114.499V267.711C231.626 269.508 230.911 271.232 229.638 272.503C228.365 273.774 226.64 274.489 224.84 274.491ZM24.1615 109.214C22.7587 109.216 21.4139 109.773 20.4219 110.764C19.43 111.754 18.872 113.098 18.8703 114.499V267.711C18.8719 269.112 19.4299 270.455 20.4218 271.446C21.4138 272.436 22.7587 272.994 24.1615 272.995H224.84C226.243 272.994 227.588 272.436 228.58 271.446C229.572 270.455 230.129 269.112 230.131 267.711V114.499C230.129 113.098 229.571 111.754 228.579 110.764C227.588 109.773 226.243 109.216 224.84 109.214L24.1615 109.214Z" fill="#F0F0F0"/>
<path d="M18.585 244.577V267.711C18.5872 269.187 19.1754 270.603 20.2206 271.646C21.2659 272.69 22.683 273.278 24.1612 273.28H224.84C226.318 273.278 227.735 272.69 228.781 271.646C229.826 270.603 230.414 269.187 230.416 267.711V244.577H18.585Z" fill="#F0F0F0"/>
<path d="M20.476 109.442L19.6687 110.702L230.013 245.206L230.82 243.947L20.476 109.442Z" fill="#F0F0F0"/>
<path d="M230.607 109.443L20.2627 243.947L21.07 245.206L231.414 110.702L230.607 109.443Z" fill="#F0F0F0"/>
<path d="M408.354 439.582L399.076 439.581L394.662 403.842L408.355 403.843L408.354 439.582Z" fill="#A0616A"/>
<path d="M408.106 436.554L398.208 432.538L397.916 432.418L392.45 436.554C389.45 436.554 386.566 437.71 384.399 439.782C382.233 441.854 380.951 444.681 380.821 447.675C380.806 447.839 380.806 448.011 380.806 448.183V448.565H410.72V436.554H408.106Z" fill="#2F2E41"/>
<path d="M386.627 430.959L377.876 434.034L361.835 401.783L374.752 397.245L386.627 430.959Z" fill="#A0616A"/>
<path d="M385.388 428.185L374.716 427.678L374.401 427.662L370.619 433.375C367.789 434.369 365.453 436.416 364.098 439.089C362.743 441.761 362.473 444.854 363.345 447.72C363.386 447.88 363.443 448.043 363.5 448.205L363.627 448.565L391.845 438.648L387.853 427.318L385.388 428.185Z" fill="#2F2E41"/>
<path d="M411.632 285.48C420.119 285.151 409.606 352.705 409.606 352.705C409.606 352.705 412.681 412.014 412.029 415.126C411.377 418.239 411.947 426.633 411.947 426.633C410.284 423.61 393.129 425.892 393.129 425.892L390.795 365.782L378.879 317.62L362.36 349.904L378.193 399.457C378.193 399.457 384.605 405.383 383.923 407.725C383.241 410.067 366.446 415.348 363.36 415.468C360.274 415.587 361.667 411.674 361.517 407.821C361.368 403.968 346.845 368.256 341.737 356.105C336.628 343.954 340.6 326.821 343.207 314.371C345.815 301.921 359.533 278.557 359.533 278.557C376.561 259.375 403.145 285.809 411.632 285.48Z" fill="#2F2E41"/>
<path d="M308.199 230.888C308.663 231.775 309.317 232.549 310.114 233.157C310.911 233.764 311.832 234.19 312.812 234.403C313.791 234.617 314.806 234.613 315.784 234.393C316.762 234.172 317.679 233.741 318.472 233.128L338.882 246.428L338.82 233.779L319.448 223.089C318.329 221.827 316.785 221.019 315.109 220.817C313.433 220.616 311.741 221.036 310.355 221.998C308.968 222.959 307.983 224.395 307.585 226.033C307.188 227.672 307.406 229.399 308.199 230.888Z" fill="#A0616A"/>
<path d="M407.224 296.309C386.176 296.31 374.577 292.102 368.418 288.344C360.886 283.75 359.597 278.905 359.546 278.7L359.531 278.642L360.264 269.428L360.585 268.711C362.062 265.408 362.258 261.675 361.135 258.236L361.112 258.165L361.117 258.091L366.039 194.34L383.455 188.642L388.522 183.558L411.08 183.231L414.224 189.595L432.008 196.282L423.271 248.226L419.082 255.436L420.768 263.291L420.756 263.362L415.261 296.118L414.959 296.131C412.249 296.252 409.671 296.312 407.224 296.309Z" fill="#3F3D56"/>
<path d="M352.772 256.537L344.514 251.647L343.997 250.901C342.946 249.39 341.554 248.147 339.935 247.27C338.315 246.394 336.513 245.909 334.672 245.854L334.575 245.851L323.203 239.173L327.917 225.38L345.745 230.641L358.174 199.796C358.857 198.102 359.997 196.63 361.467 195.544C362.937 194.458 364.68 193.801 366.501 193.646C368.323 193.49 370.152 193.843 371.785 194.663C373.419 195.484 374.792 196.741 375.752 198.295C376.736 199.919 377.246 201.786 377.225 203.684V223.866L377.151 223.966L352.772 256.537Z" fill="#3F3D56"/>
<path d="M407.976 284.446C408.153 283.46 408.544 282.525 409.121 281.707C409.699 280.888 410.449 280.206 411.319 279.709C412.189 279.211 413.157 278.91 414.157 278.827C415.156 278.743 416.161 278.88 417.101 279.227L432.568 260.417L436.313 272.499L421.052 288.509C420.364 290.049 419.134 291.283 417.597 291.977C416.059 292.672 414.319 292.779 412.707 292.278C411.095 291.777 409.724 290.704 408.852 289.26C407.98 287.817 407.668 286.104 407.976 284.446Z" fill="#A0616A"/>
<path d="M431.102 282.069L420.831 271.81L427.369 255.9L436.844 242.978C426.748 238.069 419.169 226.439 413.677 216.812L413.615 216.704L414.983 206.007C415.303 203.505 416.306 201.139 417.883 199.169C419.255 197.456 421.017 196.096 423.022 195.202C425.028 194.308 427.219 193.907 429.411 194.032C431.604 194.158 433.734 194.805 435.625 195.921C437.515 197.037 439.111 198.589 440.278 200.447L458.692 241.332L458.484 241.64L443.674 266.857L439.631 269.476L431.102 282.069Z" fill="#3F3D56"/>
<path d="M415.998 161.786C415.321 166.716 412.712 171.175 408.745 174.185C404.777 177.195 399.776 178.508 394.84 177.837C389.903 177.166 385.435 174.566 382.418 170.606C379.4 166.647 378.079 161.654 378.746 156.722L378.782 156.456C379.561 151.591 382.224 147.226 386.195 144.304C390.167 141.382 395.13 140.136 400.013 140.835C404.896 141.535 409.308 144.123 412.297 148.043C415.287 151.962 416.614 156.898 415.992 161.785L415.998 161.786Z" fill="#A0616A"/>
<path d="M411.214 171.457C412.179 169.498 413.171 167.395 412.899 165.229C412.628 163.063 410.501 160.993 408.413 161.637C407.164 162.022 406.22 163.253 404.915 163.316C403.118 163.403 402.089 161.35 401.53 159.643L399.252 152.69C397.066 154.392 394.53 155.591 391.826 156.201C389.122 156.812 386.317 156.818 383.61 156.221C381.496 155.738 379.36 154.797 378.12 153.02C376.88 151.243 376.887 148.486 378.588 147.143C379.422 146.484 380.532 146.234 381.329 145.53C381.824 145.094 382.164 144.511 382.301 143.866C382.438 143.222 382.363 142.55 382.088 141.952C381.812 141.353 381.352 140.858 380.773 140.541C380.195 140.224 379.53 140.102 378.876 140.192L384.61 139.476L382.901 136.39C383.551 136.832 384.285 137.133 385.058 137.274C385.83 137.416 386.624 137.395 387.388 137.212C388.93 136.935 390.383 136.301 391.892 135.878C395.55 134.945 399.412 135.23 402.893 136.69C406.374 138.149 409.282 140.704 411.176 143.966C412.587 143.495 414.108 143.464 415.537 143.876C416.966 144.288 418.236 145.124 419.178 146.273C420.713 148.219 421.131 150.815 421.19 153.292C421.302 158.174 420.236 163.012 418.082 167.396C417.465 168.789 416.578 170.046 415.472 171.095C414.915 171.615 414.251 172.007 413.527 172.244C412.802 172.481 412.034 172.556 411.278 172.465" fill="#2F2E41"/>
<path d="M106.605 152.139C106.912 156.512 108.202 160.759 110.379 164.566C114.967 172.613 122.834 178.44 131.308 181.903C141.895 186.23 153.697 186.363 164.932 185.399C175.367 184.503 185.697 182.425 196.17 181.997C204.27 181.738 212.379 181.932 220.457 182.576C236.13 183.687 251.738 185.748 267.245 188.248C271.445 188.916 275.636 189.634 279.818 190.402C280.213 190.437 280.604 190.51 280.986 190.619C281.062 190.65 281.184 190.626 281.253 190.67C281.38 190.749 280.743 190.468 281.129 190.787C281.667 191.351 282.147 191.967 282.561 192.627L288.288 199.989C289.93 202.1 291.455 204.665 293.577 206.329C295.074 207.483 296.88 208.17 298.766 208.301C300.653 208.433 302.537 208.003 304.179 207.067C305.895 205.984 307.264 204.431 308.122 202.594C309.439 200.18 311.011 197.915 312.81 195.835C319.624 187.896 329.094 183.013 337.014 176.333C340.851 173.229 344.125 169.491 346.694 165.281C348.886 161.471 350.249 157.242 350.694 152.87C351.642 143.992 348.915 134.938 344.327 127.386C339.337 119.272 332.168 112.718 323.635 108.47C314.05 103.592 303.443 101.216 292.81 100.032C281.521 98.775 270.101 98.7789 258.757 98.9058C246.026 99.0474 233.318 99.6066 220.633 100.583C207.931 101.565 195.279 102.961 182.677 104.771C170.585 106.507 158.345 108.317 146.508 111.389C136.052 114.104 125.625 118.346 117.817 126.033C110.874 132.868 106.045 142.221 106.605 152.139Z" fill="#DD285D"/>
<path d="M165.055 154.963C164.538 154.94 164.031 154.81 163.567 154.582C163.103 154.354 162.691 154.032 162.357 153.637C162.024 153.242 161.776 152.782 161.629 152.286C161.482 151.791 161.439 151.27 161.503 150.757L161.772 148.645C161.823 148.239 161.775 147.828 161.632 147.445C161.489 147.063 161.255 146.72 160.95 146.448L159.361 145.03C158.841 144.566 158.461 143.966 158.265 143.297C158.068 142.629 158.063 141.918 158.25 141.247C158.436 140.576 158.807 139.97 159.321 139.498C159.834 139.026 160.469 138.707 161.155 138.577L163.249 138.18C163.651 138.104 164.028 137.932 164.348 137.678C164.668 137.424 164.921 137.096 165.086 136.722L165.946 134.772C166.227 134.135 166.682 133.589 167.258 133.196C167.834 132.803 168.508 132.579 169.205 132.548C169.902 132.518 170.593 132.683 171.201 133.025C171.809 133.367 172.309 133.872 172.645 134.482L173.67 136.349C173.866 136.707 174.147 137.013 174.488 137.238C174.829 137.464 175.22 137.604 175.627 137.645L177.748 137.859C178.442 137.929 179.102 138.192 179.655 138.617C180.207 139.043 180.629 139.614 180.873 140.267C181.118 140.92 181.174 141.628 181.036 142.311C180.899 142.994 180.572 143.625 180.094 144.132L178.634 145.683C178.354 145.98 178.15 146.341 178.04 146.734C177.931 147.128 177.919 147.542 178.006 147.941L178.457 150.023C178.604 150.704 178.558 151.412 178.323 152.068C178.089 152.724 177.675 153.302 177.129 153.735C176.583 154.169 175.927 154.441 175.234 154.521C174.541 154.602 173.84 154.487 173.209 154.19L171.28 153.282C170.911 153.107 170.504 153.025 170.095 153.043C169.687 153.06 169.288 153.177 168.935 153.383L167.093 154.454C166.476 154.815 165.769 154.992 165.055 154.963Z" fill="white"/>
<path d="M195.077 154.093C194.126 154.049 193.226 153.648 192.559 152.97C192.155 152.543 191.854 152.03 191.679 151.47C191.503 150.91 191.457 150.317 191.545 149.737L191.791 147.798C191.844 147.386 191.795 146.966 191.649 146.577C191.503 146.187 191.265 145.838 190.954 145.561L189.481 144.246C189.046 143.875 188.699 143.412 188.466 142.891C188.233 142.37 188.12 141.804 188.133 141.233C188.166 140.388 188.484 139.578 189.037 138.938C189.59 138.297 190.345 137.863 191.177 137.707L193.247 137.314C193.657 137.236 194.041 137.06 194.367 136.801C194.693 136.542 194.951 136.208 195.119 135.827L195.891 134.077C196.167 133.413 196.62 132.838 197.203 132.415C197.785 131.992 198.472 131.737 199.19 131.679C199.893 131.639 200.593 131.8 201.209 132.142C201.824 132.484 202.33 132.994 202.667 133.611L203.68 135.456C203.88 135.822 204.167 136.133 204.515 136.363C204.862 136.593 205.261 136.735 205.676 136.777L207.641 136.975C208.211 137.019 208.764 137.19 209.259 137.475C209.755 137.761 210.18 138.153 210.505 138.623C210.976 139.326 211.193 140.167 211.123 141.01C211.052 141.852 210.698 142.646 210.117 143.261L208.673 144.794C208.388 145.097 208.181 145.464 208.069 145.865C207.958 146.265 207.946 146.687 208.034 147.094L208.45 149.016C208.583 149.571 208.591 150.149 208.474 150.707C208.357 151.266 208.117 151.791 207.771 152.246C207.25 152.914 206.515 153.384 205.69 153.579C204.865 153.774 203.997 153.682 203.231 153.319L201.323 152.421C200.946 152.244 200.532 152.16 200.117 152.178C199.701 152.197 199.296 152.315 198.936 152.524L197.115 153.584C196.498 153.944 195.791 154.121 195.077 154.093Z" fill="white"/>
<path d="M225.177 153.966C224.66 153.942 224.154 153.812 223.689 153.584C223.225 153.356 222.813 153.034 222.48 152.639C222.146 152.244 221.898 151.784 221.751 151.288C221.604 150.793 221.562 150.272 221.626 149.759L221.895 147.647C221.946 147.242 221.898 146.83 221.755 146.447C221.612 146.065 221.377 145.723 221.073 145.45L219.484 144.032C218.964 143.568 218.584 142.968 218.387 142.299C218.191 141.631 218.186 140.921 218.372 140.249C218.559 139.578 218.93 138.972 219.443 138.5C219.956 138.028 220.592 137.71 221.277 137.58L223.372 137.182C223.773 137.106 224.15 136.934 224.47 136.68C224.79 136.426 225.044 136.098 225.208 135.725L226.068 133.775C226.35 133.137 226.804 132.591 227.38 132.198C227.956 131.805 228.631 131.581 229.327 131.551C230.024 131.52 230.716 131.686 231.324 132.027C231.931 132.369 232.431 132.874 232.767 133.485L233.792 135.351C233.989 135.71 234.269 136.015 234.611 136.241C234.952 136.466 235.343 136.606 235.75 136.647L237.87 136.861C238.564 136.931 239.225 137.194 239.777 137.619C240.33 138.045 240.752 138.616 240.996 139.269C241.24 139.922 241.296 140.63 241.159 141.313C241.021 141.996 240.695 142.627 240.217 143.134L238.756 144.685C238.476 144.982 238.272 145.343 238.163 145.736C238.054 146.13 238.042 146.544 238.128 146.943L238.579 149.025C238.726 149.706 238.68 150.414 238.446 151.07C238.211 151.726 237.797 152.304 237.252 152.737C236.706 153.171 236.049 153.443 235.356 153.523C234.663 153.604 233.962 153.489 233.331 153.192L231.403 152.284C231.033 152.109 230.626 152.027 230.218 152.045C229.809 152.062 229.411 152.179 229.058 152.385L227.215 153.457C226.598 153.817 225.891 153.994 225.177 153.966Z" fill="white"/>
<path opacity="0.2" d="M254.455 153.172C253.938 153.149 253.431 153.019 252.967 152.791C252.503 152.562 252.091 152.24 251.757 151.845C251.424 151.45 251.176 150.99 251.029 150.495C250.882 149.999 250.839 149.479 250.904 148.966L251.172 146.853C251.224 146.448 251.176 146.037 251.032 145.654C250.889 145.271 250.655 144.929 250.35 144.657L248.762 143.239C248.241 142.775 247.861 142.174 247.665 141.506C247.468 140.837 247.463 140.127 247.65 139.456C247.836 138.784 248.207 138.179 248.721 137.707C249.234 137.235 249.869 136.916 250.555 136.786L252.649 136.389C253.051 136.313 253.428 136.14 253.748 135.886C254.068 135.632 254.321 135.305 254.486 134.931L255.346 132.981C255.627 132.344 256.082 131.798 256.658 131.405C257.234 131.012 257.908 130.787 258.605 130.757C259.302 130.727 259.993 130.892 260.601 131.234C261.209 131.576 261.709 132.08 262.045 132.691L263.07 134.558C263.266 134.916 263.547 135.221 263.888 135.447C264.229 135.673 264.62 135.812 265.027 135.854L267.148 136.067C267.842 136.138 268.502 136.4 269.055 136.826C269.607 137.251 270.029 137.823 270.274 138.476C270.518 139.128 270.574 139.836 270.436 140.519C270.299 141.202 269.972 141.833 269.494 142.341L268.034 143.892C267.754 144.189 267.55 144.55 267.441 144.943C267.331 145.336 267.319 145.75 267.406 146.149L267.857 148.232C268.004 148.912 267.958 149.621 267.723 150.277C267.489 150.933 267.075 151.51 266.529 151.944C265.983 152.377 265.327 152.65 264.634 152.73C263.941 152.81 263.24 152.695 262.609 152.398L260.681 151.491C260.311 151.316 259.904 151.234 259.495 151.251C259.087 151.269 258.689 151.386 258.335 151.592L256.493 152.663C255.876 153.024 255.169 153.2 254.455 153.172Z" fill="black"/>
<path opacity="0.2" d="M283.732 152.379C283.215 152.356 282.709 152.226 282.245 151.997C281.781 151.769 281.369 151.447 281.035 151.052C280.701 150.657 280.453 150.197 280.306 149.702C280.159 149.206 280.117 148.685 280.181 148.173L280.45 146.06C280.501 145.655 280.453 145.243 280.31 144.861C280.167 144.478 279.933 144.136 279.628 143.864L278.039 142.446C277.519 141.981 277.139 141.381 276.943 140.713C276.746 140.044 276.741 139.334 276.927 138.662C277.114 137.991 277.485 137.385 277.998 136.913C278.512 136.442 279.147 136.123 279.833 135.993L281.927 135.595C282.329 135.519 282.706 135.347 283.025 135.093C283.345 134.839 283.599 134.511 283.764 134.138L284.623 132.188C284.905 131.55 285.359 131.004 285.935 130.611C286.511 130.218 287.186 129.994 287.883 129.964C288.58 129.934 289.271 130.099 289.879 130.441C290.487 130.782 290.987 131.287 291.322 131.898L292.347 133.764C292.544 134.123 292.825 134.428 293.166 134.654C293.507 134.88 293.898 135.019 294.305 135.06L296.425 135.274C297.119 135.344 297.78 135.607 298.332 136.033C298.885 136.458 299.307 137.03 299.551 137.682C299.795 138.335 299.852 139.043 299.714 139.726C299.576 140.409 299.25 141.04 298.772 141.548L297.312 143.098C297.031 143.395 296.828 143.756 296.718 144.15C296.609 144.543 296.597 144.957 296.684 145.356L297.134 147.438C297.282 148.119 297.236 148.828 297.001 149.484C296.766 150.14 296.353 150.717 295.807 151.15C295.261 151.584 294.604 151.856 293.912 151.937C293.219 152.017 292.517 151.902 291.886 151.605L289.958 150.698C289.588 150.523 289.182 150.44 288.773 150.458C288.364 150.476 287.966 150.592 287.613 150.798L285.77 151.87C285.154 152.23 284.446 152.407 283.732 152.379Z" fill="black"/>
<path d="M470.26 401.876L471.117 382.642C480.045 377.875 490.004 375.357 500.128 375.307C486.194 386.685 487.936 408.617 478.489 423.917C475.506 428.667 471.491 432.685 466.742 435.674C461.993 438.663 456.632 440.547 451.055 441.185L439.395 448.315C437.795 439.407 438.147 430.258 440.428 421.498C442.71 412.739 446.865 404.578 452.608 397.577C455.869 393.681 459.608 390.211 463.737 387.249C466.53 394.603 470.26 401.876 470.26 401.876Z" fill="#F2F2F2"/>
<path d="M537.108 450H224.584C224.348 450 224.121 449.906 223.954 449.739C223.787 449.572 223.693 449.346 223.693 449.11C223.693 448.873 223.787 448.647 223.954 448.48C224.121 448.313 224.348 448.219 224.584 448.219H537.108C537.345 448.219 537.572 448.313 537.739 448.48C537.906 448.647 538 448.873 538 449.11C538 449.346 537.906 449.572 537.739 449.739C537.572 449.906 537.345 450 537.108 450Z" fill="#CACACA"/>
</g>
<defs>
<clipPath id="clip0_850:644">
<rect width="538" height="450" fill="white"/>
</clipPath>
</defs>
</svg>
