<svg width="205" height="42" viewBox="0 0 205 42" fill="none" xmlns="http://www.w3.org/2000/svg">
<path d="M38.161 0.258545H3.84314C1.849 0.258545 0.232422 1.87512 0.232422 3.86927V38.1871C0.232422 40.1812 1.849 41.7978 3.84314 41.7978H38.161C40.1551 41.7978 41.7717 40.1812 41.7717 38.1871V3.86927C41.7717 1.87512 40.1551 0.258545 38.161 0.258545Z" fill="#DD285D"/>
<path d="M25.2145 12.3137H16.5V14.928H25.2145V12.3137Z" fill="white"/>
<path d="M27.828 17.2519H13.8848V19.8663H27.828V17.2519Z" fill="white"/>
<path d="M31.3133 22.1901H10.3984V24.8045H31.3133V22.1901Z" fill="white"/>
<path d="M34.5092 27.1283H7.49414V29.7427H34.5092V27.1283Z" fill="white"/>
<path d="M57.8242 29.3999V14.2541H64.5054L64.6651 15.3085C65.3811 14.909 66.1429 14.5979 66.9338 14.3819C67.8682 14.1051 68.8353 13.9547 69.8096 13.9346V19.0151C69.2751 19.0355 68.6854 19.0907 68.0347 19.1749C67.3841 19.2591 66.7682 19.3608 66.1815 19.4654C65.6736 19.5604 65.1764 19.7054 64.6971 19.8982V29.3883L57.8242 29.3999Z" fill="white"/>
<path d="M79.2651 29.7195C77.6405 29.7496 76.0264 29.4533 74.5185 28.8481C73.189 28.3159 72.0489 27.3984 71.2448 26.2134C70.4547 25.0514 70.0606 23.6135 70.0625 21.8997C70.0625 19.4925 70.7597 17.5647 72.154 16.1161C73.5483 14.6676 75.6417 13.9433 78.4343 13.9433C80.9673 13.9433 82.9697 14.5766 84.4415 15.8431C85.9133 17.1096 86.6482 18.8835 86.6463 21.1647V23.7791H76.3573C76.9092 24.941 78.4643 25.5268 81.0225 25.5365C81.9332 25.5382 82.8423 25.4575 83.7385 25.2954C84.4576 25.1768 85.1637 24.99 85.8474 24.7377V28.6331C84.333 29.3574 82.1389 29.7195 79.2651 29.7195ZM76.3602 20.1974H80.7698V19.782C80.7743 19.5671 80.7355 19.3534 80.6556 19.1538C80.5758 18.9541 80.4565 18.7726 80.305 18.6201C79.9855 18.3083 79.4384 18.1524 78.6638 18.1524C77.8097 18.1524 77.2133 18.3335 76.8744 18.6956C76.5118 19.1091 76.3261 19.6484 76.3573 20.1974H76.3602Z" fill="white"/>
<path d="M94.9531 29.7195C93.6684 29.7477 92.3929 29.4969 91.2145 28.9845C90.145 28.4906 89.2725 27.6517 88.7367 26.6026C88.1557 25.5065 87.8652 24.0637 87.8652 22.2744C87.8652 20.4017 88.2061 18.8524 88.8877 17.6266C89.5115 16.461 90.46 15.5014 91.6183 14.8641C92.7716 14.2422 94.064 13.9234 95.3743 13.9374C95.9912 13.9375 96.6065 14.0018 97.2101 14.1292C97.7603 14.2366 98.293 14.4194 98.7933 14.6724V7.86342H105.663V29.3999H99.7141L99.3946 28.3135C98.8025 28.758 98.1449 29.1079 97.4454 29.3506C96.6409 29.6111 95.7986 29.7358 94.9531 29.7195ZM96.9342 24.7987C97.2845 24.8049 97.6324 24.7397 97.9567 24.6069C98.2566 24.477 98.5363 24.3049 98.7874 24.0957V19.5264C98.2705 19.0905 97.6099 18.8627 96.9342 18.8873C96.6122 18.8633 96.2902 18.9327 96.0067 19.0873C95.7233 19.2419 95.4906 19.4751 95.3365 19.7588C95.017 20.3397 94.8572 21.187 94.8572 22.3005C94.8572 23.4072 95.0315 24.1015 95.383 24.3775C95.8388 24.6865 96.3846 24.8348 96.9342 24.7987Z" fill="white"/>
<path d="M116.392 29.7194C114.737 29.7531 113.092 29.4569 111.552 28.848C110.241 28.3221 109.121 27.4104 108.34 26.2336C107.565 25.0717 107.178 23.597 107.178 21.8096C107.178 20.0221 107.565 18.5416 108.34 17.368C109.119 16.1836 110.247 15.2701 111.567 14.7537C113.095 14.1643 114.723 13.8772 116.36 13.9084C117.43 13.8987 118.499 13.9784 119.555 14.1466C120.485 14.3131 121.387 14.6073 122.236 15.0209V19.8139C120.872 19.1806 119.383 18.8639 117.879 18.8873C116.646 18.8873 115.719 19.1051 115.099 19.5409C114.483 19.9795 114.173 20.7406 114.173 21.827C114.173 22.9134 114.483 23.6222 115.099 24.0782C115.715 24.5343 116.656 24.7667 117.911 24.7667C118.685 24.7689 119.456 24.6663 120.203 24.4617C120.933 24.2667 121.64 23.994 122.312 23.6483V28.665C121.441 29.054 120.523 29.3274 119.581 29.4783C118.527 29.6454 117.46 29.726 116.392 29.7194Z" fill="white"/>
<path d="M128.852 29.7194C127.943 29.7285 127.041 29.5546 126.2 29.2082C125.403 28.8769 124.725 28.3143 124.251 27.5931C123.731 26.7448 123.475 25.7609 123.516 24.7667C123.516 23.1245 124.049 21.8657 125.114 20.9904C126.179 20.1151 127.808 19.6735 130.003 19.6658H133.677V19.4305C133.672 19.2139 133.6 19.0041 133.472 18.8295C133.344 18.655 133.165 18.524 132.96 18.4545C132.479 18.2298 131.705 18.1185 130.636 18.1204C129.76 18.1253 128.887 18.1942 128.021 18.3266C127.129 18.4545 126.247 18.6487 125.384 18.9076V15.0529C126.361 14.6666 127.38 14.3927 128.419 14.2366C129.602 14.0423 130.799 13.9451 131.998 13.9461C134.469 13.9461 136.45 14.4516 137.941 15.4625C139.433 16.4734 140.178 18.0662 140.178 20.2409V29.4115H134.188L133.898 28.2496C133.296 28.7345 132.605 29.0976 131.865 29.3186C130.887 29.6071 129.871 29.7423 128.852 29.7194ZM131.345 25.8531C131.813 25.867 132.278 25.7736 132.704 25.58C133.065 25.4077 133.394 25.176 133.677 24.8945V23.2649H131.504C130.377 23.2649 129.811 23.7006 129.811 24.575C129.811 25.4493 130.322 25.8531 131.345 25.8531Z" fill="white"/>
<path d="M142.594 29.3999V14.2541H149.275L149.435 15.3085C150.151 14.9096 150.913 14.5984 151.703 14.3819C152.638 14.1056 153.605 13.9551 154.579 13.9346V19.0151C154.048 19.0355 153.455 19.0907 152.807 19.1749C152.159 19.2591 151.538 19.3608 150.954 19.4654C150.445 19.5608 149.947 19.7057 149.467 19.8982V29.3883L142.594 29.3999Z" fill="white"/>
<path d="M156.109 36.0463V14.2599H162.053L162.372 15.3783C162.966 14.9321 163.623 14.5767 164.321 14.3238C165.124 14.0523 165.967 13.9226 166.814 13.9404C169.093 13.9404 170.846 14.5475 172.071 15.7617C173.297 16.976 173.909 18.9464 173.907 21.6731C173.907 24.3843 173.253 26.4022 171.944 27.7268C170.635 29.0514 168.829 29.7176 166.526 29.7253C165.882 29.7248 165.24 29.6606 164.609 29.5336C164.047 29.428 163.5 29.2544 162.979 29.0165V36.0463H156.109ZM164.801 24.7667C165.098 24.7843 165.394 24.731 165.667 24.6113C165.939 24.4916 166.179 24.3089 166.366 24.0783C166.729 23.6222 166.91 22.8379 166.91 21.7312C166.91 20.6244 166.735 19.8982 166.384 19.4945C166.186 19.2848 165.945 19.1215 165.676 19.0166C165.408 18.9116 165.12 18.8674 164.833 18.8873C164.148 18.8804 163.487 19.1314 162.979 19.5903V24.1596C163.226 24.3549 163.501 24.5107 163.796 24.6215C164.12 24.7268 164.46 24.776 164.801 24.7667Z" fill="white"/>
<path d="M184.324 29.7195C182.7 29.7496 181.087 29.4533 179.58 28.8481C178.249 28.3167 177.108 27.3991 176.303 26.2134C175.515 25.0514 175.121 23.6135 175.121 21.8997C175.121 19.4925 175.819 17.5647 177.215 16.1161C178.612 14.6676 180.704 13.9433 183.493 13.9433C186.03 13.9433 188.032 14.5766 189.5 15.8431C190.968 17.1096 191.703 18.8835 191.705 21.1647V23.7791H181.416C181.972 24.941 183.527 25.5268 186.081 25.5365C186.992 25.5384 187.901 25.4577 188.797 25.2954C189.516 25.1776 190.223 24.9908 190.906 24.7377V28.6331C189.394 29.3574 187.199 29.7195 184.324 29.7195ZM181.419 20.1974H185.828V19.782C185.833 19.5673 185.795 19.3537 185.716 19.154C185.636 18.9544 185.518 18.7728 185.366 18.6201C185.055 18.3006 184.506 18.1408 183.719 18.1408C182.868 18.1408 182.267 18.3209 181.93 18.684C181.567 19.1015 181.382 19.645 181.416 20.1974H181.419Z" fill="white"/>
<path d="M200.376 29.7195C198.203 29.7195 196.637 29.1811 195.679 28.1044C194.72 27.0277 194.241 25.5752 194.241 23.7471V19.2708H192.355V14.2541H194.241V11.2185L201.111 9.71672V14.2541H204.402L204.21 19.2708H201.099V23.3375C201.099 24.36 201.674 24.8713 202.825 24.8713C203.477 24.8686 204.124 24.7607 204.742 24.5518V28.9526C204.104 29.216 203.44 29.4108 202.761 29.5336C201.973 29.6661 201.175 29.7283 200.376 29.7195Z" fill="white"/>
</svg>
