<svg width="100" height="100" viewBox="0 0 100 100" fill="none" xmlns="http://www.w3.org/2000/svg">
<rect width="100" height="100" rx="20" fill="#FFF8E4"/>
<path d="M74 50V41.9999C74 38.6862 71.3137 35.9999 68 35.9999H53.3595C52.606 35.9999 51.9991 36.6166 52 37.3701C52.0012 38.2871 52.1472 39.1703 52.4142 40H24.0791C21.8378 40 19.9593 41.8342 20.0007 44.0752C20.0407 46.2486 21.8171 48.0001 23.9999 48.0001H28V72.0001H64H68C71.314 72.0001 74 69.314 74 66.0001H78.2422C79.2129 66.0001 80 65.213 80 64.2422V51.7578C80 50.787 79.2129 50 78.2422 50H74Z" fill="#FFBD00"/>
<path d="M58.6841 20H33.3159C30.3846 20 28 22.3846 28 25.3157V74.6841C28 77.6152 30.3848 79.9999 33.3159 79.9999H58.6841C61.6152 79.9999 64 77.6152 64 74.6841V25.3157C64 22.3846 61.6152 20 58.6841 20V20Z" fill="#A48000"/>
<path d="M64 74.6843V25.3157C64 22.3846 61.6152 20 58.6841 20H46V80H58.6841C61.6152 80 64 77.6154 64 74.6843Z" fill="#A48000"/>
<path d="M58.4765 23.5156H56.4687V25.5234C56.4687 28.5739 53.9958 31.0468 50.9453 31.0468H41.0547C38.0042 31.0468 35.5313 28.5739 35.5313 25.5234V23.5156H33.5235C32.4164 23.5156 31.5156 24.4163 31.5156 25.5234V74.4765C31.5156 75.5836 32.4164 76.4843 33.5235 76.4843H58.4765C59.5836 76.4843 60.4844 75.5836 60.4844 74.4765V25.5234C60.4844 24.4163 59.5836 23.5156 58.4765 23.5156Z" fill="white"/>
<path d="M60.4844 74.4766V25.5234C60.4844 24.4163 59.5836 23.5156 58.4765 23.5156H56.4687V25.5234C56.4687 28.5739 53.9958 31.0468 50.9453 31.0468H46V76.4844H58.4765C59.5836 76.4844 60.4844 75.5837 60.4844 74.4766Z" fill="white"/>
<path d="M28 72C30.2091 72 31.9999 70.2091 31.9999 68C31.9999 65.7909 30.2091 64.0001 28 64.0001C25.7908 64.0001 24 65.7909 24 68C24 70.2091 25.7908 72 28 72Z" fill="#FFBD00"/>
<path d="M32.9999 56C35.2079 56 37 54.2079 37 52C37 49.7921 35.2079 48.0001 32.9999 48.0001H25C22.7919 48.0001 21 49.7921 21 52C21 54.2079 22.7919 56 25 56H27C24.792 56 23 57.792 23 59.9999C23 62.2079 24.7921 63.9999 27 63.9999H33C35.208 63.9999 37.0001 62.2079 37.0001 59.9999C37.0001 57.792 35.2079 56 32.9999 56Z" fill="#FFBD00"/>
<path d="M74 47.4219V41.9999C74 38.6862 71.3137 35.9999 68 35.9999H53.3595C52.6089 35.9999 52 36.6088 52 37.3595C52 42.1239 55.8761 46 60.6405 46H63.9999V72.0001H68C71.314 72.0001 74 69.314 74 66.0001H78.2421C79.2129 66.0001 80 65.213 80 64.2422V49.1797C80 48.2089 79.2129 47.4219 78.2421 47.4219H74Z" fill="#FFBD00"/>
<path d="M33 56H27C24.7919 56 23 57.792 23 60C23 62.2079 24.792 63.9999 27 63.9999H33C35.208 63.9999 37 62.2079 37 60C37 57.792 35.208 56 33 56Z" fill="#FFBD00"/>
<path d="M64 56V72H68C71.314 72 74 69.3139 74 66H78.2421C79.2129 66 80 65.2129 80 64.2421V56H64Z" fill="#FFBD00"/>
</svg>
