<svg width="100" height="100" viewBox="0 0 100 100" fill="none" xmlns="http://www.w3.org/2000/svg">
<rect width="100" height="100" rx="20" fill="#E3F7FD"/>
<path fill-rule="evenodd" clip-rule="evenodd" d="M27.031 37.5788H38.061C38.9544 37.5788 39.694 38.1826 40.0061 38.9628L42.265 44.6099H64.5301V22.3443C64.5301 21.6998 64.0027 21.1724 63.3582 21.1724H28.2029C27.5583 21.1724 27.031 21.6998 27.031 22.3443V37.5788Z" fill="white"/>
<path fill-rule="evenodd" clip-rule="evenodd" d="M40.0062 38.9629C39.6942 38.1827 38.9545 37.579 38.0611 37.579H27.0311H22.3437C21.6992 37.579 21.1719 38.1063 21.1719 38.7508V72.7345C21.1719 74.0235 22.2265 75.0781 23.5156 75.0781H62.0338C53.0608 66.4729 55.7759 55.0576 55.7759 55.0576C58.653 55.0576 64.9651 52.8225 67.1083 50.7033C67.828 51.4148 69.0175 52.1394 70.3893 52.7879V46.9536C70.3893 45.6647 69.3346 44.6099 68.0456 44.6099H64.53H42.265L40.0062 38.9629Z" fill="#00C4FF"/>
<path fill-rule="evenodd" clip-rule="evenodd" d="M67.1085 50.7031C64.9653 52.8223 58.6532 55.0575 55.776 55.0575C55.776 55.0575 53.061 66.4728 62.0339 75.078C63.4262 76.4132 65.0998 77.6807 67.1086 78.8274C82.064 70.2899 78.4412 55.0575 78.4412 55.0575C76.53 55.0575 73.1033 54.0712 70.3895 52.788C69.0177 52.1392 67.8281 51.4147 67.1085 50.7031ZM61.0737 62.9329C61.9888 62.0176 63.4727 62.0176 64.3878 62.9329L65.766 64.3111L69.8289 60.2482C70.744 59.333 72.2279 59.333 73.143 60.2482C74.0582 61.1633 74.0582 62.6472 73.143 63.5623L67.423 69.2823C66.5079 70.1975 65.024 70.1975 64.1089 69.2823L61.0736 66.247C60.1586 65.3319 60.1586 63.8481 61.0737 62.9329Z" fill="#006584"/>
<path fill-rule="evenodd" clip-rule="evenodd" d="M65.7662 64.3112L64.388 62.933C63.4729 62.0178 61.989 62.0178 61.0739 62.933C60.1586 63.8481 60.1586 65.332 61.0739 66.2471L64.1092 69.2824C65.0244 70.1976 66.5082 70.1976 67.4233 69.2824L73.1433 63.5624C74.0585 62.6473 74.0585 61.1634 73.1433 60.2483C72.2282 59.3331 70.7443 59.3331 69.8292 60.2483L65.7662 64.3112Z" fill="white"/>
<path d="M79.581 54.7864C79.4554 54.2583 78.9837 53.8857 78.4409 53.8857C76.8452 53.8857 73.9822 53.0911 71.5612 52.0389V46.9536C71.5612 45.0152 69.9841 43.4381 68.0457 43.4381H65.702V22.3443C65.702 21.052 64.6506 20.0006 63.3583 20.0006H28.2029C26.9106 20.0006 25.8592 21.052 25.8592 22.3443V36.407H22.3437C21.0514 36.407 20 37.4584 20 38.7507V72.7343C20 74.6728 21.5771 76.2499 23.5155 76.2499H61.5788C62.9573 77.5238 64.5908 78.7396 66.5275 79.8452C66.7075 79.948 66.908 79.9993 67.1085 79.9993C67.309 79.9993 67.5094 79.9479 67.6895 79.8452C75.7993 75.2157 78.6061 68.656 79.5327 63.9682C80.5342 58.9009 79.6203 54.9521 79.581 54.7864ZM28.2029 22.3443H63.3583V43.4381H43.0585L41.0943 38.5276C40.579 37.2394 39.3884 36.4069 38.0612 36.4069H28.2029V22.3443ZM22.3437 72.7343V71.5624C22.3437 70.918 22.3437 70.6472 22.3437 70C22.3437 69.3528 22.3437 69.6211 22.3437 69.2187V38.7507H38.0612C38.4744 38.7507 38.7894 39.0758 38.9183 39.398L41.1772 45.0452C41.3552 45.4901 41.7861 45.7818 42.2653 45.7818H68.0459C68.692 45.7818 69.2177 46.3075 69.2177 46.9536V50.8384C68.6983 50.5169 68.2567 50.1904 67.9326 49.8698C67.476 49.4183 66.7413 49.4183 66.2846 49.8698C64.3627 51.7703 58.3803 53.8856 55.7761 53.8856C55.2334 53.8856 54.7616 54.2582 54.636 54.7863C54.5966 54.952 53.6827 58.9008 54.6844 63.9681C55.257 66.865 56.5484 70.4768 59.3649 73.9062H23.5155C22.8694 73.9062 22.3437 73.3805 22.3437 72.7343ZM77.2334 63.5137C76.0635 69.4316 72.6587 74.1236 67.1084 77.469C61.5888 74.1419 58.1902 69.4812 57.0021 63.6067C56.3373 60.3194 56.5773 57.5086 56.7695 56.168C59.7929 55.8278 64.5682 54.1205 67.1085 52.234C69.6493 54.121 74.4261 55.8285 77.4496 56.1682C77.6411 57.4911 77.8787 60.2487 77.2334 63.5137Z" fill="#006584"/>
<path d="M32.4802 27.0318H59.081C59.7282 27.0318 60.2528 26.5072 60.2528 25.86C60.2528 25.2127 59.7282 24.6881 59.081 24.6881H32.4802C31.833 24.6881 31.3083 25.2127 31.3083 25.86C31.3083 26.5072 31.833 27.0318 32.4802 27.0318Z" fill="#006584"/>
<path d="M60.2528 30.5473C60.2528 29.9001 59.7282 29.3755 59.081 29.3755H32.4802C31.833 29.3755 31.3083 29.9001 31.3083 30.5473C31.3083 31.1945 31.833 31.7192 32.4802 31.7192H59.081C59.728 31.7192 60.2528 31.1945 60.2528 30.5473Z" fill="#006584"/>
<path d="M59.0809 34.0629H45.7805C45.1333 34.0629 44.6086 34.5876 44.6086 35.2348C44.6086 35.882 45.1333 36.4066 45.7805 36.4066H59.0809C59.7282 36.4066 60.2528 35.882 60.2528 35.2348C60.2528 34.5876 59.728 34.0629 59.0809 34.0629Z" fill="#006584"/>
<path d="M59.0811 38.7502H52.1672C51.52 38.7502 50.9954 39.2749 50.9954 39.9221C50.9954 40.5693 51.52 41.0939 52.1672 41.0939H59.0811C59.7283 41.0939 60.2529 40.5693 60.2529 39.9221C60.2529 39.2749 59.7282 38.7502 59.0811 38.7502Z" fill="#006584"/>
<path d="M71.486 58.39C70.547 58.39 69.6642 58.7557 69.0002 59.4197L65.7659 62.654L65.2164 62.1044C64.5524 61.4404 63.6696 61.0748 62.7306 61.0748C61.7916 61.0748 60.9089 61.4406 60.245 62.1044C59.5811 62.7684 59.2153 63.6511 59.2153 64.5901C59.2153 65.5291 59.5811 66.4119 60.2449 67.0758L63.2802 70.1112C63.9655 70.7964 64.8657 71.139 65.7658 71.139C66.6659 71.139 67.5663 70.7963 68.2515 70.1112L73.9716 64.3911C75.3422 63.0206 75.3422 60.7903 73.9716 59.4198C73.3078 58.7557 72.4251 58.39 71.486 58.39ZM72.3145 62.7337L66.5946 68.4537C66.1378 68.9105 65.3945 68.9104 64.9377 68.4537L61.9024 65.4184C61.681 65.1971 61.5593 64.9029 61.5593 64.59C61.5593 64.277 61.6811 63.9829 61.9024 63.7616C62.1236 63.5403 62.4179 63.4185 62.7308 63.4185C63.0436 63.4185 63.3379 63.5404 63.5591 63.7616L64.9373 65.1398C65.1571 65.3596 65.4552 65.4831 65.7659 65.4831C66.0767 65.4831 66.3748 65.3596 66.5946 65.1398L70.6575 61.0769C70.8787 60.8556 71.173 60.7338 71.4858 60.7338C71.7988 60.7338 72.093 60.8557 72.3142 61.0769C72.7712 61.5337 72.7712 62.2769 72.3145 62.7337Z" fill="#006584"/>
</svg>
