<svg width="100" height="100" viewBox="0 0 100 100" fill="none" xmlns="http://www.w3.org/2000/svg">
<rect width="100" height="100" rx="20" fill="#DBFFE1"/>
<path d="M66.0355 20H29.1854C27.8948 20 26.8447 21.05 26.8447 22.3407V66.817C26.8447 68.1077 27.8947 69.1577 29.1854 69.1577H31.554C31.7164 69.1577 31.8715 69.0903 31.9823 68.9716L68.2519 30.1261C68.3531 30.0175 68.4095 29.8746 68.4095 29.7262V22.374C68.4096 21.065 67.3446 20 66.0355 20V20Z" fill="#009819"/>
<path d="M73.1553 34.4715V70.918C73.1553 72.2094 72.1053 73.2594 70.815 73.2594H33.3092C32.0178 73.2594 30.9678 72.2094 30.9678 70.918V26.7348C30.9678 25.4445 32.0178 24.3945 33.3092 24.3945H63.0771L64.16 25.4773L73.1553 34.4715Z" fill="#29D846"/>
<path d="M73.1553 34.4715V70.918C73.1553 72.2094 72.1053 73.2594 70.815 73.2594H33.3092C32.0178 73.2594 30.9678 72.2094 30.9678 70.918V70.3297H68.3857C69.6924 70.3297 70.7518 69.2703 70.7518 67.9625V34.4715L64.16 25.4774L73.1553 34.4715Z" fill="#009819"/>
<path d="M73.1553 34.4715H70.7518L63.8482 34.4703C63.4228 34.4703 63.0771 34.1258 63.0771 33.6992V24.3945C63.233 24.3945 63.3818 24.4555 63.492 24.5656L72.9842 34.0578C73.0943 34.168 73.1553 34.3168 73.1553 34.4715Z" fill="#009819"/>
<path d="M73.1552 34.4715H70.7517L63.4919 24.5656L72.9841 34.0578C73.0943 34.168 73.1552 34.3168 73.1552 34.4715Z" fill="#009819"/>
<path d="M39.5706 39.3191H60.5966C61.082 39.3191 61.4755 38.9257 61.4755 38.4402C61.4755 37.9547 61.082 37.5613 60.5966 37.5613H39.5706C39.0852 37.5613 38.6917 37.9547 38.6917 38.4402C38.6917 38.9257 39.0852 39.3191 39.5706 39.3191Z" fill="#009819"/>
<path d="M60.5966 42.7448H39.5706C39.0852 42.7448 38.6917 43.1381 38.6917 43.6237C38.6917 44.1092 39.0852 44.5026 39.5706 44.5026H60.5966C61.082 44.5026 61.4755 44.1092 61.4755 43.6237C61.4755 43.1381 61.082 42.7448 60.5966 42.7448Z" fill="#009819"/>
<path d="M52.3063 48.0315H39.5706C39.0852 48.0315 38.6917 48.4249 38.6917 48.9104C38.6917 49.3959 39.0852 49.7893 39.5706 49.7893H52.3063C52.7917 49.7893 53.1852 49.3959 53.1852 48.9104C53.1852 48.4249 52.7917 48.0315 52.3063 48.0315Z" fill="#009819"/>
<path d="M50.5483 80.9028L50.6116 80.9109H50.6179C51.0982 80.9696 51.5877 81 52.084 81C58.7229 81 64.123 75.6 64.123 68.9621C64.123 62.3231 58.723 56.923 52.084 56.923C51.5877 56.923 51.0982 56.9535 50.6179 57.0121H50.6116L50.5483 57.0202C44.6317 57.7782 40.0449 62.8421 40.0449 68.9621C40.0449 75.081 44.6318 80.1449 50.5483 80.9028Z" fill="#009819" stroke="white" stroke-width="2"/>
<path d="M56.5487 68.117C56.2055 68.4603 55.6489 68.4602 55.3058 68.1171L52.9628 65.7741V74.2709C52.9628 74.7564 52.5692 75.1498 52.0839 75.1498C51.5985 75.1498 51.2049 74.7564 51.2049 74.2709V65.7741L48.8619 68.1171C48.5187 68.4602 47.9621 68.4603 47.619 68.117C47.2758 67.7737 47.2758 67.2172 47.619 66.8741L51.4624 63.0308C51.634 62.8592 51.859 62.7734 52.0839 62.7734C52.3087 62.7734 52.5337 62.8592 52.7053 63.0308L56.5487 66.8741C56.8919 67.2172 56.8919 67.7737 56.5487 68.117Z" fill="white"/>
</svg>
