<svg width="100" height="100" viewBox="0 0 100 100" fill="none" xmlns="http://www.w3.org/2000/svg">
<rect width="100" height="100" rx="20" fill="#FFF0E9"/>
<path d="M43.4375 41.625H45.3125C46.075 41.625 46.8063 41.3221 47.3454 40.7829C47.8846 40.2438 48.1875 39.5125 48.1875 38.75C48.1875 37.9875 47.8846 37.2562 47.3454 36.7171C46.8063 36.1779 46.075 35.875 45.3125 35.875H43.4375C42.675 35.875 41.9437 36.1779 41.4046 36.7171C40.8654 37.2562 40.5625 37.9875 40.5625 38.75C40.5625 39.5125 40.8654 40.2438 41.4046 40.7829C41.9437 41.3221 42.675 41.625 43.4375 41.625Z" fill="white" stroke="white" stroke-width="2"/>
<path d="M57.5 32.25C58.0139 32.25 58.5067 32.0459 58.87 31.6825C59.2334 31.3192 59.4375 30.8264 59.4375 30.3125V28.4375C59.4375 27.9236 59.2334 27.4308 58.87 27.0675C58.5067 26.7041 58.0139 26.5 57.5 26.5C56.9861 26.5 56.4933 26.7041 56.13 27.0675C55.7666 27.4308 55.5625 27.9236 55.5625 28.4375V30.3125C55.5625 30.8264 55.7666 31.3192 56.13 31.6825C56.4933 32.0459 56.9861 32.25 57.5 32.25Z" fill="white" stroke="white" stroke-width="2"/>
<path d="M57.5 41.625C58.0139 41.625 58.5067 41.4209 58.87 41.0575C59.2334 40.6942 59.4375 40.2014 59.4375 39.6875V37.8125C59.4375 37.2986 59.2334 36.8058 58.87 36.4425C58.5067 36.0791 58.0139 35.875 57.5 35.875C56.9861 35.875 56.4933 36.0791 56.13 36.4425C55.7666 36.8058 55.5625 37.2986 55.5625 37.8125V39.6875C55.5625 40.2014 55.7666 40.6942 56.13 41.0575C56.4933 41.4209 56.9861 41.625 57.5 41.625Z" fill="white" stroke="white" stroke-width="2"/>
<path d="M43.5313 54.75H44.0299L44.3299 54.3517C44.4257 54.2246 44.5277 54.1022 44.6355 53.9851C45.3179 53.3113 46.2363 52.9298 47.1957 52.9218L48.1875 52.9137V51.9219V47.1875C48.1875 46.6736 47.9834 46.1808 47.62 45.8175C47.2567 45.4541 46.7639 45.25 46.25 45.25H42.5C41.9861 45.25 41.4933 45.4541 41.13 45.8175C40.7666 46.1808 40.5625 46.6736 40.5625 47.1875V52.8125C40.5625 53.3264 40.7666 53.8192 41.13 54.1825C41.4933 54.5459 41.9861 54.75 42.5 54.75H43.5313Z" fill="white" stroke="white" stroke-width="2"/>
<path d="M57.5 54.75C58.0139 54.75 58.5067 54.5459 58.87 54.1825C59.2334 53.8192 59.4375 53.3264 59.4375 52.8125V47.1875C59.4375 46.6736 59.2334 46.1808 58.87 45.8175C58.5067 45.4541 58.0139 45.25 57.5 45.25C56.9861 45.25 56.4933 45.4541 56.13 45.8175C55.7666 46.1808 55.5625 46.6736 55.5625 47.1875V52.8125C55.5625 53.3264 55.7666 53.8192 56.13 54.1825C56.4933 54.5459 56.9861 54.75 57.5 54.75Z" fill="white" stroke="white" stroke-width="2"/>
<path d="M43.4375 32.25H45.3125C46.075 32.25 46.8063 31.9471 47.3454 31.4079C47.8846 30.8688 48.1875 30.1375 48.1875 29.375C48.1875 28.6125 47.8846 27.8812 47.3454 27.3421C46.8063 26.8029 46.075 26.5 45.3125 26.5H43.4375C42.675 26.5 41.9437 26.8029 41.4046 27.3421C40.8654 27.8812 40.5625 28.6125 40.5625 29.375C40.5625 30.1375 40.8654 30.8688 41.4046 31.4079C41.9437 31.9471 42.675 32.25 43.4375 32.25Z" fill="white" stroke="white" stroke-width="2"/>
<path d="M42.5 55.625C41.7548 55.6228 41.0407 55.3257 40.5137 54.7988C39.9868 54.2718 39.6897 53.5577 39.6875 52.8125V47.1875C39.6897 46.4423 39.9868 45.7282 40.5137 45.2012C41.0407 44.6743 41.7548 44.3772 42.5 44.375H46.25C46.9952 44.3772 47.7093 44.6743 48.2363 45.2012C48.7632 45.7282 49.0603 46.4423 49.0625 47.1875V52.2969C49.6195 52.5276 50.1259 52.8652 50.5531 53.2906L54.8656 57.5H61.25C61.4986 57.5 61.7371 57.4012 61.9129 57.2254C62.0887 57.0496 62.1875 56.8111 62.1875 56.5625V24.6875C62.1875 24.4389 62.0887 24.2004 61.9129 24.0246C61.7371 23.8488 61.4986 23.75 61.25 23.75H38.75C38.5014 23.75 38.2629 23.8488 38.0871 24.0246C37.9113 24.2004 37.8125 24.4389 37.8125 24.6875V56.5625C37.8125 56.8111 37.9113 57.0496 38.0871 57.2254C38.2629 57.4012 38.5014 57.5 38.75 57.5H42.6406C42.5234 56.8795 42.5329 56.2417 42.6688 55.625H42.5ZM54.6875 28.4375C54.6875 27.6916 54.9838 26.9762 55.5113 26.4488C56.0387 25.9213 56.7541 25.625 57.5 25.625C58.2459 25.625 58.9613 25.9213 59.4887 26.4488C60.0162 26.9762 60.3125 27.6916 60.3125 28.4375V30.3125C60.3125 31.0584 60.0162 31.7738 59.4887 32.3012C58.9613 32.8287 58.2459 33.125 57.5 33.125C56.7541 33.125 56.0387 32.8287 55.5113 32.3012C54.9838 31.7738 54.6875 31.0584 54.6875 30.3125V28.4375ZM54.6875 37.8125C54.6875 37.0666 54.9838 36.3512 55.5113 35.8238C56.0387 35.2963 56.7541 35 57.5 35C58.2459 35 58.9613 35.2963 59.4887 35.8238C60.0162 36.3512 60.3125 37.0666 60.3125 37.8125V39.6875C60.3125 40.4334 60.0162 41.1488 59.4887 41.6762C58.9613 42.2037 58.2459 42.5 57.5 42.5C56.7541 42.5 56.0387 42.2037 55.5113 41.6762C54.9838 41.1488 54.6875 40.4334 54.6875 39.6875V37.8125ZM54.6875 47.1875C54.6875 46.4416 54.9838 45.7262 55.5113 45.1988C56.0387 44.6713 56.7541 44.375 57.5 44.375C58.2459 44.375 58.9613 44.6713 59.4887 45.1988C60.0162 45.7262 60.3125 46.4416 60.3125 47.1875V52.8125C60.3125 53.5584 60.0162 54.2738 59.4887 54.8012C58.9613 55.3287 58.2459 55.625 57.5 55.625C56.7541 55.625 56.0387 55.3287 55.5113 54.8012C54.9838 54.2738 54.6875 53.5584 54.6875 52.8125V47.1875ZM43.4375 25.625H45.3125C46.3071 25.625 47.2609 26.0201 47.9641 26.7233C48.6674 27.4266 49.0625 28.3804 49.0625 29.375C49.0625 30.3696 48.6674 31.3234 47.9641 32.0267C47.2609 32.7299 46.3071 33.125 45.3125 33.125H43.4375C42.4429 33.125 41.4891 32.7299 40.7859 32.0267C40.0826 31.3234 39.6875 30.3696 39.6875 29.375C39.6875 28.3804 40.0826 27.4266 40.7859 26.7233C41.4891 26.0201 42.4429 25.625 43.4375 25.625ZM43.4375 35H45.3125C46.3071 35 47.2609 35.3951 47.9641 36.0984C48.6674 36.8016 49.0625 37.7554 49.0625 38.75C49.0625 39.7446 48.6674 40.6984 47.9641 41.4016C47.2609 42.1049 46.3071 42.5 45.3125 42.5H43.4375C42.4429 42.5 41.4891 42.1049 40.7859 41.4016C40.0826 40.6984 39.6875 39.7446 39.6875 38.75C39.6875 37.7554 40.0826 36.8016 40.7859 36.0984C41.4891 35.3951 42.4429 35 43.4375 35Z" fill="#FF631A"/>
<path d="M71.3655 51.2469L64.0624 46.9156V56.5625C64.0602 57.3078 63.7631 58.0218 63.2362 58.5488C62.7092 59.0758 61.9951 59.3728 61.2499 59.375H56.7968L62.8436 65.2625L61.5311 66.6125L49.2311 54.6313C48.6967 54.1156 47.9835 53.8267 47.2408 53.8249C46.4982 53.8232 45.7836 54.1088 45.2468 54.6219C44.8144 55.0543 44.5347 55.6159 44.4501 56.2215C44.3656 56.8271 44.4807 57.4438 44.778 57.9781C44.8999 58.2125 52.5874 67.2031 52.5874 67.2031C52.7349 67.3716 52.815 67.5886 52.8124 67.8125V69.6875C52.8144 71.4274 53.5064 73.0954 54.7367 74.3257C55.967 75.556 57.635 76.248 59.3749 76.25H76.2499V60.0125C76.2547 58.2554 75.8081 56.5265 74.9528 54.9916C74.0975 53.4567 72.8623 52.1673 71.3655 51.2469Z" fill="#DD0D00"/>
<path d="M31.25 16.875H29.375V18.75H27.5V20.625H29.375V22.5H31.25V20.625H33.125V18.75H31.25V16.875Z" fill="#DD0D00"/>
<path d="M19.75 31.125H21.625V29.25H23.5V27.375H21.625V25.5H19.75V27.375H17.875V29.25H19.75V31.125Z" fill="#DD0D00"/>
<path d="M68.75 22.5H70.625V20.625H72.5V18.75H70.625V16.875H68.75V18.75H66.875V20.625H68.75V22.5Z" fill="#DD0D00"/>
<path d="M80.25 27.375V25.5H78.375V27.375H76.5V29.25H78.375V31.125H80.25V29.25H82.125V27.375H80.25Z" fill="#DD0D00"/>
<path d="M32.25 41.6241H30.375V43.4991H28.5V45.3741H30.375V47.2491H32.25V45.3741H34.125V43.4991H32.25V41.6241Z" fill="#DD0D00"/>
<path d="M24.5 40.7491V38.8741H22.625V36.9991H20.75V38.8741H18.875V40.7491H20.75V42.6241H22.625V40.7491H24.5Z" fill="#DD0D00"/>
<path d="M67.75 47.2491H69.625V45.3741H71.5V43.4991H69.625V41.6241H67.75V43.4991H65.875V45.3741H67.75V47.2491Z" fill="#DD0D00"/>
<path d="M79.25 36.9991H77.375V38.8741H75.5V40.7491H77.375V42.6241H79.25V40.7491H81.125V38.8741H79.25V36.9991Z" fill="#DD0D00"/>
</svg>
