<svg width="308" height="230" viewBox="0 0 308 230" fill="none" xmlns="http://www.w3.org/2000/svg">
<path d="M308 202.12H0V202.275H308V202.12Z" fill="#EBEBEB"/>
<path d="M277.138 212.054H267.96V212.208H277.138V212.054Z" fill="#EBEBEB"/>
<path d="M204.032 213.733H198.678V213.887H204.032V213.733Z" fill="#EBEBEB"/>
<path d="M265.36 206.325H244.299V206.479H265.36V206.325Z" fill="#EBEBEB"/>
<path d="M67.532 209.51H40.927V209.665H67.532V209.51Z" fill="#EBEBEB"/>
<path d="M82.6117 209.51H73.0144V209.665H82.6117V209.51Z" fill="#EBEBEB"/>
<path d="M156.932 207.436H99.2253V207.59H156.932V207.436Z" fill="#EBEBEB"/>
<path d="M145.992 174.587H27.0486C26.1168 174.585 25.2237 174.213 24.5654 173.552C23.9071 172.891 23.5374 171.995 23.5374 171.062V3.4942C23.5455 2.56572 23.9188 1.67795 24.5762 1.0237C25.2336 0.369458 26.1221 0.00159053 27.0486 0H145.992C146.925 0 147.82 0.37139 148.479 1.03247C149.139 1.69355 149.509 2.59016 149.509 3.52507V171.062C149.509 171.997 149.139 172.893 148.479 173.554C147.82 174.215 146.925 174.587 145.992 174.587ZM27.0486 0.123471C26.1576 0.125106 25.3037 0.480956 24.6743 1.11291C24.0449 1.74487 23.6914 2.6013 23.6914 3.4942V171.062C23.6914 171.955 24.0449 172.811 24.6743 173.443C25.3037 174.075 26.1576 174.431 27.0486 174.432H145.992C146.884 174.431 147.738 174.075 148.368 173.443C148.999 172.812 149.354 171.955 149.355 171.062V3.4942C149.354 2.60073 148.999 1.74432 148.368 1.11254C147.738 0.480756 146.884 0.125102 145.992 0.123471H27.0486Z" fill="#EBEBEB"/>
<path d="M279.239 174.587H160.289C159.357 174.585 158.463 174.213 157.804 173.552C157.145 172.892 156.774 171.996 156.772 171.062V3.4942C156.782 2.56516 157.156 1.67739 157.815 1.02332C158.473 0.369243 159.362 0.00157319 160.289 0H279.239C280.164 0.003213 281.051 0.371799 281.707 1.02587C282.363 1.67994 282.736 2.56679 282.744 3.4942V171.062C282.744 171.994 282.375 172.889 281.718 173.55C281.061 174.211 280.17 174.583 279.239 174.587ZM160.289 0.123471C159.398 0.125102 158.543 0.480756 157.913 1.11254C157.282 1.74432 156.928 2.60073 156.926 3.4942V171.062C156.928 171.955 157.282 172.812 157.913 173.443C158.543 174.075 159.398 174.431 160.289 174.432H279.239C280.13 174.431 280.985 174.075 281.615 173.443C282.246 172.812 282.601 171.955 282.602 171.062V3.4942C282.601 2.60073 282.246 1.74432 281.615 1.11254C280.985 0.480756 280.13 0.125102 279.239 0.123471H160.289Z" fill="#EBEBEB"/>
<path d="M136.444 197.614H141.31V164.215H136.444V197.614Z" fill="#F0F0F0"/>
<path d="M38.0134 202.12H138.101V197.614H38.0134V202.12Z" fill="#F0F0F0"/>
<path d="M136.444 164.215H34.7979V197.614H136.444V164.215Z" fill="#F5F5F5"/>
<path d="M129.865 170.031H41.3706V189.107H129.865V170.031Z" fill="#F0F0F0"/>
<path d="M64.0947 172.58H107.153C107.959 172.58 108.613 171.925 108.613 171.117V170.845C108.613 170.037 107.959 169.382 107.153 169.382H64.0947C63.2884 169.382 62.6348 170.037 62.6348 170.845V171.117C62.6348 171.925 63.2884 172.58 64.0947 172.58Z" fill="#F5F5F5"/>
<path d="M32.568 164.215H136.444V161.233H32.568V164.215Z" fill="#F0F0F0"/>
<path d="M143.645 161.233H136.444V164.215H143.645V161.233Z" fill="#E6E6E6"/>
<path d="M132.73 117.179L262.97 117.179V17.076L132.73 17.076V117.179Z" fill="#E6E6E6"/>
<path d="M120.539 13.1803H270.338C270.637 13.1803 270.924 13.2993 271.135 13.5112C271.346 13.7231 271.465 14.0104 271.465 14.3101C271.463 14.6086 271.344 14.8944 271.133 15.1049C270.922 15.3155 270.636 15.4336 270.338 15.4336H120.539C120.39 15.4345 120.243 15.4058 120.106 15.3494C119.968 15.293 119.843 15.2099 119.738 15.1049C119.633 14.9999 119.549 14.8751 119.492 14.7377C119.435 14.6002 119.406 14.4528 119.406 14.3039C119.406 14.1555 119.436 14.0088 119.494 13.872C119.551 13.7353 119.635 13.6112 119.74 13.5068C119.845 13.4025 119.97 13.32 120.107 13.2639C120.244 13.2079 120.391 13.1795 120.539 13.1803Z" fill="#E6E6E6"/>
<path d="M127.9 117.179L260.716 117.179V17.076L127.9 17.076V117.179Z" fill="#F0F0F0"/>
<path d="M132.729 117.179H262.97V120.383H129.403L132.729 117.179Z" fill="#E6E6E6"/>
<path d="M119.855 117.179H252.671L249.345 120.383H116.535L119.855 117.179Z" fill="#F0F0F0"/>
<path d="M253.952 110.407V23.8481L134.658 23.8481V110.407L253.952 110.407Z" fill="#FAFAFA"/>
<path d="M214.146 110.401L174.482 23.8481H155.75L195.42 110.401H214.146Z" fill="white"/>
<path d="M191.397 110.401L151.727 23.8481H144.427L184.098 110.401H191.397Z" fill="white"/>
<path d="M135.52 110.407V23.8481H134.664V110.407H135.52Z" fill="#E6E6E6"/>
<g opacity="0.4">
<path opacity="0.4" d="M253.878 93.7571H265.508V11.1494H253.878V93.7571Z" fill="#F0F0F0"/>
<path opacity="0.4" d="M249.344 93.7571H258.406V11.1494H249.344V93.7571Z" fill="#E6E6E6"/>
<path opacity="0.4" d="M242.248 93.7571H253.878V11.1494H242.248V93.7571Z" fill="#F0F0F0"/>
<path opacity="0.4" d="M237.714 93.7571H246.776V11.1494H237.714V93.7571Z" fill="#E6E6E6"/>
<path opacity="0.4" d="M230.612 93.7571H242.242V11.1494H230.612V93.7571Z" fill="#F0F0F0"/>
</g>
<g opacity="0.4">
<path opacity="0.4" d="M138.994 93.7571H145.696V11.1494H138.994V93.7571Z" fill="#F0F0F0"/>
<path opacity="0.4" d="M136.376 93.7571H141.6V11.1494H136.376V93.7571Z" fill="#E6E6E6"/>
<path opacity="0.4" d="M132.286 93.7571H138.988V11.1494H132.286V93.7571Z" fill="#F0F0F0"/>
<path opacity="0.4" d="M129.674 93.7571H134.898V11.1494H129.674V93.7571Z" fill="#E6E6E6"/>
<path opacity="0.4" d="M125.584 93.7571H132.286V11.1494H125.584L125.584 93.7571Z" fill="#F0F0F0"/>
</g>
<path d="M96.8352 11.2048H43.3232V148.232H96.8352V11.2048Z" fill="#F5F5F5"/>
<path d="M96.8413 148.226H98.3074L98.3074 11.1987H96.8413L96.8413 148.226Z" fill="#E0E0E0"/>
<path d="M91.8765 143.262L91.8765 16.1683L48.276 16.1683L48.276 143.262H91.8765Z" fill="white"/>
<path d="M63.6267 143.262L78.0965 16.1683H86.4433L71.9797 143.262H63.6267Z" fill="#FAFAFA"/>
<path d="M56.3948 143.262L70.8585 16.1683H75.0349L60.5713 143.262H56.3948Z" fill="#FAFAFA"/>
<path d="M154 230C219.963 230 273.436 226.871 273.436 223.012C273.436 219.152 219.963 216.023 154 216.023C88.0371 216.023 34.5637 219.152 34.5637 223.012C34.5637 226.871 88.0371 230 154 230Z" fill="#F5F5F5"/>
<path d="M245.199 223.012H173.25C172.248 223.023 171.254 222.824 170.332 222.429C169.411 222.034 168.581 221.451 167.897 220.717C167.213 219.982 166.688 219.114 166.357 218.165C166.026 217.217 165.896 216.21 165.975 215.209L176.016 62.6798C176.184 60.5783 177.127 58.6148 178.661 57.1722C180.195 55.7296 182.21 54.9111 184.313 54.8765H256.256C257.258 54.8665 258.251 55.0656 259.172 55.4612C260.092 55.8568 260.921 56.4401 261.605 57.174C262.288 57.908 262.812 58.7766 263.143 59.7244C263.473 60.6723 263.603 61.6788 263.525 62.6798L253.496 215.209C253.328 217.31 252.385 219.273 250.851 220.716C249.317 222.159 247.302 222.977 245.199 223.012Z" fill="#263238"/>
<path d="M260.346 95.8932H251.636C251.394 95.8957 251.154 95.8477 250.932 95.7523C250.71 95.6569 250.51 95.5161 250.345 95.339C250.179 95.162 250.053 94.9524 249.973 94.7236C249.893 94.4949 249.861 94.252 249.88 94.0103L250.749 80.799C250.797 80.2967 251.029 79.8299 251.4 79.4882C251.77 79.1465 252.253 78.9537 252.757 78.947H261.461C261.7 78.9448 261.937 78.992 262.157 79.0855C262.377 79.1791 262.576 79.317 262.74 79.4907C262.905 79.6644 263.032 79.8702 263.114 80.0952C263.196 80.3203 263.231 80.5599 263.217 80.799L262.348 94.0103C262.308 94.5176 262.081 94.9918 261.711 95.3401C261.34 95.6883 260.854 95.8856 260.346 95.8932Z" fill="#263238"/>
<path d="M203.144 52.7156H199.96V53.3329H203.144V52.7156Z" fill="#DD285D"/>
<path d="M196.036 52.7156H184.455V53.3329H196.036V52.7156Z" fill="#DD285D"/>
<path d="M244.102 223.012H172.153C171.151 223.022 170.158 222.823 169.237 222.427C168.316 222.032 167.487 221.448 166.803 220.714C166.118 219.981 165.594 219.112 165.263 218.164C164.932 217.216 164.801 216.21 164.878 215.208L174.944 62.6797C175.112 60.5782 176.055 58.6148 177.589 57.1721C179.123 55.7295 181.138 54.9111 183.241 54.8764H255.19C256.188 54.8725 257.177 55.076 258.092 55.4742C259.008 55.8725 259.832 56.4567 260.511 57.19C261.19 57.9233 261.71 58.7898 262.037 59.7347C262.365 60.6796 262.494 61.6824 262.416 62.6797L252.4 215.208C252.232 217.31 251.289 219.273 249.755 220.716C248.221 222.159 246.206 222.977 244.102 223.012Z" fill="#DD285D"/>
<path d="M247.367 205.244H171.248C170.679 205.25 170.114 205.138 169.591 204.913C169.067 204.689 168.596 204.357 168.207 203.94C167.818 203.523 167.52 203.03 167.332 202.491C167.144 201.953 167.07 201.381 167.115 200.812L175.856 68.0197C175.95 66.829 176.483 65.716 177.35 64.8969C178.218 64.0777 179.358 63.6109 180.55 63.5871H256.687C257.257 63.5811 257.821 63.6939 258.344 63.9184C258.868 64.1429 259.339 64.4742 259.728 64.8911C260.117 65.3081 260.415 65.8016 260.603 66.3402C260.791 66.8788 260.865 67.4508 260.82 68.0197L252.079 200.812C251.985 202.006 251.449 203.121 250.578 203.941C249.707 204.76 248.562 205.225 247.367 205.244Z" fill="white"/>
<path d="M233.168 63.5873H218.052L181.43 205.244H196.547L233.168 63.5873Z" fill="#FAFAFA"/>
<path d="M246.486 63.5873H238.928L202.307 205.244H209.865L246.486 63.5873Z" fill="#FAFAFA"/>
<path d="M236.445 161.351L220.011 99.0539C219.571 97.3977 218.494 95.9837 217.016 95.1216C215.538 94.2595 213.78 94.0197 212.126 94.4546L173.244 104.752L168.057 186.156L231.856 169.259C233.508 168.816 234.918 167.735 235.778 166.253C236.638 164.772 236.878 163.009 236.445 161.351Z" fill="#F0F0F0"/>
<path opacity="0.2" d="M212.059 215.791C214.035 213.876 214.187 210.821 212.398 208.968C210.61 207.116 207.559 207.167 205.583 209.082C203.607 210.998 203.456 214.052 205.244 215.905C207.032 217.757 210.083 217.707 212.059 215.791Z" fill="white"/>
<path opacity="0.2" d="M220.916 58.9817C220.873 59.5196 220.632 60.0221 220.239 60.3909C219.846 60.7597 219.329 60.9683 218.791 60.9758C218.536 60.9765 218.283 60.9243 218.049 60.8225C217.815 60.7207 217.605 60.5714 217.431 60.3841C217.258 60.1968 217.125 59.9755 217.041 59.7341C216.957 59.4928 216.923 59.2366 216.943 58.9817C216.984 58.4433 217.226 57.94 217.619 57.5709C218.012 57.2019 218.529 56.9938 219.068 56.9877C219.323 56.9869 219.576 57.0391 219.81 57.1409C220.044 57.2428 220.254 57.392 220.428 57.5793C220.601 57.7666 220.734 57.9879 220.818 58.2293C220.902 58.4706 220.936 58.7268 220.916 58.9817Z" fill="white"/>
<path opacity="0.2" d="M220.017 58.9818C219.995 59.2778 219.864 59.5549 219.648 59.7584C219.432 59.9618 219.149 60.0769 218.852 60.0807C218.711 60.083 218.571 60.0555 218.441 60C218.311 59.9446 218.194 59.8625 218.098 59.7589C218.001 59.6553 217.928 59.5327 217.881 59.3988C217.835 59.265 217.818 59.1229 217.83 58.9818C217.851 58.6858 217.983 58.4087 218.199 58.2053C218.414 58.0018 218.698 57.8868 218.994 57.8829C219.135 57.8807 219.276 57.9082 219.406 57.9636C219.536 58.019 219.653 58.1012 219.749 58.2047C219.845 58.3083 219.919 58.431 219.965 58.5648C220.011 58.6987 220.029 58.8407 220.017 58.9818Z" fill="white"/>
<path d="M104.301 51.2772C106.599 45.6161 105.773 38.7203 99.256 37.1769C97.8198 36.8061 96.317 36.7777 94.8679 37.094C93.4189 37.4102 92.0639 38.0623 90.9117 38.998C89.7594 39.9337 88.842 41.127 88.2329 42.4821C87.6237 43.8372 87.3399 45.3165 87.4041 46.8014C87.6628 52.9749 91.7161 58.1174 84.6136 62.5932C77.5112 67.069 78.2689 80.5581 92.0056 77.9529C105.742 75.3477 98.3196 68.2667 98.3196 68.2667C98.3196 68.2667 94.9501 71.0201 93.866 68.2173C92.4923 64.5873 101.64 57.9014 104.301 51.2772Z" fill="#263238"/>
<path d="M80.1292 69.8471L79.8274 69.7792C80.7452 65.6615 82.1867 64.5997 83.7082 63.4761C85.2297 62.3525 86.6711 61.2845 87.8354 57.2347C88.3836 55.3271 88.0387 53.2157 87.6999 51.1785C87.2687 48.5794 86.8251 45.8878 88.1619 43.4801L88.4268 43.6344C87.1455 45.9433 87.5828 48.5732 88.0017 51.1291C88.3467 53.2034 88.704 55.3456 88.1311 57.3026C86.9422 61.4512 85.3899 62.5933 83.893 63.7045C82.3961 64.8157 81.0224 65.8467 80.1292 69.8471Z" fill="#263238"/>
<path d="M121.796 82.3732C121.839 82.5831 121.913 82.8979 121.98 83.1819L122.196 84.0524C122.344 84.6388 122.51 85.2253 122.683 85.8118C123.034 86.9786 123.409 88.1577 123.816 89.3184C124.629 91.6539 125.558 93.9471 126.6 96.1895L127.376 97.8131C127.508 98.1034 127.694 98.3654 127.925 98.5848C128.617 99.1428 129.443 99.509 130.321 99.6466C132.624 100.02 134.972 100.02 137.276 99.6466L138.107 102.27C137.47 102.552 136.818 102.799 136.154 103.011C135.495 103.231 134.825 103.416 134.146 103.567C132.733 103.893 131.283 104.028 129.834 103.968C128.13 103.92 126.472 103.396 125.048 102.456C124.247 101.899 123.571 101.179 123.064 100.344L122.966 100.19L122.904 100.085L122.781 99.8627L122.529 99.4306L122.03 98.5539C120.741 96.1993 119.609 93.7616 118.642 91.2569C118.173 90.0222 117.711 88.7319 117.336 87.4293C117.151 86.8119 116.966 86.1267 116.8 85.4599C116.633 84.7932 116.486 84.1635 116.35 83.3733L121.796 82.3732Z" fill="#FFC3BD"/>
<path d="M117.04 73.7426C123.255 76.5207 123.2 85.855 123.2 85.855L116.652 89.7999C116.652 89.7999 111.724 82.4904 112.094 79.1691C112.457 75.7058 113.516 72.1807 117.04 73.7426Z" fill="#DD285D"/>
<path opacity="0.2" d="M118.019 81.7064C116.319 79.984 114.822 81.9719 113.455 84.1758C114.393 86.1246 115.461 88.0077 116.652 89.8122L119.338 88.1947C119.867 86.139 119.713 83.435 118.019 81.7064Z" fill="black"/>
<path d="M136.629 99.8812L141.002 97.6958L141.052 103.431C141.052 103.431 137.787 103.999 135.612 101.702L136.629 99.8812Z" fill="#FFC3BD"/>
<path d="M145.703 98.7144L144.951 102.974L141.052 103.431L141.002 97.6958L145.703 98.7144Z" fill="#FFC3BD"/>
<path d="M96.595 218.456L102.003 218.974L104.523 206.362L99.1144 205.843L96.595 218.456Z" fill="#FFC3BD"/>
<path d="M61.1318 203.67L65.5301 206.88L72.8666 196.447L68.4622 193.237L61.1318 203.67Z" fill="#FFC3BD"/>
<path d="M67.1439 204.874L63.5219 199.904C63.4616 199.816 63.3711 199.754 63.2676 199.729C63.1641 199.704 63.055 199.718 62.9613 199.768L58.6185 202.077C58.5112 202.14 58.4182 202.224 58.3457 202.325C58.2732 202.426 58.2228 202.541 58.1978 202.663C58.1728 202.785 58.1737 202.911 58.2006 203.032C58.2274 203.153 58.2796 203.268 58.3536 203.368C59.6472 205.078 60.3556 205.837 61.9511 208.029C62.9367 209.374 64.9079 212.492 66.2631 214.35C67.6183 216.209 69.5217 214.968 69.1275 214.073C67.3411 210.054 67.2795 207.701 67.415 205.819C67.4408 205.481 67.3446 205.146 67.1439 204.874Z" fill="#263238"/>
<path d="M102.718 217.338H96.2252C96.1085 217.338 95.9951 217.377 95.9026 217.449C95.8101 217.52 95.7438 217.62 95.714 217.733L94.3033 222.864C94.2687 222.985 94.2629 223.113 94.2864 223.237C94.3099 223.361 94.3621 223.478 94.4387 223.578C94.5154 223.678 94.6143 223.759 94.7277 223.814C94.8412 223.869 94.9658 223.897 95.0918 223.895C97.3833 223.895 98.4675 223.895 101.32 223.895H110.048C112.42 223.895 112.913 221.493 111.933 221.271C107.535 220.295 104.997 218.95 103.636 217.665C103.382 217.444 103.054 217.327 102.718 217.338Z" fill="#263238"/>
<path opacity="0.2" d="M104.523 206.368L103.223 212.869H97.71L99.1144 205.849L104.523 206.368Z" fill="black"/>
<path opacity="0.2" d="M68.4622 193.237L72.8666 196.453L69.0843 201.831L64.6799 198.614L68.4622 193.237Z" fill="black"/>
<path d="M119.602 78.6628C119.221 82.8299 117.841 91.0098 113.806 106.993L91.6669 105.073C92.7325 96.745 93.2315 91.3493 91.1494 75.5822C91.0817 75.0611 91.1217 74.5315 91.2668 74.0265C91.412 73.5214 91.6591 73.0517 91.993 72.6464C92.3269 72.2412 92.7404 71.909 93.2078 71.6707C93.6752 71.4323 94.1865 71.2928 94.7099 71.2608C96.3053 71.1743 98.2026 71.1188 100.106 71.1929C103.473 71.2434 106.833 71.5343 110.159 72.0633C112.112 72.4152 114.194 72.9214 115.888 73.3659C117.032 73.6663 118.033 74.3631 118.713 75.3328C119.393 76.3025 119.708 77.4823 119.602 78.6628Z" fill="#DD285D"/>
<path opacity="0.2" d="M91.7161 80.2C91.9994 82.6694 92.2089 84.8734 92.3321 86.8489C94.371 86.6698 95.8741 84.4289 96.0281 79.7432C95.2642 77.4775 93.447 78.2986 91.7161 80.2Z" fill="black"/>
<path d="M113.806 106.993C113.806 106.993 121.297 140.206 116.27 163.623C112.925 179.303 105.478 210.979 105.478 210.979L96.0344 210.739C96.0344 210.739 100.544 177.494 102.435 164.437C105.669 142.077 97.5683 105.61 97.5683 105.61L113.806 106.993Z" fill="#263238"/>
<path opacity="0.2" d="M105.17 113.704L100.445 121.168C101.868 130.017 102.771 138.943 103.149 147.899C109.79 135.984 106.642 120.007 105.17 113.704Z" fill="black"/>
<path d="M106.833 211.474L95.1658 211.177L95.8434 207.584L107.744 208.146L106.833 211.474Z" fill="#DD285D"/>
<path d="M108.964 106.641C108.964 106.641 104.572 141.861 95.0426 161.091C87.3487 176.624 71.2527 201.312 71.2527 201.312L65.3699 196.589C65.3699 196.589 75.4353 169.284 81.1518 158.968C95.1781 133.656 83.7143 114.364 91.6669 105.073L108.964 106.641Z" fill="#263238"/>
<path d="M201.091 75.2983L96.3855 119.387C93.0985 120.771 91.5534 124.564 92.9345 127.858L117.838 187.261C119.219 190.555 123.004 192.104 126.291 190.719L230.996 146.63C234.283 145.246 235.828 141.454 234.447 138.16L209.543 78.7569C208.162 75.4626 204.378 73.9142 201.091 75.2983Z" fill="#DD285D"/>
<path opacity="0.1" d="M201.091 75.2983L96.3855 119.387C93.0985 120.771 91.5534 124.564 92.9345 127.858L117.838 187.261C119.219 190.555 123.004 192.104 126.291 190.719L230.996 146.63C234.283 145.246 235.828 141.454 234.447 138.16L209.543 78.7569C208.162 75.4626 204.378 73.9142 201.091 75.2983Z" fill="black"/>
<path opacity="0.2" d="M125.268 116.743L104.766 125.376C103.186 126.041 102.442 127.865 103.107 129.449L107.428 139.757C108.092 141.341 109.912 142.086 111.493 141.42L131.994 132.787C133.575 132.122 134.318 130.298 133.654 128.714L129.333 118.406C128.669 116.822 126.849 116.077 125.268 116.743Z" fill="white"/>
<path opacity="0.4" d="M139.653 157.487L119.567 165.945C118.974 166.195 118.695 166.879 118.944 167.473L120.469 171.11C120.718 171.704 121.4 171.983 121.993 171.734L142.08 163.276C142.673 163.026 142.952 162.342 142.703 161.748L141.178 158.111C140.929 157.517 140.246 157.238 139.653 157.487Z" fill="white"/>
<path opacity="0.4" d="M165.788 146.486L145.701 154.944C145.108 155.193 144.829 155.877 145.078 156.471L146.603 160.108C146.852 160.702 147.535 160.982 148.127 160.732L168.214 152.274C168.807 152.024 169.086 151.34 168.837 150.746L167.312 147.109C167.063 146.515 166.381 146.236 165.788 146.486Z" fill="white"/>
<path opacity="0.4" d="M191.916 135.484L171.829 143.942C171.236 144.192 170.957 144.876 171.206 145.47L172.731 149.107C172.98 149.701 173.663 149.98 174.255 149.731L194.342 141.273C194.935 141.023 195.214 140.339 194.965 139.745L193.44 136.108C193.191 135.514 192.508 135.235 191.916 135.484Z" fill="white"/>
<path opacity="0.4" d="M218.05 124.483L197.963 132.941C197.37 133.191 197.092 133.875 197.341 134.469L198.865 138.106C199.114 138.7 199.797 138.979 200.39 138.729L220.477 130.271C221.069 130.022 221.348 129.338 221.099 128.744L219.574 125.107C219.325 124.513 218.643 124.233 218.05 124.483Z" fill="white"/>
<g opacity="0.6">
<path opacity="0.6" d="M199.875 104.093C204.544 102.99 207.436 98.3019 206.335 93.6228C205.234 88.9437 200.557 86.0452 195.888 87.1487C191.219 88.2522 188.327 92.9399 189.428 97.6189C190.529 102.298 195.206 105.197 199.875 104.093Z" fill="#263238"/>
<path opacity="0.6" d="M194.323 105.245C197.205 101.401 196.427 95.951 192.586 93.0713C188.745 90.1915 183.295 90.9727 180.413 94.8161C177.532 98.6596 178.31 104.11 182.151 106.99C185.992 109.869 191.441 109.088 194.323 105.245Z" fill="white"/>
</g>
<path d="M71.8688 201.966L64.3228 196.243L66.1769 192.922L74.1972 199.157L71.8688 201.966Z" fill="#DD285D"/>
<path d="M91.4452 103.746L90.2748 105.647C90.1824 105.789 90.3548 105.968 90.6074 105.987L113.831 107.999C114.028 107.999 114.2 107.932 114.225 107.808L114.594 105.839C114.625 105.703 114.459 105.573 114.243 105.555L91.8209 103.61C91.7519 103.599 91.6813 103.606 91.6156 103.629C91.5498 103.653 91.4912 103.693 91.4452 103.746Z" fill="#DD285D"/>
<path opacity="0.5" d="M91.4452 103.746L90.2748 105.647C90.1824 105.789 90.3548 105.968 90.6074 105.987L113.831 107.999C114.028 107.999 114.2 107.932 114.225 107.808L114.594 105.839C114.625 105.703 114.459 105.573 114.243 105.555L91.8209 103.61C91.7519 103.599 91.6813 103.606 91.6156 103.629C91.5498 103.653 91.4912 103.693 91.4452 103.746Z" fill="black"/>
<path d="M94.2478 106.518L93.6318 106.468C93.5148 106.468 93.4285 106.388 93.4409 106.314L93.946 103.758C93.946 103.678 94.0692 103.629 94.1924 103.641L94.8084 103.69C94.9316 103.69 95.0178 103.771 94.9993 103.845L94.4942 106.4C94.4696 106.475 94.3587 106.53 94.2478 106.518Z" fill="#DD285D"/>
<path d="M112.112 108.067L111.496 108.018C111.379 108.018 111.293 107.938 111.305 107.864L111.81 105.308C111.832 105.264 111.868 105.228 111.913 105.207C111.958 105.185 112.008 105.18 112.056 105.19L112.672 105.24C112.796 105.24 112.882 105.32 112.863 105.394L112.358 107.95C112.352 108.036 112.241 108.08 112.112 108.067Z" fill="#DD285D"/>
<path d="M103.18 107.296L102.564 107.24C102.441 107.24 102.354 107.16 102.373 107.086L102.878 104.53C102.878 104.456 103.001 104.4 103.118 104.413L103.734 104.468C103.851 104.468 103.937 104.548 103.925 104.623L103.42 107.178C103.408 107.252 103.303 107.302 103.18 107.296Z" fill="#DD285D"/>
<path d="M68.5238 207.621C68.4545 207.633 68.3837 207.633 68.3144 207.621C67.6429 207.485 67.0824 206.343 66.7867 205.677C66.775 205.659 66.7688 205.639 66.7688 205.618C66.7688 205.597 66.775 205.577 66.7867 205.559C66.8027 205.547 66.8221 205.541 66.8421 205.541C66.8621 205.541 66.8816 205.547 66.8976 205.559C67.107 205.633 68.9427 206.343 69.0844 207.016C69.1014 207.089 69.0977 207.165 69.0737 207.236C69.0498 207.307 69.0065 207.37 68.9488 207.418C68.8324 207.529 68.6835 207.6 68.5238 207.621ZM67.0885 205.819C67.5074 206.738 67.9756 207.325 68.3575 207.399C68.4437 207.412 68.5319 207.403 68.6137 207.373C68.6956 207.343 68.7685 207.292 68.8256 207.226C68.8564 207.203 68.8798 207.172 68.893 207.135C68.9061 207.099 68.9084 207.06 68.8996 207.022C68.8133 206.609 67.723 206.078 67.0885 205.819Z" fill="#DD285D"/>
<path d="M68.5791 205.905C67.9936 205.978 67.3992 205.914 66.842 205.72C66.825 205.712 66.8103 205.7 66.7995 205.685C66.7886 205.67 66.7821 205.652 66.7804 205.633C66.778 205.614 66.7807 205.595 66.7883 205.578C66.7959 205.561 66.8081 205.545 66.8235 205.534C66.8789 205.497 68.1479 204.571 68.9117 204.744C69.0061 204.762 69.0953 204.801 69.173 204.858C69.2508 204.914 69.3151 204.987 69.3614 205.071C69.4224 205.149 69.4555 205.245 69.4555 205.343C69.4555 205.442 69.4224 205.537 69.3614 205.615C69.1422 205.8 68.8656 205.902 68.5791 205.905ZM67.1438 205.578C67.7598 205.757 68.9117 205.769 69.1951 205.454C69.2444 205.405 69.2875 205.325 69.1951 205.164C69.1647 205.107 69.1218 205.057 69.0695 205.018C69.0173 204.98 68.957 204.954 68.8933 204.942C68.3758 204.837 67.4888 205.349 67.1438 205.578Z" fill="#DD285D"/>
<path d="M105.601 218.388C105.004 218.373 104.409 218.298 103.827 218.166C103.807 218.157 103.79 218.143 103.778 218.125C103.767 218.107 103.76 218.085 103.76 218.064C103.76 218.042 103.767 218.021 103.778 218.003C103.79 217.985 103.807 217.971 103.827 217.962C104.098 217.832 106.451 216.727 107.042 217.147C107.097 217.182 107.141 217.232 107.168 217.291C107.196 217.35 107.205 217.416 107.196 217.48C107.195 217.601 107.165 217.72 107.11 217.827C107.054 217.935 106.974 218.027 106.876 218.098C106.493 218.328 106.046 218.43 105.601 218.388ZM104.196 218.017C104.899 218.147 106.192 218.32 106.722 217.919C106.791 217.865 106.847 217.796 106.887 217.719C106.928 217.641 106.951 217.556 106.956 217.468C106.956 217.382 106.956 217.345 106.901 217.326C106.568 217.098 105.176 217.585 104.196 218.017Z" fill="#DD285D"/>
<path d="M103.851 218.166C103.83 218.174 103.805 218.174 103.784 218.166C103.768 218.154 103.756 218.138 103.749 218.119C103.742 218.1 103.742 218.08 103.747 218.061C103.747 217.956 104.301 215.628 105.595 215.776C105.915 215.82 106.001 215.974 106.02 216.104C106.1 216.721 104.615 217.894 103.901 218.184L103.851 218.166ZM105.465 215.962C104.646 215.962 104.172 217.32 104.012 217.863C104.782 217.456 105.86 216.486 105.792 216.11C105.792 216.079 105.792 215.993 105.552 215.968L105.465 215.962Z" fill="#DD285D"/>
<path d="M94.1187 80.3113L93.7922 80.7743L93.4349 81.299C93.1947 81.6571 92.9544 82.0213 92.7265 82.3979C92.2583 83.1387 91.8333 83.9104 91.4021 84.6821C90.5506 86.2343 89.8016 87.8408 89.1599 89.4913C88.5129 91.1319 87.9717 92.8125 87.5398 94.5227L87.2503 95.7574C87.2503 95.7203 87.2133 95.85 87.2811 96.0846C87.4931 96.7444 87.8024 97.3686 88.1989 97.9366C89.194 99.3703 90.311 100.715 91.5376 101.956C92.7696 103.264 94.1371 104.53 95.4985 105.789C96.8599 107.049 98.289 108.259 99.7181 109.45C101.147 110.642 102.607 111.846 104.03 113.006L102.49 115.284C99.1905 113.323 96.0047 111.175 92.9483 108.851C91.4083 107.691 89.8991 106.468 88.4391 105.147C86.9083 103.803 85.5116 102.312 84.2688 100.696C83.5239 99.7473 82.9411 98.6813 82.544 97.5415C82.2744 96.7482 82.184 95.9047 82.2791 95.0721V94.8992V94.8066L82.3099 94.6214L82.3715 94.2449L82.5009 93.4979C82.8633 91.5095 83.374 89.5511 84.0286 87.6392C84.7055 85.7368 85.506 83.8807 86.4248 82.0831C86.8868 81.1817 87.3919 80.3113 87.934 79.4531C88.1989 79.021 88.4761 78.595 88.7656 78.169L89.2215 77.5517C89.3816 77.3356 89.5171 77.1442 89.7327 76.8788L94.1187 80.3113Z" fill="#FFC3BD"/>
<path d="M93.5703 71.6128C89.3445 72.7241 85.2666 82.9906 85.2666 82.9906L90.7367 88.0035C90.7367 88.0035 99.3299 80.1508 99.0404 76.6072C98.8001 73.5945 96.9644 70.7115 93.5703 71.6128Z" fill="#DD285D"/>
<path opacity="0.2" d="M100.106 70.9955C99.332 71.1539 98.5428 71.2264 97.7529 71.2116C97.5866 74.2613 99.5393 77.206 104.338 81.1571C105.49 77.5579 108.034 76.7801 108.034 76.7801L100.106 70.9955Z" fill="black"/>
<path opacity="0.2" d="M110.159 71.9646C110.159 71.9646 110.72 72.0448 112.057 72.3535C112.95 73.7302 114.108 77.9714 111.478 80.9964C110.455 77.2923 108.016 76.8231 108.016 76.8231L110.159 71.9646Z" fill="black"/>
<path d="M100.106 70.9955C100.106 70.9955 98.874 70.9955 97.371 70.9955C96.4778 72.3722 99.5516 76.1874 104.344 80.1384C105.496 76.5393 108.04 76.7554 108.04 76.7554L100.106 70.9955Z" fill="white"/>
<path d="M110.159 71.9646C110.159 71.9646 110.72 72.0448 112.057 72.3535C112.95 73.7302 114.878 77.459 112.248 80.4593C111.225 76.7552 108.016 76.8046 108.016 76.8046L110.159 71.9646Z" fill="white"/>
<path d="M102.084 59.9141C102.441 63.2107 102.558 69.1743 100.106 71.1745C100.106 71.1745 101.381 74.8786 108.016 76.8048C112.007 74.4959 110.159 72.045 110.159 72.045C106.63 70.872 106.956 68.1989 107.8 65.7295L102.084 59.9141Z" fill="#FFC3BD"/>
<path opacity="0.2" d="M104.412 62.2908L107.8 65.7294C107.592 66.3009 107.436 66.8897 107.332 67.4889C105.97 67.174 103.999 65.7541 103.981 64.2972C104.006 63.6082 104.152 62.929 104.412 62.2908Z" fill="black"/>
<path d="M109.574 46.7397C110.652 45.5482 112.79 47.0669 113.578 49.9869C114.761 54.3084 111.607 54.6171 109.956 52.4563C108.305 50.2956 108.675 47.7336 109.574 46.7397Z" fill="#263238"/>
<path d="M112.913 54.3269C113.994 54.702 115.017 55.23 115.949 55.895C115.414 54.5862 114.933 53.7898 112.913 54.3269Z" fill="#263238"/>
<path d="M113.535 54.5307C114.411 54.356 115.306 54.3061 116.196 54.3826C115.321 53.7097 114.687 53.3763 113.535 54.5307Z" fill="#263238"/>
<path d="M99.1759 54.7652C100.55 60.0312 101.024 62.2907 104.239 64.4946C109.087 67.816 115.241 64.9762 115.469 59.4015C115.672 54.3886 113.393 46.6223 107.769 45.5234C106.53 45.2713 105.246 45.342 104.042 45.7289C102.838 46.1158 101.753 46.8058 100.891 47.7331C100.028 48.6603 99.418 49.7937 99.1178 51.0249C98.8176 52.2561 98.8376 53.5439 99.1759 54.7652Z" fill="#FFC3BD"/>
<path d="M101.714 47.82L100.192 49.5918C99.7358 50.1153 99.0919 50.4374 98.4 50.4882C97.7081 50.5391 97.0242 50.3146 96.4964 49.8634C95.9731 49.4068 95.6506 48.7618 95.5987 48.0684C95.5468 47.375 95.7697 46.6891 96.2192 46.1593L97.7407 44.3937C98.1972 43.8707 98.8405 43.5485 99.5319 43.4966C100.223 43.4446 100.907 43.667 101.437 44.1159C101.958 44.5734 102.28 45.2182 102.332 45.9111C102.384 46.604 102.162 47.2896 101.714 47.82Z" fill="white"/>
<path d="M103.118 49.7956L101.27 50.7216C100.512 51.0939 99.637 51.1503 98.8372 50.8785C98.0374 50.6067 97.3774 50.0287 97.0013 49.2708C96.6295 48.5098 96.5731 47.6323 96.8443 46.8297C97.1154 46.0271 97.6923 45.3645 98.4489 44.9864L100.297 44.0604C101.057 43.6882 101.933 43.6326 102.734 43.9055C103.535 44.1785 104.196 44.7579 104.572 45.5173C104.943 46.2782 104.998 47.1554 104.726 47.9571C104.454 48.7588 103.875 49.4198 103.118 49.7956Z" fill="#DD285D"/>
<path d="M100.753 58.7039C100.753 58.7039 104.547 57.8335 102.933 52.2711C102.873 52.0571 102.863 51.832 102.903 51.6133C102.943 51.3945 103.032 51.1878 103.164 51.009C103.296 50.8302 103.467 50.6841 103.664 50.5819C103.861 50.4796 104.079 50.4239 104.301 50.4191C108.576 50.3018 112.574 49.4066 112.007 46.9249C111.299 43.7887 100.648 41.3687 98.7139 47.6472C94.9378 48.53 94.7961 55.9876 100.753 58.7039Z" fill="#263238"/>
<path d="M100.771 57.6051C101.853 57.9802 102.876 58.5082 103.808 59.1732C103.272 57.8767 102.792 57.0803 100.771 57.6051Z" fill="#263238"/>
<path d="M101.394 57.8212C102.269 57.6464 103.165 57.5966 104.055 57.673C103.186 57.0124 102.552 56.6729 101.394 57.8212Z" fill="#263238"/>
<path d="M98.3135 58.9015C98.8055 59.8315 99.6449 60.5284 100.648 60.8399C101.985 61.2412 102.675 60.0559 102.33 58.778C102.016 57.6297 100.944 56.0431 99.5948 56.1975C99.3013 56.2382 99.0226 56.3514 98.7836 56.5269C98.5447 56.7024 98.353 56.9347 98.2259 57.2029C98.0988 57.4711 98.0403 57.7668 98.0556 58.0633C98.0709 58.3598 98.1595 58.6478 98.3135 58.9015Z" fill="#FFC3BD"/>
<path d="M108.083 54.5862C108.17 55.0184 108.471 55.3271 108.749 55.2715C109.026 55.2159 109.192 54.8147 109.112 54.3825C109.032 53.9504 108.724 53.6417 108.441 53.6973C108.157 53.7528 107.997 54.1479 108.083 54.5862Z" fill="#263238"/>
<path d="M112.98 53.6169C113.067 54.0553 113.362 54.3578 113.646 54.3022C113.929 54.2466 114.089 53.8515 114.003 53.4194C113.917 52.9872 113.621 52.6786 113.338 52.7341C113.054 52.7897 112.894 53.1848 112.98 53.6169Z" fill="#263238"/>
<path d="M113.221 52.7836L114.2 52.2773C114.2 52.2773 113.824 53.1972 113.221 52.7836Z" fill="#263238"/>
<path d="M111.299 54.7035C111.879 55.6187 112.581 56.4497 113.387 57.1729C113.199 57.3792 112.968 57.5415 112.71 57.6482C112.453 57.7549 112.175 57.8034 111.896 57.7902L111.299 54.7035Z" fill="#ED847E"/>
<path d="M109.894 59.8336C108.983 59.8453 108.101 59.5074 107.43 58.8891C107.41 58.8684 107.399 58.8407 107.399 58.8119C107.399 58.7832 107.41 58.7555 107.43 58.7348C107.451 58.7148 107.479 58.7036 107.507 58.7036C107.536 58.7036 107.564 58.7148 107.584 58.7348C107.999 59.1011 108.494 59.3642 109.029 59.5025C109.564 59.6409 110.125 59.6507 110.664 59.5311C110.692 59.5262 110.721 59.5326 110.744 59.5488C110.767 59.565 110.783 59.5897 110.787 59.6176C110.792 59.6454 110.786 59.6741 110.77 59.6972C110.754 59.7204 110.729 59.7361 110.701 59.741C110.436 59.8008 110.166 59.8318 109.894 59.8336Z" fill="#263238"/>
<path d="M105.145 52.9009C105.106 52.8993 105.068 52.8887 105.034 52.87C104.985 52.8405 104.95 52.7928 104.936 52.7372C104.922 52.6816 104.931 52.6228 104.96 52.5737C105.164 52.2268 105.447 51.9337 105.787 51.719C106.127 51.5042 106.513 51.3739 106.913 51.339C106.97 51.3389 107.024 51.3606 107.065 51.3997C107.107 51.4387 107.131 51.4921 107.135 51.5489C107.135 51.5773 107.131 51.6055 107.121 51.6321C107.11 51.6586 107.095 51.6829 107.076 51.7035C107.056 51.7241 107.033 51.7407 107.007 51.7523C106.981 51.764 106.953 51.7703 106.925 51.7711C106.595 51.8076 106.278 51.9223 106 52.1059C105.723 52.2895 105.493 52.5366 105.33 52.8268C105.307 52.8531 105.279 52.8736 105.246 52.8865C105.214 52.8994 105.179 52.9043 105.145 52.9009Z" fill="#263238"/>
<path d="M114.342 51.1599C114.307 51.1691 114.271 51.1691 114.237 51.1599C113.95 50.9901 113.627 50.8905 113.294 50.869C112.961 50.8476 112.628 50.9049 112.321 51.0364C112.267 51.0643 112.203 51.0692 112.145 51.0501C112.086 51.031 112.038 50.9894 112.01 50.9346C111.982 50.8797 111.977 50.8161 111.997 50.7576C112.016 50.6991 112.057 50.6507 112.112 50.6228C112.481 50.4553 112.884 50.3796 113.289 50.4022C113.693 50.4248 114.086 50.545 114.434 50.7525C114.459 50.766 114.48 50.7842 114.498 50.8063C114.515 50.8283 114.528 50.8535 114.535 50.8806C114.543 50.9076 114.545 50.9359 114.541 50.9638C114.538 50.9916 114.528 51.0184 114.514 51.0426C114.499 51.076 114.474 51.1045 114.444 51.1251C114.414 51.1458 114.378 51.1578 114.342 51.1599Z" fill="#263238"/>
<path d="M102.016 112.086L106.944 112.432L104.72 117.71C104.72 117.71 100.605 116.408 100.439 113.389L102.016 112.086Z" fill="#FFC3BD"/>
<path d="M108.835 115.42L106.451 119.025L104.726 117.71L106.962 112.432L108.835 115.42Z" fill="#FFC3BD"/>
<path d="M108.323 53.7467L109.303 53.2405C109.303 53.2405 108.927 54.1603 108.323 53.7467Z" fill="#263238"/>
</svg>
