<svg width="413" height="230" viewBox="0 0 413 230" fill="none" xmlns="http://www.w3.org/2000/svg">
<path d="M332.39 38.946L332.957 40.9484L331.153 53.6997L327.789 54.6356L329.571 42.4515L325.123 43.6767L325.73 45.8549L322.996 46.6263L321.686 41.924L332.39 38.946Z" fill="#E0E0E0"/>
<path d="M346.094 45.0097C346.752 47.3807 345.589 49.9275 341.772 50.9883C339.977 51.5256 338.064 51.5256 336.27 50.9883L336.837 48.2769C338.167 48.7616 339.616 48.8132 340.978 48.4244C342.52 47.9933 343.298 47.08 342.997 45.991C342.696 44.9019 341.823 44.4424 339.395 45.1174L335.992 46.0704L334.585 38.3504L342.742 36.0815L343.417 38.5716L337.835 40.1202L338.334 42.7237L339.423 42.4174C343.377 41.3 345.436 42.6443 346.094 45.0097Z" fill="#E0E0E0"/>
<path d="M345.844 39.0084C345.243 36.8303 346.06 35.0378 347.858 34.5387C349.656 34.0395 351.261 35.1059 351.885 37.3294C352.509 39.553 351.653 41.3 349.872 41.7992C348.09 42.2984 346.451 41.1866 345.844 39.0084ZM350.949 37.596C350.467 35.8603 349.361 35.0549 348.113 35.4009C346.865 35.7469 346.338 37.0231 346.82 38.7475C347.302 40.4719 348.391 41.2944 349.656 40.9427C350.921 40.591 351.409 39.3374 350.927 37.596H350.949ZM356.003 32.3832L357.138 32.0712L351.726 47.982L350.592 48.294L356.003 32.3832ZM355.816 43.0358C355.215 40.8576 356.049 39.0652 357.824 38.566C359.6 38.0668 361.228 39.1786 361.857 41.3568C362.487 43.5349 361.642 45.3274 359.844 45.8265C358.045 46.3257 356.4 45.2139 355.793 43.0358H355.816ZM360.921 41.6234C360.445 39.9217 359.35 39.0765 358.085 39.4282C356.82 39.7799 356.304 41.0334 356.792 42.7692C357.28 44.5049 358.38 45.3104 359.628 44.9643C360.876 44.6183 361.352 43.3421 360.876 41.6234H360.921Z" fill="#E0E0E0"/>
<path d="M361.526 225.143L401.463 225.457L401.859 175.043L361.922 174.73L361.526 225.143Z" fill="#EBEBEB"/>
<path d="M386.231 176.539L385.522 225.349L379.214 225.303L380.564 176.493L386.231 176.539Z" fill="#FAFAFA"/>
<path d="M338.987 176.17L361.897 176.351L401.836 176.663L361.857 181.922L361.517 225.161L338.612 224.986L338.987 176.17Z" fill="#E0E0E0"/>
<path d="M351.46 176.266L350.547 225.076L343.751 225.025L344.863 176.215L351.46 176.266Z" fill="#FAFAFA"/>
<path d="M369.594 161.411C369.594 161.513 368.919 161.638 367.688 161.757C365.949 161.926 364.201 162.004 362.453 161.989C359.813 162 357.184 161.655 354.636 160.963C354.241 160.835 353.86 160.664 353.502 160.452C353.081 160.21 352.723 159.872 352.458 159.465C352.185 159.028 352.039 158.523 352.039 158.007C352.04 157.556 352.097 157.106 352.209 156.669C352.566 155.03 353.061 153.425 353.689 151.87C354.036 151.058 354.47 150.286 354.982 149.567C355.494 148.828 356.138 148.192 356.883 147.689C357.282 147.42 357.729 147.228 358.199 147.122C358.677 147.018 359.172 147.018 359.651 147.122C360.466 147.355 361.219 147.766 361.857 148.325C363.922 149.996 365.68 152.013 367.053 154.286C367.977 155.801 368.685 157.437 369.158 159.147C369.47 160.361 369.504 161.053 369.419 161.076C369.169 161.15 368.607 158.421 366.174 154.836C364.745 152.768 363.002 150.937 361.006 149.408C360.509 148.991 359.929 148.684 359.305 148.506C359.016 148.449 358.718 148.452 358.431 148.514C358.143 148.577 357.871 148.698 357.631 148.869C357.049 149.282 356.545 149.797 356.145 150.389C355.699 151.026 355.318 151.706 355.011 152.42C354.421 153.894 353.946 155.411 353.587 156.958C353.379 157.509 353.393 158.119 353.627 158.66C353.987 159.129 354.491 159.467 355.062 159.624C355.708 159.834 356.365 160.008 357.03 160.146C357.683 160.293 358.329 160.407 358.959 160.503C360.212 160.702 361.392 160.815 362.481 160.889C364.654 161.036 366.452 161.065 367.66 161.127C368.868 161.189 369.589 161.309 369.594 161.411Z" fill="#E0E0E0"/>
<path d="M368.766 161.779C368.766 161.677 369.492 161.462 370.837 161.155C372.181 160.849 374.143 160.446 376.509 159.874C379.291 159.232 382.019 158.371 384.665 157.298C385.392 157.024 386.08 156.658 386.713 156.209C386.983 156.018 387.207 155.77 387.371 155.483C387.502 155.228 387.542 154.936 387.485 154.655C387.4 154.281 387.268 153.919 387.093 153.577C386.906 153.175 386.713 152.766 386.526 152.358C386.145 151.546 385.709 150.762 385.221 150.009C384.742 149.279 384.17 148.614 383.52 148.03C382.931 147.47 382.242 147.025 381.489 146.719C380.817 146.456 380.077 146.424 379.385 146.629C378.685 146.875 378.042 147.261 377.496 147.763C375.367 149.627 373.526 151.797 372.033 154.201C371.027 155.83 370.212 157.57 369.606 159.386C369.18 160.685 369.01 161.428 368.897 161.411C368.783 161.394 368.789 160.622 369.05 159.244C369.459 157.294 370.159 155.416 371.126 153.674C372.562 151.081 374.411 148.74 376.6 146.742C377.272 146.092 378.074 145.591 378.954 145.273C379.941 144.959 381.006 144.985 381.977 145.347C382.452 145.518 382.905 145.744 383.327 146.022C383.739 146.295 384.131 146.596 384.501 146.924C385.239 147.592 385.886 148.355 386.424 149.193C386.947 150.002 387.415 150.845 387.825 151.717L388.392 152.97C388.621 153.43 388.785 153.918 388.88 154.422C388.987 155.016 388.889 155.628 388.602 156.158C388.337 156.623 387.973 157.024 387.536 157.332C386.799 157.844 385.998 158.256 385.153 158.558C382.414 159.599 379.582 160.382 376.696 160.895C374.251 161.348 372.26 161.581 370.888 161.723C369.515 161.864 368.783 161.876 368.766 161.779Z" fill="#FAFAFA"/>
<path d="M331.717 176.097L390.424 176.558L390.555 159.871L331.848 159.41L331.717 176.097Z" fill="#E0E0E0"/>
<path d="M353.313 176.261L406.376 176.678L406.507 159.991L353.444 159.574L353.313 176.261Z" fill="#EBEBEB"/>
<path d="M390.213 159.885L389.844 176.647L383.656 176.516L384.087 159.834L390.213 159.885Z" fill="#FAFAFA"/>
<path d="M346.247 159.624L345.646 176.238L338.845 176.181L339.208 159.488L346.247 159.624Z" fill="#FAFAFA"/>
<path d="M391.99 225.734L410.231 225.877L410.412 202.849L392.171 202.705L391.99 225.734Z" fill="#EBEBEB"/>
<path d="M403.271 203.544L402.947 225.837L400.06 225.82L400.678 203.522L403.271 203.544Z" fill="#FAFAFA"/>
<path d="M381.687 203.374L392.153 203.454L410.395 203.601L392.136 206.001L391.977 225.751L381.517 225.672L381.687 203.374Z" fill="#E0E0E0"/>
<path d="M387.382 203.42L386.968 225.717L383.86 225.689L384.37 203.397L387.382 203.42Z" fill="#FAFAFA"/>
<path d="M395.67 196.636C395.67 196.823 394.45 197.106 392.397 197.203C391.157 197.249 389.917 197.113 388.716 196.8C388.23 196.673 387.805 196.38 387.513 195.972C387.348 195.712 387.26 195.412 387.258 195.104C387.258 194.866 387.285 194.628 387.337 194.395C387.501 193.62 387.733 192.861 388.029 192.126C388.199 191.726 388.412 191.345 388.665 190.992C388.926 190.608 389.259 190.279 389.646 190.022C389.873 189.872 390.129 189.77 390.397 189.722C390.665 189.675 390.94 189.682 391.206 189.744C391.626 189.869 392.014 190.086 392.34 190.379C393.302 191.171 394.111 192.133 394.728 193.215C395.755 195.093 395.744 196.448 395.568 196.471C395.392 196.494 395.001 195.337 393.866 193.782C393.202 192.892 392.411 192.105 391.518 191.445C391.334 191.29 391.12 191.176 390.888 191.111C390.806 191.098 390.723 191.103 390.643 191.125C390.562 191.146 390.488 191.184 390.423 191.236C390.201 191.4 390.009 191.602 389.856 191.831C389.67 192.1 389.512 192.387 389.385 192.688C389.122 193.338 388.91 194.007 388.75 194.69C388.665 195.008 388.682 195.149 388.71 195.184C388.825 195.325 388.982 195.426 389.158 195.473C389.714 195.656 390.283 195.799 390.86 195.898C391.427 196 391.949 196.068 392.437 196.119C394.399 196.324 395.664 196.414 395.67 196.636Z" fill="#E0E0E0"/>
<path d="M395.29 196.828C395.256 196.613 396.623 196.261 398.772 195.694C400.015 195.364 401.234 194.949 402.42 194.452C402.719 194.333 403.003 194.179 403.265 193.992C403.341 193.936 403.405 193.865 403.452 193.782C403.452 193.737 403.452 193.737 403.452 193.652C403.342 193.328 403.205 193.013 403.044 192.71C402.875 192.357 402.686 192.014 402.476 191.684C402.278 191.381 402.044 191.103 401.779 190.856C401.547 190.636 401.278 190.459 400.985 190.334C400.758 190.238 400.506 190.222 400.27 190.288C399.999 190.38 399.75 190.527 399.538 190.719C398.581 191.536 397.741 192.481 397.042 193.527C395.846 195.331 395.596 196.715 395.341 196.681C395.25 196.681 395.188 196.301 395.261 195.649C395.393 194.725 395.682 193.831 396.118 193.005C396.755 191.767 397.601 190.648 398.619 189.698C398.961 189.363 399.371 189.106 399.822 188.944C400.352 188.769 400.926 188.779 401.45 188.972C401.698 189.057 401.935 189.173 402.153 189.318C402.353 189.452 402.542 189.6 402.72 189.761C403.084 190.096 403.403 190.477 403.668 190.895C403.916 191.279 404.137 191.679 404.331 192.092C404.422 192.291 404.507 192.484 404.598 192.659C404.715 192.902 404.799 193.16 404.847 193.425C404.906 193.78 404.846 194.145 404.677 194.463C404.527 194.723 404.322 194.948 404.076 195.121C403.711 195.364 403.314 195.555 402.896 195.688C401.62 196.157 400.299 196.493 398.954 196.692C396.736 197.004 395.324 196.987 395.29 196.828Z" fill="#FAFAFA"/>
<path d="M378.378 203.329L405.19 203.539L405.25 195.916L378.438 195.706L378.378 203.329Z" fill="#E0E0E0"/>
<path d="M388.238 203.408L412.475 203.598L412.534 195.975L388.297 195.785L388.238 203.408Z" fill="#EBEBEB"/>
<path d="M405.086 195.938L404.915 203.59L402.091 203.533L402.289 195.915L405.086 195.938Z" fill="#FAFAFA"/>
<path d="M385 195.813L384.728 203.403L381.619 203.38L381.79 195.751L385 195.813Z" fill="#FAFAFA"/>
<path d="M44.8963 225.657L77.613 225.914L77.9374 184.615L45.2207 184.358L44.8963 225.657Z" fill="#EBEBEB"/>
<path d="M65.1286 185.824L64.5501 225.814L59.377 225.774L60.4887 185.79L65.1286 185.824Z" fill="#FAFAFA"/>
<path d="M26.4267 185.524L45.1963 185.671L77.914 185.926L45.1622 190.237L44.8843 225.661L26.1204 225.513L26.4267 185.524Z" fill="#E0E0E0"/>
<path d="M36.6424 185.603L35.8993 225.587L30.3291 225.547L31.2367 185.563L36.6424 185.603Z" fill="#FAFAFA"/>
<path d="M51.4982 173.436C51.4982 173.64 50.9309 173.85 49.9496 174.054C47.52 174.512 45.0404 174.646 42.5757 174.451C42.0084 174.4 41.4412 174.338 40.874 174.236C40.2418 174.141 39.6165 174.004 39.0021 173.827C38.6164 173.709 38.2453 173.547 37.896 173.345C37.4402 173.085 37.0516 172.722 36.7616 172.284C36.4543 171.796 36.2874 171.233 36.2794 170.656C36.2763 170.217 36.3277 169.779 36.4326 169.352C36.7255 167.957 37.1412 166.59 37.6748 165.268C37.9797 164.549 38.36 163.864 38.8093 163.226C39.0492 162.904 39.3088 162.597 39.5864 162.307C39.8916 161.986 40.2367 161.706 40.6131 161.473C41.0304 161.202 41.4937 161.01 41.9801 160.906C42.4925 160.803 43.0212 160.815 43.5286 160.94C44.3129 161.165 45.0361 161.564 45.6444 162.108C47.3788 163.549 48.8325 165.297 49.9326 167.264C50.6716 168.573 51.1872 169.995 51.4585 171.473C51.623 172.517 51.5379 173.118 51.3507 173.175C50.9139 173.283 50.2162 171.139 48.1742 168.41C46.9762 166.836 45.5588 165.442 43.9654 164.269C43.6526 164.006 43.2871 163.813 42.8933 163.702C42.7648 163.684 42.6339 163.693 42.509 163.728C42.384 163.764 42.2677 163.824 42.1673 163.906C41.9925 164.029 41.8309 164.17 41.6851 164.326C41.5263 164.502 41.3505 164.723 41.1916 164.939C40.8664 165.411 40.589 165.915 40.3635 166.442C39.9007 167.603 39.5216 168.795 39.229 170.01C39.169 170.205 39.1328 170.407 39.1212 170.611C39.1212 170.742 39.1212 170.753 39.1212 170.781C39.3111 171.008 39.5668 171.171 39.853 171.246C40.3459 171.42 40.8476 171.568 41.3561 171.689C41.8723 171.819 42.3828 171.921 42.8763 172.018C43.869 172.199 44.8162 172.33 45.7124 172.432C47.4595 172.63 48.9116 172.75 49.9156 172.903C50.9196 173.056 51.4925 173.232 51.4982 173.436Z" fill="#E0E0E0"/>
<path d="M50.8232 173.731C50.7495 173.311 53.1999 172.63 57.0627 171.57C59.2812 170.965 61.4551 170.206 63.5688 169.301C64.0933 169.095 64.5891 168.823 65.0436 168.49C65.168 168.405 65.2709 168.292 65.3443 168.161C65.3443 168.11 65.3443 168.161 65.3443 168.019C65.2806 167.791 65.1932 167.57 65.0833 167.361L64.6125 166.38C64.312 165.752 63.9729 165.144 63.5972 164.559C63.2512 164.024 62.8396 163.534 62.372 163.101C62.1526 162.894 61.9174 162.704 61.6686 162.534C61.4611 162.388 61.2363 162.268 60.9993 162.176C60.625 162.015 60.2073 161.985 59.8138 162.091C59.3452 162.252 58.9147 162.506 58.5489 162.84C56.8382 164.288 55.3326 165.961 54.0734 167.815C51.9123 171.014 51.4245 173.487 50.9764 173.419C50.7835 173.419 50.6474 172.733 50.7722 171.553C50.9892 169.884 51.496 168.266 52.2696 166.771C53.4039 164.533 54.9204 162.509 56.7508 160.792C57.3793 160.178 58.1315 159.704 58.9573 159.403C59.9424 159.081 61.0069 159.099 61.9806 159.454C62.434 159.612 62.8664 159.826 63.2682 160.089C63.6441 160.332 64.0006 160.603 64.3346 160.9C64.9881 161.493 65.5603 162.171 66.0363 162.914C66.4852 163.61 66.8869 164.336 67.2388 165.086L67.7153 166.13C67.9317 166.578 68.0863 167.053 68.1747 167.542C68.2875 168.213 68.1716 168.902 67.8457 169.499C67.5644 169.989 67.1767 170.41 66.7113 170.73C66.0453 171.187 65.3201 171.552 64.5558 171.814C62.2592 172.651 59.8807 173.244 57.4598 173.583C55.858 173.829 54.2416 173.967 52.6213 173.997C51.5039 174.032 50.8516 173.935 50.8232 173.731Z" fill="#FAFAFA"/>
<path d="M20.4807 185.478L68.5688 185.855L68.6762 172.186L20.5881 171.808L20.4807 185.478Z" fill="#E0E0E0"/>
<path d="M38.1569 185.613L81.6279 185.955L81.7353 172.285L38.2642 171.944L38.1569 185.613Z" fill="#EBEBEB"/>
<path d="M68.3902 172.182L68.0896 185.915L63.0186 185.807L63.3702 172.143L68.3902 172.182Z" fill="#FAFAFA"/>
<path d="M32.371 171.967L31.8832 185.58L26.3074 185.535L26.608 171.859L32.371 171.967Z" fill="#FAFAFA"/>
<path d="M92.3781 35.1337L92.9454 37.2949L84.2951 39.5184L83.8527 37.8167L87.1994 32.5131C87.9651 31.2879 87.9935 30.6526 87.8517 30.0967C87.6191 29.1948 86.8647 28.8318 85.6565 29.1438C85.1928 29.2422 84.7606 29.4537 84.3984 29.7595C84.0362 30.0653 83.7552 30.4559 83.5804 30.8965L81.3115 30.1478C81.8788 28.6276 83.2514 27.3854 85.2821 26.8522C87.8346 26.1999 89.871 27.0734 90.3872 29.1211C90.6765 30.2556 90.6254 31.3276 89.4002 33.2278L87.4092 36.3873L92.3781 35.1337Z" fill="#E0E0E0"/>
<path d="M92.5255 31.2993C91.5555 27.5159 93.0927 24.8386 95.9289 24.1182C98.765 23.3978 101.386 24.9974 102.356 28.7751C103.326 32.5529 101.788 35.2302 98.9522 35.9562C96.116 36.6823 93.4954 35.077 92.5255 31.2993ZM99.6726 29.4615C99.0032 26.8579 97.812 26.0184 96.4847 26.3587C95.1574 26.6991 94.5391 28.0094 95.2085 30.6073C95.8778 33.2052 97.069 34.0504 98.3793 33.7157C99.6896 33.381 100.342 32.0594 99.6726 29.4615Z" fill="#E0E0E0"/>
<path d="M102.991 25.7348C102.509 23.8686 103.241 22.3314 104.778 21.9627C106.315 21.594 107.676 22.53 108.181 24.4075C108.686 26.285 107.915 27.8109 106.394 28.1796C104.874 28.5483 103.467 27.5953 102.991 25.7348ZM107.342 24.6003C106.956 23.1085 106.026 22.4052 104.965 22.6831C103.904 22.9611 103.428 24.0331 103.83 25.5193C104.233 27.0054 105.124 27.7144 106.207 27.4365C107.291 27.1585 107.722 26.1035 107.342 24.6174V24.6003ZM111.732 20.244L112.696 20.0001L107.807 33.4718L106.842 33.7214L111.732 20.244ZM111.392 29.3197C110.915 27.4535 111.658 25.9163 113.178 25.5476C114.699 25.1789 116.083 26.1148 116.582 27.9924C117.081 29.8699 116.332 31.3957 114.795 31.7588C113.258 32.1218 111.874 31.1915 111.392 29.331V29.3197ZM115.742 28.1852C115.362 26.7104 114.449 25.9901 113.366 26.268C112.282 26.5459 111.828 27.601 112.231 29.1041C112.634 30.6073 113.547 31.2936 114.608 31.0214C115.669 30.7491 116.122 29.6827 115.748 28.2136L115.742 28.1852Z" fill="#E0E0E0"/>
<path d="M189.828 50.9996C189.874 53.3423 188.127 55.5375 184.156 55.5828C182.286 55.651 180.437 55.1656 178.841 54.1874L180.044 51.7087C181.212 52.5049 182.6 52.9173 184.014 52.8885C185.619 52.8601 186.601 52.1908 186.584 51.0563C186.584 50.007 185.778 49.3547 183.957 49.4H182.488L182.454 47.2786L185.251 44L179.34 44.1021L179.301 41.5212L189.011 41.3568L189.051 43.4385L185.994 47.0801C188.501 47.4374 189.794 48.9576 189.828 50.9996Z" fill="#E0E0E0"/>
<path d="M191.269 48.2826C191.19 43.6767 193.668 41.0617 197.072 40.9993C200.475 40.9369 203.062 43.4952 203.141 48.0727C203.22 52.6502 200.747 55.2992 197.321 55.3559C193.895 55.4126 191.348 52.8601 191.269 48.2826ZM199.936 48.1294C199.879 44.9813 198.745 43.688 197.14 43.7164C195.535 43.7447 194.468 45.0721 194.525 48.2542C194.582 51.4364 195.71 52.6956 197.293 52.6673C198.876 52.6389 199.987 51.2832 199.936 48.1294Z" fill="#E0E0E0"/>
<path d="M204.735 44.7772C204.695 42.5083 205.938 40.9881 207.804 40.9541C209.67 40.92 210.963 42.3892 211.003 44.6694C211.043 46.9497 209.778 48.4585 207.934 48.4869C206.091 48.5152 204.775 47.0348 204.735 44.7772ZM210.01 44.6864C209.976 42.8826 209.108 41.8503 207.821 41.8503C206.533 41.8503 205.694 42.9847 205.728 44.7658C205.762 46.5469 206.607 47.602 207.917 47.602C209.228 47.602 210.039 46.5129 210.01 44.6864ZM216.21 40.9087H217.379L208.144 54.9476H206.976L216.21 40.9087ZM213.374 51.1699C213.34 48.901 214.599 47.3808 216.443 47.3524C218.286 47.3241 219.602 48.8045 219.642 51.0621C219.682 53.3197 218.439 54.8512 216.573 54.8852C214.707 54.9193 213.391 53.4331 213.351 51.1699H213.374ZM218.649 51.0791C218.621 49.298 217.77 48.243 216.46 48.243C215.149 48.243 214.338 49.3491 214.367 51.1528C214.395 52.9566 215.269 53.989 216.556 53.989C217.844 53.989 218.661 52.8659 218.627 51.0791H218.649Z" fill="#E0E0E0"/>
<path d="M256.96 8.12843C256.687 9.89818 255.15 11.2425 252.291 10.8057C250.939 10.6237 249.669 10.05 248.638 9.15511L249.824 7.52149C250.562 8.24114 251.509 8.70789 252.53 8.85448C253.692 9.03032 254.481 8.65595 254.606 7.83914C254.731 7.02233 254.288 6.46078 252.473 6.18284L249.915 5.79145L251.287 0.238281L257.391 1.16854L257.107 3.02905L252.932 2.39375L252.484 4.2656L253.301 4.3904C256.262 4.84418 257.232 6.353 256.96 8.12843Z" fill="#F5F5F5"/>
<path d="M258.185 6.41544C258.69 3.1085 260.806 1.51458 263.29 1.87761C265.775 2.24064 267.295 4.40178 266.79 7.70872C266.285 11.0157 264.181 12.6039 261.685 12.2465C259.189 11.8892 257.686 9.71671 258.185 6.41544ZM264.424 7.36838C264.771 5.09947 264.113 4.02741 262.955 3.85156C261.798 3.67572 260.868 4.4982 260.522 6.77279C260.176 9.04738 260.828 10.1081 261.974 10.2839C263.12 10.4598 264.09 9.64297 264.436 7.37405L264.424 7.36838Z" fill="#F5F5F5"/>
<path d="M268.299 5.54194C268.548 3.914 269.632 2.96673 270.976 3.17093C272.32 3.37513 273.069 4.589 272.819 6.23396C272.57 7.87893 271.475 8.80918 270.142 8.60498C268.809 8.40078 268.049 7.17556 268.299 5.54194ZM277.051 4.16925L277.896 4.29972L269.507 13.2619L268.662 13.1315L277.051 4.16925ZM272.133 6.12619C272.332 4.82156 271.832 3.95938 270.902 3.81757C269.972 3.67576 269.24 4.3848 269.042 5.65539C268.843 6.92598 269.325 7.81653 270.273 7.96401C271.22 8.11149 271.906 7.42514 272.105 6.12619H272.133ZM273.738 11.1972C273.988 9.56927 275.083 8.62199 276.416 8.8262C277.749 9.0304 278.509 10.2613 278.259 11.8892C278.009 13.5172 276.926 14.4644 275.582 14.2602C274.237 14.056 273.46 12.8308 273.71 11.1972H273.738ZM277.544 11.7644C277.737 10.4768 277.261 9.59763 276.313 9.45582C275.366 9.31401 274.652 9.98902 274.453 11.288C274.254 12.5869 274.754 13.4605 275.684 13.6023C276.614 13.7441 277.317 13.0464 277.516 11.7815L277.544 11.7644Z" fill="#F5F5F5"/>
<path d="M29.3082 56.2635L27.2321 65.1293L25.2014 64.6642L26.9031 57.4434L25.1277 57.0293L25.5134 55.3787L29.3082 56.2635Z" fill="#F5F5F5"/>
<path d="M29.8187 61.0623C30.4994 58.1354 32.513 56.8535 34.6912 57.364C36.8693 57.8745 38.0945 59.9165 37.4139 62.8378C36.7332 65.759 34.7366 67.0466 32.5414 66.5361C30.3462 66.0256 29.1323 63.9892 29.8187 61.0623ZM35.3548 62.3556C35.8256 60.3419 35.3095 59.338 34.2828 59.0997C33.2561 58.8615 32.3655 59.5308 31.8947 61.5445C31.4239 63.5581 31.9344 64.5621 32.9498 64.8004C33.9651 65.0386 34.8784 64.3693 35.3548 62.3556Z" fill="#F5F5F5"/>
<path d="M46.864 60.3759L47.6127 60.5518L39.4787 67.9995L38.7356 67.8236L46.864 60.3759ZM38.9228 60.9942C39.2631 59.5478 40.3011 58.7763 41.4923 59.0543C42.6835 59.3322 43.2677 60.4724 42.9274 61.9301C42.5871 63.3879 41.5434 64.1423 40.3635 63.8701C39.1837 63.5978 38.6051 62.435 38.9398 60.9942H38.9228ZM42.2921 61.7827C42.5644 60.6482 42.1787 59.82 41.3562 59.6272C40.5337 59.4343 39.8247 60.0016 39.5581 61.1417C39.2915 62.2818 39.6602 63.1043 40.4997 63.2972C41.3392 63.49 42.0425 62.9625 42.3091 61.7827H42.2921ZM43.3812 66.4453C43.7159 64.9988 44.7652 64.2331 45.9451 64.5053C47.1249 64.7776 47.7205 65.9404 47.3858 67.3812C47.0512 68.822 46.0075 69.5991 44.8163 69.3211C43.6251 69.0432 43.0579 67.886 43.3982 66.4453H43.3812ZM46.7562 67.2337C47.0228 66.0993 46.6541 65.2711 45.8203 65.0782C44.9864 64.8854 44.2888 65.4413 44.0222 66.5927C43.7556 67.7442 44.1356 68.5554 44.9581 68.7482C45.7806 68.9411 46.5009 68.3738 46.7562 67.2337Z" fill="#F5F5F5"/>
<path d="M53.002 147.973C43.1266 137.871 27.6583 133.622 14.0107 137.275C25.6489 145.203 39.3803 149.493 53.4615 149.601" fill="#FF631A"/>
<path d="M39.7742 101.143C41.4021 89.6506 36.938 76.7519 28.3332 68.3739C28.0496 79.7638 32.871 92.5775 39.7742 101.143Z" fill="#FF631A"/>
<path d="M46.6547 122.845C40.4335 111.042 30.5345 101.589 18.4578 95.9185C22.0483 109.146 33.3645 119.969 46.7398 122.97" fill="#FF631A"/>
<path d="M48.0784 127.059C41.1412 127.252 34.1132 127.008 27.4029 125.233C20.6926 123.457 14.2659 120.043 9.81885 114.728C23.3973 114.775 36.6609 118.822 47.9536 126.362" fill="#FF631A"/>
<path d="M44.5503 113.242C48.0728 100.037 53.8869 90.9042 64.2615 83.5076C65.0561 89.9992 63.5072 96.5614 59.8936 102.012C56.2799 107.464 50.839 111.446 44.5503 113.242Z" fill="#FF631A"/>
<path d="M70.7505 136.01C70.7762 132.159 69.663 128.386 67.5507 125.165C65.4383 121.945 62.4212 119.421 58.8784 117.91C59.4456 124.717 64.8116 132.613 70.7505 136.01Z" fill="#FF631A"/>
<path d="M74.0461 124.875C74.8346 113.849 82.668 103.644 93.122 100.036C90.7454 111.069 84.3697 120.253 74.0461 124.875Z" fill="#FF631A"/>
<path d="M69.0715 144.643C71.5163 141.144 75.5096 138.971 79.6447 137.882C83.7798 136.793 88.0964 136.708 92.3676 136.617C89.4568 139.777 85.896 142.268 81.9303 143.92C77.9645 145.572 73.688 146.345 69.3949 146.186" fill="#FF631A"/>
<path d="M64.1084 172.772C71.8966 170.37 80.3022 170.973 87.6679 174.462C95.0336 177.951 100.825 184.073 103.9 191.621C89.4465 188.887 75.1807 182.461 64.1084 172.772Z" fill="#FF631A"/>
<path d="M48.2486 162.993C50.648 170.089 50.1885 178.671 44.8452 184.786C43.7821 181.126 43.5358 177.277 44.1239 173.511C44.712 169.746 46.1201 166.155 48.2486 162.993Z" fill="#FF631A"/>
<path d="M38.8779 159.051C38.4886 163.626 36.927 168.023 34.3438 171.818C31.7606 175.613 28.2429 178.679 24.13 180.719C23.9386 180.842 23.724 180.924 23.4995 180.96C23.2751 180.996 23.0456 180.985 22.8254 180.929C22.1731 180.668 22.1163 179.795 22.1957 179.08C23.2394 170.004 29.9781 161.195 38.8779 159.051Z" fill="#FF631A"/>
<path d="M32.7463 158.126C30.7089 160.327 28.2412 162.085 25.4963 163.293C22.7514 164.501 19.7877 165.132 16.7889 165.147C13.7901 165.163 10.8201 164.562 8.06296 163.383C5.30578 162.203 2.8202 160.47 0.760254 158.291C10.925 157.157 22.661 156.436 32.7463 158.126Z" fill="#FF631A"/>
<path d="M31.2261 76.8425C31.2478 76.9451 31.2781 77.0457 31.3168 77.1432C31.3962 77.353 31.4983 77.6366 31.6288 77.9997C31.9181 78.7711 32.3265 79.8772 32.854 81.2953C33.3815 82.7133 34.0339 84.4718 34.7656 86.5138L35.9397 89.7753C36.3425 90.9098 36.7679 92.169 37.2103 93.4566C39.0141 98.6071 41.0108 104.801 43.1719 111.665C45.333 118.528 47.5226 126.169 49.7121 134.195C51.9016 142.221 53.7904 149.93 55.4184 156.958C57.0463 163.986 58.368 170.344 59.3493 175.71C59.6026 177.049 59.8428 178.324 60.0696 179.534C60.2795 180.742 60.4724 181.888 60.6369 182.937C61.0056 185.07 61.3175 186.908 61.5331 188.422C61.7486 189.937 61.9415 191.082 62.0663 191.893C62.1287 192.274 62.1797 192.574 62.2138 192.795C62.2261 192.899 62.247 193.001 62.2762 193.102C62.285 192.998 62.285 192.894 62.2762 192.79C62.2478 192.569 62.2138 192.268 62.1627 191.882C62.0549 191.065 61.9018 189.897 61.7033 188.399C61.5047 186.902 61.2211 185.041 60.8751 182.903C60.6993 181.831 60.5178 180.685 60.3079 179.471C60.098 178.257 59.8598 176.987 59.6159 175.642C58.6629 170.265 57.347 163.906 55.7644 156.861C54.1818 149.816 52.2419 142.114 50.0921 134.076C47.9423 126.038 45.662 118.432 43.5179 111.54C41.3738 104.648 39.3148 98.4936 37.4769 93.3489C37.0231 92.0632 36.5902 90.8398 36.178 89.6789L34.9755 86.423C34.221 84.3867 33.5687 82.6396 33.0015 81.2215C32.4343 79.8035 32.0088 78.7201 31.7082 77.9543L31.3622 77.1091C31.3229 77.0173 31.2774 76.9282 31.2261 76.8425Z" fill="#263238"/>
<path d="M87.0926 105.93C87.0281 105.978 86.9691 106.034 86.9167 106.095L86.4289 106.605C86.0035 107.059 85.3909 107.74 84.6251 108.625C82.4435 111.143 80.4419 113.812 78.6352 116.611C75.9447 120.764 73.8447 125.272 72.3957 130.003C70.694 135.33 69.673 141.393 68.6406 147.724C66.5702 160.401 64.0347 171.757 62.1969 179.971C61.2723 184.06 60.4952 187.373 59.9961 189.699C59.7465 190.833 59.5479 191.712 59.4288 192.342C59.3664 192.631 59.3211 192.858 59.2813 193.034C59.2622 193.112 59.2508 193.192 59.2473 193.272C59.2802 193.197 59.3049 193.119 59.321 193.039C59.3664 192.869 59.4288 192.642 59.5026 192.359C59.6614 191.735 59.8769 190.856 60.1606 189.733C60.7278 187.418 61.5049 184.111 62.4805 180.033C64.3864 171.836 66.9673 160.481 69.0377 147.786C70.0757 141.456 71.1024 135.415 72.753 130.105C74.1875 125.398 76.256 120.908 78.9018 116.759C80.6811 113.956 82.6422 111.273 84.7726 108.727C85.5214 107.819 86.1169 107.127 86.5254 106.656C86.7125 106.435 86.8657 106.259 86.9791 106.117C87.0222 106.058 87.0601 105.996 87.0926 105.93Z" fill="#263238"/>
<path d="M29.7117 157.69C29.8285 157.731 29.9509 157.754 30.0747 157.758L31.1297 157.871L31.8898 157.951L32.7861 158.081C33.4327 158.178 34.1701 158.274 34.9699 158.45L36.2348 158.705L37.5848 159.045C38.5264 159.255 39.4964 159.613 40.5344 159.913C42.7538 160.682 44.9069 161.631 46.9724 162.749C49.0233 163.897 50.9573 165.242 52.7468 166.765C53.5218 167.434 54.2603 168.144 54.959 168.893C55.5832 169.532 56.1685 170.208 56.7118 170.918C57.1768 171.489 57.6104 172.086 58.0107 172.704C58.3357 173.165 58.633 173.644 58.9013 174.139L59.4401 175.053C59.4964 175.163 59.567 175.266 59.65 175.359C59.6203 175.237 59.5725 175.121 59.5082 175.013L59.0317 174.066C58.7882 173.56 58.5076 173.072 58.1922 172.608C57.8077 171.972 57.3873 171.358 56.933 170.77C56.3955 170.045 55.816 169.351 55.1973 168.694C54.4988 167.929 53.7584 167.204 52.9794 166.521C51.1843 164.966 49.2341 163.6 47.1596 162.443C45.0741 161.313 42.8955 160.364 40.6478 159.607C39.5985 159.301 38.6172 158.966 37.6642 158.767L36.2972 158.444L35.0209 158.217C34.2098 158.053 33.4667 157.979 32.8144 157.9L31.9068 157.798L31.1411 157.758L30.0804 157.69C29.958 157.674 29.834 157.674 29.7117 157.69Z" fill="#263238"/>
<path d="M26.813 106.168C27.0283 106.429 27.2697 106.666 27.5334 106.877L29.6264 108.692C31.4075 110.213 33.8807 112.289 36.626 114.569C39.3714 116.849 41.8786 118.897 43.6994 120.36L45.8719 122.062C46.1267 122.28 46.4044 122.47 46.7 122.629C46.4811 122.368 46.2359 122.131 45.9683 121.92L43.8752 120.105C42.0941 118.585 39.621 116.509 36.8756 114.229C34.1302 111.948 31.6288 109.906 29.808 108.443L27.6355 106.741C27.3789 106.526 27.1037 106.334 26.813 106.168Z" fill="#263238"/>
<path d="M24.3115 119.623C24.3115 119.725 29.6208 121.393 36.2233 123.35C42.8259 125.307 48.2315 126.804 48.2599 126.702C48.2883 126.6 42.9507 124.927 36.3481 122.975C29.7456 121.024 24.3456 119.521 24.3115 119.623Z" fill="#263238"/>
<path d="M44.0283 114.268C44.2424 114.033 44.4324 113.776 44.5955 113.503L46.0023 111.358C47.1935 109.549 48.8895 107.087 50.8975 104.461C52.9055 101.835 54.834 99.5544 56.2578 97.9265C56.9271 97.155 57.4943 96.5084 57.9595 95.9979C58.1715 95.7707 58.3615 95.5238 58.5267 95.2605C58.2666 95.4398 58.0302 95.6514 57.8233 95.8901C57.3922 96.3155 56.7796 96.9452 56.0366 97.7393C54.5618 99.3275 52.5878 101.596 50.5741 104.228C48.5605 106.86 46.8985 109.362 45.7584 111.205C45.1911 112.13 44.743 112.907 44.4537 113.423C44.2791 113.687 44.1363 113.971 44.0283 114.268Z" fill="#263238"/>
<path d="M62.5654 121.733C62.938 122.446 63.3567 123.134 63.819 123.792C64.6188 125.046 65.7022 126.787 66.8196 128.755C67.9371 130.724 68.8844 132.55 69.5594 133.86C69.89 134.594 70.269 135.304 70.6938 135.988C70.4728 135.205 70.1764 134.445 69.8089 133.719C69.202 132.357 68.2888 130.508 67.1657 128.523C66.0425 126.538 64.8967 124.819 64.0572 123.599C63.6208 122.931 63.1212 122.306 62.5654 121.733Z" fill="#263238"/>
<path d="M68.9412 145.001C68.9695 145.052 69.9849 144.553 71.6525 143.804C73.3202 143.055 75.6231 142.102 78.2777 141.149C80.9324 140.196 83.3431 139.544 85.1128 139.096C86.8826 138.648 87.9887 138.393 87.949 138.336C87.6817 138.329 87.4147 138.358 87.1549 138.421C86.6444 138.495 85.9183 138.631 85.0221 138.824C82.683 139.336 80.3776 139.991 78.1189 140.786C75.8605 141.575 73.6519 142.499 71.505 143.554C70.6826 143.963 70.0302 144.309 69.5821 144.57C69.3522 144.688 69.137 144.832 68.9412 145.001Z" fill="#263238"/>
<path d="M63.9155 172.818C64.0199 172.868 64.1305 172.904 64.2445 172.926L65.2088 173.169L68.7597 173.992C72.6743 174.814 76.5441 175.836 80.3538 177.055C84.1481 178.329 87.7803 180.042 91.1765 182.16C92.4698 182.983 93.4795 183.709 94.1602 184.236C94.5012 184.522 94.8593 184.787 95.2322 185.03C95.2322 185.03 95.1585 184.934 94.994 184.775C94.8295 184.616 94.5856 184.389 94.2509 184.117C93.3188 183.331 92.3415 182.6 91.324 181.927C87.9469 179.735 84.3044 177.981 80.4843 176.709C76.6609 175.478 72.7639 174.49 68.8164 173.748L65.2372 173.005C64.8019 172.91 64.3601 172.847 63.9155 172.818Z" fill="#263238"/>
<path d="M45.8606 179.67C45.9627 179.67 46.598 175.943 47.2787 171.309C47.9594 166.675 48.4132 162.903 48.3111 162.886C48.209 162.869 47.5737 166.618 46.893 171.252C46.2123 175.886 45.7529 179.659 45.8606 179.67Z" fill="#263238"/>
<path d="M27.0569 172.846C27.6676 172.213 28.236 171.54 28.7586 170.832C29.7739 169.568 31.1806 167.826 32.7745 165.932C34.3685 164.037 35.8376 162.347 36.9096 161.127C37.5232 160.497 38.0919 159.824 38.6113 159.114C38.4024 159.24 38.2116 159.395 38.0441 159.573C37.7151 159.891 37.2557 160.356 36.6884 160.946C35.554 162.12 34.0565 163.782 32.4569 165.682C30.8573 167.582 29.4846 169.352 28.5203 170.662C28.0382 171.32 27.6581 171.859 27.3859 172.234C27.2474 172.421 27.1366 172.627 27.0569 172.846Z" fill="#263238"/>
<path d="M76.8143 190.283V199.574H74.4887L66.2355 225.638H47.9197L39.9218 199.829L36.8247 199.574V190.283H76.8143Z" fill="#455A64"/>
<path d="M38.3733 199.829C38.3733 199.937 46.4563 200.028 56.4282 200.028C66.4001 200.028 74.4887 199.937 74.4887 199.829C74.4887 199.721 66.4057 199.636 56.4282 199.636C46.4506 199.636 38.3733 199.721 38.3733 199.829Z" fill="#263238"/>
<path d="M25.2021 140.072C25.584 140.21 25.9768 140.316 26.3763 140.389L29.5868 141.166C32.2982 141.836 36.0192 142.868 40.0522 144.207C44.0852 145.545 47.6701 147.003 50.2623 148.109L53.2913 149.431C53.6568 149.614 54.0361 149.767 54.4258 149.89C54.0905 149.661 53.7356 149.461 53.3651 149.295C52.673 148.932 51.6634 148.438 50.3814 147.854C43.743 144.825 36.8085 142.493 29.6889 140.894C28.3276 140.593 27.2158 140.372 26.4444 140.242C26.0357 140.151 25.6202 140.094 25.2021 140.072Z" fill="#263238"/>
<path d="M44.4539 214.305C44.4539 214.413 50.1261 214.498 57.1201 214.498C64.114 214.498 69.792 214.413 69.792 214.305C69.792 214.197 64.1197 214.112 57.1201 214.112C50.1205 214.112 44.4539 214.197 44.4539 214.305Z" fill="#FAFAFA"/>
<path d="M43.7393 212.144C43.7393 212.251 49.7519 212.336 57.1656 212.336C64.5793 212.336 70.5975 212.251 70.5975 212.144C70.5975 212.036 64.5849 211.951 57.1656 211.951C49.7462 211.951 43.7393 212.042 43.7393 212.144Z" fill="#FAFAFA"/>
<path d="M365.056 154.156L327.239 111.67C325.75 109.997 323.926 108.656 321.886 107.731C319.846 106.807 317.635 106.321 315.395 106.304L190.894 105.402C188.779 105.387 186.681 105.79 184.723 106.59C182.765 107.39 180.984 108.57 179.484 110.062C177.985 111.555 176.796 113.329 175.986 115.284C175.177 117.238 174.763 119.334 174.768 121.449L174.978 209.608C174.982 211.713 175.402 213.796 176.213 215.739C177.023 217.681 178.209 219.445 179.702 220.929C181.196 222.412 182.967 223.587 184.915 224.385C186.862 225.184 188.948 225.59 191.053 225.581L315.123 225.059C317.415 225.054 319.678 224.556 321.761 223.6C323.843 222.644 325.696 221.252 327.194 219.517L365.238 175.274C367.774 172.33 369.153 168.565 369.12 164.68C369.087 160.795 367.642 157.055 365.056 154.156ZM344.012 169.471C343.029 171.89 341.35 173.964 339.188 175.43C337.027 176.895 334.479 177.687 331.867 177.704C329.255 177.722 326.697 176.964 324.516 175.528C322.334 174.091 320.628 172.04 319.613 169.634C318.597 167.228 318.318 164.574 318.81 162.009C319.303 159.444 320.545 157.083 322.38 155.224C324.214 153.365 326.559 152.092 329.117 151.565C331.675 151.039 334.332 151.283 336.752 152.267C339.99 153.586 342.573 156.135 343.934 159.356C345.295 162.577 345.323 166.207 344.012 169.448V169.471Z" fill="#FF631A"/>
<g opacity="0.4">
<path opacity="0.4" d="M365.056 154.156L327.239 111.67C325.75 109.997 323.926 108.656 321.886 107.731C319.846 106.807 317.635 106.321 315.395 106.304L190.894 105.402C188.779 105.387 186.681 105.79 184.723 106.59C182.765 107.39 180.984 108.57 179.484 110.062C177.985 111.555 176.796 113.329 175.986 115.284C175.177 117.238 174.763 119.334 174.768 121.449L174.978 209.608C174.982 211.713 175.402 213.796 176.213 215.739C177.023 217.681 178.209 219.445 179.702 220.929C181.196 222.412 182.967 223.587 184.915 224.385C186.862 225.184 188.948 225.59 191.053 225.581L315.123 225.059C317.415 225.054 319.678 224.556 321.761 223.6C323.843 222.644 325.696 221.252 327.194 219.517L365.238 175.274C367.774 172.33 369.153 168.565 369.12 164.68C369.087 160.795 367.642 157.055 365.056 154.156ZM344.012 169.471C343.029 171.89 341.35 173.964 339.188 175.43C337.027 176.895 334.479 177.687 331.867 177.704C329.255 177.722 326.697 176.964 324.516 175.528C322.334 174.091 320.628 172.04 319.613 169.634C318.597 167.228 318.318 164.574 318.81 162.009C319.303 159.444 320.545 157.083 322.38 155.224C324.214 153.365 326.559 152.092 329.117 151.565C331.675 151.039 334.332 151.283 336.752 152.267C339.99 153.586 342.573 156.135 343.934 159.356C345.295 162.577 345.323 166.207 344.012 169.448V169.471Z" fill="black"/>
</g>
<path d="M371.608 154.156L333.774 111.67C332.284 109.998 330.46 108.657 328.42 107.732C326.38 106.808 324.169 106.322 321.93 106.304L197.429 105.402C195.313 105.386 193.215 105.789 191.256 106.589C189.298 107.388 187.517 108.568 186.017 110.061C184.517 111.553 183.329 113.328 182.519 115.283C181.71 117.238 181.296 119.334 181.303 121.449L181.507 209.608C181.512 211.717 181.934 213.805 182.748 215.751C183.563 217.697 184.754 219.463 186.253 220.947C187.752 222.432 189.53 223.605 191.483 224.4C193.437 225.195 195.529 225.597 197.639 225.581L321.703 225.059C323.994 225.053 326.258 224.555 328.34 223.599C330.422 222.643 332.275 221.251 333.774 219.517L371.812 175.274C374.346 172.328 375.722 168.562 375.685 164.676C375.647 160.791 374.198 157.052 371.608 154.156ZM350.569 169.471C349.586 171.89 347.907 173.964 345.745 175.43C343.584 176.895 341.036 177.687 338.424 177.704C335.812 177.722 333.254 176.964 331.073 175.528C328.891 174.091 327.185 172.04 326.17 169.634C325.154 167.228 324.875 164.574 325.367 162.009C325.86 159.444 327.102 157.083 328.937 155.224C330.771 153.365 333.116 152.092 335.674 151.566C338.232 151.039 340.889 151.283 343.309 152.267C346.547 153.586 349.13 156.135 350.491 159.356C351.852 162.577 351.88 166.207 350.569 169.448V169.471Z" fill="#FF631A"/>
<path d="M219.733 153.2C219.829 142.514 226.415 135.781 235.649 135.872C244.884 135.962 251.254 142.718 251.157 153.49C251.061 164.261 244.555 170.909 235.326 170.824C226.097 170.739 219.631 163.887 219.733 153.2ZM242.099 153.41C242.161 146.604 239.569 143.331 235.581 143.297C231.69 143.257 228.939 146.581 228.877 153.285C228.814 159.99 231.503 163.359 235.394 163.399C239.382 163.433 242.036 160.2 242.099 153.41ZM273.404 136.961L284.181 137.063L240.306 200.025L229.529 199.923L273.404 136.961ZM262.559 183.513C262.661 172.826 269.241 166.094 278.39 166.179C287.625 166.269 294.08 173.121 293.983 183.802C293.887 194.483 287.301 201.194 278.061 201.097C268.946 201.023 262.462 194.171 262.559 183.513ZM284.834 183.717C284.896 177.018 282.304 173.643 278.316 173.609C274.425 173.57 271.68 176.803 271.617 183.598C271.555 190.394 274.238 193.672 278.129 193.712C282.117 193.723 284.771 190.394 284.828 183.689L284.834 183.717Z" fill="white"/>
<path d="M367.467 180.379C367.919 180.619 368.336 180.919 368.709 181.269C369.486 181.888 370.621 182.818 372.056 184.049C373.491 185.28 375.238 186.8 377.201 188.632C379.163 190.464 381.364 192.602 383.639 195.138C386.139 197.886 388.403 200.84 390.406 203.97L391.211 205.257L391.971 206.602C392.502 207.52 392.983 208.467 393.412 209.438C394.366 211.496 394.917 213.718 395.034 215.984C395.071 217.194 394.894 218.402 394.513 219.551C394.114 220.74 393.477 221.834 392.641 222.768C390.925 224.66 388.653 225.959 386.152 226.477C383.615 226.979 380.999 226.917 378.488 226.296C375.967 225.686 373.525 224.786 371.211 223.613C366.663 221.294 362.539 218.226 359.01 214.537C357.327 212.809 355.753 210.979 354.296 209.058C352.874 207.193 351.52 205.339 350.235 203.493C345.13 196.119 341.159 189.029 338.663 182.687C338.039 181.105 337.5 179.585 337.035 178.121C336.808 177.389 336.593 176.675 336.417 175.966C336.223 175.28 336.085 174.58 336.003 173.873C335.805 172.53 336.141 171.164 336.939 170.066C337.626 169.186 338.563 168.533 339.627 168.195C340.067 168.049 340.519 167.945 340.977 167.883C341.381 167.84 341.787 167.83 342.191 167.854C342.826 167.885 343.451 168.021 344.04 168.257C344.399 168.407 344.732 168.612 345.027 168.864C345.22 169.04 345.305 169.136 345.288 169.159C345.271 169.182 345.152 169.119 344.937 168.989C344.624 168.798 344.289 168.648 343.938 168.541C343.368 168.368 342.775 168.284 342.18 168.291C341.8 168.295 341.421 168.325 341.045 168.382C340.626 168.463 340.214 168.581 339.815 168.733C338.887 169.074 338.082 169.682 337.5 170.481C336.851 171.446 336.607 172.627 336.82 173.77C336.913 174.437 337.061 175.096 337.262 175.739C337.449 176.419 337.682 177.111 337.92 177.826C338.415 179.256 338.983 180.745 339.622 182.296C342.191 188.479 346.207 195.461 351.335 202.716C352.621 204.531 353.976 206.36 355.402 208.201C356.837 210.071 358.385 211.852 360.036 213.533C363.463 217.094 367.458 220.062 371.857 222.314C374.077 223.437 376.418 224.301 378.834 224.889C381.137 225.466 383.537 225.534 385.868 225.088C388.073 224.638 390.081 223.507 391.608 221.854C393.024 220.254 393.771 218.17 393.696 216.035C393.588 213.933 393.08 211.871 392.198 209.96C391.796 209.021 391.343 208.105 390.843 207.214L390.133 205.904L389.362 204.622C387.433 201.52 385.254 198.581 382.845 195.836C380.655 193.294 378.528 191.116 376.605 189.233C374.682 187.35 373.02 185.773 371.642 184.485L368.511 181.513C368.117 181.18 367.767 180.799 367.467 180.379Z" fill="#263238"/>
<path d="M308.379 92.339C308.299 92.339 306.711 81.2497 304.828 67.5454C302.945 53.8412 301.487 42.7235 301.572 42.7122C301.657 42.7008 303.24 53.8015 305.123 67.5057C307.006 81.2099 308.464 92.3276 308.379 92.339Z" fill="#263238"/>
<path d="M355.147 31.6285C355.137 31.6872 355.12 31.7443 355.096 31.7987L354.914 32.2922L354.194 34.1811L351.494 41.1126C349.225 46.9664 346.117 55.0664 342.815 64.0683C339.514 73.0703 336.65 81.2554 334.608 87.1942C333.592 90.1495 332.77 92.5489 332.197 94.2336C331.913 95.0447 331.692 95.6857 331.533 96.1451C331.46 96.3493 331.397 96.5081 331.352 96.6386C331.335 96.6957 331.312 96.7508 331.284 96.8031C331.288 96.7428 331.301 96.6835 331.323 96.6273L331.477 96.1224C331.618 95.663 331.823 94.988 332.084 94.1938C332.617 92.5205 333.411 90.1041 334.409 87.1262C336.406 81.1703 339.242 72.9455 342.543 63.9662C345.844 54.987 348.97 46.87 351.296 41.0332C352.43 38.1176 353.417 35.758 354.092 34.1357L354.869 32.2695C354.954 32.071 355.028 31.9122 355.079 31.7874L355.147 31.6285Z" fill="#263238"/>
<path d="M388.659 75.2825C388.71 75.3449 380.593 81.7036 370.507 89.4632C360.422 97.2229 352.243 103.496 352.192 103.428C352.141 103.36 360.263 97.0074 370.343 89.2477C380.423 81.488 388.613 75.2145 388.659 75.2825Z" fill="#263238"/>
<path d="M288.69 94.4094C288.622 94.4605 285.486 90.4388 281.679 85.4699C277.873 80.501 274.833 76.3942 274.873 76.3545C274.912 76.3148 278.078 80.3251 281.884 85.2941C285.69 90.263 288.753 94.3584 288.69 94.4094Z" fill="#263238"/>
<path d="M384.824 125.675C384.824 125.754 379.827 124.37 373.712 122.589C367.598 120.808 362.663 119.299 362.685 119.22C362.708 119.141 367.683 120.525 373.797 122.306C379.912 124.087 384.853 125.596 384.824 125.675Z" fill="#263238"/>
<path d="M313.348 125.494L317.035 123.372L318.992 119.594L321.119 123.281L324.897 125.244L321.21 127.365L319.247 131.143L317.126 127.456L313.348 125.494Z" fill="white"/>
<path d="M293.415 119.64L294.709 118.897L295.395 117.575L296.138 118.863L297.46 119.549L296.166 120.292L295.48 121.614L294.737 120.326L293.415 119.64Z" fill="white"/>
<path d="M306.144 145.693L308.64 144.257L309.967 141.699L311.402 144.195L313.96 145.522L311.465 146.957L310.137 149.516L308.702 147.02L306.144 145.693Z" fill="white"/>
<path d="M410.809 225.638C410.809 225.717 323.314 225.785 215.41 225.785C107.506 225.785 20 225.717 20 225.638C20 225.558 107.472 225.49 215.41 225.49C323.348 225.49 410.809 225.553 410.809 225.638Z" fill="#263238"/>
<path d="M118.945 215.581C118.945 215.581 95.2857 222.138 94.3044 222.473C92.8806 222.972 93.1189 228.202 95.3424 228.145C96.3918 228.105 113.533 228.78 115.7 228.644C117.867 228.508 123.698 226.211 123.698 226.211L118.945 215.581Z" fill="#455A64"/>
<path d="M109.075 224.623C108.956 224.623 108.797 223.386 108.031 222.081C107.265 220.777 106.284 219.994 106.358 219.903C106.432 219.812 107.577 220.47 108.377 221.883C109.177 223.295 109.177 224.623 109.075 224.623Z" fill="#263238"/>
<path d="M111.548 223.488C111.429 223.488 111.191 222.388 110.561 221.151C109.932 219.915 109.183 219.047 109.268 218.967C109.353 218.888 110.261 219.665 110.913 220.975C111.565 222.286 111.65 223.488 111.548 223.488Z" fill="#263238"/>
<path d="M113.862 222.881C113.743 222.881 113.834 221.69 113.295 220.374C112.756 219.058 111.917 218.247 112.002 218.162C112.087 218.077 113.136 218.803 113.664 220.232C114.191 221.662 113.959 222.921 113.862 222.881Z" fill="#263238"/>
<path d="M113.437 219.818C113.23 219.256 113.143 218.657 113.182 218.06C113.191 217.404 113.277 216.751 113.437 216.114C113.526 215.739 113.643 215.371 113.789 215.014C113.862 214.794 113.994 214.598 114.169 214.447C114.287 214.356 114.433 214.311 114.581 214.318C114.73 214.325 114.871 214.385 114.98 214.486C115.162 214.664 115.275 214.902 115.297 215.156C115.311 215.363 115.311 215.572 115.297 215.78C115.291 216.162 115.241 216.543 115.15 216.914C114.992 217.548 114.748 218.156 114.424 218.723C114.16 219.26 113.798 219.743 113.358 220.147C113.306 220.113 113.704 219.58 114.174 218.593C114.451 218.034 114.659 217.444 114.793 216.835C114.87 216.479 114.91 216.115 114.912 215.751C114.912 215.388 114.912 214.934 114.69 214.758C114.652 214.715 114.598 214.687 114.54 214.682C114.482 214.677 114.424 214.694 114.379 214.73C114.258 214.844 114.168 214.986 114.118 215.144C113.975 215.484 113.856 215.832 113.76 216.188C113.594 216.792 113.489 217.412 113.448 218.037C113.397 219.138 113.505 219.813 113.437 219.818Z" fill="#263238"/>
<path d="M113.471 219.58C113.955 219.378 114.479 219.292 115.002 219.33C115.576 219.329 116.148 219.399 116.704 219.54C117.043 219.611 117.37 219.731 117.674 219.898C117.869 219.994 118.026 220.152 118.122 220.347C118.219 220.541 118.249 220.762 118.207 220.975C118.153 221.18 118.045 221.366 117.894 221.515C117.744 221.663 117.556 221.769 117.351 221.821C117.003 221.909 116.638 221.909 116.29 221.821C115.233 221.51 114.307 220.863 113.652 219.977C114.092 220.232 114.513 220.519 114.912 220.834C115.352 221.133 115.844 221.347 116.364 221.463C116.653 221.534 116.954 221.534 117.243 221.463C117.379 221.426 117.502 221.354 117.602 221.255C117.701 221.155 117.773 221.032 117.81 220.896C117.833 220.763 117.811 220.626 117.747 220.507C117.684 220.387 117.582 220.293 117.459 220.238C117.187 220.088 116.897 219.976 116.596 219.903C116.076 219.755 115.542 219.662 115.002 219.625C114.061 219.546 113.482 219.642 113.471 219.58Z" fill="#263238"/>
<path d="M105.439 224.872C105.32 224.872 105.439 223.845 104.968 222.739C104.497 221.633 103.737 220.975 103.834 220.885C103.93 220.794 104.86 221.35 105.36 222.586C105.859 223.823 105.535 224.918 105.439 224.872Z" fill="#263238"/>
<path d="M121.945 225.967C121.653 226.138 121.345 226.282 121.027 226.398C120.166 226.728 119.285 227.001 118.389 227.215C115.421 227.867 112.385 228.155 109.347 228.071C105.796 228.032 102.597 227.873 100.272 227.776L97.5262 227.635C97.1888 227.632 96.8524 227.596 96.5222 227.527C96.8627 227.465 97.209 227.443 97.5546 227.459H100.306L109.381 227.635C112.392 227.711 115.402 227.466 118.361 226.903C120.618 226.477 121.945 225.893 121.945 225.967Z" fill="#263238"/>
<path d="M122.666 226.506C122.061 226.268 121.468 225.999 120.89 225.7C119.495 225.041 117.943 224.784 116.409 224.957C114.622 225.23 113.357 226.432 112.535 227.26C112.114 227.758 111.657 228.225 111.168 228.656C111.484 228.079 111.875 227.547 112.331 227.073C112.796 226.524 113.323 226.031 113.902 225.604C114.622 225.068 115.461 224.712 116.347 224.566C117.955 224.372 119.584 224.681 121.009 225.451C121.613 225.713 122.172 226.069 122.666 226.506Z" fill="#263238"/>
<path d="M98.9046 227.532C99.003 227.227 99.1185 226.928 99.2506 226.636C99.4992 225.922 99.5578 225.155 99.4205 224.411C99.2833 223.667 98.955 222.972 98.4678 222.393C98.0935 221.94 97.7928 221.724 97.8212 221.679C97.8496 221.633 98.1956 221.803 98.6323 222.246C99.2054 222.823 99.591 223.559 99.7388 224.358C99.8865 225.158 99.7895 225.983 99.4605 226.727C99.2052 227.283 98.933 227.555 98.9046 227.532Z" fill="#263238"/>
<path d="M143.659 216.284C143.659 216.284 167.959 219.977 168.94 220.198C170.421 220.527 170.801 225.746 168.589 225.927C167.539 226.012 150.596 228.724 148.429 228.848C146.262 228.973 139.467 227.192 139.467 227.192L143.659 216.284Z" fill="#455A64"/>
<path d="M154.533 224.084C154.652 224.084 154.663 222.825 155.264 221.435C155.866 220.045 156.756 219.166 156.671 219.069C156.586 218.973 155.537 219.79 154.901 221.282C154.266 222.773 154.436 224.106 154.533 224.084Z" fill="#263238"/>
<path d="M151.946 223.267C152.065 223.267 152.167 222.132 152.65 220.828C153.132 219.523 153.784 218.559 153.671 218.508C153.557 218.457 152.769 219.313 152.275 220.692C151.782 222.07 151.844 223.273 151.946 223.267Z" fill="#263238"/>
<path d="M149.575 222.921C149.688 222.921 149.462 221.735 149.825 220.368C150.188 219.001 150.959 218.099 150.846 218.014C150.732 217.929 149.819 218.786 149.445 220.283C149.07 221.781 149.484 222.972 149.575 222.921Z" fill="#263238"/>
<path d="M149.626 219.835C149.771 219.254 149.786 218.648 149.671 218.06C149.59 217.414 149.432 216.78 149.201 216.171C149.066 215.808 148.905 215.455 148.719 215.116C148.621 214.904 148.468 214.721 148.276 214.588C148.147 214.513 147.996 214.485 147.849 214.51C147.701 214.535 147.567 214.611 147.471 214.724C147.311 214.923 147.229 215.173 147.238 215.428C147.239 215.637 147.254 215.845 147.283 216.052C147.334 216.44 147.429 216.82 147.567 217.186C147.8 217.794 148.115 218.366 148.503 218.888C148.829 219.39 149.244 219.829 149.728 220.181C149.779 220.136 149.32 219.614 148.736 218.735C148.392 218.203 148.114 217.632 147.907 217.033C147.791 216.689 147.711 216.333 147.669 215.972C147.635 215.609 147.578 215.161 147.766 214.963C147.799 214.915 147.849 214.882 147.906 214.87C147.963 214.859 148.023 214.869 148.072 214.9C148.206 214.999 148.314 215.129 148.384 215.28C148.565 215.6 148.725 215.932 148.86 216.273C149.096 216.854 149.275 217.456 149.394 218.071C149.586 219.16 149.564 219.835 149.626 219.835Z" fill="#263238"/>
<path d="M149.569 219.603C149.073 219.455 148.548 219.426 148.038 219.517C147.475 219.585 146.923 219.72 146.393 219.92C146.066 220.034 145.757 220.192 145.474 220.391C145.293 220.511 145.155 220.686 145.082 220.891C145.01 221.095 145.006 221.318 145.071 221.526C145.15 221.722 145.28 221.895 145.448 222.025C145.615 222.156 145.814 222.24 146.024 222.269C146.381 222.311 146.743 222.266 147.079 222.138C148.089 221.701 148.931 220.949 149.479 219.994C149.078 220.3 148.698 220.633 148.344 220.992C147.944 221.343 147.48 221.615 146.977 221.792C146.697 221.89 146.398 221.921 146.104 221.883C145.964 221.863 145.832 221.808 145.719 221.723C145.607 221.637 145.519 221.524 145.463 221.395C145.425 221.264 145.431 221.125 145.481 220.998C145.53 220.871 145.619 220.763 145.735 220.692C145.986 220.515 146.259 220.37 146.546 220.261C147.046 220.05 147.567 219.894 148.1 219.795C148.98 219.642 149.569 219.665 149.569 219.603Z" fill="#263238"/>
<path d="M158.174 223.902C158.293 223.874 158.055 222.887 158.384 221.724C158.713 220.561 159.405 219.829 159.32 219.75C159.235 219.671 158.35 220.317 158.004 221.622C157.658 222.927 158.089 223.959 158.174 223.902Z" fill="#263238"/>
<path d="M141.895 226.954C142.205 227.092 142.528 227.199 142.859 227.272C143.75 227.5 144.656 227.666 145.57 227.771C148.593 228.066 151.641 227.992 154.646 227.55C158.169 227.084 161.322 226.546 163.614 226.177L166.325 225.706C166.66 225.666 166.989 225.59 167.307 225.479C166.97 225.468 166.634 225.493 166.303 225.553L163.574 225.899L154.595 227.152C151.615 227.586 148.597 227.7 145.593 227.493C143.296 227.3 141.912 226.892 141.895 226.954Z" fill="#263238"/>
<path d="M141.265 227.572C141.305 227.623 141.9 227.169 142.933 226.562C144.238 225.737 145.75 225.297 147.295 225.292C149.099 225.349 150.494 226.392 151.413 227.118C151.892 227.56 152.4 227.969 152.933 228.344C152.555 227.806 152.105 227.323 151.594 226.908C151.067 226.417 150.485 225.989 149.859 225.632C149.078 225.188 148.203 224.935 147.306 224.895C145.682 224.89 144.096 225.389 142.768 226.324C142.205 226.659 141.698 227.08 141.265 227.572Z" fill="#263238"/>
<path d="M219.231 116.446C219.081 116.139 218.831 115.893 218.522 115.749L219.089 114.614C219.05 114.207 218.937 113.811 218.754 113.446C218.471 112.958 217.478 112.998 217.478 112.998L217.631 112.674C217.735 112.445 217.778 112.194 217.756 111.943C217.734 111.693 217.648 111.452 217.507 111.245C217.461 111.182 217.416 111.12 217.359 111.052C217.015 110.718 216.578 110.497 216.105 110.417C216.105 110.417 216.673 109.328 216.417 108.868C216.152 108.49 215.782 108.199 215.352 108.029C214.923 107.86 214.453 107.82 214.001 107.915C212.488 108.51 211.019 109.211 209.605 110.014C209.473 110.086 209.327 110.128 209.177 110.138C209.027 110.148 208.877 110.125 208.737 110.071C208.596 110.017 208.47 109.933 208.365 109.825C208.26 109.718 208.18 109.588 208.13 109.447C207.626 107.998 206.9 106.636 205.98 105.408C204.914 104.126 203.916 104.228 203.331 104.455C203.266 104.481 203.207 104.52 203.158 104.571C203.11 104.621 203.073 104.682 203.05 104.749C203.027 104.815 203.02 104.886 203.027 104.955C203.034 105.025 203.057 105.093 203.093 105.153C203.666 106.065 204.181 107.012 204.636 107.989C204.914 108.732 205.203 114.325 205.203 114.325L203.672 117.24L188.226 141.637C188.226 141.637 164.885 125.908 164.97 125.516L163.869 143.554L181.453 155.239C182.96 156.239 184.667 156.898 186.455 157.168C188.242 157.438 190.068 157.314 191.802 156.804C193.537 156.293 195.139 155.409 196.496 154.214C197.852 153.019 198.931 151.541 199.656 149.884L211.494 124.189L212.929 122.09L218.505 118.517C218.505 118.517 219.429 116.917 219.231 116.446Z" fill="#FFBE9D"/>
<path d="M216.673 110.423C216.673 110.423 216.639 110.462 216.565 110.525L216.23 110.797C215.918 111.035 215.493 111.364 214.982 111.767L213.116 113.185C212.764 113.446 212.413 113.752 211.982 114.002C211.768 114.15 211.523 114.245 211.265 114.279C211.008 114.314 210.746 114.287 210.501 114.2C210.249 114.087 210.048 113.885 209.934 113.633C209.833 113.399 209.788 113.144 209.803 112.89C209.846 112.415 210.046 111.968 210.371 111.619C210.658 111.312 210.969 111.027 211.301 110.769L212.14 110.071L213.366 109.067L213.7 108.8C213.78 108.744 213.819 108.709 213.825 108.715L213.717 108.823L213.4 109.112L212.209 110.145L211.38 110.854C211.056 111.113 210.752 111.397 210.473 111.704C210.154 112.025 209.954 112.446 209.906 112.896C209.876 113.128 209.917 113.365 210.023 113.574C210.129 113.783 210.296 113.956 210.501 114.07C210.722 114.16 210.965 114.184 211.199 114.138C211.432 114.093 211.655 114.006 211.857 113.883C212.254 113.639 212.617 113.315 212.991 113.083L214.869 111.682L216.145 110.752L216.497 110.502L216.673 110.423Z" fill="#EB996E"/>
<path d="M217.909 113.049C217.831 113.13 217.743 113.203 217.648 113.264C217.478 113.395 217.223 113.582 216.905 113.803C216.276 114.24 215.385 114.83 214.37 115.425C214.115 115.573 213.871 115.726 213.61 115.845C213.357 115.964 213.078 116.017 212.799 115.998C212.562 115.97 212.338 115.876 212.153 115.726C211.967 115.577 211.827 115.378 211.749 115.153C211.654 114.849 211.678 114.521 211.817 114.234C211.857 114.159 211.904 114.089 211.959 114.024C211.999 113.979 212.021 113.962 212.027 113.962C212.033 113.962 211.953 114.064 211.868 114.257C211.765 114.535 211.765 114.841 211.868 115.119C211.941 115.323 212.07 115.502 212.241 115.634C212.412 115.767 212.617 115.848 212.833 115.868C213.089 115.88 213.345 115.827 213.576 115.715C213.83 115.591 214.078 115.455 214.319 115.306C215.334 114.711 216.23 114.138 216.877 113.718L217.637 113.219C217.723 113.155 217.814 113.098 217.909 113.049Z" fill="#EB996E"/>
<path d="M218.629 115.613C218.546 115.673 218.457 115.724 218.363 115.766L217.608 116.146C216.967 116.464 216.077 116.889 215.096 117.354C214.856 117.474 214.61 117.58 214.358 117.672C214.114 117.762 213.849 117.784 213.592 117.734C213.474 117.712 213.361 117.664 213.263 117.593C213.165 117.523 213.084 117.431 213.025 117.326C212.931 117.14 212.899 116.929 212.934 116.724C212.997 116.437 213.155 116.179 213.383 115.993C213.536 115.862 213.638 115.811 213.644 115.823C213.649 115.834 213.558 115.896 213.417 116.032C213.22 116.224 213.087 116.471 213.037 116.741C213.008 116.922 213.04 117.108 213.127 117.269C213.18 117.358 213.252 117.434 213.337 117.493C213.422 117.552 213.519 117.591 213.621 117.609C213.853 117.651 214.093 117.627 214.313 117.541C214.559 117.45 214.8 117.344 215.033 117.224C216.02 116.764 216.911 116.35 217.563 116.055L218.34 115.72C218.431 115.67 218.528 115.634 218.629 115.613Z" fill="#EB996E"/>
<path d="M219.032 117.984C218.744 118.084 218.448 118.162 218.147 118.216C217.58 118.341 216.831 118.505 215.986 118.676L215.368 118.8C215.173 118.848 214.973 118.871 214.772 118.868C214.58 118.868 214.394 118.802 214.245 118.681C214.179 118.627 214.127 118.558 214.092 118.481C214.056 118.403 214.039 118.318 214.041 118.233C214.05 118.115 214.086 118.001 214.145 117.898C214.204 117.795 214.284 117.706 214.381 117.638C214.445 117.582 214.524 117.546 214.608 117.535C214.608 117.535 214.528 117.581 214.415 117.683C214.332 117.753 214.265 117.84 214.218 117.938C214.172 118.035 214.146 118.142 214.143 118.25C214.143 118.319 214.159 118.387 214.189 118.449C214.22 118.511 214.264 118.565 214.319 118.608C214.449 118.706 214.609 118.758 214.772 118.755C214.964 118.752 215.154 118.727 215.34 118.681L215.958 118.551C216.803 118.381 217.569 118.233 218.125 118.131C218.423 118.061 218.727 118.011 219.032 117.984Z" fill="#EB996E"/>
<path d="M212.98 116.849C212.457 116.744 211.925 116.691 211.392 116.69C210.862 116.74 210.339 116.844 209.832 117.002C210.296 116.707 210.835 116.55 211.386 116.548C211.935 116.5 212.487 116.604 212.98 116.849Z" fill="#EB996E"/>
<path d="M129.637 111.506C129.637 111.506 121.787 104.886 123.602 100.326C125.417 95.7653 130.46 93.5191 132.938 85.2092C134.918 78.5839 146.711 65.7986 160.687 75.4415C160.687 75.4415 165.418 74.6984 168.106 76.8539C170.795 79.0094 171.447 83.309 172.588 88.2722C174.346 95.9241 175.31 101.806 171.907 105.55C168.504 109.294 167.256 110.298 167.437 114.552C167.675 120.105 170.126 119.362 168.004 123.412L156.285 119.589L156.161 116.361L154.975 119.396L148.168 116.946L129.637 111.506Z" fill="#263238"/>
<path d="M168.668 83.5869C167.908 85.3339 168.532 87.3532 169.235 89.123C169.939 90.8928 170.795 92.7589 170.432 94.6308C169.785 97.9491 165.662 99.7983 165.208 103.139C164.964 104.932 165.86 106.758 165.514 108.539C165.168 110.32 163.739 111.557 162.213 112.419C160.687 113.281 159.002 113.86 157.567 114.87C157.567 114.87 154.414 117.456 148.979 113.196" fill="#263238"/>
<path d="M146.404 79.2475C145.699 79.0842 144.959 79.1912 144.329 79.5471C143.699 79.9031 143.225 80.4823 143.001 81.1704L131.742 118.551C130.284 122.924 135.786 127.592 140.477 129.113C145.219 130.65 146.177 128.398 147.681 124.28C150.199 117.405 151.084 114.807 151.084 114.847C151.084 114.886 157.369 115.924 161.294 108.607C163.245 104.96 165.265 98.5673 166.723 93.2921C168.05 88.5387 166.949 81.7546 162.145 80.6372L146.404 79.2475Z" fill="#FFBE9D"/>
<path d="M162.752 97.1947C162.665 97.4558 162.479 97.6723 162.234 97.7975C161.989 97.9227 161.704 97.9466 161.442 97.864C161.312 97.8299 161.19 97.7702 161.083 97.6883C160.977 97.6065 160.887 97.5042 160.821 97.3875C160.754 97.2707 160.712 97.1418 160.696 97.0084C160.679 96.875 160.69 96.7397 160.727 96.6104C160.815 96.3502 161.001 96.1347 161.246 96.0097C161.491 95.8847 161.775 95.8601 162.037 95.9411C162.167 95.9752 162.289 96.0349 162.396 96.1167C162.502 96.1986 162.592 96.3009 162.658 96.4176C162.725 96.5344 162.767 96.6633 162.783 96.7967C162.8 96.9301 162.789 97.0654 162.752 97.1947Z" fill="#263238"/>
<path d="M164.306 95.8617C164.142 95.9468 163.58 95.13 162.508 94.7613C161.436 94.3926 160.466 94.6535 160.398 94.4833C160.358 94.4039 160.568 94.2111 160.965 94.0806C161.54 93.9218 162.15 93.9436 162.712 94.143C163.27 94.3369 163.753 94.7022 164.09 95.1867C164.357 95.527 164.391 95.805 164.306 95.8617Z" fill="#263238"/>
<path d="M152.133 93.8027C152.046 94.0626 151.861 94.2785 151.618 94.4045C151.374 94.5305 151.091 94.5567 150.829 94.4777C150.699 94.4436 150.577 94.3838 150.47 94.302C150.364 94.2202 150.274 94.1179 150.208 94.0011C150.141 93.8844 150.099 93.7555 150.082 93.6221C150.066 93.4886 150.077 93.3533 150.114 93.2241C150.201 92.9641 150.386 92.7483 150.629 92.6223C150.873 92.4963 151.156 92.47 151.419 92.5491C151.549 92.5832 151.67 92.6429 151.777 92.7248C151.884 92.8066 151.973 92.9089 152.039 93.0256C152.106 93.1424 152.149 93.2713 152.165 93.4047C152.181 93.5381 152.17 93.6734 152.133 93.8027Z" fill="#263238"/>
<path d="M153.631 92.6341C153.461 92.7249 152.899 91.9024 151.827 91.5337C150.755 91.165 149.785 91.4259 149.717 91.2557C149.677 91.1763 149.887 90.9891 150.313 90.8587C150.887 90.6969 151.498 90.7187 152.06 90.9211C152.618 91.111 153.101 91.4748 153.438 91.9591C153.676 92.3221 153.71 92.6001 153.631 92.6341Z" fill="#263238"/>
<path d="M154.754 101.925C155.38 101.943 156.001 102.04 156.603 102.215C156.887 102.283 157.17 102.317 157.272 102.147C157.392 101.872 157.425 101.567 157.369 101.273C157.369 100.524 157.318 99.7359 157.289 98.9134C157.193 95.5554 157.227 92.8384 157.363 92.8327C157.499 92.827 157.687 95.5497 157.777 98.902C157.777 99.7245 157.806 100.513 157.823 101.267C157.884 101.661 157.802 102.064 157.59 102.402C157.52 102.483 157.433 102.547 157.334 102.589C157.236 102.631 157.13 102.65 157.023 102.646C156.858 102.636 156.696 102.603 156.541 102.549C155.921 102.419 155.32 102.209 154.754 101.925Z" fill="#263238"/>
<path d="M151.09 114.847C147.418 113.635 144.156 111.426 141.668 108.466C141.668 108.466 142.434 114.705 150.449 116.685L151.09 114.847Z" fill="#EB996E"/>
<path d="M153.404 104.37C153.291 104.042 153.095 103.749 152.836 103.519C152.576 103.288 152.262 103.128 151.924 103.054C151.68 102.993 151.428 102.982 151.18 103.021C150.932 103.06 150.695 103.148 150.483 103.281C150.276 103.409 150.114 103.597 150.02 103.821C149.925 104.044 149.903 104.292 149.955 104.529C150.06 104.781 150.237 104.995 150.465 105.145C150.692 105.294 150.959 105.372 151.232 105.368C151.799 105.368 152.361 105.252 152.882 105.028C153.034 104.985 153.176 104.914 153.302 104.818C153.361 104.772 153.405 104.71 153.429 104.64C153.453 104.569 153.456 104.493 153.438 104.421" fill="#EB996E"/>
<path d="M154.425 89.5711C154.26 89.8547 153.177 89.4973 151.838 89.4066C150.5 89.3158 149.382 89.469 149.258 89.1684C149.206 89.0209 149.445 88.7713 149.927 88.5614C150.56 88.3013 151.247 88.1982 151.929 88.2608C152.613 88.306 153.276 88.5141 153.863 88.8677C154.306 89.1513 154.504 89.435 154.425 89.5711Z" fill="#263238"/>
<path d="M165.849 92.2881C165.554 92.4696 164.715 91.9591 163.642 91.6415C162.57 91.3238 161.595 91.2444 161.453 90.9268C161.396 90.7736 161.612 90.5637 162.077 90.4446C162.712 90.3191 163.369 90.3534 163.988 90.5445C164.607 90.7356 165.168 91.0774 165.622 91.5394C165.934 91.8911 165.985 92.1917 165.849 92.2881Z" fill="#263238"/>
<path d="M133.29 103.803C135.4 96.7352 137.512 89.6637 139.626 82.5885C140.057 81.1364 140.556 79.5878 141.764 78.6746C142.973 77.7613 144.436 77.7103 145.866 77.6819C152.042 77.5535 158.212 78.1629 164.244 79.4971C164.527 80.9322 163.285 82.2992 161.89 82.77C160.494 83.2408 158.986 83.0706 157.522 83.0876C156.059 83.1046 154.453 83.3656 153.461 84.449C152.468 85.5324 152.298 87.3759 151.3 88.5784C149.598 90.6431 145.985 90.2064 144.277 92.2824C142.99 93.8536 143.336 96.1509 142.91 98.1362C142.428 100.405 142.428 100.405 140.641 103.706C139.558 105.737 142.281 109.617 139.569 114.648L134.305 113.151L136.614 105.38L133.483 112.669L133.29 103.803Z" fill="#263238"/>
<path d="M151.578 101.795C151.685 101.857 151.629 102.141 151.623 102.549C151.588 103.055 151.695 103.56 151.93 104.008C152.165 104.457 152.52 104.832 152.956 105.091C153.291 105.317 153.557 105.431 153.523 105.556C153.489 105.68 153.2 105.788 152.695 105.669C152.361 105.58 152.049 105.423 151.779 105.207C151.509 104.992 151.287 104.722 151.127 104.416C150.967 104.11 150.873 103.773 150.85 103.429C150.826 103.084 150.875 102.738 150.993 102.413C151.203 101.925 151.481 101.733 151.578 101.795Z" fill="#263238"/>
<path d="M150.012 84.744C149.922 84.8132 149.823 84.8687 149.717 84.9085C149.431 85.048 149.152 85.2033 148.883 85.3736C147.65 86.1385 146.597 87.1602 145.796 88.3692C144.994 89.5781 144.462 90.9458 144.237 92.3789C144.102 93.3896 144.102 94.4141 144.237 95.4249C144.405 96.5282 144.472 97.6447 144.436 98.7602C144.4 99.3417 144.279 99.9149 144.079 100.462C143.866 100.974 143.614 101.469 143.324 101.942C142.74 102.775 142.335 103.719 142.133 104.716C142.023 105.63 142.048 106.555 142.207 107.461C142.326 108.329 142.479 109.163 142.536 109.884C142.695 111.074 142.516 112.284 142.02 113.378C141.866 113.664 141.676 113.93 141.452 114.166C141.288 114.319 141.197 114.393 141.191 114.382C141.475 114.062 141.717 113.707 141.912 113.327C142.349 112.249 142.492 111.074 142.326 109.923C142.252 109.186 142.088 108.386 141.957 107.518C141.783 106.583 141.751 105.627 141.861 104.682C142.082 102.595 144.096 101.063 144.13 98.7715C144.165 97.6734 144.102 96.5743 143.942 95.4873C143.801 94.4522 143.801 93.4026 143.942 92.3675C144.222 90.6127 144.964 88.9641 146.092 87.5914C146.844 86.6721 147.762 85.9025 148.798 85.3225C149.076 85.1619 149.366 85.0234 149.666 84.9085C149.772 84.8356 149.888 84.78 150.012 84.744Z" fill="#263238"/>
<path d="M175.435 116.639L175.339 116.719C175.271 116.764 175.174 116.843 175.038 116.923C174.637 117.159 174.203 117.335 173.75 117.445C173.028 117.624 172.277 117.651 171.544 117.524C170.562 117.368 169.651 116.915 168.935 116.225C168.07 115.38 167.52 114.266 167.375 113.066C167.28 112.4 167.325 111.722 167.505 111.075C167.704 110.394 168.018 109.753 168.435 109.18C169.384 108.023 170.434 106.952 171.572 105.981C172.142 105.452 172.659 104.869 173.115 104.24C173.566 103.581 173.923 102.863 174.176 102.107C174.64 100.593 174.842 99.0097 174.771 97.4272C174.715 95.9458 174.562 94.4698 174.312 93.0085C173.907 90.5305 173.276 88.0945 172.429 85.731C171.858 84.1341 171.195 82.5716 170.443 81.0513C170.177 80.5125 169.961 80.0984 169.814 79.8205C169.728 79.6912 169.654 79.5545 169.593 79.412C169.691 79.5407 169.778 79.6773 169.854 79.8205C170.018 80.0871 170.251 80.4955 170.534 81.0287C171.331 82.5329 172.026 84.0887 172.616 85.6856C173.499 88.0536 174.156 90.4998 174.579 92.9915C174.84 94.4651 175.001 95.9546 175.061 97.4499C175.137 99.0651 174.932 100.681 174.454 102.226C174.196 103.01 173.828 103.753 173.359 104.433C172.889 105.078 172.357 105.676 171.771 106.219C170.643 107.176 169.601 108.229 168.657 109.367C168.254 109.912 167.949 110.522 167.755 111.171C167.582 111.787 167.534 112.431 167.613 113.066C167.748 114.215 168.265 115.286 169.082 116.106C169.765 116.774 170.632 117.223 171.572 117.394C172.284 117.53 173.015 117.518 173.722 117.36C174.327 117.209 174.904 116.966 175.435 116.639Z" fill="#263238"/>
<path d="M127.181 108.948C127.845 108.776 128.465 108.467 129.002 108.04C130.409 106.791 131.275 105.044 131.418 103.168C131.54 101.88 131.574 100.586 131.52 99.2935C131.438 97.7911 131.554 96.2844 131.866 94.8124C132.058 94.0154 132.365 93.2508 132.779 92.5435C133.22 91.7954 133.835 91.1649 134.572 90.7057C136.109 89.7641 137.975 89.8094 139.677 89.2252C140.506 88.9346 141.252 88.4459 141.849 87.8014C142.424 87.1615 142.937 86.4682 143.381 85.7311C144.289 84.3016 145.162 82.7985 146.546 81.9079C147.211 81.4848 147.96 81.2119 148.741 81.1081C149.465 81.011 150.196 80.9806 150.925 81.0174C152.215 81.1179 153.511 81.1066 154.799 80.9833C156.658 80.7284 158.426 80.0235 159.95 78.93C160.36 78.6298 160.754 78.3079 161.13 77.9657L161.419 77.6934L161.527 77.6027C161.088 78.1392 160.58 78.6159 160.018 79.0207C158.495 80.1654 156.711 80.9122 154.828 81.1932C153.529 81.3283 152.222 81.3511 150.919 81.2613C149.547 81.2613 147.987 81.2613 146.694 82.1405C145.4 83.0197 144.532 84.4434 143.625 85.8842C143.172 86.64 142.648 87.3504 142.059 88.0056C141.436 88.6813 140.657 89.1953 139.79 89.5031C138.043 90.1044 136.183 90.0704 134.748 90.9552C133.4 91.8706 132.468 93.2814 132.156 94.8805C131.841 96.3272 131.717 97.8089 131.787 99.2878C131.836 100.592 131.79 101.898 131.651 103.196C131.484 105.113 130.566 106.887 129.098 108.131C128.692 108.452 128.228 108.692 127.731 108.84C127.602 108.877 127.472 108.907 127.34 108.931C127.288 108.946 127.234 108.952 127.181 108.948Z" fill="#455A64"/>
<path d="M132.865 85.4531C133.234 85.5829 133.613 85.6835 133.999 85.7537C135.047 85.8816 136.11 85.7064 137.062 85.2489C138.45 84.5188 139.692 83.5402 140.726 82.3617C141.35 81.7264 142.003 81.0457 142.74 80.4047C143.496 79.722 144.361 79.1699 145.298 78.7711C146.251 78.3992 147.265 78.2069 148.287 78.2039C149.226 78.2015 150.163 78.2526 151.095 78.3571C151.98 78.4421 152.797 78.5329 153.602 78.5386C154.331 78.5505 155.058 78.4916 155.775 78.3627C156.815 78.1996 157.793 77.7653 158.611 77.1035C158.892 76.8398 159.159 76.5615 159.411 76.2697C159.37 76.362 159.318 76.4496 159.258 76.5306C159.192 76.6346 159.118 76.7332 159.036 76.8255C158.93 76.9564 158.812 77.0778 158.685 77.1886C157.868 77.9052 156.869 78.3822 155.798 78.5669C155.069 78.7127 154.328 78.7849 153.585 78.7825C152.786 78.7825 151.94 78.7031 151.05 78.6293C150.129 78.5312 149.203 78.4858 148.276 78.4932C147.289 78.4919 146.31 78.6726 145.389 79.0264C143.511 79.8035 142.161 81.2953 140.902 82.5375C139.84 83.73 138.56 84.7081 137.13 85.419C136.142 85.8763 135.039 86.0264 133.965 85.8501C133.675 85.7954 133.394 85.7058 133.125 85.5835C133.034 85.5488 132.947 85.505 132.865 85.4531Z" fill="#455A64"/>
<path d="M173.904 101.358C174.043 101.011 174.137 100.646 174.181 100.275C174.234 99.2575 173.951 98.2511 173.376 97.4102C172.718 96.2758 171.498 95.3228 170.262 94.1146C169.596 93.4841 169.038 92.7482 168.611 91.9365C168.197 91.0451 167.958 90.0821 167.908 89.1003C167.777 87.0867 168.123 85.2035 168.078 83.4961C168.143 81.9862 167.704 80.4975 166.83 79.2646C166.22 78.45 165.335 77.8839 164.34 77.6707C163.964 77.6167 163.584 77.6071 163.206 77.6423C163.297 77.6011 163.395 77.5743 163.495 77.5629C163.775 77.5244 164.06 77.5244 164.34 77.5629C165.386 77.7384 166.328 78.3014 166.978 79.1398C167.857 80.1552 168.311 81.7661 168.333 83.4961C168.356 85.2262 168.055 87.1207 168.186 89.0833C168.231 90.0328 168.459 90.9648 168.855 91.8287C169.262 92.6164 169.797 93.3313 170.438 93.9445C171.64 95.147 172.883 96.1567 173.535 97.3478C174.116 98.2304 174.378 99.2851 174.278 100.337C174.242 100.618 174.161 100.892 174.04 101.148C174.003 101.224 173.957 101.294 173.904 101.358Z" fill="#455A64"/>
<path d="M123.704 104.756C123.579 104.697 123.458 104.631 123.341 104.557C123.012 104.335 122.716 104.068 122.462 103.763C121.993 103.192 121.653 102.526 121.465 101.812C121.277 101.097 121.246 100.35 121.373 99.6225C121.464 99.138 121.627 98.6697 121.855 98.2327C122.126 97.7746 122.462 97.3581 122.853 96.9962C123.749 96.2595 124.741 95.6488 125.803 95.1811C126.956 94.6879 128.022 94.0096 128.956 93.1731C129.86 92.1798 130.477 90.9607 130.743 89.6449C131.084 88.3006 131.31 86.9392 131.759 85.6743C132.179 84.465 132.732 83.3064 133.409 82.2199C134.546 80.3759 136.007 78.7522 137.72 77.4268C138.871 76.5334 140.133 75.7935 141.475 75.2259C141.836 75.0673 142.205 74.929 142.581 74.8119C142.709 74.759 142.842 74.721 142.978 74.6984C142.978 74.7325 142.445 74.9026 141.521 75.3337C140.208 75.9349 138.975 76.697 137.851 77.6026C136.177 78.9319 134.752 80.547 133.642 82.373C132.982 83.4444 132.444 84.5859 132.037 85.7764C131.605 87.013 131.379 88.3573 131.027 89.747C130.75 91.1139 130.105 92.3791 129.161 93.4056C128.203 94.2612 127.11 94.953 125.927 95.4533C124.884 95.9051 123.905 96.4946 123.018 97.2061C122.643 97.5487 122.319 97.942 122.053 98.3745C121.83 98.7871 121.669 99.2306 121.577 99.6905C121.436 100.49 121.48 101.311 121.707 102.09C121.881 102.681 122.166 103.233 122.547 103.718C122.886 104.112 123.275 104.461 123.704 104.756Z" fill="#263238"/>
<path d="M175.503 101.886C175.475 101.886 175.741 101.613 176.104 101.075C176.604 100.312 176.948 99.458 177.114 98.5617C177.351 97.2319 177.303 95.8668 176.972 94.5571C176.531 92.9584 175.846 91.4374 174.942 90.0476C174.006 88.5444 172.996 87.1831 172.145 85.8955C171.374 84.7615 170.704 83.5619 170.143 82.3106C169.766 81.463 169.49 80.5738 169.32 79.6616C169.276 79.4139 169.246 79.164 169.23 78.9129C169.217 78.8264 169.217 78.7385 169.23 78.652C169.23 78.652 169.298 79.0093 169.439 79.6389C169.645 80.5371 169.944 81.4116 170.33 82.2482C170.916 83.4729 171.599 84.6489 172.372 85.765C173.229 87.0413 174.25 88.397 175.208 89.9171C176.129 91.3329 176.82 92.8855 177.256 94.5174C177.58 95.8662 177.608 97.2695 177.335 98.6298C177.142 99.5461 176.755 100.411 176.201 101.165C176.051 101.368 175.884 101.558 175.702 101.733C175.642 101.792 175.576 101.844 175.503 101.886Z" fill="#263238"/>
<path d="M116.585 180.946L111.928 189.052C111.928 189.052 88.7796 180.583 75.2285 183.05C70.0724 183.986 64.5589 195.677 72.069 203.187C79.3919 210.51 92.4892 220.868 117.067 224.22C117.68 224.299 127.748 226.46 127.124 226.387C126.5 226.313 141.237 228.656 141.237 228.656L144.697 215.575L172.145 219.881C188.323 218.78 196.241 201.48 186.496 195.909C177.42 190.719 160.324 190.3 160.324 190.3L154.13 180.589L116.585 180.946Z" fill="#263238"/>
<path d="M141.798 229.16C141.867 228.718 142.065 227.527 142.462 225.082C142.683 223.778 142.95 222.189 143.296 220.363C143.472 219.444 143.665 218.474 143.897 217.447C144.016 216.931 144.141 216.409 144.294 215.87C144.368 215.604 144.447 215.337 144.544 215.065C144.631 214.772 144.773 214.499 144.964 214.259L145.003 214.458C139.161 212.382 131.855 209.642 124.073 206.358C119.285 204.322 114.77 202.268 110.794 200.118C108.897 199.13 107.077 198.002 105.348 196.743C103.737 195.552 102.297 194.361 100.947 193.34C98.2807 191.23 95.8416 189.869 94.0435 189.29C93.6475 189.149 93.2442 189.03 92.8353 188.933C92.539 188.849 92.2378 188.785 91.9334 188.74L91.3662 188.638L91.1733 188.592C91.2393 188.585 91.3059 188.585 91.3719 188.592L91.9391 188.666C92.2489 188.699 92.5559 188.754 92.858 188.831C93.2728 188.917 93.682 189.029 94.0832 189.165C95.1886 189.523 96.2533 189.997 97.2597 190.578C98.5909 191.348 99.8666 192.21 101.077 193.159C102.438 194.185 103.879 195.365 105.496 196.562C107.22 197.806 109.035 198.921 110.924 199.897C114.895 202.019 119.404 204.066 124.186 206.097C131.963 209.376 139.257 212.138 145.083 214.242L145.247 214.305L145.122 214.441C144.963 214.657 144.842 214.899 144.765 215.156C144.669 215.417 144.589 215.683 144.51 215.944C144.357 216.472 144.226 216.999 144.107 217.504C143.869 218.525 143.665 219.495 143.483 220.408C143.12 222.235 142.837 223.812 142.598 225.116C142.36 226.421 142.167 227.413 142.031 228.122C141.963 228.468 141.912 228.735 141.867 228.911C141.849 228.996 141.827 229.079 141.798 229.16Z" fill="#455A64"/>
<path d="M181.175 197.498H181.022L180.597 197.43C180.222 197.379 179.678 197.242 178.958 197.169C176.94 196.903 174.902 196.831 172.871 196.953C169.857 197.147 166.87 197.641 163.954 198.428C162.309 198.865 160.596 199.387 158.849 199.994C157.102 200.6 155.31 201.298 153.478 202.03C151.69 202.739 149.862 203.343 148.004 203.839C146.206 204.333 144.453 204.719 142.774 205.042C139.416 205.7 136.359 206.103 133.795 206.415C131.231 206.727 129.149 206.936 127.714 207.084L126.058 207.248L125.627 207.282C125.578 207.29 125.528 207.29 125.479 207.282H125.621L126.052 207.22L127.697 206.999L133.766 206.239C136.33 205.898 139.376 205.473 142.717 204.804C144.391 204.475 146.121 204.083 147.924 203.584C149.772 203.088 151.59 202.487 153.37 201.786C155.196 201.054 156.994 200.351 158.759 199.75C160.523 199.148 162.236 198.615 163.892 198.19C166.827 197.412 169.834 196.939 172.866 196.777C174.909 196.671 176.958 196.773 178.98 197.084C179.701 197.174 180.239 197.333 180.614 197.401L181.039 197.498C181.084 197.492 181.13 197.492 181.175 197.498Z" fill="#455A64"/>
<path d="M138.883 192.79C138.883 192.983 137.658 193.295 135.599 193.487C130.222 193.927 124.811 193.35 119.648 191.786C117.68 191.162 116.528 190.589 116.585 190.402C116.715 189.993 121.577 191.287 127.703 191.922C133.829 192.557 138.843 192.359 138.883 192.79Z" fill="#263238"/>
<path d="M160.585 190.492C160.289 190.596 159.986 190.678 159.678 190.736C159.319 190.809 158.965 190.9 158.617 191.009C158.208 191.128 157.738 191.253 157.233 191.434C156.04 191.833 154.87 192.297 153.727 192.824C152.445 193.436 151.061 194.162 149.649 195.002C147.256 196.462 144.962 198.076 142.78 199.835C141.94 200.504 141.265 201.06 140.806 201.446C140.575 201.656 140.326 201.846 140.063 202.013C140.267 201.775 140.489 201.554 140.726 201.349C141.169 200.935 141.821 200.357 142.649 199.647C144.803 197.83 147.094 196.182 149.501 194.718C150.833 193.923 152.205 193.2 153.614 192.551C154.77 192.028 155.958 191.579 157.17 191.207C157.681 191.037 158.157 190.924 158.577 190.821C158.932 190.725 159.291 190.649 159.655 190.595C159.961 190.534 160.273 190.5 160.585 190.492Z" fill="#455A64"/>
<path d="M134.85 202.024C134.289 201.94 133.742 201.784 133.222 201.559C131.952 201.074 130.711 200.515 129.507 199.886L125.916 197.997C125.405 197.761 124.911 197.492 124.436 197.191C124.981 197.343 125.509 197.55 126.012 197.81C126.96 198.241 128.242 198.899 129.654 199.619C131.066 200.34 132.354 200.964 133.313 201.366C134.271 201.769 134.861 201.979 134.85 202.024Z" fill="#455A64"/>
<path d="M137.351 181.922C137.397 181.922 137.317 182.772 137.232 184.139C137.147 185.507 137.068 187.395 137.107 189.483C137.147 191.57 137.3 193.453 137.436 194.826C137.543 195.56 137.613 196.298 137.646 197.038C137.572 196.857 137.522 196.666 137.499 196.471C137.419 196.097 137.329 195.546 137.232 194.866C136.986 193.089 136.846 191.299 136.812 189.505C136.779 187.714 136.849 185.923 137.022 184.139C137.096 183.453 137.164 182.903 137.227 182.523C137.244 182.318 137.285 182.116 137.351 181.922Z" fill="#455A64"/>
<path d="M139.932 182.761C139.932 182.761 139.83 182.852 139.688 183.022C139.49 183.259 139.364 183.549 139.325 183.856C139.293 184.076 139.309 184.301 139.37 184.515C139.432 184.729 139.538 184.928 139.683 185.098C139.881 185.274 140.123 185.393 140.384 185.442C140.645 185.491 140.914 185.469 141.163 185.376C141.411 185.284 141.63 185.127 141.796 184.92C141.962 184.713 142.069 184.465 142.105 184.202C142.099 183.977 142.046 183.756 141.948 183.554C141.85 183.351 141.71 183.172 141.538 183.028C141.309 182.819 141.026 182.682 140.721 182.631C140.5 182.597 140.375 182.631 140.369 182.591C140.363 182.551 140.488 182.517 140.732 182.517C141.076 182.527 141.407 182.651 141.674 182.869C141.881 183.026 142.05 183.228 142.167 183.46C142.284 183.692 142.346 183.948 142.349 184.207C142.322 184.53 142.205 184.839 142.009 185.097C141.813 185.356 141.548 185.553 141.244 185.665C140.94 185.778 140.61 185.802 140.294 185.733C139.977 185.665 139.686 185.507 139.456 185.28C139.291 185.079 139.173 184.844 139.111 184.591C139.05 184.339 139.045 184.076 139.098 183.822C139.159 183.481 139.33 183.17 139.586 182.937C139.791 182.784 139.927 182.75 139.932 182.761Z" fill="#455A64"/>
<path d="M146.977 173.419C146.851 173.624 146.703 173.814 146.535 173.986C146.109 174.492 145.654 174.973 145.173 175.427C144.461 176.104 143.703 176.732 142.904 177.304C141.921 178.001 140.888 178.625 139.813 179.171C138.733 179.702 137.614 180.151 136.466 180.515C135.526 180.807 134.567 181.034 133.596 181.196C132.945 181.309 132.288 181.383 131.628 181.417C131.386 181.44 131.143 181.44 130.902 181.417C130.902 181.36 131.929 181.303 133.562 180.986C134.521 180.795 135.468 180.549 136.398 180.248C139.589 179.206 142.529 177.512 145.032 175.274C146.268 174.173 146.932 173.385 146.977 173.419Z" fill="#263238"/>
<path d="M157.329 179.715C157.329 179.8 156.308 179.8 155.106 180.106C153.903 180.413 152.996 180.866 152.95 180.793C154.209 179.867 155.784 179.48 157.329 179.715Z" fill="#263238"/>
<g opacity="0.3">
<path opacity="0.3" d="M133.523 181.133C138.454 180.23 142.921 177.649 146.166 173.827C146.461 174.725 146.502 175.687 146.282 176.607C146.063 177.526 145.593 178.367 144.924 179.034C146.365 179.715 148.055 179.261 149.632 179.034C151.209 178.808 153.137 179.034 153.892 180.436C146.837 181.089 139.747 181.291 132.666 181.042" fill="black"/>
</g>
<path d="M119.438 170.015C118.728 169.342 117.899 168.806 116.994 168.433C116.005 168.05 114.95 167.87 113.891 167.905C112.596 167.952 111.329 168.293 110.187 168.904C107.714 170.186 106.216 172.375 105.127 173.776C104.705 174.365 104.326 174.983 103.993 175.625C103.883 175.867 103.752 176.098 103.601 176.317C103.673 176.061 103.769 175.812 103.891 175.574C104.182 174.906 104.531 174.264 104.934 173.657C105.462 172.897 106.143 172.046 106.925 171.116C107.803 170.108 108.856 169.269 110.034 168.637C111.218 168.008 112.533 167.664 113.874 167.633C114.967 167.611 116.053 167.818 117.062 168.24C117.74 168.517 118.363 168.915 118.899 169.414C119.049 169.545 119.185 169.689 119.308 169.845C119.404 169.953 119.45 170.01 119.438 170.015Z" fill="#263238"/>
<path d="M134.288 115.607L126.37 117.292L130.329 132.113L144.351 135.125L153.971 128.302L155.293 120.128L147.045 117.008L134.288 115.607Z" fill="#FFBE9D"/>
<path d="M128.712 116.685C128.712 116.685 134.073 132.249 143.977 130.809C153.88 129.368 153.052 119.283 153.052 119.283C153.052 119.283 163.387 122.436 166.581 125.789C169.774 129.141 167.891 136.43 167.891 136.43L165.214 149.601L159.383 174.831C159.383 174.831 161.612 181.717 155.911 183.419L154.113 180.583L119.926 181.547C119.926 181.547 112.615 189.976 110.334 187.072C108.054 184.168 105.865 178.496 105.865 178.496L121.571 118.551L128.712 116.685Z" fill="#455A64"/>
<path d="M163.881 123.798C164.159 123.957 188.152 141.382 188.152 141.382C188.152 141.382 186.269 155.721 197.795 153.441C197.795 153.441 193.144 165.432 186.848 162.914C185.055 162.199 162.939 148.206 162.939 148.206L158.248 138.217L163.881 123.798Z" fill="#455A64"/>
<path d="M128.713 117.45C128.713 117.45 128.145 117.45 127.255 117.553C122.558 118.006 105.224 121.597 103.618 133.832C102.779 140.23 102.541 158.943 101.633 166.788C101.633 166.788 103.079 177.69 103.618 179.709C104.577 183.306 121.946 177.543 121.946 177.543L121.98 142.942L128.185 117.467" fill="#455A64"/>
<path d="M117.742 148.886C117.758 148.978 117.758 149.072 117.742 149.164C117.747 149.433 117.766 149.702 117.799 149.97C117.922 150.942 118.168 151.895 118.531 152.806C118.973 153.974 119.665 155.302 120.323 156.822C120.685 157.619 120.988 158.442 121.231 159.283C121.474 160.191 121.631 161.12 121.702 162.057C121.803 163.862 121.755 165.672 121.56 167.469C121.418 169.125 121.282 170.617 121.078 171.859C120.923 172.841 120.693 173.81 120.391 174.757C120.278 175.092 120.181 175.325 120.108 175.518C120.079 175.608 120.037 175.694 119.983 175.773C119.983 175.773 120.091 175.398 120.283 174.723C120.537 173.771 120.727 172.803 120.851 171.825C121.032 170.588 121.146 169.102 121.276 167.452C121.45 165.666 121.488 163.871 121.39 162.08C121.323 161.16 121.171 160.249 120.936 159.357C120.7 158.529 120.406 157.717 120.057 156.929C119.399 155.415 118.741 154.065 118.315 152.879C117.962 151.943 117.745 150.961 117.669 149.964C117.645 149.694 117.645 149.423 117.669 149.153C117.685 149.062 117.71 148.973 117.742 148.886Z" fill="#263238"/>
<path d="M118.542 144.519C118.593 144.519 118.633 145.398 118.831 146.787C119.089 148.616 119.512 150.418 120.096 152.17C120.272 152.687 120.454 153.18 120.664 153.657C120.705 153.767 120.752 153.875 120.805 153.98L121.01 154.292C121.141 154.499 121.262 154.713 121.373 154.933C121.779 155.687 121.998 156.527 122.014 157.383C122.017 157.967 121.903 158.546 121.679 159.085C121.601 159.287 121.496 159.478 121.367 159.652C121.654 158.95 121.802 158.199 121.804 157.44C121.762 156.622 121.533 155.824 121.134 155.109C121.027 154.905 120.902 154.7 120.771 154.496L120.567 154.184C120.498 154.067 120.441 153.944 120.397 153.815C120.198 153.339 120.017 152.834 119.83 152.318C119.234 150.548 118.835 148.718 118.639 146.861C118.559 146.152 118.536 145.568 118.531 145.16C118.51 144.946 118.513 144.731 118.542 144.519Z" fill="#263238"/>
<path d="M119.234 139.323C119.189 139.323 118.928 138.614 118.417 137.496C117.749 136.037 116.946 134.643 116.018 133.333C115.082 132.03 114.028 130.817 112.87 129.708C111.979 128.857 111.378 128.375 111.412 128.336C111.576 128.413 111.728 128.512 111.866 128.631C112.26 128.919 112.638 129.227 113 129.555C115.438 131.715 117.352 134.402 118.599 137.411C118.831 137.978 119.002 138.461 119.098 138.795C119.165 138.965 119.211 139.142 119.234 139.323Z" fill="#263238"/>
<path d="M168.396 129.158C168.408 129.618 168.369 130.079 168.282 130.531C168.18 131.376 168.033 132.539 167.902 133.826C167.772 135.114 167.664 136.282 167.59 137.133C167.582 137.594 167.525 138.052 167.42 138.5C167.355 138.044 167.342 137.581 167.38 137.122C167.38 136.265 167.471 135.091 167.607 133.798C167.744 132.505 167.919 131.336 168.072 130.502C168.129 130.044 168.238 129.593 168.396 129.158Z" fill="#263238"/>
<path d="M173.331 143.724C173.331 143.775 172.582 143.849 171.419 144.178C169.905 144.598 168.527 145.406 167.42 146.521C166.832 147.151 166.32 147.848 165.894 148.597C165.56 149.22 165.269 149.864 165.021 150.526L164.743 151.297C164.675 151.507 164.618 151.705 164.561 151.864C164.521 152.038 164.458 152.206 164.374 152.363C164.371 152.184 164.398 152.006 164.453 151.836L164.584 151.229L164.822 150.435C165.047 149.75 165.326 149.085 165.656 148.444C166.084 147.682 166.607 146.977 167.21 146.345C168.346 145.19 169.786 144.38 171.362 144.008C171.63 143.934 171.903 143.879 172.179 143.844C172.383 143.804 172.59 143.778 172.797 143.764C172.972 143.723 173.152 143.709 173.331 143.724Z" fill="#263238"/>
<path d="M189.219 159.51C189.069 159.313 188.942 159.1 188.839 158.875C188.719 158.671 188.583 158.41 188.442 158.098C188.3 157.786 188.13 157.446 187.982 157.043C187.609 156.112 187.303 155.154 187.069 154.178C186.784 152.979 186.595 151.76 186.502 150.531C186.424 149.304 186.445 148.073 186.564 146.85C186.668 145.852 186.842 144.862 187.086 143.889C187.177 143.469 187.307 143.1 187.404 142.754C187.481 142.475 187.576 142.2 187.687 141.932C187.761 141.695 187.86 141.467 187.982 141.251C188.039 141.251 187.659 142.255 187.29 143.912C187.079 144.881 186.927 145.862 186.836 146.85C186.735 148.061 186.72 149.278 186.791 150.491C186.882 151.703 187.06 152.907 187.324 154.093C187.545 155.055 187.825 156.002 188.164 156.93C188.765 158.557 189.27 159.488 189.219 159.51Z" fill="#263238"/>
<path d="M182.985 155.251C182.882 155.059 182.806 154.855 182.758 154.644C182.6 154.086 182.482 153.517 182.406 152.942C182.163 151.005 182.345 149.038 182.94 147.179C183.518 145.311 184.508 143.598 185.838 142.165C186.237 141.703 186.792 141.404 187.398 141.325C187.564 141.32 187.729 141.353 187.88 141.422C187.976 141.473 188.028 141.507 188.022 141.518C187.822 141.454 187.613 141.427 187.404 141.439C186.849 141.561 186.351 141.866 185.991 142.306C184.735 143.749 183.792 145.437 183.223 147.264C182.645 149.095 182.436 151.024 182.611 152.936C182.758 154.354 183.036 155.234 182.985 155.251Z" fill="#263238"/>
<path d="M143.977 152.426C143.959 152.656 143.911 152.883 143.835 153.101C143.775 153.362 143.699 153.62 143.608 153.872C143.498 154.211 143.371 154.544 143.228 154.87C142.87 155.727 142.437 156.551 141.935 157.332C140.699 159.257 139.084 160.91 137.187 162.188C136.417 162.709 135.602 163.163 134.753 163.543C134.43 163.694 134.099 163.827 133.761 163.94C133.512 164.044 133.256 164.127 132.995 164.19C132.778 164.265 132.554 164.319 132.326 164.349C132.326 164.292 133.256 164.037 134.663 163.356C135.488 162.955 136.28 162.49 137.034 161.967C137.947 161.317 138.805 160.592 139.598 159.8C140.372 158.99 141.076 158.115 141.702 157.185C142.209 156.421 142.654 155.619 143.035 154.785C143.687 153.362 143.92 152.409 143.977 152.426Z" fill="#263238"/>
<g opacity="0.3">
<path opacity="0.3" d="M124.333 158.041L121.066 146.129C120.907 145.562 120.641 144.865 120.045 144.757C119.765 144.747 119.491 144.841 119.277 145.021C119.062 145.202 118.921 145.455 118.882 145.732C118.803 146.31 118.803 146.896 118.882 147.474C119.138 150.066 119.342 151.824 120.55 153.832C122.904 157.746 121.355 159.646 121.355 159.646C121.543 164.411 121.14 170.912 119.654 175.807L121.055 181.712C122.382 177.321 125.417 173.663 125.927 169.102C126.319 165.364 125.349 161.66 124.333 158.041Z" fill="black"/>
</g>
<g opacity="0.3">
<path opacity="0.3" d="M165.225 149.68C169.11 151.7 172.565 154.49 176.348 156.652C174.868 153.56 172.378 150.503 169.383 148.864C168.601 148.359 167.68 148.115 166.751 148.166C165.832 148.296 165.174 148.812 165.316 149.726" fill="black"/>
</g>
<g opacity="0.3">
<path opacity="0.3" d="M187.489 141.132C186.161 141.098 185.163 142.306 184.511 143.463C182.676 146.756 181.926 150.543 182.367 154.286C182.446 154.956 182.696 155.761 183.359 155.891C183.604 155.918 183.851 155.865 184.063 155.739C184.275 155.613 184.44 155.422 184.533 155.194C184.715 154.738 184.791 154.248 184.755 153.759C184.755 151.49 184.596 149.192 184.925 146.952C185.254 144.711 186.099 142.442 187.761 140.905" fill="black"/>
</g>
<path d="M127.493 145.392H127.629L128.02 145.364L129.558 145.284L135.366 145.018L155.939 144.144H156.076V144.275C156.246 151.195 156.444 159.159 156.643 167.588V168.433V168.58H156.546C148.071 168.678 139.61 169.311 131.214 170.475H131.106L131.078 170.367C129.45 164.406 128.437 158.293 128.054 152.125C127.918 149.89 127.896 148.154 127.896 146.941C127.896 146.373 127.896 145.886 127.896 145.574V145.228C127.896 145.148 127.896 145.108 127.896 145.108C127.901 145.148 127.901 145.188 127.896 145.228V145.579C127.896 145.897 127.896 146.356 127.896 146.941C127.896 148.137 127.969 149.89 128.123 152.114C128.557 158.266 129.602 164.359 131.242 170.305L131.1 170.208C139.532 169.011 148.031 168.361 156.546 168.263L156.399 168.416V167.571C156.2 159.142 156.019 151.178 155.832 144.258L155.968 144.388L135.389 145.154L129.575 145.347L128.037 145.392H127.51H127.493Z" fill="white"/>
<path d="M134.992 162.585C134.912 162.585 134.203 158.767 133.409 154.025C132.615 149.283 132.037 145.432 132.116 145.415C132.195 145.398 132.904 149.232 133.699 153.98C134.493 158.728 135.049 162.573 134.992 162.585Z" fill="white"/>
<path d="M135.82 169.902C135.515 168.893 135.304 167.858 135.19 166.811C134.981 165.776 134.867 164.724 134.85 163.668C135.155 164.679 135.366 165.716 135.479 166.765C135.695 167.797 135.809 168.848 135.82 169.902Z" fill="white"/>
<path d="M140.709 158.79C140.629 158.624 140.575 158.446 140.551 158.263C140.466 157.922 140.358 157.417 140.239 156.799C140 155.557 139.734 153.832 139.541 151.915C139.348 149.998 139.274 148.251 139.257 146.992C139.257 146.356 139.257 145.857 139.257 145.494C139.252 145.304 139.269 145.113 139.308 144.927C139.4 145.602 139.447 146.282 139.45 146.963C139.518 148.223 139.626 149.958 139.819 151.87C140.012 153.781 140.244 155.5 140.426 156.748C140.561 157.422 140.656 158.104 140.709 158.79Z" fill="white"/>
<path d="M140.063 169.142C139.753 167.822 139.539 166.482 139.422 165.132C139.203 163.794 139.085 162.442 139.07 161.087C139.379 162.407 139.594 163.747 139.711 165.098C139.93 166.435 140.048 167.787 140.063 169.142Z" fill="white"/>
<path d="M146.472 168.682C146.413 168.374 146.375 168.061 146.359 167.747L146.138 165.194C145.951 163.044 145.673 160.089 145.298 156.793C144.924 153.498 144.516 150.554 144.209 148.415C144.062 147.383 143.937 146.527 143.846 145.88C143.788 145.571 143.754 145.258 143.744 144.944C143.843 145.243 143.916 145.551 143.96 145.863C144.079 146.43 144.232 147.315 144.413 148.381C144.776 150.52 145.213 153.486 145.593 156.759C145.973 160.032 146.212 162.999 146.348 165.183C146.41 166.26 146.455 167.134 146.472 167.741C146.502 168.054 146.502 168.369 146.472 168.682Z" fill="white"/>
<path d="M151.929 168.989C151.888 168.673 151.873 168.354 151.884 168.036C151.884 167.372 151.884 166.493 151.884 165.438C151.884 163.248 151.804 160.219 151.651 156.884C151.498 153.549 151.26 150.526 151.084 148.342C150.993 147.292 150.919 146.419 150.863 145.761C150.823 145.445 150.806 145.126 150.812 144.808C150.895 145.114 150.95 145.427 150.976 145.744C151.067 146.351 151.175 147.236 151.294 148.325C151.532 150.503 151.793 153.526 151.958 156.867C152.122 160.208 152.139 163.243 152.105 165.438C152.105 166.533 152.065 167.423 152.037 168.036C152.024 168.356 151.988 168.674 151.929 168.989Z" fill="white"/>
<g opacity="0.3">
<path opacity="0.3" d="M132.774 164.389C133.662 164.955 134.714 165.21 135.763 165.115C136.806 165.02 137.825 164.754 138.781 164.326C140.083 163.841 141.257 163.065 142.213 162.057C143.142 160.903 143.731 159.512 143.914 158.041C144.102 156.573 144.152 155.089 144.062 153.611C144.067 153.547 144.051 153.484 144.016 153.43C143.996 153.408 143.971 153.392 143.944 153.38C143.917 153.368 143.887 153.363 143.858 153.363C143.828 153.363 143.799 153.368 143.771 153.38C143.744 153.392 143.719 153.408 143.699 153.43C143.614 153.517 143.554 153.624 143.523 153.742C142.655 156.213 141.209 158.441 139.305 160.24C137.402 162.04 135.097 163.359 132.581 164.088" fill="black"/>
</g>
<path d="M129.263 211.9L125.797 205.399L118.003 168.921C118.003 168.921 110.833 164.803 104.957 173.827C104.724 174.19 113.034 200.317 115.354 207.583L115.678 214.537C115.678 214.537 115.269 222.768 115.678 223.488C116.043 223.993 116.542 224.386 117.118 224.623C117.118 224.623 116.812 226.682 119.177 226.892C119.177 226.892 119.382 229.161 121.129 228.849C121.604 228.791 122.061 228.632 122.47 228.384C122.878 228.136 123.23 227.803 123.5 227.408C123.5 227.408 123.5 230.284 125.043 229.977C126.585 229.671 126.835 228.434 127.119 228.026C127.402 227.618 127.731 223.392 127.731 223.392L127.703 216.426L131.719 219.682C132.853 220.249 134.583 220.975 135.548 220.108L129.263 211.9Z" fill="#FFBE9D"/>
<path d="M127.709 216.069C127.973 217.302 128.05 218.568 127.936 219.824C127.89 220.788 127.851 221.667 127.811 222.473C127.824 222.841 127.789 223.208 127.709 223.568C127.55 222.322 127.527 221.063 127.64 219.813C127.743 217.748 127.618 216.08 127.709 216.069Z" fill="#EB996E"/>
<path d="M123.284 220.924C123.512 223.215 123.542 225.52 123.375 227.816C123.148 225.526 123.117 223.22 123.284 220.924Z" fill="#EB996E"/>
<path d="M119.575 222.189C119.836 223.79 119.678 225.432 119.115 226.954C119.036 226.954 119.24 225.882 119.359 224.571C119.387 223.774 119.459 222.979 119.575 222.189Z" fill="#EB996E"/>
<path d="M117.187 221.384C117.283 222.428 117.178 223.481 116.88 224.486C116.78 223.969 116.78 223.438 116.88 222.921C116.888 222.394 116.992 221.873 117.187 221.384Z" fill="#EB996E"/>
<path d="M209.732 86.321L210.81 88.2893L212.778 89.3671L210.81 90.4448L209.732 92.4131L208.654 90.4448L206.686 89.3671L208.654 88.2893L209.732 86.321Z" fill="#FF631A"/>
<path d="M216.925 59.3664L218.042 59.2926L218.944 58.6233L219.018 59.7464L219.687 60.6483L218.564 60.722L217.662 61.3857L217.588 60.2683L216.925 59.3664Z" fill="#FF631A"/>
<path d="M398.358 148.875L399.476 148.801L400.378 148.132L400.451 149.255L401.121 150.157L399.998 150.231L399.096 150.894L399.022 149.777L398.358 148.875Z" fill="#FF631A"/>
<path d="M270.556 92.8726L271.674 92.7989L272.581 92.1352L272.655 93.2526L273.319 94.1545L272.201 94.2283L271.294 94.8919L271.225 93.7745L270.556 92.8726Z" fill="#FF631A"/>
<path d="M277.374 44.9417L278.491 44.868L279.393 44.2043L279.467 45.3218L280.131 46.2237L279.013 46.2974L278.111 46.9667L278.038 45.8436L277.374 44.9417Z" fill="#FF631A"/>
<path d="M243.028 74.6872L244.73 73.7059L245.632 71.9645L246.613 73.6662L248.36 74.5738L246.659 75.5494L245.751 77.2965L244.77 75.5948L243.028 74.6872Z" fill="#FF631A"/>
<path d="M385.999 171.405L387.7 170.424L388.602 168.683L389.583 170.384L391.325 171.286L389.623 172.268L388.721 174.009L387.74 172.307L385.999 171.405Z" fill="#FF631A"/>
<path d="M377.45 140.293L379.152 139.312L380.059 137.57L381.041 139.272L382.782 140.174L381.081 141.155L380.173 142.902L379.197 141.195L377.45 140.293Z" fill="#FF631A"/>
</svg>
