<svg width="180" height="180" viewBox="0 0 180 180" fill="none" xmlns="http://www.w3.org/2000/svg">
<path d="M92.2865 76.0729C68.6394 52.4288 42.7102 40.021 34.3692 48.359C33.4539 49.3177 32.7805 50.4805 32.4045 51.7515L32.2702 51.6173L24.3045 84.2613L16.3722 116.808L6.96954 155.346L1.01733 179.753L36.2577 166.418L81.0807 149.458L116.84 135.927L116.797 135.885C117.994 135.503 119.089 134.855 120 133.99C128.341 125.649 115.934 99.72 92.2865 76.0729Z" fill="#65BB4E"/>
<path d="M92.2862 76.0634C68.64 52.4172 42.71 40.009 34.3701 48.3489C26.0302 56.6888 38.4384 82.6187 62.0846 106.265C85.7309 129.911 111.661 142.319 120.001 133.979C128.341 125.64 115.932 99.7096 92.2862 76.0634Z" fill="#D1E3EE"/>
<path d="M113.594 136.983C109.324 137.058 105.088 136.217 101.171 134.518L71.9434 145.577L27.1051 162.522L3.0614 171.619L1.01733 180L36.2577 166.665L81.0807 149.705L113.899 137.288L113.594 136.983Z" fill="#257707"/>
<path d="M152.543 110.847C152.178 110.845 151.816 110.78 151.473 110.654C135.985 104.852 119.243 103.225 102.928 105.938L92.0299 107.753C90.3619 107.991 88.8166 106.832 88.5787 105.164C88.3487 103.552 89.4245 102.044 91.0231 101.737L101.924 99.9063C119.296 97.0198 137.122 98.7508 153.614 104.925C155.2 105.495 156.023 107.242 155.454 108.828C155.014 110.053 153.845 110.863 152.543 110.847Z" fill="#2BB3CE"/>
<path d="M97.6283 92.5416C95.9435 92.5316 94.5855 91.1576 94.5954 89.4728C94.6023 88.3097 95.2696 87.2518 96.3165 86.745L160.384 56.2365C161.906 55.5119 163.726 56.1579 164.451 57.6795C165.176 59.2011 164.53 61.0217 163.008 61.7463L98.9402 92.2548C98.5298 92.4466 98.0817 92.5446 97.6283 92.5416Z" fill="#FFBF41"/>
<path d="M61.9516 86.4399C61.5493 86.4406 61.1508 86.3609 60.7801 86.205C59.225 85.5563 58.4901 83.77 59.1388 82.2148V82.2145L63.5747 71.57C70.3998 55.2614 71.9912 37.2354 68.1296 19.9833C67.7338 18.3453 68.7409 16.6971 70.3785 16.3013C72.0164 15.9054 73.6646 16.9126 74.0605 18.5501C74.0692 18.5864 74.0772 18.6226 74.0849 18.6592C78.2218 37.1401 76.516 56.4497 69.2035 73.9192L64.7645 84.5636C64.2909 85.6989 63.1819 86.4387 61.9516 86.4399Z" fill="#D5557E"/>
<path d="M165.763 125.085C169.133 125.085 171.865 122.353 171.865 118.983C171.865 115.613 169.133 112.881 165.763 112.881C162.393 112.881 159.661 115.613 159.661 118.983C159.661 122.353 162.393 125.085 165.763 125.085Z" fill="#D5557E"/>
<path d="M92.5426 39.661C95.9125 39.661 98.6443 36.9292 98.6443 33.5593C98.6443 30.1895 95.9125 27.4576 92.5426 27.4576C89.1727 27.4576 86.4409 30.1895 86.4409 33.5593C86.4409 36.9292 89.1727 39.661 92.5426 39.661Z" fill="#DD95C1"/>
<path d="M65.0851 12.2034C61.7151 12.2034 58.9834 9.47174 58.9834 6.10169C58.9834 2.73165 61.7151 0 65.0851 0C68.4551 0 71.1868 2.73165 71.1868 6.10169C71.1868 9.47174 68.4551 12.2034 65.0851 12.2034Z" fill="#7FCCCB"/>
<path d="M149.492 27.4588C147.807 27.4588 146.441 26.0928 146.441 24.408V21.3571C146.441 19.6723 147.807 18.3063 149.492 18.3063C151.176 18.3063 152.542 19.6723 152.542 21.3571V24.408C152.542 26.0928 151.177 27.4588 149.492 27.4588Z" fill="#007C95"/>
<path d="M149.492 12.2046C147.807 12.2046 146.441 10.8386 146.441 9.15376V6.10291C146.441 4.41808 147.807 3.05206 149.492 3.05206C151.176 3.05206 152.542 4.41808 152.542 6.10291V9.15376C152.542 10.8386 151.177 12.2046 149.492 12.2046Z" fill="#007C95"/>
<path d="M158.644 18.3063H155.593C153.908 18.3063 152.542 16.9403 152.542 15.2554C152.542 13.5706 153.908 12.2046 155.593 12.2046H158.644C160.329 12.2046 161.695 13.5706 161.695 15.2554C161.695 16.9403 160.329 18.3063 158.644 18.3063Z" fill="#007C95"/>
<path d="M143.39 18.3063H140.339C138.654 18.3063 137.288 16.9403 137.288 15.2554C137.288 13.5706 138.654 12.2046 140.339 12.2046H143.39C145.075 12.2046 146.441 13.5706 146.441 15.2554C146.441 16.9403 145.075 18.3063 143.39 18.3063Z" fill="#007C95"/>
<path d="M25.235 88.4745C24.8933 87.1688 24.5882 85.8508 24.3045 84.5084L16.3723 117.055L16.9825 124.496C18.3123 140.36 25.1271 155.265 36.2547 166.649L81.0808 149.705C80.8367 149.629 80.5835 149.574 80.3394 149.491C53.1583 139.3 32.6135 116.55 25.235 88.4745Z" fill="#CBFFAA"/>
<path d="M81.0806 149.705C80.8366 149.629 80.5833 149.574 80.3393 149.492C77.4028 148.38 74.5266 147.114 71.7237 145.699L31.3488 160.975C32.8795 162.96 34.5182 164.86 36.2576 166.665L81.0806 149.705Z" fill="#8BF065"/>
<path d="M126.101 34.5114V49.8297H110.783V34.5114H126.101Z" fill="#C9DA53"/>
<path d="M76.2724 89.4907C74.5875 89.4904 73.2219 88.124 73.2223 86.4391C73.2227 85.575 73.5892 84.7516 74.2314 84.1731L104.74 56.7155C106.014 55.613 107.941 55.7522 109.043 57.0263C110.115 58.2649 110.017 60.129 108.822 61.249L78.3134 88.7067C77.7536 89.2112 77.0263 89.4904 76.2724 89.4907Z" fill="#FFBF41"/>
<path d="M161.695 77.2873C160.01 77.2873 158.644 75.9213 158.644 74.2365V71.1857C158.644 69.5008 160.01 68.1348 161.695 68.1348C163.38 68.1348 164.746 69.5008 164.746 71.1857V74.2365C164.746 75.9213 163.38 77.2873 161.695 77.2873Z" fill="#FFB443"/>
<path d="M172.483 72.8178C171.673 72.8201 170.896 72.4982 170.326 71.9239L168.169 69.767C166.998 68.555 167.032 66.6235 168.243 65.4531C169.426 64.3113 171.3 64.3113 172.483 65.4531L174.64 67.61C175.831 68.8018 175.831 70.7333 174.639 71.9247C174.067 72.4963 173.291 72.8178 172.483 72.8178Z" fill="#FFB443"/>
<path d="M176.949 62.0331H173.898C172.213 62.0331 170.847 60.6671 170.847 58.9822C170.847 57.2974 172.213 55.9314 173.898 55.9314H176.949C178.634 55.9314 180 57.2974 180 58.9822C180 60.6671 178.634 62.0331 176.949 62.0331Z" fill="#FFB443"/>
<path d="M170.326 53.4053C168.641 53.4049 167.275 52.0389 167.276 50.3537C167.276 49.5448 167.597 48.7692 168.169 48.1975L170.326 46.0406C171.538 44.8698 173.469 44.9034 174.64 46.1153C175.781 47.2975 175.781 49.1719 174.64 50.3545L172.483 52.5114C171.911 53.0834 171.135 53.4053 170.326 53.4053Z" fill="#FFB443"/>
<path d="M161.695 49.8297C160.01 49.8297 158.644 48.4637 158.644 46.7789V43.728C158.644 42.0432 160.01 40.6772 161.695 40.6772C163.38 40.6772 164.746 42.0432 164.746 43.728V46.7789C164.746 48.4637 163.38 49.8297 161.695 49.8297Z" fill="#FFB443"/>
<path d="M153.064 53.4054C152.255 53.4054 151.479 53.0835 150.907 52.5114L148.75 50.3545C147.58 49.1426 147.613 47.211 148.825 46.0406C150.007 44.8988 151.881 44.8988 153.064 46.0406L155.221 48.1975C156.412 49.3893 156.412 51.3209 155.22 52.5122C154.649 53.0839 153.873 53.4054 153.064 53.4054Z" fill="#FFB443"/>
<path d="M15.2542 1.01617L19.9678 10.5684L30.5085 12.0999L22.8814 19.5348L24.6813 30.0328L15.2542 25.0751L5.82712 30.0328L7.62712 19.5348L0 12.0999L10.5407 10.5684L15.2542 1.01617Z" fill="#FFB443"/>
<path d="M149.533 155.079C148.082 149.936 144.741 145.533 140.179 142.75L138.922 140.865C131.874 130.325 120.792 123.159 108.288 121.056C106.62 120.818 105.075 121.977 104.837 123.645C104.607 125.257 105.683 126.765 107.282 127.072C116.3 128.603 124.519 133.184 130.563 140.05C125.481 140.964 121.037 144.016 118.359 148.431C115.074 154.316 117.181 161.749 123.065 165.035C128.95 168.321 136.384 166.214 139.669 160.329C140.924 157.906 141.602 155.226 141.649 152.498C144.896 157.212 145.155 163.369 142.318 168.341C141.458 169.79 141.936 171.662 143.385 172.521C144.834 173.381 146.706 172.903 147.565 171.454C147.593 171.407 147.619 171.36 147.644 171.312C150.416 166.37 151.096 160.525 149.533 155.079ZM134.349 157.352C132.72 160.302 129.009 161.374 126.059 159.745C123.108 158.117 122.036 154.405 123.665 151.455C123.674 151.439 123.683 151.422 123.692 151.406C125.493 148.458 128.529 146.481 131.954 146.03C132.484 146.015 133.009 146.137 133.479 146.384C136.054 147.821 136.191 154.051 134.349 157.352Z" fill="#D5557E"/>
</svg>
