<svg width="81" height="82" viewBox="0 0 81 82" fill="none" xmlns="http://www.w3.org/2000/svg">
<path d="M75.4172 23.513C75.4113 23.3885 75.3849 23.2659 75.3392 23.1499C75.2946 23.0347 75.2284 22.9291 75.1442 22.8386C75.1442 22.8386 75.1442 22.7608 75.0661 22.7349C74.9508 22.6097 74.8085 22.5122 74.6501 22.4496C74.4807 22.381 74.2997 22.3458 74.1169 22.3458H68.9157C68.5709 22.3458 68.2401 22.4825 67.9963 22.7257C67.7524 22.9689 67.6154 23.2987 67.6154 23.6427C67.6154 23.9866 67.7524 24.3165 67.9963 24.5597C68.2401 24.8029 68.5709 24.9395 68.9157 24.9395H70.9312L64.0526 31.6832C48.0054 47.3962 26.389 56.1579 3.90089 56.0641H1.3003C0.955437 56.0641 0.624701 56.2007 0.380848 56.4439C0.136995 56.6872 0 57.017 0 57.361C0 57.7049 0.136995 58.0348 0.380848 58.278C0.624701 58.5212 0.955437 58.6578 1.3003 58.6578H5.38323C28.0431 58.3801 49.7176 49.3745 65.873 33.5247L72.8166 26.7292V28.8301C72.8166 29.1741 72.9536 29.5039 73.1975 29.7471C73.4413 29.9903 73.7721 30.127 74.1169 30.127C74.4618 30.127 74.7925 29.9903 75.0364 29.7471C75.2802 29.5039 75.4172 29.1741 75.4172 28.8301V23.6427C75.4172 23.6427 75.4172 23.5519 75.4172 23.513Z" fill="#730022"/>
<path d="M60.0543 15.3636V76.8147C60.0543 77.5555 59.76 78.266 59.2362 78.7898C58.7124 79.3136 58.0019 79.6079 57.2611 79.6079H4.18971C3.47337 79.6305 2.77725 79.3684 2.25374 78.8789C1.73023 78.3895 1.42199 77.7125 1.39648 76.9963V4.00914C1.42199 3.2929 1.73023 2.61594 2.25374 2.12645C2.77725 1.63697 3.47337 1.37485 4.18971 1.39747H46.0882L60.0543 15.3636Z" fill="#F1F1F1"/>
<path d="M60.0546 15.3636V74.7198H9.07814C8.3618 74.7424 7.66568 74.4803 7.14217 73.9908C6.61866 73.5013 6.31042 72.8243 6.28491 72.1081V1.39746H46.0884L60.0546 15.3636Z" fill="white"/>
<path d="M79.7748 70.0831L71.8699 62.1923C71.6082 61.9321 71.2543 61.7861 70.8853 61.7861C70.5163 61.7861 70.1624 61.9321 69.9007 62.1923L65.9483 66.1307C65.8174 66.2605 65.7135 66.415 65.6426 66.5852C65.5717 66.7554 65.5352 66.9379 65.5352 67.1223C65.5352 67.3067 65.5717 67.4892 65.6426 67.6594C65.7135 67.8296 65.8174 67.9841 65.9483 68.1139L73.8531 76.0048C74.6387 76.7894 75.7036 77.2301 76.8139 77.2301C77.9243 77.2301 78.9892 76.7894 79.7748 76.0048C80.5594 75.2192 81.0001 74.1543 81.0001 73.044C81.0001 71.9336 80.5594 70.8687 79.7748 70.0831Z" fill="white"/>
<path d="M19.5526 6.98389C18.4414 6.98389 17.3757 7.42532 16.59 8.21106C15.8042 8.99681 15.3628 10.0625 15.3628 11.1737V33.5196C15.3628 33.89 15.5099 34.2452 15.7719 34.5071C16.0338 34.7691 16.389 34.9162 16.7594 34.9162H22.3459C22.7163 34.9162 23.0715 34.7691 23.3334 34.5071C23.5953 34.2452 23.7425 33.89 23.7425 33.5196V11.1737C23.7425 10.0625 23.3011 8.99681 22.5153 8.21106C21.7296 7.42532 20.6639 6.98389 19.5526 6.98389Z" fill="#DD285D"/>
<path d="M30.7255 13.967C29.6143 13.967 28.5486 14.4085 27.7628 15.1942C26.9771 15.98 26.5356 17.0457 26.5356 18.1569V33.5197C26.5356 33.8901 26.6828 34.2453 26.9447 34.5072C27.2066 34.7691 27.5619 34.9163 27.9323 34.9163H33.5187C33.8891 34.9163 34.2444 34.7691 34.5063 34.5072C34.7682 34.2453 34.9153 33.8901 34.9153 33.5197V18.1569C34.9153 17.0457 34.4739 15.98 33.6882 15.1942C32.9024 14.4085 31.8367 13.967 30.7255 13.967Z" fill="#DD285D"/>
<path d="M41.8986 20.9501C40.7874 20.9501 39.7217 21.3915 38.9359 22.1773C38.1502 22.963 37.7087 24.0287 37.7087 25.1399V33.5196C37.7087 33.89 37.8559 34.2453 38.1178 34.5072C38.3797 34.7691 38.735 34.9162 39.1054 34.9162H44.6918C45.0622 34.9162 45.4175 34.7691 45.6794 34.5072C45.9413 34.2453 46.0884 33.89 46.0884 33.5196V25.1399C46.0884 24.0287 45.647 22.963 44.8613 22.1773C44.0755 21.3915 43.0098 20.9501 41.8986 20.9501Z" fill="#DD285D"/>
<path d="M46.0882 34.9162H15.3627C14.9923 34.9162 14.637 34.769 14.3751 34.5071C14.1132 34.2452 13.9661 33.8899 13.9661 33.5195C13.9661 33.1491 14.1132 32.7939 14.3751 32.532C14.637 32.2701 14.9923 32.1229 15.3627 32.1229H46.0882C46.4586 32.1229 46.8139 32.2701 47.0758 32.532C47.3377 32.7939 47.4848 33.1491 47.4848 33.5195C47.4848 33.8899 47.3377 34.2452 47.0758 34.5071C46.8139 34.769 46.4586 34.9162 46.0882 34.9162Z" fill="white"/>
<path d="M43.6443 44.6925H13.9662C13.5958 44.6925 13.2406 44.5454 12.9786 44.2835C12.7167 44.0215 12.5696 43.6663 12.5696 43.2959C12.5696 42.9255 12.7167 42.5703 12.9786 42.3084C13.2406 42.0464 13.5958 41.8993 13.9662 41.8993H43.6443C44.0147 41.8993 44.3699 42.0464 44.6318 42.3084C44.8937 42.5703 45.0409 42.9255 45.0409 43.2959C45.0409 43.6663 44.8937 44.0215 44.6318 44.2835C44.3699 44.5454 44.0147 44.6925 43.6443 44.6925Z" fill="white"/>
<path d="M40.5019 53.0723H13.9662C13.5958 53.0723 13.2406 52.9251 12.9786 52.6632C12.7167 52.4013 12.5696 52.0461 12.5696 51.6757C12.5696 51.3053 12.7167 50.95 12.9786 50.6881C13.2406 50.4262 13.5958 50.2791 13.9662 50.2791H40.5019C40.8723 50.2791 41.2275 50.4262 41.4894 50.6881C41.7514 50.95 41.8985 51.3053 41.8985 51.6757C41.8985 52.0461 41.7514 52.4013 41.4894 52.6632C41.2275 52.9251 40.8723 53.0723 40.5019 53.0723Z" fill="white"/>
<path d="M42.0242 61.4519H13.9662C13.5958 61.4519 13.2406 61.3048 12.9786 61.0429C12.7167 60.7809 12.5696 60.4257 12.5696 60.0553C12.5696 59.6849 12.7167 59.3297 12.9786 59.0677C13.2406 58.8058 13.5958 58.6587 13.9662 58.6587H42.0242C42.3946 58.6587 42.7498 58.8058 43.0118 59.0677C43.2737 59.3297 43.4208 59.6849 43.4208 60.0553C43.4208 60.4257 43.2737 60.7809 43.0118 61.0429C42.7498 61.3048 42.3946 61.4519 42.0242 61.4519Z" fill="white"/>
<path d="M50.4737 69.8316H13.9662C13.5958 69.8316 13.2406 69.6844 12.9786 69.4225C12.7167 69.1606 12.5696 68.8054 12.5696 68.4349C12.5696 68.0645 12.7167 67.7093 12.9786 67.4474C13.2406 67.1855 13.5958 67.0383 13.9662 67.0383H50.4737C50.8441 67.0383 51.1994 67.1855 51.4613 67.4474C51.7232 67.7093 51.8703 68.0645 51.8703 68.4349C51.8703 68.8054 51.7232 69.1606 51.4613 69.4225C51.1994 69.6844 50.8441 69.8316 50.4737 69.8316Z" fill="white"/>
<path d="M51.8703 48.1702C51.8771 48.0959 51.8771 48.0211 51.8703 47.9467C51.8334 47.7826 51.7672 47.6264 51.6748 47.4858C51.7686 47.6459 51.8347 47.8206 51.8703 48.0026C51.8745 48.0584 51.8745 48.1144 51.8703 48.1702Z" fill="white"/>
<path d="M65.4455 57.7509C65.475 57.9335 65.468 58.1201 65.4248 58.2999C65.3817 58.4797 65.3032 58.6491 65.1941 58.7984C65.14 58.8779 65.0741 58.9485 64.9985 59.0079L65.1801 58.7984C65.2893 58.6491 65.3677 58.4797 65.4108 58.2999C65.454 58.1201 65.461 57.9335 65.4315 57.7509C65.4005 57.5741 65.3391 57.404 65.2499 57.2482C65.3496 57.4002 65.4162 57.5715 65.4455 57.7509Z" fill="white"/>
<path d="M69.1324 64.9296C66.7863 67.2676 63.7999 68.858 60.5505 69.4999C57.3011 70.1419 53.9344 69.8066 50.8754 68.5364C47.8164 67.2662 45.2024 65.1181 43.3634 62.3633C41.5244 59.6085 40.543 56.3706 40.543 53.0583C40.543 49.7461 41.5244 46.5082 43.3634 43.7534C45.2024 40.9986 47.8164 38.8504 50.8754 37.5803C53.9344 36.3101 57.3011 35.9748 60.5505 36.6167C63.7999 37.2587 66.7863 38.8491 69.1324 41.1871C70.6949 42.7441 71.9345 44.5942 72.7804 46.6314C73.6263 48.6685 74.0617 50.8526 74.0617 53.0583C74.0617 55.2641 73.6263 57.4482 72.7804 59.4853C71.9345 61.5225 70.6949 63.3726 69.1324 64.9296Z" fill="white"/>
<path d="M68.1967 57.262C68.11 56.718 67.917 56.1964 67.6285 55.7271C67.3401 55.2578 66.9619 54.8499 66.5157 54.5269C66.0694 54.2039 65.5639 53.9721 65.0279 53.8447C64.492 53.7173 63.9362 53.6968 63.3923 53.7845C63.2168 53.8115 63.0439 53.8535 62.8756 53.9101H62.7219C62.5487 53.9655 62.3804 54.0356 62.2191 54.1196C62.0766 54.1851 61.9409 54.2647 61.8141 54.3571C61.7161 54.4082 61.6266 54.4742 61.5488 54.5526C61.4304 54.6324 61.3184 54.7211 61.2136 54.818C61.0142 55.0062 60.8319 55.2119 60.6689 55.4325C60.3329 55.8918 60.094 56.4147 59.9667 56.9694C59.8394 57.524 59.8265 58.0988 59.9287 58.6586C59.9418 58.7963 59.9699 58.9321 60.0125 59.0637C60.0396 59.1983 60.0817 59.3295 60.1382 59.4547C60.1382 59.5804 60.2359 59.7061 60.2918 59.8318C60.406 60.0819 60.5515 60.3166 60.7248 60.5301L60.9901 60.8513C61.1784 61.0508 61.384 61.233 61.6046 61.396C62.3175 61.9059 63.1723 62.1795 64.0487 62.1781C64.2717 62.1989 64.4961 62.1989 64.7191 62.1781C65.273 62.0994 65.8055 61.9105 66.2852 61.6227C66.765 61.3349 67.1822 60.9539 67.5123 60.5022C67.8406 60.0369 68.0705 59.5097 68.1882 58.9526C68.3059 58.3955 68.3087 57.8203 68.1967 57.262ZM64.5236 59.2871C64.459 59.2996 64.3926 59.2996 64.328 59.2871C63.9639 59.3429 63.5924 59.2526 63.2945 59.0357C63.2184 58.9829 63.1482 58.922 63.085 58.8542C62.965 58.7186 62.8704 58.5624 62.8057 58.3933C62.7977 58.305 62.7977 58.2162 62.8057 58.1279C62.7499 57.7638 62.8403 57.3923 63.0571 57.0944C63.11 57.0183 63.1708 56.9481 63.2387 56.8849L63.4063 56.7592H63.518C63.5727 56.7201 63.6343 56.6916 63.6996 56.6755H63.9649H64.1884C64.4794 56.6773 64.7626 56.7701 64.9984 56.9408C65.1484 57.0509 65.2764 57.1883 65.3755 57.3458C65.4647 57.5016 65.5261 57.6718 65.557 57.8486C65.5866 58.0311 65.5796 58.2177 65.5364 58.3975C65.4933 58.5774 65.4148 58.7468 65.3057 58.8961L65.1241 59.1056C64.9425 59.2159 64.7359 59.2783 64.5236 59.2871Z" fill="#DD285D"/>
<path d="M54.6078 47.4857C54.5406 47.0782 54.4136 46.6829 54.2307 46.3126C54.0588 45.9382 53.8277 45.594 53.5464 45.293C53.3501 45.0968 53.1401 44.9148 52.9179 44.7484C52.0166 44.104 50.8968 43.8429 49.8035 44.0221C48.9851 44.1426 48.2241 44.5134 47.6247 45.0835C47.4253 45.2718 47.243 45.4775 47.0801 45.6981C46.9544 45.8796 46.8426 46.0751 46.7309 46.2567C46.6314 46.4482 46.5519 46.6495 46.4935 46.8572C46.4226 47.0614 46.3712 47.2719 46.3399 47.4857C46.2617 47.948 46.2617 48.4201 46.3399 48.8823L46.4237 49.2874C46.5236 49.6864 46.6837 50.0678 46.8985 50.4186C47.2725 51.0276 47.7961 51.5308 48.4194 51.8804C49.0428 52.2299 49.7452 52.4143 50.4599 52.4158C50.6831 52.4296 50.907 52.4296 51.1302 52.4158C51.6852 52.3354 52.2184 52.1443 52.6982 51.8541C53.178 51.5638 53.5947 51.1801 53.9235 50.7259C54.2517 50.2606 54.4817 49.7334 54.5994 49.1763C54.717 48.6192 54.7199 48.044 54.6078 47.4857ZM51.6749 48.9801C51.568 49.1301 51.4325 49.2574 51.2762 49.3548C51.1199 49.4521 50.9458 49.5177 50.7641 49.5475C50.5824 49.5774 50.3966 49.571 50.2173 49.5287C50.0381 49.4865 49.8689 49.4092 49.7197 49.3013C49.6479 49.2483 49.5824 49.1874 49.5241 49.1198C49.3934 48.9898 49.2932 48.8324 49.2308 48.6589C49.1993 48.5728 49.1759 48.484 49.161 48.3935C49.1315 48.211 49.1385 48.0244 49.1817 47.8446C49.2248 47.6648 49.3032 47.4953 49.4124 47.3461C49.6293 47.0472 49.9556 46.8463 50.3202 46.7874H50.5437C50.8357 46.7833 51.1207 46.8767 51.3537 47.0528C51.4879 47.1749 51.597 47.3219 51.6749 47.4857C51.769 47.6443 51.8307 47.8199 51.8565 48.0025C51.8565 48.0025 51.8565 48.0723 51.8565 48.1142C51.8633 48.1511 51.8633 48.189 51.8565 48.2259C51.8684 48.4894 51.8054 48.7509 51.6749 48.9801Z" fill="#DD285D"/>
<path d="M63.8113 44.0083C63.6621 43.9004 63.4929 43.8232 63.3137 43.7809C63.1344 43.7387 62.9486 43.7323 62.7669 43.7621C62.5851 43.792 62.4111 43.8575 62.2548 43.9549C62.0985 44.0522 61.963 44.1796 61.8561 44.3295L50.4038 60.1811C50.2959 60.3304 50.2187 60.4995 50.1764 60.6788C50.1342 60.858 50.1278 61.0438 50.1576 61.2256C50.1875 61.4073 50.253 61.5813 50.3504 61.7376C50.4478 61.894 50.5751 62.0295 50.725 62.1364C50.9625 62.3021 51.2455 62.39 51.5351 62.3878C51.7578 62.3906 51.978 62.34 52.1772 62.2404C52.3764 62.1408 52.5489 61.995 52.6803 61.8152L64.1186 45.9636C64.2272 45.8152 64.3054 45.6468 64.3487 45.468C64.392 45.2893 64.3997 45.1038 64.3711 44.9221C64.3426 44.7404 64.2784 44.5662 64.1823 44.4094C64.0863 44.2526 63.9602 44.1163 63.8113 44.0083Z" fill="#DD285D"/>
<path d="M61.451 15.3636C61.4487 15.5461 61.4108 15.7264 61.3392 15.8943C61.1975 16.2356 60.9263 16.5067 60.5851 16.6485C60.4172 16.72 60.2368 16.758 60.0543 16.7602H48.8814C48.3229 16.7603 47.7699 16.6488 47.2551 16.4322C46.7403 16.2155 46.274 15.8981 45.8836 15.4987C45.4933 15.0992 45.1867 14.6257 44.982 14.106C44.7773 13.5863 44.6785 13.031 44.6916 12.4726V1.39743C44.6938 1.21492 44.7317 1.03462 44.8033 0.866715C44.945 0.525453 45.2162 0.254264 45.5575 0.112542C45.7246 0.0386542 45.9054 0.000488281 46.0882 0.000488281C46.271 0.000488281 46.4517 0.0386542 46.6189 0.112542C46.7903 0.179013 46.947 0.278683 47.0798 0.405832L61.0459 14.372C61.1731 14.5048 61.2728 14.6614 61.3392 14.8329C61.4108 15.0008 61.4487 15.1811 61.451 15.3636Z" fill="white"/>
<path d="M15.3627 34.9162H46.0882C46.4586 34.9162 46.8139 34.7691 47.0758 34.5071C47.3377 34.2452 47.4848 33.89 47.4848 33.5196C47.4848 33.1492 47.3377 32.7939 47.0758 32.532C46.8139 32.2701 46.4586 32.123 46.0882 32.123V25.1399C46.0882 24.0287 45.6468 22.963 44.861 22.1772C44.0753 21.3915 43.0096 20.95 41.8984 20.95C40.7872 20.95 39.7215 21.3915 38.9357 22.1772C38.15 22.963 37.7085 24.0287 37.7085 25.1399V32.123H34.9153V18.1568C34.9153 17.0456 34.4739 15.9799 33.6881 15.1941C32.9024 14.4084 31.8367 13.967 30.7254 13.967C29.6142 13.967 28.5485 14.4084 27.7628 15.1941C26.977 15.9799 26.5356 17.0456 26.5356 18.1568V32.123H23.7424V11.1737C23.7424 10.0625 23.3009 8.99681 22.5152 8.21106C21.7294 7.42532 20.6637 6.98389 19.5525 6.98389C18.4413 6.98389 17.3756 7.42532 16.5899 8.21106C15.8041 8.99681 15.3627 10.0625 15.3627 11.1737V32.123C14.9923 32.123 14.637 32.2701 14.3751 32.532C14.1132 32.7939 13.9661 33.1492 13.9661 33.5196C13.9661 33.89 14.1132 34.2452 14.3751 34.5071C14.637 34.7691 14.9923 34.9162 15.3627 34.9162ZM40.5018 25.1399C40.5018 24.7695 40.6489 24.4142 40.9108 24.1523C41.1727 23.8904 41.528 23.7433 41.8984 23.7433C42.2688 23.7433 42.624 23.8904 42.8859 24.1523C43.1478 24.4142 43.295 24.7695 43.295 25.1399V32.123H40.5018V25.1399ZM29.3288 18.1568C29.3288 17.7864 29.476 17.4312 29.7379 17.1693C29.9998 16.9073 30.355 16.7602 30.7254 16.7602C31.0959 16.7602 31.4511 16.9073 31.713 17.1693C31.9749 17.4312 32.1221 17.7864 32.1221 18.1568V32.123H29.3288V18.1568ZM18.1559 11.1737C18.1559 10.8033 18.3031 10.4481 18.565 10.1862C18.8269 9.92426 19.1821 9.77712 19.5525 9.77712C19.9229 9.77712 20.2782 9.92426 20.5401 10.1862C20.802 10.4481 20.9491 10.8033 20.9491 11.1737V32.123H18.1559V11.1737Z" fill="#730022"/>
<path d="M79.7747 70.083L72.5402 62.8486C73.8974 60.7244 74.8003 58.3423 75.1921 55.8522C75.5838 53.3622 75.456 50.8179 74.8167 48.3796C74.769 48.2017 74.6867 48.035 74.5746 47.8888C74.4625 47.7427 74.3227 47.6201 74.1631 47.5281C74.0036 47.436 73.8275 47.3762 73.6449 47.3522C73.4623 47.3282 73.2767 47.3403 73.0988 47.388C72.9209 47.4357 72.7542 47.518 72.6081 47.6301C72.462 47.7423 72.3394 47.8821 72.2473 48.0416C72.1552 48.2011 72.0954 48.3772 72.0714 48.5598C72.0474 48.7424 72.0596 48.928 72.1073 49.1059C73.0259 52.5634 72.7092 56.2331 71.2116 59.482C69.714 62.7309 67.1296 65.3553 63.904 66.9026C60.6784 68.4498 57.014 68.8228 53.5429 67.9573C50.0717 67.0918 47.0114 65.042 44.8899 62.1615C42.7683 59.281 41.7186 55.7504 41.9217 52.1788C42.1248 48.6071 43.568 45.2182 46.0024 42.5968C48.4368 39.9754 51.7097 38.2857 55.2566 37.8193C58.8036 37.3529 62.4021 38.1389 65.4314 40.0418C65.5832 40.1734 65.7616 40.2706 65.9544 40.327C66.1472 40.3833 66.3499 40.3973 66.5487 40.3682C66.7474 40.3391 66.9375 40.2674 67.106 40.1581C67.2746 40.0488 67.4175 39.9044 67.5252 39.7348C67.6328 39.5652 67.7026 39.3744 67.7298 39.1754C67.757 38.9764 67.7409 38.7738 67.6827 38.5816C67.6245 38.3893 67.5255 38.2119 67.3924 38.0614C67.2594 37.9109 67.0955 37.7909 66.9118 37.7095C65.2302 36.6441 63.3856 35.861 61.4511 35.3911V15.3636C61.4489 15.1811 61.4109 15.0008 61.3393 14.8329C61.2729 14.6615 61.1732 14.5049 61.0461 14.3721L47.0799 0.405898C46.9471 0.278749 46.7905 0.17908 46.619 0.112609C46.4511 0.0410449 46.2708 0.00308637 46.0883 0.000879734H4.18985C3.10316 -0.021605 2.05189 0.387697 1.26649 1.13906C0.481089 1.89043 0.0256465 2.92255 0 4.00917V76.9963C0.0256465 78.0829 0.481089 79.115 1.26649 79.8664C2.05189 80.6177 3.10316 81.027 4.18985 81.0046H57.2612C58.3724 81.0046 59.4382 80.5631 60.2239 79.7774C61.0096 78.9916 61.4511 77.9259 61.4511 76.8147V70.7115C63.2303 70.293 64.9351 69.6054 66.5068 68.6724L73.8391 76.0047C74.6243 76.7918 75.6901 77.2347 76.8019 77.236C77.9138 77.2374 78.9806 76.7969 79.7677 76.0117C80.5548 75.2264 80.9977 74.1606 80.999 73.0488C81.0004 71.937 80.5599 70.8701 79.7747 70.083ZM47.4849 4.76334L56.6886 13.967H48.8815C48.6896 13.9675 48.4996 13.9284 48.3235 13.8522C48.1473 13.776 47.9888 13.6643 47.8577 13.524C47.7267 13.3838 47.626 13.2181 47.5618 13.0372C47.4977 12.8563 47.4715 12.6641 47.4849 12.4727V4.76334ZM58.6578 76.8147C58.6578 77.1851 58.5107 77.5404 58.2488 77.8023C57.9869 78.0642 57.6316 78.2113 57.2612 78.2113H4.18985C3.84885 78.2142 3.51858 78.0923 3.26131 77.8684C3.00404 77.6446 2.83755 77.3344 2.79323 76.9963V4.00917C2.83755 3.67105 3.00404 3.36083 3.26131 3.13701C3.51858 2.91318 3.84885 2.79122 4.18985 2.79411H44.6917V12.4727C44.6787 13.031 44.7774 13.5864 44.9821 14.1061C45.1868 14.6258 45.4934 15.0992 45.8838 15.4987C46.2741 15.8982 46.7404 16.2156 47.2552 16.4322C47.7701 16.6489 48.323 16.7604 48.8815 16.7603H58.6578V34.9163C55.6646 34.6616 52.6557 35.1684 49.911 36.3893C47.1663 37.6103 44.775 39.5057 42.9599 41.8993H13.9662C13.5957 41.8993 13.2405 42.0465 12.9786 42.3084C12.7167 42.5703 12.5695 42.9255 12.5695 43.296C12.5695 43.6664 12.7167 44.0216 12.9786 44.2835C13.2405 44.5454 13.5957 44.6926 13.9662 44.6926H41.1583C40.2566 46.445 39.6435 48.3314 39.3427 50.279H13.9662C13.5957 50.279 13.2405 50.4262 12.9786 50.6881C12.7167 50.95 12.5695 51.3052 12.5695 51.6756C12.5695 52.0461 12.7167 52.4013 12.9786 52.6632C13.2405 52.9251 13.5957 53.0723 13.9662 53.0723H39.1052C39.1121 54.9684 39.4088 56.8523 39.9851 58.6587H13.9662C13.5957 58.6587 13.2405 58.8059 12.9786 59.0678C12.7167 59.3297 12.5695 59.6849 12.5695 60.0553C12.5695 60.4257 12.7167 60.781 12.9786 61.0429C13.2405 61.3048 13.5957 61.452 13.9662 61.452H41.1583C42.0085 63.099 43.1059 64.6062 44.4124 65.9211C44.8174 66.3122 45.2364 66.6893 45.6554 67.0384H13.9662C13.5957 67.0384 13.2405 67.1856 12.9786 67.4475C12.7167 67.7094 12.5695 68.0646 12.5695 68.435C12.5695 68.8054 12.7167 69.1607 12.9786 69.4226C13.2405 69.6845 13.5957 69.8316 13.9662 69.8316H47.4849C47.7366 69.8271 47.9824 69.7546 48.1963 69.6219C48.4102 69.4891 48.5842 69.301 48.7 69.0775C51.3333 70.4878 54.274 71.2265 57.2612 71.2283C57.7221 71.2283 58.197 71.2283 58.6578 71.1584V76.8147ZM77.7915 74.0215C77.5298 74.2816 77.1758 74.4276 76.8069 74.4276C76.4379 74.4276 76.0839 74.2816 75.8223 74.0215L68.909 67.1082L70.8782 65.139L77.8613 72.1221C78.0915 72.3891 78.2123 72.7332 78.1993 73.0855C78.1864 73.4378 78.0407 73.7721 77.7915 74.0215Z" fill="#730022"/>
<path d="M69.9426 44.3854C70.065 44.6032 70.2436 44.7842 70.4598 44.9095C70.6759 45.0347 70.9218 45.0997 71.1716 45.0977C71.4253 45.0981 71.6744 45.0293 71.892 44.8988C72.1096 44.7683 72.2875 44.5811 72.4067 44.3571C72.5259 44.1331 72.5818 43.8808 72.5684 43.6275C72.555 43.3741 72.4729 43.1292 72.3308 42.919C72.0375 42.486 71.7303 42.081 71.3951 41.676C71.2873 41.5131 71.1466 41.3746 70.9819 41.2695C70.8173 41.1644 70.6325 41.095 70.4394 41.0658C70.2463 41.0365 70.0492 41.0481 69.8609 41.0998C69.6725 41.1515 69.4971 41.2421 69.346 41.3657C69.1948 41.4894 69.0713 41.6434 68.9833 41.8178C68.8954 41.9922 68.845 42.1831 68.8354 42.3781C68.8258 42.5732 68.8573 42.7681 68.9277 42.9503C68.9981 43.1324 69.106 43.2978 69.2443 43.4357C69.4957 43.7569 69.7191 44.0642 69.9426 44.3854Z" fill="#730022"/>
</svg>
