<svg width="131" height="131" viewBox="0 0 131 131" fill="none" xmlns="http://www.w3.org/2000/svg">
<g filter="url(#filter0_d)">
<path d="M82.248 19H37.5666C36.4556 19 35.3901 19.4413 34.6046 20.2269C33.819 21.0125 33.3777 22.0779 33.3777 23.1889V51.1148C33.3777 51.4851 33.5248 51.8403 33.7867 52.1021C34.0485 52.364 34.4037 52.5111 34.774 52.5111H85.0406C85.4109 52.5111 85.7661 52.364 86.0279 52.1021C86.2898 51.8403 86.4369 51.4851 86.4369 51.1148V23.1889C86.4369 22.0779 85.9956 21.0125 85.21 20.2269C84.4244 19.4413 83.359 19 82.248 19Z" fill="white"/>
<path d="M78.0592 39.9445V98.5889C78.0592 98.9592 77.9121 99.3143 77.6502 99.5762C77.3884 99.838 77.0332 99.9852 76.6629 99.9852H29.1889C28.0779 99.9852 27.0125 99.5438 26.2269 98.7583C25.4413 97.9727 25 96.9072 25 95.7963V28.7741C25 27.6632 25.4413 26.5977 26.2269 25.8121C27.0125 25.0266 28.0779 24.5852 29.1889 24.5852H62.7C62.8837 24.5842 63.0659 24.6194 63.236 24.6889C63.4061 24.7584 63.5609 24.8607 63.6913 24.9902L77.6543 38.9531C77.7837 39.0836 77.8861 39.2383 77.9556 39.4084C78.025 39.5785 78.0603 39.7607 78.0592 39.9445Z" fill="#F1F1F1"/>
<path d="M78.0592 39.9445V94.4H45.9444C42.2412 94.4 38.6897 92.9289 36.0711 90.3103C33.4525 87.6918 31.9814 84.1402 31.9814 80.437V24.5852H62.6999C62.8837 24.5842 63.0659 24.6194 63.236 24.6889C63.4061 24.7584 63.5608 24.8607 63.6913 24.9902L77.6543 38.9531C77.7837 39.0836 77.8861 39.2383 77.9555 39.4084C78.025 39.5785 78.0602 39.7607 78.0592 39.9445Z" fill="white"/>
<path d="M51.5296 38.5481C48.768 38.5481 46.0684 39.367 43.7722 40.9013C41.476 42.4355 39.6863 44.6163 38.6295 47.1677C37.5727 49.7191 37.2962 52.5265 37.835 55.2351C38.3737 57.9436 39.7036 60.4316 41.6563 62.3843C43.6091 64.3371 46.097 65.6669 48.8056 66.2057C51.5141 66.7445 54.3216 66.468 56.873 65.4111C59.4244 64.3543 61.6051 62.5646 63.1394 60.2684C64.6736 57.9723 65.4926 55.2727 65.4926 52.511C65.4926 48.8078 64.0215 45.2563 61.4029 42.6377C58.7843 40.0192 55.2328 38.5481 51.5296 38.5481ZM51.5296 63.6814C49.3203 63.6814 47.1606 63.0263 45.3237 61.7989C43.4867 60.5714 42.055 58.8269 41.2095 56.7858C40.3641 54.7446 40.1429 52.4987 40.5739 50.3318C41.0049 48.165 42.0688 46.1746 43.631 44.6124C45.1932 43.0502 47.1835 41.9863 49.3504 41.5553C51.5172 41.1243 53.7632 41.3455 55.8043 42.191C57.8454 43.0364 59.59 44.4682 60.8174 46.3051C62.0448 48.1421 62.7 50.3018 62.7 52.511C62.7 55.4736 61.5231 58.3148 59.4282 60.4097C57.3334 62.5045 54.4922 63.6814 51.5296 63.6814Z" fill="#FE9661"/>
<path d="M51.5295 63.6814C57.6987 63.6814 62.6999 58.6803 62.6999 52.5111C62.6999 46.3418 57.6987 41.3407 51.5295 41.3407C45.3603 41.3407 40.3591 46.3418 40.3591 52.5111C40.3591 58.6803 45.3603 63.6814 51.5295 63.6814Z" fill="#DD285D"/>
<path d="M68.2853 76.248H36.1705C35.8001 76.248 35.445 76.1009 35.1831 75.8391C34.9213 75.5772 34.7742 75.2221 34.7742 74.8517C34.7742 74.4814 34.9213 74.1263 35.1831 73.8644C35.445 73.6026 35.8001 73.4554 36.1705 73.4554H68.2853C68.6556 73.4554 69.0107 73.6026 69.2726 73.8644C69.5344 74.1263 69.6815 74.4814 69.6815 74.8517C69.6815 75.2221 69.5344 75.5772 69.2726 75.8391C69.0107 76.1009 68.6556 76.248 68.2853 76.248Z" fill="#DD285D"/>
<path d="M68.2853 84.6258H36.1705C35.8001 84.6258 35.445 84.4787 35.1831 84.2169C34.9213 83.955 34.7742 83.5999 34.7742 83.2295C34.7742 82.8592 34.9213 82.5041 35.1831 82.2422C35.445 81.9804 35.8001 81.8333 36.1705 81.8333H68.2853C68.6556 81.8333 69.0107 81.9804 69.2726 82.2422C69.5344 82.5041 69.6815 82.8592 69.6815 83.2295C69.6815 83.5999 69.5344 83.955 69.2726 84.2169C69.0107 84.4787 68.6556 84.6258 68.2853 84.6258Z" fill="#DD285D"/>
<path d="M68.2853 93.0036H36.1705C35.8001 93.0036 35.445 92.8565 35.1831 92.5947C34.9213 92.3328 34.7742 91.9777 34.7742 91.6074C34.7742 91.237 34.9213 90.8819 35.1831 90.62C35.445 90.3582 35.8001 90.2111 36.1705 90.2111H68.2853C68.6556 90.2111 69.0107 90.3582 69.2726 90.62C69.5344 90.8819 69.6815 91.237 69.6815 91.6074C69.6815 91.9777 69.5344 92.3328 69.2726 92.5947C69.0107 92.8565 68.6556 93.0036 68.2853 93.0036Z" fill="#DD285D"/>
<path d="M99.0037 49.7185H73.8704C70.0146 49.7185 66.8889 52.8442 66.8889 56.7V93.0037C66.8889 96.8594 70.0146 99.9851 73.8704 99.9851H99.0037C102.859 99.9851 105.985 96.8594 105.985 93.0037V56.7C105.985 52.8442 102.859 49.7185 99.0037 49.7185Z" fill="white"/>
<path d="M94.8148 55.3037H78.0592C75.7458 55.3037 73.8704 57.1791 73.8704 59.4926V65.0778C73.8704 67.3912 75.7458 69.2667 78.0592 69.2667H94.8148C97.1282 69.2667 99.0037 67.3912 99.0037 65.0778V59.4926C99.0037 57.1791 97.1282 55.3037 94.8148 55.3037Z" fill="white"/>
<path d="M99.0035 59.4926V65.0778H82.248C81.137 65.0778 80.0715 64.6364 79.286 63.8509C78.5004 63.0653 78.0591 61.9999 78.0591 60.8889V55.3037H94.8146C95.9256 55.3037 96.991 55.745 97.7766 56.5306C98.5622 57.3162 99.0035 58.3816 99.0035 59.4926Z" fill="#F0F7FC"/>
<path d="M79.4555 81.8332C81.7689 81.8332 83.6444 79.9578 83.6444 77.6443C83.6444 75.3309 81.7689 73.4554 79.4555 73.4554C77.142 73.4554 75.2666 75.3309 75.2666 77.6443C75.2666 79.9578 77.142 81.8332 79.4555 81.8332Z" fill="white"/>
<path d="M93.4186 81.8332C95.7321 81.8332 97.6075 79.9578 97.6075 77.6443C97.6075 75.3309 95.7321 73.4554 93.4186 73.4554C91.1052 73.4554 89.2297 75.3309 89.2297 77.6443C89.2297 79.9578 91.1052 81.8332 93.4186 81.8332Z" fill="white"/>
<path d="M79.4555 94.3999C81.7689 94.3999 83.6444 92.5244 83.6444 90.211C83.6444 87.8975 81.7689 86.0221 79.4555 86.0221C77.142 86.0221 75.2666 87.8975 75.2666 90.211C75.2666 92.5244 77.142 94.3999 79.4555 94.3999Z" fill="white"/>
<path d="M93.4186 94.3999C95.7321 94.3999 97.6075 92.5244 97.6075 90.211C97.6075 87.8975 95.7321 86.0221 93.4186 86.0221C91.1052 86.0221 89.2297 87.8975 89.2297 90.211C89.2297 92.5244 91.1052 94.3999 93.4186 94.3999Z" fill="white"/>
<path d="M77.6542 38.9531L63.6913 24.9902C63.4949 24.7964 63.2456 24.6652 62.9747 24.613C62.7039 24.5608 62.4236 24.59 62.1693 24.6969C61.9143 24.8017 61.6961 24.9796 61.542 25.2082C61.3879 25.4368 61.305 25.7059 61.3036 25.9815V37.0542C61.2906 37.6124 61.3893 38.1676 61.594 38.6872C61.7987 39.2068 62.1051 39.6801 62.4954 40.0795C62.8857 40.4789 63.3519 40.7962 63.8666 41.0128C64.3813 41.2294 64.9341 41.3409 65.4925 41.3408H76.6629C76.9385 41.3394 77.2076 41.2565 77.4362 41.1024C77.6648 40.9483 77.8427 40.7301 77.9475 40.4751C78.0544 40.2208 78.0836 39.9405 78.0314 39.6697C77.9792 39.3988 77.848 39.1495 77.6542 38.9531Z" fill="white"/>
<path d="M85.0408 34.3593C84.6705 34.3593 84.3154 34.5064 84.0535 34.7682C83.7916 35.0301 83.6445 35.3852 83.6445 35.7555V37.1518C83.6445 37.5222 83.7916 37.8773 84.0535 38.1392C84.3154 38.401 84.6705 38.5481 85.0408 38.5481C85.4111 38.5481 85.7663 38.401 86.0282 38.1392C86.29 37.8773 86.4371 37.5222 86.4371 37.1518V35.7555C86.4371 35.3852 86.29 35.0301 86.0282 34.7682C85.7663 34.5064 85.4111 34.3593 85.0408 34.3593Z" fill="#730022"/>
<path d="M51.5296 66.474C54.2912 66.474 56.9908 65.6551 59.287 64.1208C61.5832 62.5866 63.3729 60.4058 64.4297 57.8544C65.4865 55.303 65.763 52.4956 65.2243 49.787C64.6855 47.0785 63.3557 44.5905 61.4029 42.6378C59.4501 40.685 56.9622 39.3552 54.2536 38.8164C51.5451 38.2776 48.7376 38.5541 46.1862 39.611C43.6348 40.6678 41.4541 42.4575 39.9198 44.7537C38.3856 47.0499 37.5667 49.7494 37.5667 52.5111C37.5667 56.2143 39.0377 59.7658 41.6563 62.3844C44.2749 65.0029 47.8264 66.474 51.5296 66.474ZM51.5296 41.3407C53.7389 41.3407 55.8986 41.9958 57.7355 43.2232C59.5725 44.4507 61.0042 46.1952 61.8497 48.2363C62.6951 50.2775 62.9163 52.5234 62.4853 54.6903C62.0543 56.8571 60.9904 58.8475 59.4282 60.4097C57.866 61.9719 55.8757 63.0358 53.7088 63.4668C51.542 63.8978 49.296 63.6766 47.2549 62.8311C45.2138 61.9857 43.4692 60.5539 42.2418 58.717C41.0144 56.88 40.3592 54.7203 40.3592 52.5111C40.3592 49.5485 41.5361 46.7073 43.631 44.6124C45.7258 42.5176 48.567 41.3407 51.5296 41.3407Z" fill="#730022"/>
<path d="M99.0036 49.7185H86.437V42.737C86.437 42.3667 86.2899 42.0115 86.028 41.7497C85.7662 41.4878 85.411 41.3407 85.0407 41.3407C84.6704 41.3407 84.3152 41.4878 84.0534 41.7497C83.7915 42.0115 83.6444 42.3667 83.6444 42.737V49.7185H78.0592V39.9444C78.057 39.762 78.0191 39.5817 77.9475 39.4138C77.8835 39.2412 77.7836 39.0841 77.6543 38.9531L63.6913 24.9901C63.5603 24.8608 63.4032 24.7609 63.2306 24.6969C63.0627 24.6253 62.8824 24.5874 62.7 24.5852H36.1704V23.1889C36.1704 22.8186 36.3175 22.4634 36.5793 22.2016C36.8412 21.9397 37.1963 21.7926 37.5667 21.7926H82.2481C82.6184 21.7926 82.9736 21.9397 83.2354 22.2016C83.4973 22.4634 83.6444 22.8186 83.6444 23.1889V30.1704C83.6444 30.5407 83.7915 30.8958 84.0534 31.1577C84.3152 31.4195 84.6704 31.5667 85.0407 31.5667C85.411 31.5667 85.7662 31.4195 86.028 31.1577C86.2899 30.8958 86.437 30.5407 86.437 30.1704V23.1889C86.437 22.0779 85.9957 21.0125 85.2101 20.2269C84.4245 19.4413 83.3591 19 82.2481 19H37.5667C36.4557 19 35.3902 19.4413 34.6047 20.2269C33.8191 21.0125 33.3778 22.0779 33.3778 23.1889V24.5852H29.1889C28.0779 24.5852 27.0125 25.0265 26.2269 25.8121C25.4413 26.5976 25 27.6631 25 28.7741V95.7962C25 96.9072 25.4413 97.9726 26.2269 98.7582C27.0125 99.5438 28.0779 99.9851 29.1889 99.9851H72.8231C72.948 100.005 73.0752 100.005 73.2001 99.9851C73.4233 99.9988 73.6471 99.9988 73.8703 99.9851H99.0036C100.855 99.9851 102.631 99.2496 103.94 97.9403C105.25 96.631 105.985 94.8552 105.985 93.0036V56.7C105.985 54.8484 105.25 53.0726 103.94 51.7633C102.631 50.454 100.855 49.7185 99.0036 49.7185ZM64.0963 29.3465L73.2978 38.5481H65.4926C65.3007 38.5486 65.1107 38.5095 64.9346 38.4333C64.7585 38.3571 64.6 38.2454 64.469 38.1052C64.338 37.965 64.2373 37.7993 64.1731 37.6185C64.109 37.4376 64.0828 37.2455 64.0963 37.0541V29.3465ZM66.8889 93.0036C66.8806 94.5155 67.3714 95.9879 68.2851 97.1925H29.1889C28.8186 97.1925 28.4634 97.0454 28.2016 96.7836C27.9397 96.5217 27.7926 96.1665 27.7926 95.7962V28.7741C27.7926 28.4037 27.9397 28.0486 28.2016 27.7867C28.4634 27.5249 28.8186 27.3778 29.1889 27.3778H61.3037V37.0541C61.2906 37.6124 61.3894 38.1676 61.594 38.6871C61.7987 39.2067 62.1052 39.6801 62.4955 40.0795C62.8857 40.4789 63.3519 40.7962 63.8666 41.0128C64.3813 41.2294 64.9341 41.3409 65.4926 41.3407H75.2666V49.7185H73.8703C72.0187 49.7185 70.243 50.454 68.9337 51.7633C67.6244 53.0726 66.8889 54.8484 66.8889 56.7V93.0036ZM66.8889 84.6259V90.2111V84.6259ZM66.8889 76.2481V81.8333V76.2481ZM103.193 93.0036C103.193 94.1146 102.751 95.1801 101.966 95.9656C101.18 96.7512 100.115 97.1925 99.0036 97.1925H73.8703C72.7594 97.1925 71.6939 96.7512 70.9083 95.9656C70.1228 95.1801 69.6814 94.1146 69.6814 93.0036V56.7C69.6814 55.589 70.1228 54.5235 70.9083 53.738C71.6939 52.9524 72.7594 52.5111 73.8703 52.5111H99.0036C100.115 52.5111 101.18 52.9524 101.966 53.738C102.751 54.5235 103.193 55.589 103.193 56.7V93.0036Z" fill="#730022"/>
<path d="M94.8148 55.3037H78.0592C76.9483 55.3037 75.8828 55.745 75.0973 56.5306C74.3117 57.3162 73.8704 58.3816 73.8704 59.4926V65.0778C73.8704 66.1887 74.3117 67.2542 75.0973 68.0398C75.8828 68.8253 76.9483 69.2667 78.0592 69.2667H94.8148C95.9257 69.2667 96.9912 68.8253 97.7768 68.0398C98.5623 67.2542 99.0037 66.1887 99.0037 65.0778V59.4926C99.0037 58.3816 98.5623 57.3162 97.7768 56.5306C96.9912 55.745 95.9257 55.3037 94.8148 55.3037ZM96.2111 65.0778C96.2111 65.4481 96.064 65.8033 95.8021 66.0651C95.5403 66.327 95.1851 66.4741 94.8148 66.4741H78.0592C77.6889 66.4741 77.3338 66.327 77.0719 66.0651C76.8101 65.8033 76.663 65.4481 76.663 65.0778V59.4926C76.663 59.1223 76.8101 58.7671 77.0719 58.5053C77.3338 58.2434 77.6889 58.0963 78.0592 58.0963H94.8148C95.1851 58.0963 95.5403 58.2434 95.8021 58.5053C96.064 58.7671 96.2111 59.1223 96.2111 59.4926V65.0778Z" fill="#730022"/>
<path d="M79.4555 73.4554C78.627 73.4554 77.8171 73.7011 77.1283 74.1614C76.4394 74.6217 75.9025 75.2759 75.5855 76.0413C75.2684 76.8067 75.1855 77.649 75.3471 78.4615C75.5087 79.2741 75.9077 80.0205 76.4935 80.6063C77.0793 81.1921 77.8257 81.5911 78.6383 81.7527C79.4508 81.9144 80.2931 81.8314 81.0585 81.5144C81.8239 81.1973 82.4781 80.6604 82.9384 79.9715C83.3987 79.2827 83.6444 78.4728 83.6444 77.6443C83.6444 76.5334 83.203 75.4679 82.4175 74.6823C81.6319 73.8968 80.5664 73.4554 79.4555 73.4554ZM79.4555 79.0406C79.1793 79.0406 78.9094 78.9587 78.6798 78.8053C78.4501 78.6519 78.2712 78.4338 78.1655 78.1787C78.0598 77.9235 78.0321 77.6428 78.086 77.3719C78.1399 77.1011 78.2729 76.8523 78.4682 76.657C78.6634 76.4617 78.9122 76.3287 79.1831 76.2749C79.4539 76.221 79.7347 76.2486 79.9898 76.3543C80.245 76.46 80.463 76.639 80.6165 76.8686C80.7699 77.0982 80.8518 77.3682 80.8518 77.6443C80.8518 78.0146 80.7047 78.3698 80.4428 78.6317C80.181 78.8935 79.8258 79.0406 79.4555 79.0406Z" fill="#730022"/>
<path d="M93.4186 73.4554C92.5901 73.4554 91.7803 73.7011 91.0914 74.1614C90.4025 74.6217 89.8656 75.2759 89.5486 76.0413C89.2316 76.8067 89.1486 77.649 89.3102 78.4615C89.4719 79.2741 89.8708 80.0205 90.4566 80.6063C91.0425 81.1921 91.7888 81.5911 92.6014 81.7527C93.414 81.9144 94.2562 81.8314 95.0216 81.5144C95.7871 81.1973 96.4413 80.6604 96.9016 79.9715C97.3618 79.2827 97.6075 78.4728 97.6075 77.6443C97.6075 76.5334 97.1662 75.4679 96.3806 74.6823C95.595 73.8968 94.5296 73.4554 93.4186 73.4554ZM93.4186 79.0406C93.1425 79.0406 92.8725 78.9587 92.6429 78.8053C92.4133 78.6519 92.2343 78.4338 92.1286 78.1787C92.0229 77.9235 91.9953 77.6428 92.0492 77.3719C92.103 77.1011 92.236 76.8523 92.4313 76.657C92.6266 76.4617 92.8754 76.3287 93.1462 76.2749C93.4171 76.221 93.6978 76.2486 93.953 76.3543C94.2081 76.46 94.4262 76.639 94.5796 76.8686C94.733 77.0982 94.8149 77.3682 94.8149 77.6443C94.8149 78.0146 94.6678 78.3698 94.406 78.6317C94.1441 78.8935 93.7889 79.0406 93.4186 79.0406Z" fill="#730022"/>
<path d="M79.4555 86.0221C78.627 86.0221 77.8171 86.2678 77.1283 86.7281C76.4394 87.1883 75.9025 87.8425 75.5855 88.608C75.2684 89.3734 75.1855 90.2156 75.3471 91.0282C75.5087 91.8408 75.9077 92.5871 76.4935 93.173C77.0793 93.7588 77.8257 94.1577 78.6383 94.3194C79.4508 94.481 80.2931 94.398 81.0585 94.081C81.8239 93.764 82.4781 93.2271 82.9384 92.5382C83.3987 91.8493 83.6444 91.0395 83.6444 90.211C83.6444 89.1 83.203 88.0346 82.4175 87.249C81.6319 86.4634 80.5664 86.0221 79.4555 86.0221ZM79.4555 91.6073C79.1793 91.6073 78.9094 91.5254 78.6798 91.372C78.4501 91.2185 78.2712 91.0005 78.1655 90.7453C78.0598 90.4902 78.0321 90.2094 78.086 89.9386C78.1399 89.6677 78.2729 89.4189 78.4682 89.2236C78.6634 89.0284 78.9122 88.8954 79.1831 88.8415C79.4539 88.7876 79.7347 88.8153 79.9898 88.921C80.245 89.0267 80.463 89.2056 80.6165 89.4352C80.7699 89.6649 80.8518 89.9348 80.8518 90.211C80.8518 90.5813 80.7047 90.9365 80.4428 91.1983C80.181 91.4602 79.8258 91.6073 79.4555 91.6073Z" fill="#730022"/>
<path d="M93.4186 86.0221C92.5901 86.0221 91.7803 86.2678 91.0914 86.7281C90.4025 87.1883 89.8656 87.8425 89.5486 88.608C89.2316 89.3734 89.1486 90.2156 89.3102 91.0282C89.4719 91.8408 89.8708 92.5871 90.4566 93.173C91.0425 93.7588 91.7888 94.1577 92.6014 94.3194C93.414 94.481 94.2562 94.398 95.0216 94.081C95.7871 93.764 96.4413 93.2271 96.9016 92.5382C97.3618 91.8493 97.6075 91.0395 97.6075 90.211C97.6075 89.1 97.1662 88.0346 96.3806 87.249C95.595 86.4634 94.5296 86.0221 93.4186 86.0221ZM93.4186 91.6073C93.1425 91.6073 92.8725 91.5254 92.6429 91.372C92.4133 91.2185 92.2343 91.0005 92.1286 90.7453C92.0229 90.4902 91.9953 90.2094 92.0492 89.9386C92.103 89.6677 92.236 89.4189 92.4313 89.2236C92.6266 89.0284 92.8754 88.8954 93.1462 88.8415C93.4171 88.7876 93.6978 88.8153 93.953 88.921C94.2081 89.0267 94.4262 89.2056 94.5796 89.4352C94.733 89.6649 94.8149 89.9348 94.8149 90.211C94.8149 90.5813 94.6678 90.9365 94.406 91.1983C94.1441 91.4602 93.7889 91.6073 93.4186 91.6073Z" fill="#730022"/>
<path d="M51.8311 58.0963C51.6423 58.0963 51.4696 57.99 51.3846 57.8214L48.7904 52.676C48.7552 52.6062 48.7368 52.5291 48.7368 52.4509V51.7674C48.7368 51.4912 48.9607 51.2674 49.2368 51.2674H49.6656C50.2126 51.2674 50.6718 51.1324 51.0433 50.8626C51.2551 50.7021 51.4233 50.5073 51.5478 50.2781C51.6995 49.9993 51.4572 49.7009 51.1399 49.7009H49.2368C48.9607 49.7009 48.7368 49.4771 48.7368 49.2009V48.8985C48.7368 48.6224 48.9607 48.3985 49.2368 48.3985H51.125C51.4422 48.3985 51.6837 48.102 51.5428 47.8179C51.4449 47.6206 51.3197 47.4445 51.1672 47.2897C50.8782 46.9846 50.4757 46.8321 49.9597 46.8321H49.2368C48.9607 46.8321 48.7368 46.6082 48.7368 46.3321V46.0297C48.7368 45.7535 48.9607 45.5297 49.2368 45.5297H55.2183C55.4944 45.5297 55.7183 45.7535 55.7183 46.0297V46.3321C55.7183 46.6082 55.4944 46.8321 55.2183 46.8321H54.3365C53.9158 46.8321 53.658 47.3451 53.8018 47.7405C53.8303 47.8187 53.8559 47.8985 53.8788 47.98C53.9453 48.2174 54.1509 48.3985 54.3974 48.3985H55.2183C55.4944 48.3985 55.7183 48.6224 55.7183 48.8985V49.2009C55.7183 49.4771 55.4944 49.7009 55.2183 49.7009H54.4441C54.1908 49.7009 53.9808 49.8914 53.9284 50.1392C53.7881 50.8015 53.5179 51.3359 53.1177 51.7426C52.7758 52.0817 52.3647 52.345 51.8843 52.5325C51.573 52.6541 51.4096 53.0202 51.574 53.3111L53.857 57.3503C54.0454 57.6836 53.8046 58.0963 53.4217 58.0963H51.8311Z" fill="#F5F7FF"/>
</g>
<defs>
<filter id="filter0_d" x="0" y="0" width="130.985" height="131" filterUnits="userSpaceOnUse" color-interpolation-filters="sRGB">
<feFlood flood-opacity="0" result="BackgroundImageFix"/>
<feColorMatrix in="SourceAlpha" type="matrix" values="0 0 0 0 0 0 0 0 0 0 0 0 0 0 0 0 0 0 127 0"/>
<feOffset dy="6"/>
<feGaussianBlur stdDeviation="12.5"/>
<feColorMatrix type="matrix" values="0 0 0 0 0 0 0 0 0 0 0 0 0 0 0 0 0 0 0.15 0"/>
<feBlend mode="normal" in2="BackgroundImageFix" result="effect1_dropShadow"/>
<feBlend mode="normal" in="SourceGraphic" in2="effect1_dropShadow" result="shape"/>
</filter>
</defs>
</svg>
