<svg width="336" height="250" viewBox="0 0 336 250" fill="none" xmlns="http://www.w3.org/2000/svg">
<path d="M336 219.696H0V219.864H336V219.696Z" fill="#EBEBEB"/>
<path d="M302.333 230.493H280.076V230.661H302.333V230.493Z" fill="#EBEBEB"/>
<path d="M222.58 232.318H216.74V232.486H222.58V232.318Z" fill="#EBEBEB"/>
<path d="M279.404 224.266H266.509V224.434H279.404V224.266Z" fill="#EBEBEB"/>
<path d="M64.2769 225.393H35.2532V225.561H64.2769V225.393Z" fill="#EBEBEB"/>
<path d="M74.5182 225.393H70.2644V225.561H74.5182V225.393Z" fill="#EBEBEB"/>
<path d="M151.301 228.225H88.3479V228.393H151.301V228.225Z" fill="#EBEBEB"/>
<path d="M159.264 189.768H29.5074C28.4909 189.766 27.5166 189.362 26.7985 188.644C26.0803 187.925 25.677 186.952 25.677 185.937V3.79805C25.6859 2.78883 26.0931 1.82385 26.8103 1.11272C27.5275 0.401585 28.4967 0.00172884 29.5074 0H159.264C160.282 0 161.258 0.403685 161.977 1.12225C162.697 1.84081 163.101 2.8154 163.101 3.8316V185.937C163.101 186.953 162.697 187.927 161.977 188.646C161.258 189.365 160.282 189.768 159.264 189.768ZM29.5074 0.134207C28.5355 0.135985 27.6039 0.522779 26.9173 1.20969C26.2306 1.8966 25.845 2.8275 25.845 3.79805V185.937C25.845 186.907 26.2306 187.838 26.9173 188.525C27.6039 189.212 28.5355 189.599 29.5074 189.6H159.264C160.236 189.599 161.169 189.212 161.856 188.525C162.544 187.839 162.931 186.908 162.933 185.937V3.79805C162.931 2.82688 162.544 1.896 161.856 1.20928C161.169 0.522561 160.236 0.135981 159.264 0.134207H29.5074Z" fill="#EBEBEB"/>
<path d="M304.624 189.768H174.861C173.844 189.766 172.869 189.362 172.15 188.644C171.431 187.926 171.026 186.952 171.024 185.937V3.79805C171.035 2.78822 171.443 1.82325 172.162 1.1123C172.88 0.401351 173.85 0.00170999 174.861 0H304.624C305.634 0.00349239 306.601 0.404129 307.317 1.11507C308.033 1.82602 308.439 2.78999 308.448 3.79805V185.937C308.448 186.95 308.046 187.923 307.329 188.641C306.612 189.359 305.64 189.765 304.624 189.768ZM174.861 0.134207C173.888 0.135981 172.956 0.522561 172.269 1.20928C171.581 1.896 171.194 2.82688 171.192 3.79805V185.937C171.194 186.908 171.581 187.839 172.269 188.525C172.956 189.212 173.888 189.599 174.861 189.6H304.624C305.597 189.599 306.529 189.212 307.217 188.525C307.904 187.839 308.292 186.908 308.293 185.937V3.79805C308.292 2.82688 307.904 1.896 307.217 1.20928C306.529 0.522561 305.597 0.135981 304.624 0.134207H174.861Z" fill="#EBEBEB"/>
<path d="M250.763 50.3342H241.241V79.9334H250.763V50.3342Z" fill="#E6E6E6"/>
<path d="M276.575 79.9335H244.977L240.206 45.288H271.804L276.575 79.9335Z" fill="#F0F0F0"/>
<path d="M279.996 79.9335H247.363L242.592 45.288H275.224L279.996 79.9335Z" fill="#F5F5F5"/>
<path d="M249.722 77.2023L245.703 48.0191H272.866L276.891 77.2023H249.722Z" fill="white"/>
<path d="M255.091 68.3649L253.579 57.4136C253.534 57.1246 253.553 56.8292 253.634 56.5482C253.715 56.2671 253.856 56.007 254.048 55.786C254.24 55.565 254.478 55.3884 254.745 55.2685C255.012 55.1487 255.302 55.0884 255.595 55.0918H265.467C265.961 55.088 266.44 55.2657 266.811 55.5911C267.183 55.9165 267.422 56.3668 267.483 56.8566L268.988 67.8146C269.032 68.1031 269.013 68.3977 268.931 68.678C268.85 68.9582 268.708 69.2174 268.516 69.4377C268.325 69.6579 268.087 69.8338 267.821 69.9533C267.554 70.0728 267.264 70.133 266.972 70.1297H257.114C256.619 70.1351 256.139 69.9582 255.765 69.6326C255.392 69.3071 255.152 68.8558 255.091 68.3649Z" fill="#F5F5F5"/>
<path d="M191.486 17.9031H49.1636V105.574H191.486V17.9031Z" fill="#E6E6E6"/>
<path d="M195.142 17.9031H50.8704V105.574H195.142V17.9031Z" fill="#F0F0F0"/>
<path d="M191.486 105.58H49.1636V112.364H191.486V105.58Z" fill="#E6E6E6"/>
<path d="M201.23 105.58H56.9587V112.364H201.23V105.58Z" fill="#F0F0F0"/>
<path d="M190.021 100.467V23.0165L55.9911 23.0165V100.467L190.021 100.467Z" fill="#FAFAFA"/>
<path d="M65.8291 100.467L95.8742 23.0165H110.053L80.0083 100.467H65.8291Z" fill="white"/>
<path d="M83.0591 100.467L113.104 23.0165H118.628L88.5829 100.467H83.0591Z" fill="white"/>
<path d="M135.623 100.467L165.668 23.0165H171.192L141.154 100.467H135.623Z" fill="white"/>
<path d="M190.015 100.467V23.0165H189.364V100.467H190.015Z" fill="#E6E6E6"/>
<path d="M299.376 79.9335H269.244V219.696H299.376V79.9335Z" fill="#E6E6E6"/>
<path d="M296.345 219.696H299.376V211.087H293.167L296.345 219.696Z" fill="#F0F0F0"/>
<path d="M246.577 79.9335H216.444V219.696H246.577V79.9335Z" fill="#E6E6E6"/>
<path d="M299.376 79.9335H243.929V214.415H299.376V79.9335Z" fill="#F0F0F0"/>
<path d="M246.96 219.696H243.929V211.087H250.139L246.96 219.696Z" fill="#F0F0F0"/>
<path d="M297.024 82.3962H246.281V145.836H297.024V82.3962Z" fill="#E6E6E6"/>
<path d="M277.146 87.335H266.159C263.797 87.3348 261.46 86.8539 259.29 85.9217C257.12 84.9895 255.163 83.6255 253.539 81.913H289.766C288.143 83.6264 286.186 84.991 284.016 85.9233C281.846 86.8556 279.508 87.3359 277.146 87.335Z" fill="#F0F0F0"/>
<path d="M297.024 148.406H246.281V211.845H297.024V148.406Z" fill="#E6E6E6"/>
<path d="M277.146 153.345H266.159C263.797 153.344 261.46 152.863 259.29 151.931C257.12 150.999 255.163 149.635 253.539 147.923H289.766C288.143 149.636 286.186 151.001 284.016 151.933C281.846 152.865 279.508 153.346 277.146 153.345Z" fill="#F0F0F0"/>
<path d="M87.0239 124.067H137.169L144.44 153.64H94.2882L87.0239 124.067Z" fill="#E6E6E6"/>
<path d="M94.2883 153.64L94.4966 155.27H144.641L144.44 153.64H94.2883Z" fill="#E6E6E6"/>
<path d="M88.5696 124.067H138.714L145.985 153.64H95.8339L88.5696 124.067Z" fill="#F0F0F0"/>
<path d="M96.8958 152.284L90.29 125.416H137.653L144.258 152.284H96.8958Z" fill="white"/>
<path d="M108.904 153.64L109.106 155.27H164.324L164.123 153.64H108.904Z" fill="#F0F0F0"/>
<path d="M176.924 155.27H170.917V219.69H176.924V155.27Z" fill="#E6E6E6"/>
<path d="M178.826 155.27H174.653V219.69H178.826V155.27Z" fill="#F0F0F0"/>
<path d="M102.702 162.645H180.123V155.27H102.702V162.645Z" fill="#F0F0F0"/>
<path d="M100.007 162.645H93.9993V219.69H100.007V162.645Z" fill="#E6E6E6"/>
<path d="M101.902 162.645H97.729V219.69H101.902V162.645Z" fill="#F0F0F0"/>
<path d="M61.9786 162.645H55.9709V219.69H61.9786V162.645Z" fill="#E6E6E6"/>
<path d="M63.8804 162.645H59.7073V219.69H63.8804V162.645Z" fill="#F0F0F0"/>
<path d="M138.902 162.645H132.895V219.69H138.902V162.645Z" fill="#E6E6E6"/>
<path d="M140.797 162.645H136.624V219.69H140.797V162.645Z" fill="#F0F0F0"/>
<path d="M102.695 155.27H55.9709V162.645H102.695V155.27Z" fill="#E6E6E6"/>
<path d="M196.452 219.696H194.994L190.848 199.136L190.115 195.532L185.519 173.127H168.047L158.592 219.696H157.114L166.763 172.268C166.794 172.111 166.877 171.968 166.999 171.865C167.121 171.761 167.275 171.702 167.435 171.697H186.144C186.306 171.695 186.463 171.752 186.587 171.857C186.71 171.962 186.792 172.108 186.816 172.268L190.848 191.942L191.52 195.539L196.452 219.696Z" fill="#F0F0F0"/>
<path d="M224.508 219.696H223.043L213.568 173.127H196.096L191.52 195.539L190.848 199.136L186.661 219.696H185.203L190.115 195.539L190.841 191.949L194.873 172.274C194.905 172.118 194.988 171.976 195.11 171.873C195.232 171.769 195.385 171.71 195.545 171.704H214.193C214.353 171.709 214.507 171.768 214.629 171.871C214.752 171.975 214.835 172.117 214.865 172.274L224.508 219.696Z" fill="#F0F0F0"/>
<path d="M181.44 172.409H213.548C219.677 172.409 223.077 168.248 224.811 161.39L225.658 157.471C225.943 156.286 225.956 155.051 225.694 153.861C225.433 152.67 224.904 151.554 224.147 150.597C223.391 149.64 222.427 148.867 221.328 148.336C220.228 147.805 219.023 147.531 217.802 147.533H197.642C193.475 147.533 192.373 148.526 189.491 154.794C186.608 161.061 181.44 172.409 181.44 172.409Z" fill="#F0F0F0"/>
<path d="M198.946 172.409H164.727C164.301 172.409 163.893 172.24 163.592 171.939C163.29 171.638 163.121 171.23 163.121 170.805V170.657C163.121 170.081 163.235 169.51 163.456 168.978C163.677 168.445 164 167.962 164.408 167.554C164.817 167.146 165.301 166.823 165.834 166.603C166.367 166.382 166.939 166.269 167.516 166.269H198.946V172.415V172.409Z" fill="#F0F0F0"/>
<path d="M168 250C239.96 250 298.294 246.599 298.294 242.404C298.294 238.209 239.96 234.808 168 234.808C96.0407 234.808 37.7061 238.209 37.7061 242.404C37.7061 246.599 96.0407 250 168 250Z" fill="#F5F5F5"/>
<path d="M120.756 220.938L116.455 223.702L108.66 214.65L112.961 211.885L120.756 220.938Z" fill="#FF8B7B"/>
<path opacity="0.2" d="M112.968 211.885L108.66 214.65L112.685 219.32L116.986 216.549L112.968 211.885Z" fill="black"/>
<path d="M87.8887 235.7L82.9428 236.183L77.802 224.44L82.7479 223.957L87.8887 235.7Z" fill="#FF8B7B"/>
<path opacity="0.2" d="M77.8086 224.447L80.4563 230.5H85.6105L82.7478 223.964L77.8086 224.447Z" fill="black"/>
<path d="M50.3306 77.1687C47.8442 77.3902 47.777 73.1761 43.409 75.1556C37.8583 77.6787 39.7331 81.5908 35.3987 81.4298C31.0643 81.2687 28.1613 84.644 29.129 87.1604C30.0967 89.6768 31.5952 92.0589 28.5309 93.0722C25.4666 94.0855 23.3834 94.9779 23.8269 97.5144C24.2704 100.051 26.441 101.071 22.7853 102.688C19.1296 104.305 19.4992 111.297 23.081 111.304C26.6627 111.311 23.2288 114.794 26.441 118.337C29.6531 121.88 34.5386 122.363 36.5747 120.618C38.6109 118.873 40.8823 117.431 44.7127 120.115C48.5431 122.799 55.0279 123.47 54.7322 119.216C54.4365 114.961 50.7002 112.17 54.2215 109.955C57.7427 107.741 62.2855 106.647 60.8608 102.339C59.9536 99.655 57.2119 97.3198 59.4227 95.3134C63.0179 92.0522 63.0381 84.6709 58.6298 82.7987C56.0695 81.7183 58.5357 76.4306 50.3306 77.1687Z" fill="#263238"/>
<path d="M45.546 110.331C45.4251 112.344 45.1697 114.136 44.874 116.022C44.5783 117.907 44.1483 119.746 43.6577 121.591C43.1795 123.457 42.571 125.286 41.8366 127.067C41.4737 127.966 41.0571 128.858 40.6135 129.751C40.3918 130.194 40.1499 130.63 39.9012 131.059C39.787 131.281 39.6459 131.496 39.5182 131.73L39.3233 132.046C39.191 132.256 39.0427 132.456 38.8798 132.643C38.507 133.063 38.0489 133.4 37.5358 133.629C37.0774 133.837 36.5861 133.962 36.0843 133.999C35.3462 134.041 34.607 133.941 33.907 133.703C32.8646 133.346 31.8712 132.859 30.9502 132.254C29.3282 131.194 27.7934 130.007 26.3604 128.704C23.5978 126.195 21.0217 123.488 18.6526 120.605L20.5611 118.773C21.9051 119.954 23.2491 121.155 24.6535 122.296C26.058 123.437 27.4289 124.584 28.8603 125.651C30.223 126.698 31.6604 127.644 33.1611 128.483C33.7955 128.842 34.4729 129.119 35.1771 129.308C35.3465 129.36 35.5251 129.376 35.7012 129.355H35.5668C35.478 129.398 35.3964 129.455 35.3249 129.523L35.2913 129.556C35.2913 129.556 35.2913 129.603 35.2913 129.556L35.4391 129.281C35.5332 129.1 35.6407 128.926 35.7281 128.738C35.9163 128.366 36.0977 127.991 36.2724 127.61C36.6084 126.845 36.9444 126.067 37.2132 125.255C37.7777 123.645 38.2481 121.98 38.6647 120.289C39.0814 118.598 39.3972 116.874 39.6795 115.136C39.9617 113.398 40.1767 111.62 40.3515 109.969L45.546 110.331Z" fill="#FF8B7B"/>
<path d="M49.4503 110.962C49.1815 112.586 47.8308 115.659 46.7623 117.941C45.9694 119.591 45.3242 120.833 45.3242 120.833L44.3834 120.417L36.595 116.954C37.1863 112.76 38.1473 108.231 42.7774 106.171C45.667 104.896 49.9274 108.036 49.4503 110.962Z" fill="#29D846"/>
<path opacity="0.6" d="M49.4503 110.962C49.1815 112.586 47.8308 115.659 46.7623 117.941C45.9694 119.591 45.3242 120.833 45.3242 120.833L44.3834 120.417L36.595 116.954C37.1863 112.76 38.1473 108.231 42.7774 106.171C45.667 104.896 49.9274 108.036 49.4503 110.962Z" fill="black"/>
<path opacity="0.3" d="M46.7422 117.941C45.9492 119.591 45.3041 120.833 45.3041 120.833L44.3633 120.417C44.491 118.759 44.8202 116.149 45.7073 114.975C46.2613 115.878 46.6143 116.889 46.7422 117.941Z" fill="black"/>
<path d="M20.8567 120.309L21.475 115.793L16.4014 117.431C16.4014 117.431 17.2078 120.162 19.0154 121.282L20.8567 120.309Z" fill="#FF8B7B"/>
<path d="M19.1767 111.935L15.6353 113.874L16.4013 117.458L21.4749 115.793L19.1767 111.935Z" fill="#FF8B7B"/>
<path d="M114.869 222.347L119.54 218.992C119.62 218.933 119.719 218.906 119.817 218.914C119.916 218.923 120.009 218.967 120.077 219.039L123.256 222.347C123.333 222.433 123.391 222.534 123.427 222.644C123.462 222.753 123.474 222.869 123.461 222.984C123.449 223.099 123.412 223.21 123.353 223.309C123.295 223.408 123.216 223.494 123.122 223.561C121.475 224.702 120.622 225.165 118.565 226.635C117.302 227.541 114.641 229.728 112.894 230.976C111.147 232.224 109.823 230.574 110.434 229.896C113.189 226.863 113.922 224.796 114.359 223.092C114.438 222.792 114.618 222.529 114.869 222.347Z" fill="#263238"/>
<path d="M82.2908 234.66H88.3388C88.4476 234.662 88.5528 234.699 88.6388 234.766C88.7248 234.832 88.787 234.925 88.816 235.029L90.16 239.82C90.1926 239.934 90.1982 240.053 90.1762 240.169C90.1542 240.285 90.1053 240.393 90.0333 240.487C89.9614 240.58 89.8684 240.655 89.762 240.706C89.6556 240.757 89.5387 240.783 89.4207 240.78C87.2838 240.78 86.2691 240.78 83.6012 240.78H75.4432C73.2256 240.78 72.7552 238.539 73.6758 238.337C77.7884 237.432 80.1606 236.177 81.4307 234.982C81.666 234.77 81.9736 234.655 82.2908 234.66Z" fill="#263238"/>
<path d="M73.0575 129.147L53.2537 135.401C39.5449 108.305 41.5004 106.869 41.5004 106.869C41.5004 106.869 44.6655 105.064 47.9583 103.561C48.4556 103.332 48.9596 103.111 49.4569 102.889C52.3823 101.729 55.3871 100.778 58.4482 100.044C58.8985 99.9235 59.3487 99.8161 59.7922 99.7088C62.23 99.1582 64.6984 98.7527 67.1842 98.4942C67.4799 102.245 67.7756 105.419 68.0982 108.177C68.5148 111.774 68.9651 114.653 69.4422 117.142C70.3241 121.234 71.5331 125.248 73.0575 129.147Z" fill="#29D846"/>
<path opacity="0.6" d="M73.0575 129.147L53.2537 135.401C39.5449 108.305 41.5004 106.869 41.5004 106.869C41.5004 106.869 44.6655 105.064 47.9583 103.561C48.4556 103.332 48.9596 103.111 49.4569 102.889C52.3823 101.729 55.3871 100.778 58.4482 100.044C58.8985 99.9235 59.3487 99.8161 59.7922 99.7088C62.23 99.1582 64.6984 98.7527 67.1842 98.4942C67.4799 102.245 67.7756 105.419 68.0982 108.177C68.5148 111.774 68.9651 114.653 69.4422 117.142C70.3241 121.234 71.5331 125.248 73.0575 129.147Z" fill="black"/>
<path opacity="0.3" d="M69.496 117.156C67.5942 114.471 65.7731 108.224 66.2435 105.882L68.1251 108.191C68.5417 111.787 68.992 114.666 69.496 117.156Z" fill="black"/>
<path d="M53.9595 111.928C53.9595 111.928 58.9524 110.848 60.5585 113.015C62.7627 110.848 61.9831 102.379 60.9214 99.3598C60.0794 99.5026 59.2533 99.7274 58.4552 100.031L54.9272 105.48L53.9595 111.928Z" fill="white"/>
<path d="M53.9593 111.928C53.9593 111.928 50.5993 112.68 50.2432 115.424C45.5392 111.928 45.8685 106.808 46.9302 103.789C47.7363 103.399 48.5839 103.102 49.4569 102.903L52.9849 106.781L53.9593 111.928Z" fill="white"/>
<path d="M55.1086 94.3405C55.7806 96.8099 56.8021 99.2524 58.4686 100.058C58.4686 100.058 60.021 104.5 53.973 111.928C47.6427 107.426 49.4705 102.903 49.4705 102.903C52.4542 101.111 51.6142 98.7492 50.3441 96.6824L52.0981 93.8708C52.2728 93.5999 52.5225 93.3856 52.8169 93.2537C53.1112 93.1218 53.4376 93.0781 53.7564 93.1278C54.0751 93.1775 54.3726 93.3186 54.6126 93.5339C54.8527 93.7491 55.025 94.0293 55.1086 94.3405Z" fill="#FF8B7B"/>
<path opacity="0.2" d="M55.1086 94.3405C55.0283 94.0241 54.8565 93.7383 54.6147 93.5186C54.373 93.2989 54.0718 93.1551 53.7488 93.105C53.4258 93.055 53.0951 93.1009 52.798 93.237C52.501 93.3732 52.2505 93.5936 52.0779 93.8708L51.5134 94.7699C51.5605 95.3672 51.5873 95.857 51.5806 96.112C51.5269 97.8567 53.9797 97.7762 55.9755 96.9374C55.6198 96.0954 55.3299 95.2272 55.1086 94.3405Z" fill="black"/>
<path d="M42.952 87.5966C44.6992 92.3542 45.3309 94.4076 48.5296 96.1657C53.3344 98.8162 58.8045 95.6355 58.5223 90.4485C58.2669 85.7848 55.4579 78.7792 50.129 78.2625C48.9544 78.1437 47.7688 78.3267 46.6849 78.7939C45.601 79.2612 44.6546 79.9973 43.9356 80.9324C43.2166 81.8675 42.7489 82.9705 42.5767 84.1369C42.4046 85.3032 42.5338 86.4941 42.952 87.5966Z" fill="#FF8B7B"/>
<path d="M55.3102 80.4434C53.6705 78.8664 51.9502 77.0345 48.6574 77.3902C45.0152 77.7861 43.5771 79.9871 43.5771 79.9871L40.4456 86.8249C40.4456 86.8249 42.3876 95.6289 45.5931 91.5221C47.4411 89.1467 47.4881 85.5566 46.8161 82.8725C48.0754 82.6952 49.3166 82.4078 50.5256 82.0136C52.004 82.5638 53.6638 82.5638 54.8936 81.4365C55.1624 81.1882 55.3572 80.9936 55.4984 80.8393L55.6126 80.7118C55.9755 80.2488 55.6731 80.2957 55.3102 80.4434ZM51.0766 81.866C52.2245 81.4952 53.3909 81.1839 54.571 80.9332C54.1322 81.3967 53.5732 81.7293 52.9561 81.894C52.3391 82.0587 51.6884 82.049 51.0766 81.866Z" fill="#263238"/>
<path d="M43.1939 92.4347C43.6985 93.2793 44.5176 93.8897 45.472 94.1325C46.7353 94.4478 47.3334 93.3138 46.9504 92.1194C46.6076 91.0658 45.5392 89.6298 44.2624 89.8311C43.9863 89.8815 43.7274 90.0005 43.5095 90.177C43.2915 90.3535 43.1215 90.5819 43.0151 90.8412C42.9087 91.1005 42.8693 91.3823 42.9005 91.6608C42.9318 91.9392 43.0327 92.2054 43.1939 92.4347Z" fill="#FF8B7B"/>
<path d="M53.2538 135.408C53.2538 135.408 52.5818 175.931 57.8839 190.573C62.9911 204.611 78.2253 228.742 78.2253 228.742L87.0554 228.52C87.0554 228.52 73.024 197.955 70.7325 185.876C66.9156 165.832 67.7556 130.851 67.7556 130.851L53.2538 135.408Z" fill="#29D846"/>
<path opacity="0.3" d="M61.1833 138.904L63.5555 132.193L67.7555 130.851C67.7555 130.851 67.3725 146.775 68.2931 163.289C64.4829 155.961 61.1833 142.541 61.1833 138.904Z" fill="black"/>
<path d="M76.9821 229.198L87.8886 228.923L87.257 225.574L75.3491 226.138L76.9821 229.198Z" fill="#263238"/>
<path d="M57.5681 134.099C57.5681 134.099 71.3441 165.564 80.2481 183.474C87.4385 197.941 109.816 217.348 109.816 217.348L115.951 213.1C115.951 213.1 99.1112 190.11 94.1451 180.3C78.2523 148.909 82.17 135.971 73.0308 129.147L57.5681 134.099Z" fill="#29D846"/>
<path d="M110.179 219.374L117.383 214.254L115.75 211.114L107.834 217.093L110.179 219.374Z" fill="#263238"/>
<path d="M73.024 127.892L74.4755 129.382C74.5898 129.496 74.4755 129.69 74.2403 129.764L53.4688 136.32C53.2941 136.381 53.1194 136.32 53.0723 136.233L52.3331 134.515C52.2794 134.401 52.4003 134.247 52.5952 134.186L72.6544 127.845C72.7148 127.82 72.7806 127.811 72.8454 127.82C72.9102 127.828 72.9718 127.853 73.024 127.892Z" fill="#263238"/>
<path d="M71.0081 130.986L71.5457 130.818C71.6532 130.818 71.7204 130.697 71.6868 130.637L70.7124 128.415C70.6836 128.379 70.6435 128.354 70.5985 128.343C70.5535 128.332 70.5061 128.336 70.4638 128.355L69.9262 128.53C69.8187 128.563 69.7515 128.644 69.7851 128.711L70.7662 130.925C70.7863 130.992 70.8939 131.019 71.0081 130.986Z" fill="#29D846"/>
<path d="M55.0077 136.038L55.5453 135.871C55.6528 135.837 55.7133 135.757 55.6864 135.689L54.7053 133.468C54.7053 133.401 54.5642 133.381 54.4566 133.415L53.919 133.582C53.8182 133.616 53.751 133.697 53.7779 133.764L54.759 135.985C54.7894 136.019 54.8298 136.043 54.8746 136.052C54.9193 136.062 54.9659 136.057 55.0077 136.038Z" fill="#29D846"/>
<path d="M63.0044 133.536L63.542 133.368C63.6496 133.334 63.7168 133.254 63.6832 133.187L62.702 130.965C62.702 130.905 62.5676 130.878 62.4601 130.912L61.9225 131.08C61.815 131.08 61.7478 131.194 61.7814 131.261L62.7558 133.482C62.7894 133.536 62.8969 133.536 63.0044 133.536Z" fill="#29D846"/>
<path d="M51.3116 86.5631C51.4326 86.9591 51.735 87.2342 51.9836 87.1402C52.2322 87.0463 52.3532 86.6772 52.2322 86.288C52.1113 85.8988 51.8156 85.617 51.5602 85.7109C51.3049 85.8049 51.1974 86.1538 51.3116 86.5631Z" fill="#263238"/>
<path d="M55.7806 85.2211C55.9016 85.617 56.204 85.8921 56.4526 85.7982C56.7012 85.7042 56.8222 85.3419 56.708 84.946C56.5937 84.5501 56.2846 84.2749 56.036 84.3689C55.7873 84.4628 55.6664 84.8252 55.7806 85.2211Z" fill="#263238"/>
<path d="M55.9285 84.4226L56.7953 83.8657C56.7953 83.8657 56.5333 84.7514 55.9285 84.4226Z" fill="#263238"/>
<path d="M54.665 86.2478C55.2885 87.0418 56.0164 87.7483 56.8289 88.3481C56.6668 88.5504 56.4626 88.7151 56.2306 88.8309C55.9986 88.9468 55.7442 89.011 55.4849 89.0192L54.665 86.2478Z" fill="#FF5652"/>
<path d="M54.1543 91.1933C54.1729 91.1784 54.1866 91.1583 54.1938 91.1356C54.2009 91.113 54.2013 91.0887 54.1947 91.0658C54.1853 91.0355 54.1649 91.0098 54.1376 90.9937C54.1103 90.9775 54.0779 90.9722 54.0468 90.9786C53.5587 91.1378 53.0397 91.1788 52.5327 91.0983C52.0256 91.0178 51.5449 90.8181 51.1303 90.5156C51.118 90.505 51.1037 90.497 51.0882 90.4919C51.0727 90.4869 51.0564 90.4849 51.0402 90.4861C51.024 90.4874 51.0081 90.4918 50.9936 90.4992C50.9791 90.5065 50.9662 90.5167 50.9556 90.529C50.945 90.5413 50.937 90.5556 50.9319 90.5711C50.9269 90.5865 50.9249 90.6028 50.9261 90.619C50.9274 90.6352 50.9318 90.651 50.9392 90.6655C50.9466 90.68 50.9567 90.6929 50.9691 90.7035C51.4148 91.0323 51.9327 91.2501 52.4797 91.3389C53.0267 91.4276 53.587 91.3846 54.114 91.2134L54.1543 91.1933Z" fill="#263238"/>
<path d="M49.6251 85.4694C49.6564 85.44 49.6795 85.403 49.6923 85.3621C49.792 85.0756 49.9577 84.8165 50.1759 84.6055C50.3942 84.3946 50.6589 84.2377 50.9489 84.1475C50.9827 84.144 51.0153 84.1334 51.0447 84.1164C51.0741 84.0995 51.0996 84.0765 51.1196 84.0491C51.1395 84.0217 51.1534 83.9903 51.1604 83.9572C51.1675 83.924 51.1674 83.8897 51.1603 83.8566C51.1532 83.8235 51.1392 83.7922 51.1192 83.7648C51.0991 83.7374 51.0736 83.7145 51.0441 83.6977C51.0147 83.6808 50.982 83.6703 50.9483 83.6669C50.9145 83.6635 50.8804 83.6672 50.8481 83.6778C50.4745 83.7845 50.1328 83.9809 49.8529 84.25C49.5729 84.519 49.3632 84.8525 49.242 85.2211C49.2302 85.2511 49.2244 85.2831 49.2252 85.3152C49.2259 85.3474 49.233 85.3791 49.2461 85.4085C49.2593 85.4379 49.2782 85.4643 49.3017 85.4863C49.3252 85.5083 49.3529 85.5254 49.3832 85.5365C49.4259 85.5453 49.4702 85.5438 49.5122 85.5321C49.5543 85.5204 49.593 85.4989 49.6251 85.4694Z" fill="#263238"/>
<path d="M57.1446 82.6914C57.1424 82.6758 57.1424 82.66 57.1446 82.6444C57.153 82.5816 57.1376 82.518 57.1016 82.4659C57.0656 82.4139 57.0115 82.377 56.9497 82.3626C56.5732 82.2826 56.1831 82.2932 55.8115 82.3935C55.4399 82.4939 55.0976 82.6811 54.8128 82.9396C54.7682 82.9859 54.7439 83.048 54.7452 83.1121C54.7464 83.1763 54.7732 83.2374 54.8195 83.2819C54.8658 83.3264 54.928 83.3506 54.9923 83.3494C55.0565 83.3481 55.1177 83.3214 55.1622 83.2752C55.3898 83.0739 55.662 82.9294 55.9564 82.8536C56.2508 82.7778 56.559 82.7728 56.8557 82.839C56.9136 82.853 56.9746 82.8458 57.0276 82.8188C57.0806 82.7917 57.1222 82.7465 57.1446 82.6914Z" fill="#263238"/>
<path d="M70.2218 103.245C71.0215 103.842 71.6935 104.399 72.3924 105.003C73.0912 105.607 73.7364 106.211 74.4084 106.842C75.7188 108.103 76.9821 109.419 78.1783 110.801C79.3877 112.191 80.5099 113.654 81.5383 115.183C81.8071 115.559 82.0423 115.968 82.2909 116.357C82.5396 116.746 82.7882 117.142 83.01 117.558C83.2317 117.974 83.4669 118.343 83.682 118.806L84.0381 119.551L84.3271 120.303C84.9465 122.208 85.2374 124.205 85.1873 126.208C85.1464 128.069 84.9463 129.923 84.5892 131.751C84.2397 133.542 83.7828 135.294 83.2452 137.011C82.7031 138.732 82.0705 140.423 81.3501 142.078L78.9175 141.179C79.3341 139.568 79.7306 137.877 80.0263 136.206C80.3547 134.551 80.5947 132.88 80.7453 131.2C80.9068 129.573 80.945 127.935 80.8596 126.302C80.8115 125.527 80.7172 124.757 80.5773 123.993C80.4299 123.289 80.2254 122.598 79.9658 121.927L79.7575 121.464L79.529 121.041C79.3476 120.732 79.0989 120.37 78.857 120.028C78.6151 119.685 78.4135 119.357 78.185 119.014C77.9565 118.672 77.7213 118.343 77.466 118.021C76.4849 116.679 75.3761 115.458 74.274 114.216C73.1719 112.975 71.9623 111.807 70.7325 110.667C70.1277 110.09 69.5028 109.526 68.8778 108.976C68.2529 108.425 67.5808 107.875 67.0029 107.405L70.2218 103.245Z" fill="#FF8B7B"/>
<path d="M79.6904 139.575L76.0078 142.259L80.7118 144.742C80.7118 144.742 82.1163 142.259 81.666 140.185L79.6904 139.575Z" fill="#FF8B7B"/>
<path d="M74.8452 146.614L78.6958 147.802L80.7454 144.755L76.0078 142.272L74.8452 146.614Z" fill="#FF8B7B"/>
<path d="M67.2112 98.5076C69.785 98.3935 74.8451 104.708 74.8451 104.708L69.5901 112.13C69.5901 112.13 63.6899 107.432 63.233 104.164C62.8499 101.38 63.9319 98.6418 67.2112 98.5076Z" fill="#29D846"/>
<path opacity="0.6" d="M67.2112 98.5076C69.785 98.3935 74.8451 104.708 74.8451 104.708L69.5901 112.13C69.5901 112.13 63.6899 107.432 63.233 104.164C62.8499 101.38 63.9319 98.6418 67.2112 98.5076Z" fill="black"/>
<path d="M113.102 224.447H113.022C112.904 224.432 112.792 224.387 112.697 224.315C112.603 224.243 112.529 224.147 112.484 224.038C112.449 223.974 112.43 223.903 112.43 223.83C112.43 223.757 112.449 223.685 112.484 223.622C112.813 223.058 114.661 222.951 114.87 222.951C114.893 222.95 114.916 222.956 114.936 222.968C114.956 222.98 114.973 222.997 114.984 223.018C114.997 223.038 115.004 223.061 115.004 223.085C115.004 223.109 114.997 223.132 114.984 223.152C114.534 223.649 113.734 224.447 113.102 224.447ZM114.581 223.219C113.841 223.273 112.86 223.447 112.692 223.743C112.674 223.769 112.664 223.801 112.664 223.833C112.664 223.865 112.674 223.897 112.692 223.924C112.721 223.997 112.768 224.062 112.829 224.111C112.891 224.161 112.964 224.193 113.042 224.206C113.398 224.246 113.962 223.877 114.581 223.219Z" fill="#29D846"/>
<path d="M114.742 223.206C114.124 223.206 112.907 222.863 112.679 222.367C112.642 222.279 112.636 222.181 112.66 222.089C112.684 221.997 112.738 221.916 112.813 221.857C112.883 221.794 112.965 221.747 113.054 221.718C113.143 221.69 113.238 221.68 113.331 221.689C114.063 221.77 114.93 222.957 114.964 223.031C114.975 223.049 114.981 223.07 114.981 223.092C114.981 223.113 114.975 223.134 114.964 223.152C114.954 223.17 114.941 223.185 114.925 223.197C114.908 223.208 114.889 223.216 114.87 223.219L114.742 223.206ZM113.25 221.931C113.15 221.93 113.053 221.969 112.981 222.038C112.867 222.139 112.88 222.219 112.901 222.273C113.048 222.595 114.003 222.944 114.628 222.944C114.319 222.561 113.741 221.958 113.284 221.911L113.25 221.931Z" fill="#29D846"/>
<path d="M79.5962 235.66C79.1823 235.69 78.7693 235.592 78.4135 235.378C78.3212 235.311 78.2455 235.223 78.192 235.122C78.1384 235.021 78.1085 234.909 78.1044 234.794C78.0989 234.731 78.1103 234.667 78.1374 234.609C78.1646 234.552 78.2065 234.502 78.2589 234.466C78.81 234.097 80.873 235.029 81.2829 235.224C81.3058 235.234 81.3248 235.251 81.3369 235.273C81.3491 235.295 81.3537 235.32 81.3501 235.345C81.3479 235.37 81.3376 235.394 81.3207 235.414C81.3038 235.433 81.2811 235.446 81.2561 235.452C80.7112 235.577 80.1551 235.646 79.5962 235.66ZM78.6353 234.613C78.5512 234.609 78.4676 234.627 78.3933 234.667C78.376 234.68 78.3624 234.697 78.3541 234.718C78.3458 234.738 78.3431 234.76 78.3463 234.781C78.3489 234.86 78.3696 234.938 78.4069 235.007C78.4442 235.077 78.497 235.137 78.5613 235.184C78.9175 235.452 79.7575 235.492 80.8394 235.291C80.1447 234.951 79.401 234.723 78.6353 234.613Z" fill="#29D846"/>
<path d="M81.2292 235.452H81.1889C80.5169 235.17 79.1191 234.063 79.1729 233.493C79.1729 233.372 79.2737 233.211 79.5828 233.177C80.7924 233.03 81.3031 235.19 81.3233 235.311C81.3278 235.333 81.3264 235.356 81.3193 235.377C81.3122 235.398 81.2997 235.417 81.283 235.432C81.2672 235.443 81.2486 235.45 81.2292 235.452ZM79.7441 233.405H79.6635C79.5358 233.405 79.4686 233.459 79.4551 233.519C79.4148 233.848 80.3691 234.727 81.0679 235.11C80.8865 234.58 80.4497 233.405 79.7441 233.405Z" fill="#29D846"/>
<path d="M51.4595 85.7512L52.3264 85.1943C52.3264 85.1943 52.0643 86.08 51.4595 85.7512Z" fill="#263238"/>
<path d="M193.959 36.6853H96.2977C95.2543 36.6782 94.2205 36.8846 93.26 37.2917C92.2995 37.6989 91.4327 38.2981 90.7131 39.0526C89.9934 39.8071 89.4361 40.7007 89.0756 41.6785C88.7151 42.6562 88.5589 43.6974 88.6167 44.7377L97.7761 234.352C97.9066 236.512 98.8507 238.542 100.419 240.036C101.987 241.53 104.063 242.376 106.23 242.404H203.892C204.935 242.411 205.968 242.205 206.928 241.798C207.889 241.39 208.755 240.791 209.474 240.036C210.193 239.282 210.75 238.388 211.11 237.41C211.469 236.433 211.625 235.392 211.566 234.352L202.413 44.7377C202.283 42.5776 201.339 40.5468 199.771 39.0531C198.202 37.5595 196.126 36.7136 193.959 36.6853Z" fill="black"/>
<path d="M197.568 36.6853H99.8795C98.8364 36.6781 97.8028 36.8845 96.8427 37.2918C95.8826 37.699 95.0162 38.2984 94.297 39.0529C93.5779 39.8075 93.0213 40.7012 92.6615 41.679C92.3017 42.6567 92.1465 43.6977 92.2053 44.7377L101.358 234.352C101.488 236.512 102.432 238.542 104.001 240.036C105.569 241.53 107.645 242.376 109.812 242.404H207.473C208.517 242.411 209.55 242.205 210.51 241.798C211.47 241.39 212.337 240.791 213.056 240.036C213.775 239.282 214.332 238.388 214.691 237.41C215.051 236.433 215.206 235.392 215.148 234.352L205.995 44.7377C205.865 42.5822 204.925 40.5552 203.362 39.0622C201.8 37.5692 199.73 36.7203 197.568 36.6853Z" fill="#263238"/>
<path d="M109.536 237.036C108.817 237.018 108.13 236.733 107.609 236.236C107.089 235.74 106.772 235.068 106.72 234.352L97.5812 44.7377C97.5649 44.3916 97.6189 44.0458 97.7402 43.7212C97.8614 43.3966 98.0473 43.0999 98.2866 42.849C98.5259 42.5981 98.8137 42.3983 99.1325 42.2616C99.4513 42.1249 99.7946 42.0541 100.142 42.0536H197.803C198.524 42.0687 199.212 42.3527 199.733 42.8495C200.254 43.3462 200.57 44.0199 200.619 44.7377L209.772 234.352C209.788 234.697 209.734 235.042 209.613 235.367C209.492 235.691 209.307 235.987 209.069 236.238C208.83 236.489 208.543 236.689 208.225 236.826C207.907 236.963 207.564 237.034 207.218 237.036H109.536Z" fill="#29D846"/>
<path opacity="0.1" d="M109.489 235.694C109.13 235.682 108.788 235.538 108.528 235.291C108.267 235.043 108.107 234.709 108.078 234.352L98.9252 44.7377C98.9189 44.5654 98.9471 44.3936 99.0082 44.2323C99.0693 44.071 99.1621 43.9236 99.281 43.7986C99.3999 43.6736 99.5426 43.5735 99.7008 43.5044C99.8589 43.4352 100.029 43.3982 100.202 43.3956H197.864C198.223 43.4061 198.566 43.549 198.827 43.7967C199.087 44.0444 199.247 44.3796 199.275 44.7377L208.428 234.352C208.434 234.524 208.406 234.696 208.345 234.857C208.283 235.018 208.191 235.166 208.072 235.291C207.953 235.416 207.81 235.516 207.652 235.585C207.494 235.654 207.323 235.691 207.151 235.694H109.489Z" fill="black"/>
<g opacity="0.3">
<path opacity="0.3" d="M138.963 224.796H119.616C119.085 224.79 118.576 224.583 118.192 224.217C117.808 223.851 117.577 223.353 117.546 222.823L116.135 193.492C116.118 193.233 116.154 192.973 116.242 192.728C116.329 192.484 116.467 192.26 116.646 192.071C116.824 191.882 117.04 191.732 117.279 191.63C117.519 191.528 117.777 191.477 118.037 191.479H137.417C137.947 191.484 138.455 191.689 138.839 192.055C139.222 192.42 139.451 192.917 139.48 193.445L140.872 222.783C140.888 223.043 140.851 223.303 140.762 223.547C140.674 223.792 140.536 224.016 140.357 224.205C140.177 224.394 139.961 224.544 139.721 224.645C139.482 224.747 139.224 224.798 138.963 224.796ZM118.01 192.164C117.842 192.163 117.676 192.196 117.522 192.26C117.367 192.325 117.227 192.42 117.11 192.539C116.995 192.663 116.907 192.808 116.849 192.965C116.792 193.123 116.766 193.291 116.774 193.459L118.192 222.783C118.21 223.142 118.365 223.481 118.625 223.73C118.884 223.979 119.229 224.12 119.589 224.125H138.963C139.131 224.126 139.298 224.093 139.453 224.027C139.608 223.961 139.748 223.864 139.864 223.742C139.98 223.62 140.07 223.475 140.127 223.317C140.185 223.159 140.21 222.991 140.2 222.823L138.782 193.492C138.765 193.134 138.611 192.795 138.353 192.546C138.094 192.296 137.75 192.155 137.391 192.15L118.01 192.164Z" fill="#FAFAFA"/>
<path opacity="0.3" d="M137.135 198.975H118.944C118.855 198.975 118.77 198.939 118.707 198.876C118.644 198.813 118.608 198.728 118.608 198.639C118.608 198.55 118.644 198.465 118.707 198.402C118.77 198.339 118.855 198.304 118.944 198.304H137.155C137.244 198.304 137.33 198.339 137.393 198.402C137.456 198.465 137.491 198.55 137.491 198.639C137.491 198.728 137.456 198.813 137.393 198.876C137.33 198.939 137.244 198.975 137.155 198.975H137.135Z" fill="#FAFAFA"/>
<path opacity="0.3" d="M137.323 202.766H119.106C119.017 202.764 118.932 202.728 118.87 202.666C118.807 202.603 118.771 202.519 118.77 202.43C118.77 202.342 118.805 202.256 118.868 202.193C118.931 202.13 119.016 202.095 119.106 202.095H137.323C137.413 202.095 137.498 202.13 137.561 202.193C137.624 202.256 137.659 202.342 137.659 202.43C137.658 202.519 137.622 202.603 137.559 202.666C137.496 202.728 137.412 202.764 137.323 202.766Z" fill="#FAFAFA"/>
<path opacity="0.3" d="M137.505 206.557H119.287C119.198 206.556 119.114 206.52 119.051 206.457C118.989 206.395 118.953 206.31 118.951 206.222C118.951 206.133 118.986 206.047 119.049 205.985C119.112 205.922 119.198 205.886 119.287 205.886H137.505C137.594 205.886 137.679 205.922 137.742 205.985C137.805 206.047 137.841 206.133 137.841 206.222C137.841 206.311 137.805 206.396 137.742 206.459C137.679 206.522 137.594 206.557 137.505 206.557Z" fill="#FAFAFA"/>
<path opacity="0.3" d="M137.686 210.349H119.475C119.386 210.349 119.3 210.313 119.237 210.25C119.174 210.188 119.139 210.102 119.139 210.013C119.139 209.924 119.174 209.839 119.237 209.776C119.3 209.713 119.386 209.678 119.475 209.678H137.686C137.775 209.678 137.861 209.713 137.924 209.776C137.987 209.839 138.022 209.924 138.022 210.013C138.022 210.102 137.987 210.188 137.924 210.25C137.861 210.313 137.775 210.349 137.686 210.349Z" fill="#FAFAFA"/>
<path opacity="0.3" d="M137.868 214.14H119.657C119.567 214.14 119.482 214.105 119.419 214.042C119.356 213.979 119.321 213.893 119.321 213.804C119.321 213.716 119.356 213.63 119.419 213.567C119.482 213.504 119.567 213.469 119.657 213.469H137.868C137.957 213.469 138.042 213.504 138.105 213.567C138.168 213.63 138.204 213.716 138.204 213.804C138.204 213.893 138.168 213.979 138.105 214.042C138.042 214.105 137.957 214.14 137.868 214.14Z" fill="#FAFAFA"/>
<path opacity="0.3" d="M134.32 217.931H119.838C119.749 217.931 119.663 217.896 119.6 217.833C119.537 217.77 119.502 217.685 119.502 217.596C119.502 217.507 119.537 217.422 119.6 217.359C119.663 217.296 119.749 217.26 119.838 217.26H134.32C134.409 217.26 134.494 217.296 134.557 217.359C134.62 217.422 134.656 217.507 134.656 217.596C134.654 217.684 134.618 217.769 134.555 217.831C134.493 217.894 134.408 217.93 134.32 217.931Z" fill="#FAFAFA"/>
</g>
<g opacity="0.3">
<path opacity="0.3" d="M151.16 117.182L137.874 119.303C137.362 118.04 136.684 116.851 135.858 115.767C135.063 114.933 134.123 114.251 133.083 113.753L133.58 124.154C140.968 126.096 145.938 128.145 148.492 130.301C150.12 131.656 151.441 133.34 152.368 135.243C153.295 137.147 153.806 139.224 153.868 141.34C154.046 143.815 153.59 146.295 152.544 148.547C151.549 150.647 150.117 152.511 148.344 154.015C146.693 155.428 144.782 156.508 142.72 157.196C140.298 157.923 137.788 158.316 135.26 158.364L135.348 160.196C135.368 160.535 135.318 160.874 135.201 161.193C135.085 161.512 134.903 161.804 134.669 162.05C134.435 162.296 134.152 162.492 133.839 162.624C133.525 162.756 133.188 162.823 132.848 162.819C132.141 162.812 131.464 162.537 130.952 162.05C130.441 161.563 130.134 160.9 130.093 160.196L130.005 158.364C127.056 158.175 124.144 157.602 121.343 156.659C119.198 155.885 117.214 154.723 115.49 153.23C113.917 151.889 112.585 150.289 111.552 148.5C110.516 146.575 109.763 144.512 109.314 142.373L123.769 140.689C124.316 143.055 124.988 144.766 125.785 145.822C126.787 147.049 128.074 148.012 129.535 148.627L128.923 135.931C125.344 135.041 121.839 133.875 118.44 132.442C116.242 131.347 114.352 129.721 112.943 127.711C111.297 125.388 110.386 122.625 110.329 119.779C110.173 117.816 110.447 115.842 111.131 113.995C111.816 112.148 112.895 110.472 114.294 109.083C117.143 106.216 121.511 104.627 127.398 104.319L127.351 103.386C127.331 103.047 127.38 102.707 127.497 102.388C127.614 102.069 127.795 101.778 128.03 101.532C128.264 101.285 128.547 101.09 128.86 100.958C129.173 100.825 129.511 100.759 129.851 100.762C130.557 100.77 131.235 101.045 131.746 101.532C132.258 102.019 132.565 102.681 132.606 103.386L132.653 104.319C138.029 104.654 142.198 105.925 145.159 108.13C148.138 110.373 150.256 113.568 151.16 117.182ZM127.841 113.592C126.643 113.899 125.562 114.55 124.73 115.465C124.164 116.223 123.89 117.159 123.957 118.102C123.993 119.113 124.361 120.085 125.006 120.866C125.903 121.806 127.038 122.486 128.292 122.833L127.841 113.592ZM134.81 148.969C136.826 148.522 138.282 147.77 139.178 146.715C139.608 146.24 139.94 145.685 140.155 145.081C140.369 144.478 140.462 143.838 140.428 143.198C140.36 142.033 139.884 140.929 139.084 140.078C138.237 139.132 136.625 138.246 134.259 137.434L134.81 148.969Z" fill="#FAFAFA"/>
</g>
<path opacity="0.2" d="M186.279 61.4397H119.75L126.235 195.72C126.552 201.221 128.948 206.397 132.94 210.201C136.932 214.006 142.222 216.155 147.739 216.213H214.267L207.789 81.9331C207.476 76.4297 205.079 71.251 201.085 67.4459C197.091 63.6408 191.798 61.4938 186.279 61.4397Z" fill="black"/>
<path d="M202.575 61.4397H119.771C125.289 61.4971 130.579 63.6454 134.572 67.45C138.564 71.2546 140.96 76.4314 141.275 81.9331L146.563 191.244C146.88 196.745 149.276 201.921 153.268 205.726C157.26 209.53 162.55 211.679 168.067 211.738H209.819C212.477 211.765 215.112 211.247 217.561 210.214C220.01 209.181 222.22 207.656 224.054 205.734C225.887 203.812 227.305 201.533 228.219 199.041C229.133 196.548 229.524 193.894 229.367 191.244L224.085 81.9331C223.772 76.4297 221.375 71.251 217.381 67.4459C213.387 63.6408 208.094 61.4938 202.575 61.4397Z" fill="#FAFAFA"/>
<path d="M187.609 191.244C187.767 193.893 187.377 196.545 186.465 199.037C185.552 201.529 184.136 203.807 182.305 205.729C180.473 207.651 178.265 209.176 175.818 210.21C173.371 211.243 170.738 211.764 168.081 211.738H250.878C253.535 211.764 256.169 211.243 258.616 210.21C261.064 209.176 263.272 207.651 265.104 205.729C266.936 203.807 268.353 201.529 269.266 199.038C270.179 196.546 270.57 193.893 270.413 191.244H187.609Z" fill="#E6E6E6"/>
<path d="M214.234 129.288H155.716C155.306 129.283 154.912 129.124 154.616 128.841C154.319 128.558 154.14 128.174 154.117 127.765C154.105 127.568 154.135 127.371 154.203 127.186C154.271 127.001 154.376 126.832 154.512 126.69C154.648 126.547 154.812 126.433 154.994 126.356C155.175 126.279 155.371 126.24 155.568 126.241H214.086C214.501 126.239 214.901 126.396 215.203 126.679C215.506 126.962 215.688 127.351 215.712 127.765C215.723 127.964 215.693 128.163 215.623 128.349C215.554 128.536 215.446 128.707 215.307 128.85C215.168 128.993 215.001 129.106 214.816 129.181C214.632 129.256 214.433 129.293 214.234 129.288Z" fill="#29D846"/>
<path d="M214.691 138.796H156.173C155.763 138.792 155.369 138.632 155.073 138.35C154.776 138.067 154.597 137.682 154.574 137.273C154.563 137.076 154.592 136.88 154.66 136.695C154.728 136.51 154.833 136.341 154.969 136.198C155.105 136.055 155.269 135.942 155.451 135.865C155.632 135.788 155.828 135.749 156.025 135.75H214.55C214.959 135.756 215.35 135.916 215.646 136.199C215.941 136.482 216.118 136.865 216.142 137.273C216.153 137.47 216.124 137.667 216.056 137.852C215.988 138.037 215.882 138.206 215.746 138.348C215.61 138.491 215.446 138.604 215.265 138.681C215.083 138.758 214.888 138.798 214.691 138.796Z" fill="#29D846"/>
<path d="M215.154 148.298H156.63C156.22 148.294 155.826 148.134 155.53 147.851C155.233 147.569 155.054 147.184 155.031 146.775C155.02 146.578 155.049 146.381 155.117 146.197C155.185 146.012 155.29 145.843 155.426 145.7C155.562 145.557 155.726 145.444 155.908 145.367C156.089 145.29 156.285 145.251 156.482 145.252H215.04C215.45 145.256 215.844 145.416 216.141 145.699C216.437 145.981 216.616 146.366 216.64 146.775C216.651 146.975 216.62 147.174 216.55 147.362C216.48 147.549 216.372 147.719 216.232 147.863C216.093 148.006 215.925 148.118 215.739 148.193C215.554 148.268 215.355 148.304 215.154 148.298Z" fill="#29D846"/>
<path d="M196.869 109.578C203.794 102.495 203.373 90.8703 195.929 83.6139C188.485 76.3575 176.837 76.2171 169.912 83.3004C162.988 90.3836 163.409 102.008 170.853 109.265C178.297 116.521 189.945 116.661 196.869 109.578Z" fill="#29D846"/>
<path d="M198.563 96.4274C198.69 98.921 198.179 101.406 197.078 103.648C195.884 106.052 194.036 108.071 191.745 109.474C189.455 110.877 186.815 111.606 184.128 111.579C181.349 111.558 178.622 110.816 176.216 109.426C173.811 108.035 171.808 106.044 170.406 103.648C169.097 101.456 168.347 98.9763 168.222 96.4274C168.106 94.4691 168.394 92.5079 169.069 90.6656C169.744 88.8233 170.791 87.1393 172.146 85.7183C173.5 84.2972 175.133 83.1695 176.942 82.4052C178.751 81.6409 180.699 81.2564 182.663 81.2755C186.741 81.326 190.648 82.9171 193.598 85.7284C196.548 88.5397 198.322 92.3625 198.563 96.4274Z" fill="white"/>
<path opacity="0.4" d="M197.077 103.648C195.884 106.052 194.036 108.071 191.745 109.474C189.455 110.877 186.815 111.606 184.128 111.579C181.348 111.558 178.622 110.816 176.216 109.426C173.811 108.035 171.808 106.044 170.406 103.648C174.273 100.998 178.86 99.5928 183.55 99.6215C188.354 99.6305 193.053 101.029 197.077 103.648Z" fill="#29D846"/>
<path opacity="0.4" d="M188.088 96.0634C190.634 93.4593 190.48 89.1866 187.745 86.5201C185.01 83.8536 180.728 83.8032 178.182 86.4073C175.637 89.0115 175.79 93.2842 178.526 95.9507C181.261 98.6171 185.542 98.6676 188.088 96.0634Z" fill="#29D846"/>
<path d="M244.223 240.726H239.29L238.793 229.305H243.732L244.223 240.726Z" fill="#B55B52"/>
<path opacity="0.2" d="M238.8 229.312L239.048 235.197H243.988L243.732 229.312H238.8Z" fill="black"/>
<path d="M286.243 227.346L281.552 228.876L275.646 218.79L280.343 217.26L286.243 227.346Z" fill="#B55B52"/>
<path opacity="0.2" d="M280.343 217.26L275.646 218.79L278.696 223.991L283.387 222.461L280.343 217.26Z" fill="black"/>
<path d="M260.915 75.7729C261.527 76.5178 262.044 77.1821 262.575 77.9135C263.106 78.645 263.61 79.3429 264.114 80.0676C265.109 81.5237 266.063 83.0134 266.957 84.5501C268.817 87.6677 270.333 90.9773 271.479 94.421L271.593 94.7565L271.647 94.9309L271.721 95.2061L271.856 95.7563L271.929 96.2596C272.009 96.8623 272.034 97.4709 272.003 98.0781C271.941 99.1019 271.792 100.119 271.56 101.118C271.134 102.908 270.57 104.662 269.873 106.365C268.544 109.63 266.934 112.773 265.062 115.76L261.702 114.156C262.71 111.009 263.718 107.788 264.457 104.654C264.842 103.144 265.133 101.611 265.33 100.064C265.413 99.3967 265.438 98.7232 265.404 98.0512C265.394 97.8118 265.363 97.5738 265.31 97.34L265.277 97.2192C265.264 97.1975 265.253 97.1751 265.243 97.1521L265.189 97.0246L265.082 96.7629L264.632 95.7093L264.128 94.6625C263.792 93.9915 263.422 93.2668 263.052 92.5689C262.286 91.1866 261.46 89.811 260.6 88.4421C259.739 87.0731 258.825 85.7579 257.912 84.4159C256.998 83.0738 255.996 81.7317 255.089 80.5172L260.915 75.7729Z" fill="#B55B52"/>
<path d="M262.011 113.324L260.082 117.585H265.599C265.599 117.585 266.479 114.351 264.477 113.042L262.011 113.324Z" fill="#B55B52"/>
<path d="M260.727 122.376L265.848 121.39L265.599 117.585H260.082L260.727 122.376Z" fill="#B55B52"/>
<path d="M236.468 54.1456C236.468 54.5482 236.26 54.8703 235.997 54.8703C235.735 54.8703 235.527 54.5482 235.527 54.1456C235.527 53.7429 235.742 53.4276 235.997 53.4276C236.253 53.4276 236.468 53.7496 236.468 54.1456Z" fill="#263238"/>
<path d="M236.32 54.8702C235.847 56.0844 235.207 57.2271 234.418 58.2657C234.69 58.4602 235.001 58.5933 235.329 58.6559C235.658 58.7185 235.996 58.709 236.32 58.628V54.8702Z" fill="#A02724"/>
<path d="M237.879 51.9446C237.83 51.9451 237.783 51.9285 237.745 51.8976C237.511 51.7217 237.239 51.6028 236.951 51.5504C236.662 51.498 236.366 51.5135 236.085 51.5956C236.029 51.6109 235.969 51.6048 235.917 51.5785C235.865 51.5522 235.824 51.5076 235.804 51.4533C235.783 51.399 235.783 51.3389 235.804 51.2846C235.824 51.2303 235.865 51.1857 235.917 51.1594C236.271 51.0472 236.647 51.0215 237.013 51.0845C237.379 51.1476 237.724 51.2976 238.02 51.5218C238.07 51.5592 238.103 51.6143 238.113 51.6755C238.123 51.7367 238.109 51.7994 238.074 51.8506C238.051 51.8799 238.021 51.9036 237.987 51.9199C237.954 51.9361 237.917 51.9446 237.879 51.9446Z" fill="#263238"/>
<path d="M249.323 58.7287C248.611 62.3389 247.905 68.9485 250.432 71.3508C250.432 71.3508 249.444 75.008 242.738 75.008C235.346 75.008 239.21 71.3508 239.21 71.3508C243.242 70.3913 243.134 67.4119 242.428 64.6069L249.323 58.7287Z" fill="#B55B52"/>
<path d="M251.4 72.6056C251.931 71.4515 252.515 70.1228 251.306 69.7068C249.962 69.2505 242.731 68.7874 240.225 69.6464C239.895 69.7376 239.587 69.8933 239.318 70.1045C239.049 70.3157 238.825 70.5782 238.659 70.8766C238.492 71.1751 238.387 71.5036 238.349 71.8431C238.311 72.1825 238.341 72.5261 238.437 72.8539L251.4 72.6056Z" fill="#263238"/>
<path d="M280.538 230.05C280.175 230.399 279.765 230.681 279.456 230.634C279.358 230.614 279.269 230.565 279.201 230.493C279.132 230.421 279.087 230.33 279.073 230.231C279.052 230.155 279.049 230.075 279.063 229.998C279.077 229.92 279.108 229.846 279.153 229.782C279.557 229.158 281.169 228.889 281.257 228.883C281.278 228.879 281.3 228.882 281.32 228.89C281.34 228.899 281.358 228.912 281.371 228.93C281.384 228.948 281.391 228.971 281.391 228.993C281.391 229.016 281.384 229.038 281.371 229.057C281.129 229.416 280.85 229.749 280.538 230.05ZM279.442 229.795C279.407 229.828 279.376 229.864 279.348 229.903C279.321 229.941 279.303 229.985 279.295 230.032C279.287 230.078 279.289 230.126 279.301 230.171C279.355 230.379 279.456 230.399 279.489 230.399C279.832 230.453 280.565 229.728 281.015 229.164C280.451 229.256 279.914 229.472 279.442 229.795Z" fill="#29D846"/>
<path d="M281.344 229.077L281.29 229.111C280.733 229.258 279.274 229.164 278.965 228.695C278.919 228.62 278.899 228.531 278.909 228.444C278.919 228.356 278.958 228.275 279.019 228.212C279.077 228.144 279.148 228.088 279.227 228.048C279.307 228.007 279.394 227.983 279.483 227.977C280.222 227.923 281.29 228.869 281.337 228.909C281.354 228.923 281.365 228.941 281.371 228.961C281.377 228.982 281.377 229.003 281.371 229.024C281.369 229.044 281.36 229.063 281.344 229.077ZM279.241 228.326L279.2 228.366C279.106 228.48 279.147 228.54 279.16 228.567C279.342 228.842 280.363 228.997 280.995 228.923C280.577 228.546 280.059 228.299 279.503 228.212C279.409 228.219 279.321 228.259 279.254 228.326H279.241Z" fill="#29D846"/>
<path d="M237.301 240.975C236.67 240.975 236.058 240.887 235.856 240.605C235.802 240.532 235.772 240.442 235.772 240.35C235.772 240.259 235.802 240.169 235.856 240.095C235.896 240.027 235.949 239.967 236.013 239.92C236.077 239.873 236.149 239.839 236.226 239.82C237.046 239.599 238.773 240.579 238.847 240.626C238.868 240.637 238.885 240.655 238.895 240.677C238.904 240.699 238.906 240.723 238.901 240.746C238.897 240.769 238.887 240.79 238.871 240.807C238.856 240.824 238.836 240.835 238.813 240.84C238.314 240.927 237.808 240.972 237.301 240.975ZM236.522 240.022C236.446 240.011 236.369 240.011 236.293 240.022C236.246 240.031 236.201 240.05 236.162 240.078C236.122 240.106 236.089 240.141 236.065 240.183C235.984 240.33 236.011 240.404 236.065 240.444C236.293 240.76 237.543 240.767 238.457 240.639C237.858 240.309 237.201 240.1 236.522 240.022Z" fill="#29D846"/>
<path d="M238.793 240.84H238.746C238.155 240.572 236.972 239.498 237.059 238.948C237.059 238.814 237.174 238.653 237.496 238.619C237.616 238.606 237.737 238.617 237.853 238.651C237.968 238.686 238.075 238.743 238.168 238.821C238.793 239.337 238.927 240.666 238.934 240.72C238.934 240.74 238.929 240.761 238.919 240.779C238.91 240.798 238.897 240.814 238.88 240.827C238.867 240.835 238.853 240.84 238.838 240.842C238.823 240.845 238.808 240.844 238.793 240.84ZM237.59 238.827H237.523C237.308 238.827 237.294 238.928 237.294 238.955C237.241 239.29 238.04 240.129 238.638 240.491C238.58 239.928 238.345 239.397 237.966 238.975C237.859 238.89 237.727 238.843 237.59 238.841V238.827Z" fill="#29D846"/>
<path d="M281.142 228.332L285.174 224.501C285.245 224.432 285.337 224.389 285.435 224.381C285.533 224.372 285.631 224.398 285.712 224.454L289.448 226.95C289.539 227.011 289.614 227.092 289.669 227.186C289.723 227.28 289.756 227.385 289.763 227.494C289.771 227.603 289.754 227.712 289.713 227.813C289.673 227.914 289.61 228.004 289.529 228.077C288.111 229.419 287.352 229.963 285.591 231.641C284.502 232.681 281.263 236.204 279.765 237.64C278.266 239.076 276.653 237.774 277.137 237.056C279.315 233.828 280.672 230.735 280.793 229.104C280.815 228.814 280.938 228.54 281.142 228.332Z" fill="#263238"/>
<path d="M239.317 240.156H244.693C244.791 240.155 244.886 240.188 244.961 240.25C245.037 240.311 245.09 240.396 245.11 240.491L246.084 244.873C246.109 244.979 246.109 245.088 246.085 245.193C246.061 245.299 246.013 245.397 245.945 245.481C245.877 245.565 245.79 245.633 245.692 245.679C245.594 245.725 245.487 245.747 245.379 245.746C243.43 245.746 240.621 245.605 238.175 245.605C235.319 245.605 232.853 245.759 229.499 245.759C227.483 245.759 226.912 243.712 227.759 243.525C231.616 242.686 234.775 242.592 238.108 240.538C238.467 240.301 238.886 240.168 239.317 240.156Z" fill="#263238"/>
<path d="M232.288 82.5369C230.326 85.4224 228.303 88.1199 226.126 90.7839C223.94 93.4805 221.605 96.0524 219.13 98.4874L218.176 99.4134L217.934 99.6416L217.76 99.8026L217.504 99.9838C217.188 100.239 216.848 100.463 216.489 100.655C215.355 101.252 214.107 101.602 212.827 101.682C210.874 101.797 208.915 101.634 207.008 101.198C203.552 100.437 200.201 99.2612 197.028 97.6956L198.265 94.2062C201.411 94.8344 204.594 95.2691 207.794 95.508C209.2 95.619 210.615 95.5604 212.007 95.3336C212.407 95.2738 212.788 95.1247 213.123 94.8974C213.156 94.8974 213.123 94.8571 213.123 94.8571L213.176 94.8034L213.371 94.582L214.171 93.7097C216.268 91.3208 218.304 88.7709 220.28 86.1672C222.255 83.5636 224.238 80.8929 226.126 78.2893L232.288 82.5369Z" fill="#B55B52"/>
<path d="M259.276 72.4715C263.899 73.5317 269.208 86.127 269.208 86.127L259.914 92.4884C257.606 89.1763 255.559 85.6898 253.792 82.0606C251.037 76.2964 254.545 71.3844 259.276 72.4715Z" fill="#29D846"/>
<path opacity="0.3" d="M255.956 80.5239L260.351 92.2065L259.914 92.5085C259.914 92.5085 258.012 89.8244 255.956 86.2478V80.5239Z" fill="black"/>
<path d="M231.616 72.7198C231.616 72.7198 226.361 78.645 231.327 115.33H257.73C257.912 111.304 255.365 91.5355 259.276 72.4648C256.355 71.9039 253.401 71.5318 250.432 71.3509C246.695 71.136 242.948 71.136 239.21 71.3509C236.647 71.6087 234.108 72.0664 231.616 72.7198Z" fill="#29D846"/>
<path opacity="0.3" d="M234.546 83.3289C233.859 87.4919 232.057 91.3918 229.331 94.6156C229.224 92.2536 229.183 90.1331 229.19 88.2341L234.546 83.3289Z" fill="black"/>
<path d="M236.824 76.7191C237.496 81.3828 228.263 93.3071 228.263 93.3071L219.009 86.9457C219.009 86.9457 221.576 80.3763 225.897 76.0682C230.836 71.1294 236.118 71.6394 236.824 76.7191Z" fill="#29D846"/>
<path d="M198.903 94.6156L195.281 90.8779L191.417 95.8503C191.417 95.8503 194.36 98.6888 197.861 97.8634L198.903 94.6156Z" fill="#B55B52"/>
<path d="M190.308 88.7977L188.648 94.0183L191.417 95.8301L195.281 90.8578L190.308 88.7977Z" fill="#B55B52"/>
<path d="M249.76 53.3068C249.458 58.1852 249.532 61.0639 247.072 63.5668C243.356 67.338 237.321 65.1035 236.159 60.2117C235.104 55.8231 235.776 48.576 240.56 46.6367C241.614 46.2043 242.761 46.0482 243.893 46.1833C245.024 46.3185 246.102 46.7403 247.024 47.4088C247.946 48.0772 248.681 48.9701 249.16 50.0024C249.639 51.0347 249.846 52.1722 249.76 53.3068Z" fill="#B55B52"/>
<path d="M254.014 43.1138C255.519 44.4961 254.881 46.0395 254.094 46.328C256.534 46.8313 256.89 48.7706 255.606 52.8639C254.383 56.7827 251.42 62.0369 247.717 62.359C242.153 62.8422 240.527 57.0512 240.486 51.3071C237.341 51.5017 238.699 48.7169 234.835 49.3611C231.475 49.9181 232.738 47.301 229.882 46.1603C226.569 44.8182 227.235 39.7519 230.326 41.2081C230.326 41.2081 228.894 42.1475 230.561 43.0333C232.228 43.919 232.066 41.8724 235.366 41.6241C238.665 41.3758 239.048 44.1942 242.906 42.4964C247.744 40.3626 250.923 40.2619 254.014 43.1138Z" fill="#263238"/>
<path d="M252.159 46.3011C252.379 45.9497 252.706 45.6784 253.092 45.5273C253.478 45.3762 253.903 45.3534 254.303 45.4623C255.815 45.7844 255.936 46.4488 256.883 46.3615C257.831 46.2743 257.488 47.2808 257.488 47.2808C257.488 47.2808 257.233 46.5226 256.09 46.9453C254.948 47.3681 254.202 46.3347 253.711 46.7977C253.221 47.2607 252.159 46.3011 252.159 46.3011Z" fill="#263238"/>
<path d="M243.121 54.6354C242.906 55.8317 242.298 56.9225 241.394 57.7356C240.198 58.7958 239.163 57.9436 239.122 56.4942C239.122 55.1857 239.68 53.0518 241.058 52.5418C242.435 52.0318 243.369 53.186 243.121 54.6354Z" fill="#B55B52"/>
<path d="M240.688 115.33C240.688 115.33 246.293 152.995 249.37 167.087C252.73 182.521 276.15 223.588 276.15 223.588L284.751 220.797C284.751 220.797 266.103 183.796 264.181 168.49C262.091 151.882 257.73 115.304 257.73 115.304L240.688 115.33Z" fill="#263238"/>
<path d="M273.744 220.904C273.71 220.904 275.713 223.91 275.713 223.91L285.376 220.77L284.24 217.884L273.744 220.904Z" fill="#29D846"/>
<path opacity="0.3" d="M244.229 128.751C250.708 130.019 250.022 154.143 249.243 166.55C247.374 157.78 244.639 140.903 242.771 128.926C243.223 128.703 243.738 128.642 244.229 128.751Z" fill="black"/>
<path d="M231.327 115.33C231.327 115.33 230.655 152.19 231.179 167.221C231.737 182.856 237.227 234.056 237.227 234.056H245.594C245.594 234.056 245.896 183.769 246.266 168.416C246.669 151.64 248.692 115.33 248.692 115.33H231.327Z" fill="#263238"/>
<path d="M235.601 230.728C235.561 230.728 236.072 234.197 236.072 234.197H246.246L246.521 231.104L235.601 230.728Z" fill="#29D846"/>
</svg>
