<svg width="260" height="415" viewBox="0 0 260 415" fill="none" xmlns="http://www.w3.org/2000/svg">
<g clip-path="url(#clip0)">
<rect width="260" height="415" rx="12" fill="#FA0358"/>
<path d="M0 137.5C0 137.5 24.7925 107.75 45 94C64.72 80.5814 100.5 68.5 100.5 68.5C100.5 68.5 122.218 88.8011 133.5 104C142.642 116.316 148.352 123.24 154 137.5C159.655 151.777 159.677 160.82 162 176C164.492 192.287 163.92 201.656 166 218C168.172 235.069 169.948 244.567 173 261.5C175.683 276.386 177.713 284.633 180.5 299.5C183.386 314.898 181.841 324.392 187.5 339C193.272 353.9 209.5 373.5 209.5 373.5H0V137.5Z" fill="url(#paint0_linear)"/>
<path d="M315.5 312C315.5 312 290.708 341.75 270.5 355.5C250.78 368.919 215 381 215 381C215 381 193.282 360.699 182 345.5C172.858 333.184 167.148 326.26 161.5 312C155.845 297.723 155.823 288.68 153.5 273.5C151.008 257.213 151.58 247.844 149.5 231.5C147.328 214.431 145.552 204.933 142.5 188C139.817 173.114 137.787 164.867 135 150C132.114 134.602 133.659 125.108 128 110.5C122.228 95.5995 106 76 106 76H315.5L315.5 312Z" fill="url(#paint1_linear)"/>
<path d="M37.378 43L36.65 40.62H33.01L32.282 43H30L33.528 32.962H36.118L39.66 43H37.378ZM35.418 36.518C35.3713 36.3593 35.3107 36.1587 35.236 35.916C35.1613 35.6733 35.0867 35.426 35.012 35.174C34.9373 34.922 34.8767 34.7027 34.83 34.516C34.7833 34.7027 34.718 34.936 34.634 35.216C34.5593 35.4867 34.4847 35.748 34.41 36C34.3447 36.2427 34.2933 36.4153 34.256 36.518L33.542 38.842H36.146L35.418 36.518ZM42.578 43L39.666 35.356H41.85L43.32 39.71C43.404 39.9713 43.4693 40.242 43.516 40.522C43.572 40.802 43.6047 41.054 43.614 41.278H43.67C43.698 40.774 43.8007 40.2513 43.978 39.71L45.448 35.356H47.632L44.72 43H42.578ZM51.8647 35.202C52.8914 35.202 53.6754 35.426 54.2167 35.874C54.7674 36.3127 55.0427 36.9893 55.0427 37.904V43H53.5867L53.1807 41.964H53.1247C52.7981 42.3747 52.4527 42.6733 52.0887 42.86C51.7247 43.0467 51.2254 43.14 50.5907 43.14C49.9094 43.14 49.3447 42.944 48.8967 42.552C48.4487 42.1507 48.2247 41.5393 48.2247 40.718C48.2247 39.906 48.5094 39.3087 49.0787 38.926C49.6481 38.534 50.5021 38.3193 51.6407 38.282L52.9707 38.24V37.904C52.9707 37.5027 52.8634 37.2087 52.6487 37.022C52.4434 36.8353 52.1541 36.742 51.7807 36.742C51.4074 36.742 51.0434 36.798 50.6887 36.91C50.3341 37.0127 49.9794 37.1433 49.6247 37.302L48.9387 35.888C49.3494 35.6733 49.8021 35.5053 50.2967 35.384C50.8007 35.2627 51.3234 35.202 51.8647 35.202ZM52.1587 39.486C51.4867 39.5047 51.0201 39.626 50.7587 39.85C50.4974 40.074 50.3667 40.368 50.3667 40.732C50.3667 41.0493 50.4601 41.278 50.6467 41.418C50.8334 41.5487 51.0761 41.614 51.3747 41.614C51.8227 41.614 52.2007 41.4833 52.5087 41.222C52.8167 40.9513 52.9707 40.5733 52.9707 40.088V39.458L52.1587 39.486ZM58.2279 32.36C58.5359 32.36 58.8019 32.4347 59.0259 32.584C59.2499 32.724 59.3619 32.99 59.3619 33.382C59.3619 33.7647 59.2499 34.0307 59.0259 34.18C58.8019 34.3293 58.5359 34.404 58.2279 34.404C57.9106 34.404 57.6399 34.3293 57.4159 34.18C57.2013 34.0307 57.0939 33.7647 57.0939 33.382C57.0939 32.99 57.2013 32.724 57.4159 32.584C57.6399 32.4347 57.9106 32.36 58.2279 32.36ZM59.2639 35.356V43H57.1779V35.356H59.2639ZM63.5296 43H61.4436V32.36H63.5296V43ZM65.4152 42.02C65.4152 41.5907 65.5319 41.292 65.7652 41.124C65.9985 40.9467 66.2832 40.858 66.6192 40.858C66.9459 40.858 67.2259 40.9467 67.4592 41.124C67.6925 41.292 67.8092 41.5907 67.8092 42.02C67.8092 42.4307 67.6925 42.7293 67.4592 42.916C67.2259 43.0933 66.9459 43.182 66.6192 43.182C66.2832 43.182 65.9985 43.0933 65.7652 42.916C65.5319 42.7293 65.4152 42.4307 65.4152 42.02ZM73.5061 43V33.004H75.6201V41.25H79.6801V43H73.5061ZM82.3041 32.36C82.6121 32.36 82.8781 32.4347 83.1021 32.584C83.3261 32.724 83.4381 32.99 83.4381 33.382C83.4381 33.7647 83.3261 34.0307 83.1021 34.18C82.8781 34.3293 82.6121 34.404 82.3041 34.404C81.9868 34.404 81.7161 34.3293 81.4921 34.18C81.2774 34.0307 81.1701 33.7647 81.1701 33.382C81.1701 32.99 81.2774 32.724 81.4921 32.584C81.7161 32.4347 81.9868 32.36 82.3041 32.36ZM83.3401 35.356V43H81.2541V35.356H83.3401ZM94.4937 35.216C95.3617 35.216 96.0151 35.44 96.4537 35.888C96.9017 36.3267 97.1257 37.036 97.1257 38.016V43H95.0397V38.534C95.0397 37.4327 94.6571 36.882 93.8917 36.882C93.3411 36.882 92.9491 37.078 92.7157 37.47C92.4824 37.862 92.3657 38.4267 92.3657 39.164V43H90.2797V38.534C90.2797 37.4327 89.8971 36.882 89.1317 36.882C88.5531 36.882 88.1517 37.1013 87.9277 37.54C87.7131 37.9693 87.6057 38.59 87.6057 39.402V43H85.5197V35.356H87.1157L87.3957 36.336H87.5077C87.7411 35.944 88.0584 35.6593 88.4597 35.482C88.8704 35.3047 89.2951 35.216 89.7337 35.216C90.2937 35.216 90.7697 35.3093 91.1617 35.496C91.5537 35.6733 91.8524 35.9533 92.0577 36.336H92.2397C92.4731 35.944 92.7951 35.6593 93.2057 35.482C93.6257 35.3047 94.0551 35.216 94.4937 35.216ZM100.324 32.36C100.632 32.36 100.898 32.4347 101.122 32.584C101.346 32.724 101.458 32.99 101.458 33.382C101.458 33.7647 101.346 34.0307 101.122 34.18C100.898 34.3293 100.632 34.404 100.324 34.404C100.006 34.404 99.7356 34.3293 99.5116 34.18C99.297 34.0307 99.1896 33.7647 99.1896 33.382C99.1896 32.99 99.297 32.724 99.5116 32.584C99.7356 32.4347 100.006 32.36 100.324 32.36ZM101.36 35.356V43H99.2736V35.356H101.36ZM106.759 41.474C106.993 41.474 107.217 41.4507 107.431 41.404C107.646 41.3573 107.861 41.3013 108.075 41.236V42.79C107.851 42.8833 107.571 42.9627 107.235 43.028C106.909 43.1027 106.549 43.14 106.157 43.14C105.7 43.14 105.289 43.0653 104.925 42.916C104.571 42.7667 104.286 42.51 104.071 42.146C103.866 41.7727 103.763 41.2593 103.763 40.606V36.924H102.769V36.042L103.917 35.342L104.519 33.732H105.849V35.356H107.991V36.924H105.849V40.606C105.849 40.8953 105.933 41.1147 106.101 41.264C106.269 41.404 106.489 41.474 106.759 41.474Z" fill="white"/>
<path d="M35.502 111.628C34.69 111.628 34.0693 111.931 33.64 112.538C33.2107 113.145 32.996 113.975 32.996 115.03C32.996 116.094 33.192 116.92 33.584 117.508C33.9853 118.087 34.6247 118.376 35.502 118.376C35.9127 118.376 36.3187 118.329 36.72 118.236C37.1307 118.143 37.574 118.012 38.05 117.844V119.622C37.6113 119.799 37.1773 119.93 36.748 120.014C36.3187 120.098 35.838 120.14 35.306 120.14C34.2793 120.14 33.43 119.93 32.758 119.51C32.0953 119.081 31.6053 118.483 31.288 117.718C30.9707 116.943 30.812 116.043 30.812 115.016C30.812 114.008 30.994 113.117 31.358 112.342C31.722 111.567 32.2493 110.961 32.94 110.522C33.64 110.083 34.494 109.864 35.502 109.864C35.9967 109.864 36.4913 109.929 36.986 110.06C37.49 110.181 37.9707 110.349 38.428 110.564L37.742 112.286C37.3687 112.109 36.9907 111.955 36.608 111.824C36.2347 111.693 35.866 111.628 35.502 111.628ZM43.1421 112.202C44.1687 112.202 44.9527 112.426 45.4941 112.874C46.0447 113.313 46.3201 113.989 46.3201 114.904V120H44.8641L44.4581 118.964H44.4021C44.0754 119.375 43.7301 119.673 43.3661 119.86C43.0021 120.047 42.5027 120.14 41.8681 120.14C41.1867 120.14 40.6221 119.944 40.1741 119.552C39.7261 119.151 39.5021 118.539 39.5021 117.718C39.5021 116.906 39.7867 116.309 40.3561 115.926C40.9254 115.534 41.7794 115.319 42.9181 115.282L44.2481 115.24V114.904C44.2481 114.503 44.1407 114.209 43.9261 114.022C43.7207 113.835 43.4314 113.742 43.0581 113.742C42.6847 113.742 42.3207 113.798 41.9661 113.91C41.6114 114.013 41.2567 114.143 40.9021 114.302L40.2161 112.888C40.6267 112.673 41.0794 112.505 41.5741 112.384C42.0781 112.263 42.6007 112.202 43.1421 112.202ZM43.4361 116.486C42.7641 116.505 42.2974 116.626 42.0361 116.85C41.7747 117.074 41.6441 117.368 41.6441 117.732C41.6441 118.049 41.7374 118.278 41.9241 118.418C42.1107 118.549 42.3534 118.614 42.6521 118.614C43.1001 118.614 43.4781 118.483 43.7861 118.222C44.0941 117.951 44.2481 117.573 44.2481 117.088V116.458L43.4361 116.486ZM52.7253 112.216C52.8279 112.216 52.9493 112.221 53.0893 112.23C53.2293 112.239 53.3413 112.253 53.4253 112.272L53.2713 114.232C53.2059 114.213 53.1079 114.199 52.9773 114.19C52.8559 114.171 52.7486 114.162 52.6553 114.162C52.3006 114.162 51.9599 114.227 51.6333 114.358C51.3066 114.479 51.0406 114.68 50.8353 114.96C50.6393 115.24 50.5413 115.623 50.5413 116.108V120H48.4553V112.356H50.0373L50.3453 113.644H50.4433C50.6673 113.252 50.9753 112.916 51.3673 112.636C51.7593 112.356 52.2119 112.216 52.7253 112.216ZM56.9613 120.14C56.1119 120.14 55.4166 119.809 54.8753 119.146C54.3433 118.474 54.0773 117.489 54.0773 116.192C54.0773 114.885 54.3479 113.896 54.8893 113.224C55.4306 112.552 56.1399 112.216 57.0173 112.216C57.5679 112.216 58.0206 112.323 58.3753 112.538C58.7299 112.753 59.0099 113.019 59.2153 113.336H59.2853C59.2573 113.187 59.2246 112.972 59.1873 112.692C59.1499 112.403 59.1313 112.109 59.1313 111.81V109.36H61.2173V120H59.6213L59.2153 119.006H59.1313C58.9259 119.323 58.6506 119.594 58.3053 119.818C57.9599 120.033 57.5119 120.14 56.9613 120.14ZM57.6893 118.474C58.2679 118.474 58.6739 118.306 58.9073 117.97C59.1406 117.625 59.2619 117.111 59.2713 116.43V116.206C59.2713 115.459 59.1546 114.89 58.9213 114.498C58.6973 114.106 58.2773 113.91 57.6613 113.91C57.2039 113.91 56.8446 114.111 56.5833 114.512C56.3219 114.904 56.1913 115.473 56.1913 116.22C56.1913 116.967 56.3219 117.531 56.5833 117.914C56.8446 118.287 57.2133 118.474 57.6893 118.474ZM65.4846 111.53C65.4846 111.903 65.4706 112.263 65.4426 112.608C65.424 112.953 65.4053 113.196 65.3866 113.336H65.4986C65.7413 112.944 66.054 112.659 66.4366 112.482C66.8193 112.305 67.244 112.216 67.7106 112.216C68.5413 112.216 69.204 112.44 69.6986 112.888C70.2026 113.327 70.4546 114.036 70.4546 115.016V120H68.3686V115.534C68.3686 114.433 67.958 113.882 67.1366 113.882C66.5113 113.882 66.0773 114.101 65.8346 114.54C65.6013 114.969 65.4846 115.59 65.4846 116.402V120H63.3986V109.36H65.4846V111.53ZM79.5438 116.164C79.5438 117.433 79.2078 118.413 78.5358 119.104C77.8731 119.795 76.9678 120.14 75.8198 120.14C75.1105 120.14 74.4758 119.986 73.9158 119.678C73.3651 119.37 72.9311 118.922 72.6138 118.334C72.2965 117.737 72.1378 117.013 72.1378 116.164C72.1378 114.895 72.4691 113.919 73.1318 113.238C73.7945 112.557 74.7045 112.216 75.8618 112.216C76.5805 112.216 77.2151 112.37 77.7658 112.678C78.3165 112.986 78.7505 113.434 79.0678 114.022C79.3851 114.601 79.5438 115.315 79.5438 116.164ZM74.2658 116.164C74.2658 116.92 74.3871 117.494 74.6298 117.886C74.8818 118.269 75.2878 118.46 75.8478 118.46C76.3985 118.46 76.7951 118.269 77.0378 117.886C77.2898 117.494 77.4158 116.92 77.4158 116.164C77.4158 115.408 77.2898 114.843 77.0378 114.47C76.7951 114.087 76.3938 113.896 75.8338 113.896C75.2831 113.896 74.8818 114.087 74.6298 114.47C74.3871 114.843 74.2658 115.408 74.2658 116.164ZM83.3538 120H81.2678V109.36H83.3538V120ZM87.9554 120.14C87.1061 120.14 86.4107 119.809 85.8694 119.146C85.3374 118.474 85.0714 117.489 85.0714 116.192C85.0714 114.885 85.3421 113.896 85.8834 113.224C86.4247 112.552 87.1341 112.216 88.0114 112.216C88.5621 112.216 89.0147 112.323 89.3694 112.538C89.7241 112.753 90.0041 113.019 90.2094 113.336H90.2794C90.2514 113.187 90.2187 112.972 90.1814 112.692C90.1441 112.403 90.1254 112.109 90.1254 111.81V109.36H92.2114V120H90.6154L90.2094 119.006H90.1254C89.9201 119.323 89.6447 119.594 89.2994 119.818C88.9541 120.033 88.5061 120.14 87.9554 120.14ZM88.6834 118.474C89.2621 118.474 89.6681 118.306 89.9014 117.97C90.1347 117.625 90.2561 117.111 90.2654 116.43V116.206C90.2654 115.459 90.1487 114.89 89.9154 114.498C89.6914 114.106 89.2714 113.91 88.6554 113.91C88.1981 113.91 87.8387 114.111 87.5774 114.512C87.3161 114.904 87.1854 115.473 87.1854 116.22C87.1854 116.967 87.3161 117.531 87.5774 117.914C87.8387 118.287 88.2074 118.474 88.6834 118.474ZM97.5428 112.216C98.5974 112.216 99.4328 112.519 100.049 113.126C100.665 113.723 100.973 114.577 100.973 115.688V116.696H96.0448C96.0634 117.284 96.2361 117.746 96.5628 118.082C96.8988 118.418 97.3608 118.586 97.9488 118.586C98.4434 118.586 98.8914 118.539 99.2928 118.446C99.6941 118.343 100.109 118.189 100.539 117.984V119.594C100.165 119.781 99.7688 119.916 99.3488 120C98.9381 120.093 98.4388 120.14 97.8508 120.14C97.0854 120.14 96.4088 120 95.8208 119.72C95.2328 119.431 94.7708 118.997 94.4348 118.418C94.0988 117.839 93.9308 117.111 93.9308 116.234C93.9308 115.338 94.0801 114.596 94.3788 114.008C94.6868 113.411 95.1114 112.963 95.6528 112.664C96.1941 112.365 96.8241 112.216 97.5428 112.216ZM97.5568 113.7C97.1554 113.7 96.8194 113.831 96.5488 114.092C96.2874 114.353 96.1334 114.759 96.0868 115.31H99.0128C99.0034 114.843 98.8821 114.461 98.6488 114.162C98.4154 113.854 98.0514 113.7 97.5568 113.7ZM106.934 112.216C107.037 112.216 107.158 112.221 107.298 112.23C107.438 112.239 107.55 112.253 107.634 112.272L107.48 114.232C107.415 114.213 107.317 114.199 107.186 114.19C107.065 114.171 106.958 114.162 106.864 114.162C106.51 114.162 106.169 114.227 105.842 114.358C105.516 114.479 105.25 114.68 105.044 114.96C104.848 115.24 104.75 115.623 104.75 116.108V120H102.664V112.356H104.246L104.554 113.644H104.652C104.876 113.252 105.184 112.916 105.576 112.636C105.968 112.356 106.421 112.216 106.934 112.216ZM121.688 120H119L114.646 112.44H114.59C114.609 112.916 114.628 113.392 114.646 113.868C114.674 114.344 114.698 114.82 114.716 115.296V120H112.826V110.004H115.5L119.84 117.494H119.882C119.873 117.027 119.859 116.565 119.84 116.108C119.822 115.651 119.803 115.193 119.784 114.736V110.004H121.688V120ZM127.183 112.202C128.21 112.202 128.994 112.426 129.535 112.874C130.086 113.313 130.361 113.989 130.361 114.904V120H128.905L128.499 118.964H128.443C128.116 119.375 127.771 119.673 127.407 119.86C127.043 120.047 126.544 120.14 125.909 120.14C125.228 120.14 124.663 119.944 124.215 119.552C123.767 119.151 123.543 118.539 123.543 117.718C123.543 116.906 123.828 116.309 124.397 115.926C124.966 115.534 125.82 115.319 126.959 115.282L128.289 115.24V114.904C128.289 114.503 128.182 114.209 127.967 114.022C127.762 113.835 127.472 113.742 127.099 113.742C126.726 113.742 126.362 113.798 126.007 113.91C125.652 114.013 125.298 114.143 124.943 114.302L124.257 112.888C124.668 112.673 125.12 112.505 125.615 112.384C126.119 112.263 126.642 112.202 127.183 112.202ZM127.477 116.486C126.805 116.505 126.338 116.626 126.077 116.85C125.816 117.074 125.685 117.368 125.685 117.732C125.685 118.049 125.778 118.278 125.965 118.418C126.152 118.549 126.394 118.614 126.693 118.614C127.141 118.614 127.519 118.483 127.827 118.222C128.135 117.951 128.289 117.573 128.289 117.088V116.458L127.477 116.486ZM141.47 112.216C142.338 112.216 142.992 112.44 143.43 112.888C143.878 113.327 144.102 114.036 144.102 115.016V120H142.016V115.534C142.016 114.433 141.634 113.882 140.868 113.882C140.318 113.882 139.926 114.078 139.692 114.47C139.459 114.862 139.342 115.427 139.342 116.164V120H137.256V115.534C137.256 114.433 136.874 113.882 136.108 113.882C135.53 113.882 135.128 114.101 134.904 114.54C134.69 114.969 134.582 115.59 134.582 116.402V120H132.496V112.356H134.092L134.372 113.336H134.484C134.718 112.944 135.035 112.659 135.436 112.482C135.847 112.305 136.272 112.216 136.71 112.216C137.27 112.216 137.746 112.309 138.138 112.496C138.53 112.673 138.829 112.953 139.034 113.336H139.216C139.45 112.944 139.772 112.659 140.182 112.482C140.602 112.305 141.032 112.216 141.47 112.216ZM149.4 112.216C150.455 112.216 151.29 112.519 151.906 113.126C152.522 113.723 152.83 114.577 152.83 115.688V116.696H147.902C147.921 117.284 148.094 117.746 148.42 118.082C148.756 118.418 149.218 118.586 149.806 118.586C150.301 118.586 150.749 118.539 151.15 118.446C151.552 118.343 151.967 118.189 152.396 117.984V119.594C152.023 119.781 151.626 119.916 151.206 120C150.796 120.093 150.296 120.14 149.708 120.14C148.943 120.14 148.266 120 147.678 119.72C147.09 119.431 146.628 118.997 146.292 118.418C145.956 117.839 145.788 117.111 145.788 116.234C145.788 115.338 145.938 114.596 146.236 114.008C146.544 113.411 146.969 112.963 147.51 112.664C148.052 112.365 148.682 112.216 149.4 112.216ZM149.414 113.7C149.013 113.7 148.677 113.831 148.406 114.092C148.145 114.353 147.991 114.759 147.944 115.31H150.87C150.861 114.843 150.74 114.461 150.506 114.162C150.273 113.854 149.909 113.7 149.414 113.7Z" fill="white"/>
<path d="M35.502 185.628C34.69 185.628 34.0693 185.931 33.64 186.538C33.2107 187.145 32.996 187.975 32.996 189.03C32.996 190.094 33.192 190.92 33.584 191.508C33.9853 192.087 34.6247 192.376 35.502 192.376C35.9127 192.376 36.3187 192.329 36.72 192.236C37.1307 192.143 37.574 192.012 38.05 191.844V193.622C37.6113 193.799 37.1773 193.93 36.748 194.014C36.3187 194.098 35.838 194.14 35.306 194.14C34.2793 194.14 33.43 193.93 32.758 193.51C32.0953 193.081 31.6053 192.483 31.288 191.718C30.9707 190.943 30.812 190.043 30.812 189.016C30.812 188.008 30.994 187.117 31.358 186.342C31.722 185.567 32.2493 184.961 32.94 184.522C33.64 184.083 34.494 183.864 35.502 183.864C35.9967 183.864 36.4913 183.929 36.986 184.06C37.49 184.181 37.9707 184.349 38.428 184.564L37.742 186.286C37.3687 186.109 36.9907 185.955 36.608 185.824C36.2347 185.693 35.866 185.628 35.502 185.628ZM43.1421 186.202C44.1687 186.202 44.9527 186.426 45.4941 186.874C46.0447 187.313 46.3201 187.989 46.3201 188.904V194H44.8641L44.4581 192.964H44.4021C44.0754 193.375 43.7301 193.673 43.3661 193.86C43.0021 194.047 42.5027 194.14 41.8681 194.14C41.1867 194.14 40.6221 193.944 40.1741 193.552C39.7261 193.151 39.5021 192.539 39.5021 191.718C39.5021 190.906 39.7867 190.309 40.3561 189.926C40.9254 189.534 41.7794 189.319 42.9181 189.282L44.2481 189.24V188.904C44.2481 188.503 44.1407 188.209 43.9261 188.022C43.7207 187.835 43.4314 187.742 43.0581 187.742C42.6847 187.742 42.3207 187.798 41.9661 187.91C41.6114 188.013 41.2567 188.143 40.9021 188.302L40.2161 186.888C40.6267 186.673 41.0794 186.505 41.5741 186.384C42.0781 186.263 42.6007 186.202 43.1421 186.202ZM43.4361 190.486C42.7641 190.505 42.2974 190.626 42.0361 190.85C41.7747 191.074 41.6441 191.368 41.6441 191.732C41.6441 192.049 41.7374 192.278 41.9241 192.418C42.1107 192.549 42.3534 192.614 42.6521 192.614C43.1001 192.614 43.4781 192.483 43.7861 192.222C44.0941 191.951 44.2481 191.573 44.2481 191.088V190.458L43.4361 190.486ZM52.7253 186.216C52.8279 186.216 52.9493 186.221 53.0893 186.23C53.2293 186.239 53.3413 186.253 53.4253 186.272L53.2713 188.232C53.2059 188.213 53.1079 188.199 52.9773 188.19C52.8559 188.171 52.7486 188.162 52.6553 188.162C52.3006 188.162 51.9599 188.227 51.6333 188.358C51.3066 188.479 51.0406 188.68 50.8353 188.96C50.6393 189.24 50.5413 189.623 50.5413 190.108V194H48.4553V186.356H50.0373L50.3453 187.644H50.4433C50.6673 187.252 50.9753 186.916 51.3673 186.636C51.7593 186.356 52.2119 186.216 52.7253 186.216ZM56.9613 194.14C56.1119 194.14 55.4166 193.809 54.8753 193.146C54.3433 192.474 54.0773 191.489 54.0773 190.192C54.0773 188.885 54.3479 187.896 54.8893 187.224C55.4306 186.552 56.1399 186.216 57.0173 186.216C57.5679 186.216 58.0206 186.323 58.3753 186.538C58.7299 186.753 59.0099 187.019 59.2153 187.336H59.2853C59.2573 187.187 59.2246 186.972 59.1873 186.692C59.1499 186.403 59.1313 186.109 59.1313 185.81V183.36H61.2173V194H59.6213L59.2153 193.006H59.1313C58.9259 193.323 58.6506 193.594 58.3053 193.818C57.9599 194.033 57.5119 194.14 56.9613 194.14ZM57.6893 192.474C58.2679 192.474 58.6739 192.306 58.9073 191.97C59.1406 191.625 59.2619 191.111 59.2713 190.43V190.206C59.2713 189.459 59.1546 188.89 58.9213 188.498C58.6973 188.106 58.2773 187.91 57.6613 187.91C57.2039 187.91 56.8446 188.111 56.5833 188.512C56.3219 188.904 56.1913 189.473 56.1913 190.22C56.1913 190.967 56.3219 191.531 56.5833 191.914C56.8446 192.287 57.2133 192.474 57.6893 192.474ZM76.0654 194H73.3774L69.0234 186.44H68.9674C68.986 186.916 69.0047 187.392 69.0234 187.868C69.0514 188.344 69.0747 188.82 69.0934 189.296V194H67.2034V184.004H69.8774L74.2174 191.494H74.2594C74.25 191.027 74.236 190.565 74.2174 190.108C74.1987 189.651 74.18 189.193 74.1614 188.736V184.004H76.0654V194ZM85.438 186.356V194H83.842L83.562 193.02H83.45C83.2074 193.412 82.8714 193.697 82.442 193.874C82.022 194.051 81.574 194.14 81.098 194.14C80.2767 194.14 79.6187 193.921 79.124 193.482C78.6294 193.034 78.382 192.32 78.382 191.34V186.356H80.468V190.822C80.468 191.363 80.566 191.774 80.762 192.054C80.958 192.334 81.2707 192.474 81.7 192.474C82.3347 192.474 82.7687 192.259 83.002 191.83C83.2354 191.391 83.352 190.766 83.352 189.954V186.356H85.438ZM96.5992 186.216C97.4672 186.216 98.1205 186.44 98.5592 186.888C99.0072 187.327 99.2312 188.036 99.2312 189.016V194H97.1452V189.534C97.1452 188.433 96.7625 187.882 95.9972 187.882C95.4465 187.882 95.0545 188.078 94.8212 188.47C94.5879 188.862 94.4712 189.427 94.4712 190.164V194H92.3852V189.534C92.3852 188.433 92.0025 187.882 91.2372 187.882C90.6585 187.882 90.2572 188.101 90.0332 188.54C89.8185 188.969 89.7112 189.59 89.7112 190.402V194H87.6252V186.356H89.2212L89.5012 187.336H89.6132C89.8465 186.944 90.1639 186.659 90.5652 186.482C90.9759 186.305 91.4005 186.216 91.8392 186.216C92.3992 186.216 92.8752 186.309 93.2672 186.496C93.6592 186.673 93.9579 186.953 94.1632 187.336H94.3452C94.5785 186.944 94.9005 186.659 95.3112 186.482C95.7312 186.305 96.1605 186.216 96.5992 186.216ZM103.465 185.838C103.465 186.127 103.456 186.412 103.437 186.692C103.418 186.972 103.4 187.191 103.381 187.35H103.465C103.67 187.033 103.946 186.767 104.291 186.552C104.636 186.328 105.084 186.216 105.635 186.216C106.494 186.216 107.189 186.552 107.721 187.224C108.253 187.887 108.519 188.867 108.519 190.164C108.519 191.471 108.248 192.46 107.707 193.132C107.166 193.804 106.456 194.14 105.579 194.14C105.019 194.14 104.576 194.042 104.249 193.846C103.932 193.641 103.67 193.412 103.465 193.16H103.325L102.975 194H101.379V183.36H103.465V185.838ZM104.963 187.882C104.422 187.882 104.039 188.05 103.815 188.386C103.6 188.722 103.484 189.235 103.465 189.926V190.15C103.465 190.887 103.572 191.457 103.787 191.858C104.011 192.25 104.412 192.446 104.991 192.446C105.42 192.446 105.761 192.25 106.013 191.858C106.265 191.457 106.391 190.883 106.391 190.136C106.391 189.389 106.26 188.829 105.999 188.456C105.747 188.073 105.402 187.882 104.963 187.882ZM113.388 186.216C114.443 186.216 115.278 186.519 115.894 187.126C116.51 187.723 116.818 188.577 116.818 189.688V190.696H111.89C111.909 191.284 112.082 191.746 112.408 192.082C112.744 192.418 113.206 192.586 113.794 192.586C114.289 192.586 114.737 192.539 115.138 192.446C115.54 192.343 115.955 192.189 116.384 191.984V193.594C116.011 193.781 115.614 193.916 115.194 194C114.784 194.093 114.284 194.14 113.696 194.14C112.931 194.14 112.254 194 111.666 193.72C111.078 193.431 110.616 192.997 110.28 192.418C109.944 191.839 109.776 191.111 109.776 190.234C109.776 189.338 109.926 188.596 110.224 188.008C110.532 187.411 110.957 186.963 111.498 186.664C112.04 186.365 112.67 186.216 113.388 186.216ZM113.402 187.7C113.001 187.7 112.665 187.831 112.394 188.092C112.133 188.353 111.979 188.759 111.932 189.31H114.858C114.849 188.843 114.728 188.461 114.494 188.162C114.261 187.854 113.897 187.7 113.402 187.7ZM122.78 186.216C122.883 186.216 123.004 186.221 123.144 186.23C123.284 186.239 123.396 186.253 123.48 186.272L123.326 188.232C123.261 188.213 123.163 188.199 123.032 188.19C122.911 188.171 122.803 188.162 122.71 188.162C122.355 188.162 122.015 188.227 121.688 188.358C121.361 188.479 121.095 188.68 120.89 188.96C120.694 189.24 120.596 189.623 120.596 190.108V194H118.51V186.356H120.092L120.4 187.644H120.498C120.722 187.252 121.03 186.916 121.422 186.636C121.814 186.356 122.267 186.216 122.78 186.216Z" fill="white"/>
<path d="M39.1 258.004L35.698 268H33.388L30 258.004H32.142L34.018 263.954C34.0553 264.057 34.1067 264.248 34.172 264.528C34.2467 264.799 34.3213 265.088 34.396 265.396C34.4707 265.695 34.522 265.947 34.55 266.152C34.578 265.947 34.6247 265.695 34.69 265.396C34.7647 265.088 34.8393 264.799 34.914 264.528C34.9887 264.248 35.04 264.057 35.068 263.954L36.958 258.004H39.1ZM43.06 260.202C44.0867 260.202 44.8707 260.426 45.412 260.874C45.9627 261.313 46.238 261.989 46.238 262.904V268H44.782L44.376 266.964H44.32C43.9934 267.375 43.648 267.673 43.284 267.86C42.92 268.047 42.4207 268.14 41.786 268.14C41.1047 268.14 40.54 267.944 40.092 267.552C39.644 267.151 39.42 266.539 39.42 265.718C39.42 264.906 39.7047 264.309 40.274 263.926C40.8434 263.534 41.6974 263.319 42.836 263.282L44.166 263.24V262.904C44.166 262.503 44.0587 262.209 43.844 262.022C43.6387 261.835 43.3494 261.742 42.976 261.742C42.6027 261.742 42.2387 261.798 41.884 261.91C41.5294 262.013 41.1747 262.143 40.82 262.302L40.134 260.888C40.5447 260.673 40.9974 260.505 41.492 260.384C41.996 260.263 42.5187 260.202 43.06 260.202ZM43.354 264.486C42.682 264.505 42.2154 264.626 41.954 264.85C41.6927 265.074 41.562 265.368 41.562 265.732C41.562 266.049 41.6554 266.278 41.842 266.418C42.0287 266.549 42.2714 266.614 42.57 266.614C43.018 266.614 43.396 266.483 43.704 266.222C44.012 265.951 44.166 265.573 44.166 265.088V264.458L43.354 264.486ZM50.4593 268H48.3733V257.36H50.4593V268ZM53.6889 257.36C53.9969 257.36 54.2629 257.435 54.4869 257.584C54.7109 257.724 54.8229 257.99 54.8229 258.382C54.8229 258.765 54.7109 259.031 54.4869 259.18C54.2629 259.329 53.9969 259.404 53.6889 259.404C53.3715 259.404 53.1009 259.329 52.8769 259.18C52.6622 259.031 52.5549 258.765 52.5549 258.382C52.5549 257.99 52.6622 257.724 52.8769 257.584C53.1009 257.435 53.3715 257.36 53.6889 257.36ZM54.7249 260.356V268H52.6389V260.356H54.7249ZM59.3265 268.14C58.4772 268.14 57.7818 267.809 57.2405 267.146C56.7085 266.474 56.4425 265.489 56.4425 264.192C56.4425 262.885 56.7132 261.896 57.2545 261.224C57.7958 260.552 58.5052 260.216 59.3825 260.216C59.9332 260.216 60.3858 260.323 60.7405 260.538C61.0952 260.753 61.3752 261.019 61.5805 261.336H61.6505C61.6225 261.187 61.5898 260.972 61.5525 260.692C61.5152 260.403 61.4965 260.109 61.4965 259.81V257.36H63.5825V268H61.9865L61.5805 267.006H61.4965C61.2912 267.323 61.0158 267.594 60.6705 267.818C60.3252 268.033 59.8772 268.14 59.3265 268.14ZM60.0545 266.474C60.6332 266.474 61.0392 266.306 61.2725 265.97C61.5058 265.625 61.6272 265.111 61.6365 264.43V264.206C61.6365 263.459 61.5198 262.89 61.2865 262.498C61.0625 262.106 60.6425 261.91 60.0265 261.91C59.5692 261.91 59.2098 262.111 58.9485 262.512C58.6872 262.904 58.5565 263.473 58.5565 264.22C58.5565 264.967 58.6872 265.531 58.9485 265.914C59.2098 266.287 59.5785 266.474 60.0545 266.474ZM73.4186 268H71.3046V259.768H68.5886V258.004H76.1346V259.768H73.4186V268ZM78.558 257.36C78.866 257.36 79.132 257.435 79.356 257.584C79.58 257.724 79.692 257.99 79.692 258.382C79.692 258.765 79.58 259.031 79.356 259.18C79.132 259.329 78.866 259.404 78.558 259.404C78.2407 259.404 77.97 259.329 77.746 259.18C77.5313 259.031 77.424 258.765 77.424 258.382C77.424 257.99 77.5313 257.724 77.746 257.584C77.97 257.435 78.2407 257.36 78.558 257.36ZM79.594 260.356V268H77.508V260.356H79.594ZM83.8596 268H81.7736V257.36H83.8596V268ZM88.1253 268H86.0393V257.36H88.1253V268Z" fill="white"/>
<path d="M35.502 333.628C34.69 333.628 34.0693 333.931 33.64 334.538C33.2107 335.145 32.996 335.975 32.996 337.03C32.996 338.094 33.192 338.92 33.584 339.508C33.9853 340.087 34.6247 340.376 35.502 340.376C35.9127 340.376 36.3187 340.329 36.72 340.236C37.1307 340.143 37.574 340.012 38.05 339.844V341.622C37.6113 341.799 37.1773 341.93 36.748 342.014C36.3187 342.098 35.838 342.14 35.306 342.14C34.2793 342.14 33.43 341.93 32.758 341.51C32.0953 341.081 31.6053 340.483 31.288 339.718C30.9707 338.943 30.812 338.043 30.812 337.016C30.812 336.008 30.994 335.117 31.358 334.342C31.722 333.567 32.2493 332.961 32.94 332.522C33.64 332.083 34.494 331.864 35.502 331.864C35.9967 331.864 36.4913 331.929 36.986 332.06C37.49 332.181 37.9707 332.349 38.428 332.564L37.742 334.286C37.3687 334.109 36.9907 333.955 36.608 333.824C36.2347 333.693 35.866 333.628 35.502 333.628ZM48.0141 332.004L44.6121 342H42.3021L38.9141 332.004H41.0561L42.9321 337.954C42.9694 338.057 43.0207 338.248 43.0861 338.528C43.1607 338.799 43.2354 339.088 43.3101 339.396C43.3847 339.695 43.4361 339.947 43.4641 340.152C43.4921 339.947 43.5387 339.695 43.6041 339.396C43.6787 339.088 43.7534 338.799 43.8281 338.528C43.9027 338.248 43.9541 338.057 43.9821 337.954L45.8721 332.004H48.0141ZM57.1195 332.004L53.7175 342H51.4075L48.0195 332.004H50.1615L52.0375 337.954C52.0749 338.057 52.1262 338.248 52.1915 338.528C52.2662 338.799 52.3409 339.088 52.4155 339.396C52.4902 339.695 52.5415 339.947 52.5695 340.152C52.5975 339.947 52.6442 339.695 52.7095 339.396C52.7842 339.088 52.8589 338.799 52.9335 338.528C53.0082 338.248 53.0595 338.057 53.0875 337.954L54.9775 332.004H57.1195Z" fill="white"/>
<path d="M207.584 313.341C207.584 304.893 210.708 300.669 216.956 300.669C218.98 300.669 220.681 301.211 222.06 302.297C223.439 303.353 224.524 304.687 225.316 306.301L239 297.105V305.509L227.208 312.593V315.541H239V323.021H207.584V313.341ZM213.48 313.649V315.541H221.356V313.649C221.356 311.859 221.033 310.525 220.388 309.645C219.713 308.735 218.657 308.281 217.22 308.281C215.959 308.281 215.02 308.706 214.404 309.557C213.788 310.407 213.48 311.771 213.48 313.649ZM214.404 283.73C214.404 280.328 215.343 277.629 217.22 275.634C219.068 273.64 221.796 272.642 225.404 272.642H228.836V287.91C230.42 287.852 231.681 287.338 232.62 286.37C233.559 285.402 234.028 284.024 234.028 282.234C234.028 280.709 233.881 279.316 233.588 278.054C233.295 276.764 232.825 275.444 232.18 274.094H237.68C238.296 275.297 238.736 276.573 239 277.922C239.293 279.242 239.44 280.885 239.44 282.85C239.44 285.285 239 287.456 238.12 289.362C237.24 291.24 235.891 292.721 234.072 293.806C232.224 294.862 229.892 295.39 227.076 295.39C224.231 295.39 221.869 294.906 219.992 293.938C218.115 292.97 216.721 291.621 215.812 289.89C214.873 288.13 214.404 286.077 214.404 283.73ZM219.552 283.598C219.552 284.742 219.919 285.696 220.652 286.458C221.356 287.192 222.485 287.632 224.04 287.778V279.462C222.779 279.492 221.723 279.844 220.872 280.518C219.992 281.193 219.552 282.22 219.552 283.598ZM213.26 260.21C214.14 260.21 215.005 260.24 215.856 260.298C216.677 260.357 217.381 260.43 217.968 260.518V260.21C216.971 259.594 216.135 258.758 215.46 257.702C214.756 256.646 214.404 255.268 214.404 253.566C214.404 250.956 215.46 248.829 217.572 247.186C219.684 245.514 222.779 244.678 226.856 244.678C230.992 244.678 234.131 245.529 236.272 247.23C238.384 248.902 239.44 251.088 239.44 253.786C239.44 255.517 239.132 256.866 238.516 257.834C237.9 258.802 237.225 259.594 236.492 260.21V260.694L239 261.882V267.646H205.56V260.21H213.26ZM220.256 256.118C220.256 257.585 220.74 258.626 221.708 259.242C222.647 259.858 224.099 260.181 226.064 260.21H226.988C229.1 260.21 230.713 259.917 231.828 259.33C232.913 258.714 233.456 257.614 233.456 256.03C233.456 254.857 232.884 253.933 231.74 253.258C230.596 252.584 228.939 252.246 226.768 252.246C222.427 252.246 220.256 253.537 220.256 256.118ZM214.404 229.16C214.404 225.757 215.343 223.059 217.22 221.064C219.068 219.069 221.796 218.072 225.404 218.072H228.836V233.34C230.42 233.281 231.681 232.768 232.62 231.8C233.559 230.832 234.028 229.453 234.028 227.664C234.028 226.139 233.881 224.745 233.588 223.484C233.295 222.193 232.825 220.873 232.18 219.524H237.68C238.296 220.727 238.736 222.003 239 223.352C239.293 224.672 239.44 226.315 239.44 228.28C239.44 230.715 239 232.885 238.12 234.792C237.24 236.669 235.891 238.151 234.072 239.236C232.224 240.292 229.892 240.82 227.076 240.82C224.231 240.82 221.869 240.336 219.992 239.368C218.115 238.4 216.721 237.051 215.812 235.32C214.873 233.56 214.404 231.507 214.404 229.16ZM219.552 229.028C219.552 230.172 219.919 231.125 220.652 231.888C221.356 232.621 222.485 233.061 224.04 233.208V224.892C222.779 224.921 221.723 225.273 220.872 225.948C219.992 226.623 219.552 227.649 219.552 229.028ZM239 205.64V213.076H205.56V205.64H239ZM213.348 173.685C213.348 175.973 214.243 177.748 216.032 179.009C217.821 180.271 220.271 180.901 223.38 180.901C226.577 180.901 229.027 180.3 230.728 179.097C232.4 177.895 233.236 176.017 233.236 173.465C233.236 172.145 233.075 170.84 232.752 169.549C232.4 168.259 231.96 166.895 231.432 165.457H237.768C238.355 166.865 238.78 168.273 239.044 169.681C239.308 171.06 239.44 172.571 239.44 174.213C239.44 177.557 238.765 180.285 237.416 182.397C236.067 184.509 234.189 186.079 231.784 187.105C229.379 188.103 226.563 188.601 223.336 188.601C220.168 188.601 217.367 188.029 214.932 186.885C212.497 185.741 210.591 184.055 209.212 181.825C207.833 179.596 207.144 176.868 207.144 173.641C207.144 172.116 207.335 170.547 207.716 168.933C208.068 167.291 208.611 165.721 209.344 164.225L215.328 166.557C214.8 167.731 214.345 168.904 213.964 170.077C213.553 171.251 213.348 172.453 213.348 173.685ZM214.36 148.756C214.36 145.617 215.093 143.183 216.56 141.452C218.027 139.721 220.168 138.856 222.984 138.856H239V144.004L235.744 145.456V145.632C237.064 146.659 238.017 147.744 238.604 148.888C239.161 150.032 239.44 151.601 239.44 153.596C239.44 155.737 238.809 157.512 237.548 158.92C236.287 160.328 234.336 161.032 231.696 161.032C229.144 161.032 227.252 160.137 226.02 158.348C224.759 156.529 224.055 153.875 223.908 150.384L223.776 146.248H223.072C221.899 146.248 221.048 146.556 220.52 147.172C219.992 147.759 219.728 148.58 219.728 149.636C219.728 150.692 219.904 151.792 220.256 152.936C220.579 154.08 220.989 155.239 221.488 156.412L216.56 158.656C215.856 157.336 215.313 155.84 214.932 154.168C214.551 152.496 214.36 150.692 214.36 148.756ZM228.088 148.492C228.147 150.34 228.484 151.631 229.1 152.364C229.687 153.097 230.493 153.464 231.52 153.464C232.429 153.464 233.089 153.2 233.5 152.672C233.911 152.144 234.116 151.469 234.116 150.648C234.116 149.416 233.749 148.375 233.016 147.524C232.253 146.673 231.227 146.248 229.936 146.248H228L228.088 148.492ZM214.404 118.56C214.404 118.178 214.433 117.753 214.492 117.284C214.521 116.814 214.565 116.448 214.624 116.184L221.576 116.8C221.517 117.064 221.473 117.401 221.444 117.812C221.385 118.222 221.356 118.677 221.356 119.176C221.356 120.114 221.503 121.053 221.796 121.992C222.089 122.901 222.647 123.664 223.468 124.28C224.26 124.866 225.404 125.16 226.9 125.16H239V132.596H214.844V127.008L218.804 125.864V125.556C217.601 124.852 216.575 123.884 215.724 122.652C214.844 121.42 214.404 120.056 214.404 118.56ZM239.44 105.562C239.44 108.172 238.384 110.299 236.272 111.942C234.16 113.584 231.051 114.406 226.944 114.406C222.808 114.406 219.684 113.57 217.572 111.898C215.46 110.226 214.404 108.04 214.404 105.342C214.404 103.64 214.741 102.262 215.416 101.206C216.091 100.15 216.927 99.2991 217.924 98.6538V98.4778C217.396 98.5658 216.648 98.6685 215.68 98.7858C214.683 98.8738 213.7 98.9178 212.732 98.9178H205.56V91.4818H239V97.1138L235.876 98.6098V98.9178C236.873 99.5338 237.724 100.37 238.428 101.426C239.103 102.482 239.44 103.86 239.44 105.562ZM233.544 102.746C233.544 101.162 233.06 100.047 232.092 99.4018C231.124 98.7271 229.657 98.3751 227.692 98.3458H227.032C224.891 98.3458 223.248 98.6685 222.104 99.3138C220.96 99.9298 220.388 101.103 220.388 102.834C220.388 104.095 220.945 105.092 222.06 105.826C223.175 106.559 224.847 106.926 227.076 106.926C229.276 106.926 230.904 106.559 231.96 105.826C233.016 105.063 233.544 104.036 233.544 102.746Z" fill="white" fill-opacity="0.5"/>
</g>
<defs>
<linearGradient id="paint0_linear" x1="60" y1="69" x2="151" y2="363.5" gradientUnits="userSpaceOnUse">
<stop stop-color="#F3004B"/>
<stop offset="1" stop-color="#F7004C" stop-opacity="0"/>
</linearGradient>
<linearGradient id="paint1_linear" x1="255.5" y1="380.5" x2="164.5" y2="86" gradientUnits="userSpaceOnUse">
<stop stop-color="#F3004B"/>
<stop offset="1" stop-color="#F7004C" stop-opacity="0"/>
</linearGradient>
<clipPath id="clip0">
<rect width="260" height="415" rx="12" fill="white"/>
</clipPath>
</defs>
</svg>
