<svg width="506" height="382" viewBox="0 0 506 382" fill="none" xmlns="http://www.w3.org/2000/svg">
<path opacity="0.124721" fill-rule="evenodd" clip-rule="evenodd" d="M37.3827 295.792L313.37 310.27L484.169 181.645L242.111 172.445L37.3827 295.792Z" fill="url(#paint0_linear)"/>
<path fill-rule="evenodd" clip-rule="evenodd" d="M35.1405 287.834L311.127 302.311L481.927 173.687L239.868 164.487L35.1405 287.834Z" fill="url(#paint1_linear)"/>
<path d="M0.958984 13.6212C0.958984 6.0984 7.05738 0 14.5801 0H428.323C435.846 0 441.944 6.0984 441.944 13.6212V236.668C441.944 244.19 435.846 250.289 428.323 250.289H14.5801C7.05738 250.289 0.958984 244.19 0.958984 236.668V13.6212Z" fill="url(#paint2_linear)"/>
<mask id="mask0" mask-type="alpha" maskUnits="userSpaceOnUse" x="0" y="0" width="442" height="251">
<path d="M0.958984 13.6212C0.958984 6.0984 7.05738 0 14.5801 0H428.323C435.846 0 441.944 6.0984 441.944 13.6212V236.668C441.944 244.19 435.846 250.289 428.323 250.289H14.5801C7.05738 250.289 0.958984 244.19 0.958984 236.668V13.6212Z" fill="white"/>
</mask>
<g mask="url(#mask0)">
<g style="mix-blend-mode:overlay" opacity="0.254699">
<path d="M87.2051 378.361L588.439 128.794L767.148 395.736L265.914 645.303L87.2051 378.361Z" fill="white"/>
</g>
<g style="mix-blend-mode:overlay" opacity="0.254699">
<path d="M38.4688 315.312L539.702 65.7453L718.412 332.687L217.178 582.254L38.4688 315.312Z" fill="white"/>
</g>
<g style="mix-blend-mode:overlay" opacity="0.254699">
<path d="M-34.6406 262.772L466.593 13.205L645.302 280.146L144.069 529.714L-34.6406 262.772Z" fill="white"/>
</g>
<path d="M50.475 132.806H46.817L41.9485 124.852L37.0401 132.806H33.6348L40.0862 122.723L34.0471 113.359H37.5854L42.0815 120.715L46.5775 113.359H50.0094L43.9304 122.777L50.475 132.806Z" fill="white"/>
<path d="M72.0528 132.806H68.3948L63.5263 124.852L58.6179 132.806H55.2126L61.664 122.723L55.625 113.359H59.1633L63.6593 120.715L68.1554 113.359H71.5873L65.5083 122.777L72.0528 132.806Z" fill="white"/>
<path d="M93.6307 132.806H89.9726L85.1041 124.852L80.1957 132.806H76.7904L83.2419 122.723L77.2028 113.359H80.7411L85.2371 120.715L89.7332 113.359H93.1651L87.0861 122.777L93.6307 132.806Z" fill="white"/>
<path d="M115.208 132.806H111.55L106.682 124.852L101.774 132.806H98.3683L104.82 122.723L98.7806 113.359H102.319L106.815 120.715L111.311 113.359H114.743L108.664 122.777L115.208 132.806Z" fill="white"/>
<path d="M148.494 132.806H144.836L139.968 124.852L135.059 132.806H131.654L138.105 122.723L132.066 113.359H135.605L140.101 120.715L144.597 113.359H148.029L141.95 122.777L148.494 132.806Z" fill="white"/>
<path d="M170.072 132.806H166.414L161.545 124.852L156.637 132.806H153.232L159.683 122.723L153.644 113.359H157.182L161.678 120.715L166.174 113.359H169.606L163.527 122.777L170.072 132.806Z" fill="white"/>
<path d="M191.65 132.806H187.992L183.123 124.852L178.215 132.806H174.81L181.261 122.723L175.222 113.359H178.76L183.256 120.715L187.752 113.359H191.184L185.105 122.777L191.65 132.806Z" fill="white"/>
<path d="M213.228 132.806H209.57L204.701 124.852L199.793 132.806H196.387L202.839 122.723L196.8 113.359H200.338L204.834 120.715L209.33 113.359H212.762L206.683 122.777L213.228 132.806Z" fill="white"/>
<path d="M246.513 132.806H242.855L237.987 124.852L233.078 132.806H229.673L236.124 122.723L230.085 113.359H233.624L238.12 120.715L242.616 113.359H246.048L239.969 122.777L246.513 132.806Z" fill="white"/>
<path d="M268.091 132.806H264.433L259.565 124.852L254.656 132.806H251.251L257.702 122.723L251.663 113.359H255.202L259.698 120.715L264.194 113.359H267.626L261.547 122.777L268.091 132.806Z" fill="white"/>
<path d="M289.669 132.806H286.011L281.142 124.852L276.234 132.806H272.829L279.28 122.723L273.241 113.359H276.779L281.275 120.715L285.771 113.359H289.203L283.124 122.777L289.669 132.806Z" fill="white"/>
<path d="M311.247 132.806H307.589L302.72 124.852L297.812 132.806H294.407L300.858 122.723L294.819 113.359H298.357L302.853 120.715L307.349 113.359H310.781L304.702 122.777L311.247 132.806Z" fill="white"/>
<path d="M344.532 132.806H340.874L336.006 124.852L331.098 132.806H327.692L334.144 122.723L328.105 113.359H331.643L336.139 120.715L340.635 113.359H344.067L337.988 122.777L344.532 132.806Z" fill="white"/>
<path d="M366.11 132.806H362.452L357.584 124.852L352.675 132.806H349.27L355.721 122.723L349.682 113.359H353.221L357.717 120.715L362.213 113.359H365.645L359.566 122.777L366.11 132.806Z" fill="white"/>
<path d="M387.688 132.806H384.03L379.162 124.852L374.253 132.806H370.848L377.299 122.723L371.26 113.359H374.799L379.295 120.715L383.791 113.359H387.223L381.144 122.777L387.688 132.806Z" fill="white"/>
<path d="M409.266 132.806H405.608L400.739 124.852L395.831 132.806H392.426L398.877 122.723L392.838 113.359H396.376L400.872 120.715L405.368 113.359H408.8L402.721 122.777L409.266 132.806Z" fill="white"/>
<path d="M28.3787 218.264C27.7812 218.264 27.2813 218.188 26.8789 218.035V216.197C27.391 216.325 27.8361 216.389 28.2141 216.389C29.409 216.389 30.0065 215.633 30.0065 214.121V201.163H32.2013V214.048C32.2013 215.414 31.8752 216.456 31.2228 217.176C30.5766 217.901 29.6285 218.264 28.3787 218.264Z" fill="white"/>
<path d="M44.41 209.457C44.41 211.11 43.9863 212.399 43.1388 213.326C42.2914 214.252 41.1117 214.716 39.5997 214.716C38.6547 214.716 37.8195 214.502 37.0939 214.076C36.3684 213.649 35.8106 213.036 35.4204 212.237C35.0302 211.439 34.8351 210.512 34.8351 209.457C34.8351 207.817 35.2558 206.537 36.0971 205.616C36.9385 204.696 38.1243 204.235 39.6546 204.235C41.1178 204.235 42.2761 204.708 43.1297 205.653C43.9832 206.592 44.41 207.86 44.41 209.457ZM37.0482 209.457C37.0482 211.792 37.9109 212.96 39.6363 212.96C41.3434 212.96 42.1969 211.792 42.1969 209.457C42.1969 207.147 41.3373 205.991 39.618 205.991C38.7157 205.991 38.0603 206.29 37.6518 206.888C37.2494 207.485 37.0482 208.342 37.0482 209.457Z" fill="white"/>
<path d="M53.6831 211.652C53.6831 212.64 53.3234 213.399 52.604 213.929C51.8846 214.454 50.8542 214.716 49.5129 214.716C48.1656 214.716 47.0834 214.511 46.2664 214.103V212.247C47.4553 212.795 48.5619 213.07 49.5861 213.07C50.9091 213.07 51.5706 212.67 51.5706 211.872C51.5706 211.616 51.4974 211.402 51.3511 211.231C51.2048 211.061 50.964 210.884 50.6286 210.701C50.2933 210.518 49.8269 210.311 49.2294 210.079C48.065 209.628 47.2755 209.177 46.8609 208.726C46.4524 208.275 46.2482 207.689 46.2482 206.97C46.2482 206.104 46.5957 205.433 47.2907 204.958C47.9918 204.476 48.9429 204.235 50.144 204.235C51.3328 204.235 52.4577 204.476 53.5185 204.958L52.8235 206.577C51.7321 206.125 50.8146 205.9 50.0708 205.9C48.9368 205.9 48.3698 206.223 48.3698 206.869C48.3698 207.186 48.5161 207.455 48.8088 207.674C49.1075 207.894 49.7538 208.195 50.7475 208.579C51.5828 208.903 52.1894 209.198 52.5674 209.466C52.9454 209.735 53.2258 210.046 53.4087 210.399C53.5916 210.747 53.6831 211.164 53.6831 211.652Z" fill="white"/>
<path d="M64.9132 214.533H62.755V208.314C62.755 207.534 62.5965 206.952 62.2795 206.567C61.9685 206.183 61.4716 205.991 60.7888 205.991C59.8865 205.991 59.222 206.263 58.7952 206.805C58.3745 207.342 58.1642 208.244 58.1642 209.512V214.533H56.0151V200.303H58.1642V203.915C58.1642 204.495 58.1276 205.113 58.0544 205.772H58.1916C58.4843 205.284 58.8897 204.906 59.4079 204.638C59.9322 204.37 60.5419 204.235 61.2369 204.235C63.6878 204.235 64.9132 205.47 64.9132 207.939V214.533Z" fill="white"/>
<path d="M75.0368 214.533L74.735 213.207H74.6253C74.3266 213.676 73.8998 214.045 73.345 214.313C72.7963 214.582 72.1683 214.716 71.4611 214.716C70.2357 214.716 69.3212 214.411 68.7176 213.801C68.114 213.192 67.8122 212.268 67.8122 211.03V204.418H69.9796V210.655C69.9796 211.43 70.1381 212.012 70.4551 212.402C70.7722 212.786 71.2691 212.978 71.9458 212.978C72.8481 212.978 73.5096 212.71 73.9303 212.173C74.357 211.631 74.5704 210.725 74.5704 209.457V204.418H76.7287V214.533H75.0368Z" fill="white"/>
<path d="M86.1206 214.533L85.6908 213.124H85.6177C85.1299 213.74 84.6391 214.161 84.1453 214.386C83.6515 214.606 83.0174 214.716 82.2431 214.716C81.2494 214.716 80.472 214.447 79.9111 213.911C79.3563 213.374 79.0789 212.615 79.0789 211.634C79.0789 210.591 79.4661 209.805 80.2404 209.274C81.0146 208.744 82.1944 208.454 83.7795 208.406L85.5262 208.351V207.811C85.5262 207.165 85.3738 206.683 85.069 206.366C84.7702 206.043 84.3038 205.882 83.6698 205.882C83.1515 205.882 82.6547 205.958 82.1791 206.11C81.7036 206.263 81.2463 206.442 80.8074 206.65L80.1123 205.113C80.661 204.827 81.2616 204.61 81.9139 204.464C82.5663 204.312 83.182 204.235 83.7612 204.235C85.0476 204.235 86.017 204.516 86.6693 205.077C87.3278 205.638 87.657 206.519 87.657 207.72V214.533H86.1206ZM82.9199 213.07C83.7002 213.07 84.3252 212.853 84.7946 212.42C85.2701 211.981 85.5079 211.369 85.5079 210.582V209.704L84.2093 209.759C83.1973 209.796 82.4596 209.966 81.9962 210.271C81.539 210.57 81.3103 211.03 81.3103 211.652C81.3103 212.103 81.4445 212.454 81.7127 212.704C81.981 212.948 82.3834 213.07 82.9199 213.07Z" fill="white"/>
<path d="M95.7504 201.163H99.7194C101.561 201.163 102.89 201.431 103.707 201.968C104.53 202.504 104.941 203.351 104.941 204.51C104.941 205.29 104.74 205.94 104.338 206.458C103.935 206.976 103.356 207.302 102.6 207.436V207.528C103.539 207.705 104.228 208.055 104.667 208.579C105.112 209.098 105.334 209.802 105.334 210.692C105.334 211.893 104.914 212.835 104.072 213.518C103.237 214.194 102.073 214.533 100.579 214.533H95.7504V201.163ZM97.9361 206.686H100.039C100.954 206.686 101.622 206.543 102.042 206.257C102.463 205.964 102.673 205.47 102.673 204.775C102.673 204.147 102.445 203.693 101.987 203.412C101.536 203.132 100.817 202.992 99.8291 202.992H97.9361V206.686ZM97.9361 208.46V212.695H100.259C101.173 212.695 101.862 212.521 102.326 212.173C102.795 211.82 103.03 211.265 103.03 210.509C103.03 209.814 102.792 209.299 102.317 208.963C101.841 208.628 101.119 208.46 100.149 208.46H97.9361Z" fill="white"/>
<path d="M114.214 214.533L113.784 213.124H113.711C113.224 213.74 112.733 214.161 112.239 214.386C111.745 214.606 111.111 214.716 110.337 214.716C109.343 214.716 108.566 214.447 108.005 213.911C107.45 213.374 107.173 212.615 107.173 211.634C107.173 210.591 107.56 209.805 108.334 209.274C109.108 208.744 110.288 208.454 111.873 208.406L113.62 208.351V207.811C113.62 207.165 113.467 206.683 113.163 206.366C112.864 206.043 112.397 205.882 111.763 205.882C111.245 205.882 110.748 205.958 110.273 206.11C109.797 206.263 109.34 206.442 108.901 206.65L108.206 205.113C108.755 204.827 109.355 204.61 110.008 204.464C110.66 204.312 111.276 204.235 111.855 204.235C113.141 204.235 114.111 204.516 114.763 205.077C115.421 205.638 115.751 206.519 115.751 207.72V214.533H114.214ZM111.014 213.07C111.794 213.07 112.419 212.853 112.888 212.42C113.364 211.981 113.602 211.369 113.602 210.582V209.704L112.303 209.759C111.291 209.796 110.553 209.966 110.09 210.271C109.633 210.57 109.404 211.03 109.404 211.652C109.404 212.103 109.538 212.454 109.806 212.704C110.075 212.948 110.477 213.07 111.014 213.07Z" fill="white"/>
<path d="M125.545 211.652C125.545 212.64 125.185 213.399 124.466 213.929C123.746 214.454 122.716 214.716 121.375 214.716C120.027 214.716 118.945 214.511 118.128 214.103V212.247C119.317 212.795 120.424 213.07 121.448 213.07C122.771 213.07 123.433 212.67 123.433 211.872C123.433 211.616 123.359 211.402 123.213 211.231C123.067 211.061 122.826 210.884 122.491 210.701C122.155 210.518 121.689 210.311 121.091 210.079C119.927 209.628 119.137 209.177 118.723 208.726C118.314 208.275 118.11 207.689 118.11 206.97C118.11 206.104 118.458 205.433 119.153 204.958C119.854 204.476 120.805 204.235 122.006 204.235C123.195 204.235 124.32 204.476 125.38 204.958L124.685 206.577C123.594 206.125 122.677 205.9 121.933 205.9C120.799 205.9 120.232 206.223 120.232 206.869C120.232 207.186 120.378 207.455 120.671 207.674C120.969 207.894 121.616 208.195 122.609 208.579C123.445 208.903 124.051 209.198 124.429 209.466C124.807 209.735 125.088 210.046 125.271 210.399C125.454 210.747 125.545 211.164 125.545 211.652Z" fill="white"/>
<path d="M134.672 211.652C134.672 212.64 134.312 213.399 133.593 213.929C132.873 214.454 131.843 214.716 130.502 214.716C129.154 214.716 128.072 214.511 127.255 214.103V212.247C128.444 212.795 129.551 213.07 130.575 213.07C131.898 213.07 132.559 212.67 132.559 211.872C132.559 211.616 132.486 211.402 132.34 211.231C132.193 211.061 131.953 210.884 131.617 210.701C131.282 210.518 130.816 210.311 130.218 210.079C129.054 209.628 128.264 209.177 127.85 208.726C127.441 208.275 127.237 207.689 127.237 206.97C127.237 206.104 127.584 205.433 128.279 204.958C128.981 204.476 129.932 204.235 131.133 204.235C132.322 204.235 133.446 204.476 134.507 204.958L133.812 206.577C132.721 206.125 131.803 205.9 131.059 205.9C129.926 205.9 129.359 206.223 129.359 206.869C129.359 207.186 129.505 207.455 129.797 207.674C130.096 207.894 130.742 208.195 131.736 208.579C132.571 208.903 133.178 209.198 133.556 209.466C133.934 209.735 134.215 210.046 134.397 210.399C134.58 210.747 134.672 211.164 134.672 211.652Z" fill="white"/>
<path d="M336.713 202.781C335.283 202.781 334.163 202.365 333.354 201.534C332.55 200.697 332.148 199.547 332.148 198.084C332.148 196.582 332.523 195.401 333.271 194.542C334.019 193.683 335.047 193.253 336.355 193.253C337.569 193.253 338.528 193.622 339.232 194.359C339.936 195.096 340.288 196.11 340.288 197.402V198.458H334.16C334.188 199.35 334.429 200.037 334.884 200.519C335.338 200.996 335.978 201.234 336.804 201.234C337.347 201.234 337.852 201.185 338.317 201.085C338.788 200.979 339.293 200.808 339.83 200.569V202.157C339.354 202.384 338.871 202.545 338.384 202.639C337.896 202.734 337.339 202.781 336.713 202.781ZM336.355 194.733C335.734 194.733 335.236 194.93 334.859 195.323C334.487 195.717 334.266 196.291 334.194 197.044H338.367C338.356 196.285 338.173 195.711 337.818 195.323C337.464 194.93 336.976 194.733 336.355 194.733Z" fill="white"/>
<path d="M344.552 197.917L341.468 193.42H343.696L345.791 196.637L347.903 193.42H350.114L347.022 197.917L350.272 202.614H348.061L345.791 199.173L343.53 202.614H341.318L344.552 197.917Z" fill="white"/>
<path d="M356.549 202.781C355.385 202.781 354.482 202.362 353.839 201.525H353.722C353.8 202.301 353.839 202.772 353.839 202.939V206.705H351.885V193.42H353.465C353.509 193.591 353.601 194.001 353.739 194.65H353.839C354.449 193.719 355.363 193.253 356.582 193.253C357.73 193.253 358.622 193.669 359.259 194.5C359.902 195.332 360.224 196.498 360.224 198C360.224 199.502 359.897 200.675 359.243 201.517C358.594 202.36 357.696 202.781 356.549 202.781ZM356.075 194.849C355.299 194.849 354.731 195.077 354.371 195.531C354.016 195.986 353.839 196.712 353.839 197.709V198C353.839 199.12 354.016 199.932 354.371 200.436C354.726 200.935 355.305 201.185 356.109 201.185C356.785 201.185 357.306 200.907 357.671 200.353C358.037 199.799 358.22 199.009 358.22 197.984C358.22 196.953 358.037 196.174 357.671 195.648C357.311 195.116 356.779 194.849 356.075 194.849Z" fill="white"/>
<path d="M364.447 202.614H362.493V193.42H364.447V202.614ZM362.377 190.984C362.377 190.634 362.471 190.366 362.66 190.177C362.854 189.989 363.128 189.895 363.483 189.895C363.826 189.895 364.092 189.989 364.281 190.177C364.475 190.366 364.572 190.634 364.572 190.984C364.572 191.316 364.475 191.579 364.281 191.773C364.092 191.962 363.826 192.056 363.483 192.056C363.128 192.056 362.854 191.962 362.66 191.773C362.471 191.579 362.377 191.316 362.377 190.984Z" fill="white"/>
<path d="M371.913 193.253C372.306 193.253 372.631 193.281 372.886 193.336L372.694 195.157C372.417 195.091 372.129 195.057 371.83 195.057C371.048 195.057 370.414 195.312 369.926 195.822C369.444 196.332 369.203 196.994 369.203 197.809V202.614H367.249V193.42H368.779L369.036 195.041H369.136C369.441 194.492 369.837 194.057 370.325 193.735C370.818 193.414 371.348 193.253 371.913 193.253Z" fill="white"/>
<path d="M378.614 202.781C377.184 202.781 376.064 202.365 375.255 201.534C374.451 200.697 374.049 199.547 374.049 198.084C374.049 196.582 374.424 195.401 375.172 194.542C375.92 193.683 376.948 193.253 378.256 193.253C379.47 193.253 380.429 193.622 381.133 194.359C381.837 195.096 382.189 196.11 382.189 197.402V198.458H376.061C376.089 199.35 376.33 200.037 376.785 200.519C377.239 200.996 377.879 201.234 378.705 201.234C379.248 201.234 379.753 201.185 380.218 201.085C380.689 200.979 381.194 200.808 381.731 200.569V202.157C381.255 202.384 380.772 202.545 380.285 202.639C379.797 202.734 379.24 202.781 378.614 202.781ZM378.256 194.733C377.635 194.733 377.137 194.93 376.76 195.323C376.388 195.717 376.167 196.291 376.095 197.044H380.268C380.257 196.285 380.074 195.711 379.719 195.323C379.365 194.93 378.877 194.733 378.256 194.733Z" fill="white"/>
<path d="M390.585 199.996C390.585 200.894 390.258 201.584 389.604 202.066C388.95 202.542 388.014 202.781 386.794 202.781C385.569 202.781 384.586 202.595 383.843 202.224V200.536C384.924 201.035 385.93 201.284 386.861 201.284C388.064 201.284 388.665 200.921 388.665 200.195C388.665 199.962 388.598 199.768 388.465 199.613C388.332 199.458 388.113 199.297 387.809 199.131C387.504 198.965 387.08 198.776 386.537 198.566C385.478 198.156 384.76 197.745 384.383 197.335C384.012 196.925 383.826 196.393 383.826 195.739C383.826 194.952 384.142 194.342 384.774 193.91C385.412 193.472 386.276 193.253 387.368 193.253C388.449 193.253 389.471 193.472 390.436 193.91L389.804 195.382C388.812 194.971 387.978 194.766 387.301 194.766C386.271 194.766 385.755 195.06 385.755 195.648C385.755 195.936 385.888 196.18 386.154 196.379C386.426 196.579 387.013 196.853 387.917 197.202C388.676 197.496 389.228 197.765 389.571 198.009C389.915 198.253 390.17 198.535 390.336 198.857C390.502 199.173 390.585 199.552 390.585 199.996Z" fill="white"/>
<path d="M399.082 202.614H397.128V193.42H399.082V202.614ZM397.012 190.984C397.012 190.634 397.106 190.366 397.295 190.177C397.489 189.989 397.763 189.895 398.118 189.895C398.461 189.895 398.727 189.989 398.916 190.177C399.11 190.366 399.207 190.634 399.207 190.984C399.207 191.316 399.11 191.579 398.916 191.773C398.727 191.962 398.461 192.056 398.118 192.056C397.763 192.056 397.489 191.962 397.295 191.773C397.106 191.579 397.012 191.316 397.012 190.984Z" fill="white"/>
<path d="M409.973 202.614H408.011V196.961C408.011 196.252 407.867 195.722 407.579 195.373C407.296 195.024 406.844 194.849 406.223 194.849C405.398 194.849 404.794 195.093 404.411 195.581C404.029 196.069 403.837 196.886 403.837 198.034V202.614H401.884V193.42H403.413L403.688 194.625H403.788C404.065 194.187 404.458 193.849 404.968 193.611C405.478 193.372 406.043 193.253 406.664 193.253C408.87 193.253 409.973 194.376 409.973 196.62V202.614Z" fill="white"/>
<path d="M366.102 219.582L362.71 214.634H365.16L367.465 218.174L369.788 214.634H372.22L368.818 219.582L372.394 224.749H369.962L367.465 220.963L364.978 224.749H362.545L366.102 219.582Z" fill="white"/>
<path d="M376.418 219.582L373.025 214.634H375.476L377.781 218.174L380.103 214.634H382.536L379.134 219.582L382.71 224.749H380.277L377.781 220.963L375.293 224.749H372.861L376.418 219.582Z" fill="white"/>
<path d="M390.099 211.379L385.124 224.749H383.094L388.078 211.379H390.099Z" fill="white"/>
<path d="M394.05 219.582L390.657 214.634H393.108L395.412 218.174L397.735 214.634H400.168L396.766 219.582L400.341 224.749H397.909L395.412 220.963L392.925 224.749H390.492L394.05 219.582Z" fill="white"/>
<path d="M404.365 219.582L400.972 214.634H403.423L405.728 218.174L408.051 214.634H410.483L407.081 219.582L410.657 224.749H408.225L405.728 220.963L403.24 224.749H400.808L404.365 219.582Z" fill="white"/>
<path d="M30.4023 45.9714V26.1588H38.219C39.7153 26.1588 40.9923 26.4265 42.05 26.9618C43.1141 27.4906 43.9235 28.242 44.4782 29.2158C45.0393 30.1832 45.3198 31.3216 45.3198 32.6308C45.3198 33.9465 45.0361 35.0784 44.4685 36.0264C43.901 36.968 43.0787 37.6904 42.0016 38.1934C40.931 38.6965 39.6347 38.948 38.1126 38.948H32.8789V35.5814H37.4354C38.2352 35.5814 38.8994 35.4718 39.4283 35.2525C39.9571 35.0332 40.3506 34.7043 40.6085 34.2657C40.873 33.8272 41.0052 33.2822 41.0052 32.6308C41.0052 31.973 40.873 31.4183 40.6085 30.9669C40.3506 30.5154 39.9539 30.1736 39.4186 29.9414C38.8898 29.7028 38.2223 29.5835 37.4161 29.5835H34.5912V45.9714H30.4023ZM41.1019 36.9551L46.026 45.9714H41.4018L36.5841 36.9551H41.1019Z" fill="white"/>
<path d="M54.7352 46.2616C53.2067 46.2616 51.891 45.9521 50.7881 45.3329C49.6917 44.7073 48.8469 43.8238 48.2535 42.6822C47.6602 41.5342 47.3635 40.1766 47.3635 38.6094C47.3635 37.0809 47.6602 35.7394 48.2535 34.585C48.8469 33.4305 49.6821 32.5308 50.7591 31.8859C51.8426 31.241 53.1131 30.9185 54.5707 30.9185C55.551 30.9185 56.4636 31.0765 57.3085 31.3925C58.1598 31.7021 58.9015 32.1697 59.5335 32.7953C60.172 33.4209 60.6686 34.2077 61.0233 35.1557C61.3781 36.0974 61.5554 37.2002 61.5554 38.4643V39.5962H49.0081V37.0422H57.6761C57.6761 36.4489 57.5471 35.9232 57.2891 35.4653C57.0312 35.0074 56.6732 34.6495 56.2153 34.3915C55.7639 34.1271 55.2382 33.9949 54.6384 33.9949C54.0128 33.9949 53.4582 34.14 52.9745 34.4302C52.4972 34.714 52.1232 35.0977 51.8523 35.5814C51.5814 36.0587 51.4427 36.5907 51.4363 37.1776V39.6058C51.4363 40.3411 51.5717 40.9763 51.8426 41.5116C52.1199 42.0469 52.5101 42.4597 53.0132 42.7499C53.5162 43.0402 54.1128 43.1853 54.8029 43.1853C55.2608 43.1853 55.68 43.1208 56.0605 42.9918C56.441 42.8628 56.7667 42.6693 57.0376 42.4113C57.3085 42.1534 57.5149 41.8373 57.6568 41.4633L61.4684 41.7148C61.2749 42.6306 60.8782 43.4303 60.2784 44.114C59.6851 44.7912 58.9176 45.32 57.976 45.7005C57.0408 46.0746 55.9606 46.2616 54.7352 46.2616Z" fill="white"/>
<path d="M77.6725 31.112L72.4775 45.9714H67.8339L62.6389 31.112H66.9923L70.0783 41.7438H70.2331L73.3095 31.112H77.6725Z" fill="white"/>
<path d="M85.9898 46.2616C84.4871 46.2616 83.1876 45.9424 82.0912 45.3039C81.0012 44.659 80.1596 43.7625 79.5662 42.6145C78.9729 41.46 78.6762 40.1218 78.6762 38.5997C78.6762 37.0648 78.9729 35.7233 79.5662 34.5753C80.1596 33.4209 81.0012 32.5244 82.0912 31.8859C83.1876 31.241 84.4871 30.9185 85.9898 30.9185C87.4925 30.9185 88.7889 31.241 89.8788 31.8859C90.9752 32.5244 91.8201 33.4209 92.4134 34.5753C93.0068 35.7233 93.3035 37.0648 93.3035 38.5997C93.3035 40.1218 93.0068 41.46 92.4134 42.6145C91.8201 43.7625 90.9752 44.659 89.8788 45.3039C88.7889 45.9424 87.4925 46.2616 85.9898 46.2616ZM86.0092 43.0692C86.6928 43.0692 87.2636 42.8757 87.7215 42.4887C88.1794 42.0953 88.5245 41.56 88.7566 40.8828C88.9953 40.2056 89.1146 39.4349 89.1146 38.5707C89.1146 37.7065 88.9953 36.9358 88.7566 36.2586C88.5245 35.5814 88.1794 35.0461 87.7215 34.6527C87.2636 34.2593 86.6928 34.0626 86.0092 34.0626C85.3191 34.0626 84.7386 34.2593 84.2678 34.6527C83.8035 35.0461 83.452 35.5814 83.2134 36.2586C82.9812 36.9358 82.8651 37.7065 82.8651 38.5707C82.8651 39.4349 82.9812 40.2056 83.2134 40.8828C83.452 41.56 83.8035 42.0953 84.2678 42.4887C84.7386 42.8757 85.3191 43.0692 86.0092 43.0692Z" fill="white"/>
<path d="M100.104 26.1588V45.9714H95.9832V26.1588H100.104Z" fill="white"/>
<path d="M117.259 31.112L112.064 45.9714H107.42L102.225 31.112H106.579L109.665 41.7438H109.82L112.896 31.112H117.259Z" fill="white"/>
<path d="M125.634 46.2616C124.106 46.2616 122.79 45.9521 121.687 45.3329C120.591 44.7073 119.746 43.8238 119.153 42.6822C118.559 41.5342 118.263 40.1766 118.263 38.6094C118.263 37.0809 118.559 35.7394 119.153 34.585C119.746 33.4305 120.581 32.5308 121.658 31.8859C122.742 31.241 124.012 30.9185 125.47 30.9185C126.45 30.9185 127.363 31.0765 128.208 31.3925C129.059 31.7021 129.801 32.1697 130.433 32.7953C131.071 33.4209 131.568 34.2077 131.923 35.1557C132.277 36.0974 132.455 37.2002 132.455 38.4643V39.5962H119.907V37.0422H128.575C128.575 36.4489 128.446 35.9232 128.188 35.4653C127.93 35.0074 127.572 34.6495 127.115 34.3915C126.663 34.1271 126.137 33.9949 125.538 33.9949C124.912 33.9949 124.357 34.14 123.874 34.4302C123.396 34.714 123.022 35.0977 122.751 35.5814C122.481 36.0587 122.342 36.5907 122.336 37.1776V39.6058C122.336 40.3411 122.471 40.9763 122.742 41.5116C123.019 42.0469 123.409 42.4597 123.912 42.7499C124.415 43.0402 125.012 43.1853 125.702 43.1853C126.16 43.1853 126.579 43.1208 126.96 42.9918C127.34 42.8628 127.666 42.6693 127.937 42.4113C128.208 42.1534 128.414 41.8373 128.556 41.4633L132.368 41.7148C132.174 42.6306 131.777 43.4303 131.178 44.114C130.584 44.7912 129.817 45.32 128.875 45.7005C127.94 46.0746 126.86 46.2616 125.634 46.2616Z" fill="white"/>
<path d="M135.144 45.9714V31.112H139.139V33.7046H139.294C139.565 32.7824 140.02 32.0858 140.658 31.615C141.297 31.1378 142.032 30.8991 142.864 30.8991C143.07 30.8991 143.293 30.912 143.531 30.9378C143.77 30.9636 143.98 30.9991 144.16 31.0442V34.7011C143.967 34.643 143.699 34.5914 143.357 34.5463C143.016 34.5011 142.703 34.4786 142.419 34.4786C141.813 34.4786 141.271 34.6108 140.794 34.8752C140.323 35.1332 139.949 35.4943 139.672 35.9587C139.401 36.4231 139.265 36.9584 139.265 37.5646V45.9714H135.144Z" fill="white"/>
<path d="M170.155 33.0952H165.917C165.84 32.547 165.682 32.06 165.443 31.6344C165.205 31.2023 164.898 30.8346 164.524 30.5315C164.15 30.2284 163.718 29.9962 163.228 29.835C162.744 29.6737 162.219 29.5931 161.651 29.5931C160.626 29.5931 159.732 29.8479 158.971 30.3574C158.21 30.8604 157.62 31.5957 157.201 32.5631C156.782 33.524 156.572 34.6914 156.572 36.0651C156.572 37.4775 156.782 38.6642 157.201 39.6252C157.627 40.5862 158.22 41.3117 158.981 41.8019C159.742 42.292 160.622 42.5371 161.622 42.5371C162.183 42.5371 162.702 42.4629 163.18 42.3146C163.663 42.1663 164.092 41.9502 164.466 41.6664C164.84 41.3762 165.15 41.0247 165.395 40.6119C165.647 40.1992 165.821 39.7284 165.917 39.1995L170.155 39.2189C170.045 40.1282 169.771 41.0054 169.332 41.8502C168.9 42.6887 168.317 43.44 167.581 44.1043C166.853 44.7621 165.982 45.2845 164.969 45.6715C163.963 46.052 162.825 46.2423 161.554 46.2423C159.787 46.2423 158.207 45.8424 156.814 45.0427C155.427 44.243 154.331 43.0853 153.525 41.5697C152.725 40.0541 152.325 38.2192 152.325 36.0651C152.325 33.9046 152.732 32.0665 153.544 30.5509C154.357 29.0353 155.46 27.8808 156.853 27.0875C158.246 26.2878 159.813 25.8879 161.554 25.8879C162.702 25.8879 163.767 26.0492 164.747 26.3716C165.734 26.6941 166.607 27.1649 167.369 27.7841C168.13 28.3968 168.749 29.1481 169.226 30.0381C169.71 30.9282 170.019 31.9472 170.155 33.0952Z" fill="white"/>
<path d="M177.318 46.252C176.37 46.252 175.525 46.0875 174.784 45.7586C174.042 45.4232 173.455 44.9298 173.023 44.2784C172.597 43.6206 172.385 42.8015 172.385 41.8212C172.385 40.9957 172.536 40.3024 172.839 39.7413C173.142 39.1802 173.555 38.7287 174.078 38.3869C174.6 38.0451 175.193 37.7871 175.858 37.613C176.528 37.4388 177.231 37.3163 177.967 37.2454C178.831 37.1551 179.527 37.0712 180.056 36.9938C180.585 36.91 180.969 36.7874 181.207 36.6262C181.446 36.465 181.565 36.2263 181.565 35.9103V35.8523C181.565 35.2396 181.372 34.7656 180.985 34.4302C180.604 34.0948 180.063 33.9271 179.36 33.9271C178.618 33.9271 178.028 34.0916 177.589 34.4205C177.151 34.743 176.86 35.1493 176.719 35.6395L172.907 35.3299C173.1 34.427 173.481 33.6466 174.049 32.9887C174.616 32.3245 175.348 31.8149 176.245 31.4602C177.147 31.0991 178.192 30.9185 179.379 30.9185C180.204 30.9185 180.995 31.0152 181.749 31.2087C182.51 31.4022 183.184 31.7021 183.771 32.1084C184.364 32.5147 184.832 33.0371 185.174 33.6756C185.516 34.3076 185.686 35.0655 185.686 35.949V45.9714H181.778V43.9108H181.662C181.423 44.3752 181.104 44.7847 180.704 45.1394C180.304 45.4877 179.824 45.7618 179.263 45.9617C178.702 46.1552 178.054 46.252 177.318 46.252ZM178.499 43.4078C179.105 43.4078 179.64 43.2885 180.105 43.0498C180.569 42.8047 180.933 42.4758 181.198 42.0631C181.462 41.6503 181.594 41.1827 181.594 40.6603V39.0834C181.465 39.1673 181.288 39.2447 181.062 39.3156C180.843 39.3801 180.595 39.4414 180.317 39.4994C180.04 39.551 179.763 39.5994 179.485 39.6445C179.208 39.6832 178.956 39.7187 178.731 39.751C178.247 39.8219 177.825 39.9348 177.463 40.0895C177.102 40.2443 176.822 40.4539 176.622 40.7184C176.422 40.9763 176.322 41.2988 176.322 41.6858C176.322 42.2469 176.525 42.6758 176.931 42.9724C177.344 43.2627 177.867 43.4078 178.499 43.4078Z" fill="white"/>
<path d="M188.884 45.9714V31.112H192.879V33.7046H193.034C193.305 32.7824 193.76 32.0858 194.398 31.615C195.036 31.1378 195.772 30.8991 196.604 30.8991C196.81 30.8991 197.033 30.912 197.271 30.9378C197.51 30.9636 197.719 30.9991 197.9 31.0442V34.7011C197.707 34.643 197.439 34.5914 197.097 34.5463C196.755 34.5011 196.442 34.4786 196.159 34.4786C195.552 34.4786 195.011 34.6108 194.533 34.8752C194.063 35.1332 193.689 35.4943 193.411 35.9587C193.14 36.4231 193.005 36.9584 193.005 37.5646V45.9714H188.884Z" fill="white"/>
<path d="M204.815 46.2133C203.686 46.2133 202.664 45.923 201.748 45.3426C200.839 44.7557 200.116 43.8947 199.581 42.7596C199.052 41.6181 198.788 40.2185 198.788 38.561C198.788 36.8584 199.062 35.4427 199.61 34.3141C200.158 33.179 200.887 32.3309 201.796 31.7698C202.712 31.2023 203.715 30.9185 204.805 30.9185C205.637 30.9185 206.33 31.0604 206.885 31.3441C207.446 31.6215 207.897 31.9697 208.239 32.3889C208.588 32.8017 208.852 33.208 209.033 33.6079H209.158V26.1588H213.27V45.9714H209.207V43.5916H209.033C208.839 44.0043 208.565 44.4139 208.21 44.8202C207.862 45.2201 207.407 45.5522 206.846 45.8166C206.292 46.0811 205.614 46.2133 204.815 46.2133ZM206.121 42.9337C206.785 42.9337 207.346 42.7532 207.804 42.392C208.268 42.0244 208.623 41.5116 208.868 40.8538C209.12 40.196 209.245 39.4253 209.245 38.5417C209.245 37.6581 209.123 36.8906 208.878 36.2392C208.633 35.5879 208.278 35.0848 207.814 34.7301C207.349 34.3754 206.785 34.198 206.121 34.198C205.443 34.198 204.873 34.3818 204.408 34.7494C203.944 35.117 203.592 35.6266 203.354 36.2779C203.115 36.9293 202.996 37.6839 202.996 38.5417C202.996 39.4059 203.115 40.1702 203.354 40.8345C203.599 41.4923 203.95 42.0082 204.408 42.3823C204.873 42.7499 205.443 42.9337 206.121 42.9337Z" fill="white"/>
</g>
<defs>
<linearGradient id="paint0_linear" x1="303.912" y1="391.88" x2="316.589" y2="103.48" gradientUnits="userSpaceOnUse">
<stop stop-color="#1C5AE0"/>
<stop offset="0.501054" stop-color="#53A0FD"/>
<stop offset="1" stop-color="#51CAEC"/>
</linearGradient>
<linearGradient id="paint1_linear" x1="237.044" y1="170.896" x2="279.592" y2="311.225" gradientUnits="userSpaceOnUse">
<stop stop-color="#1C0209" stop-opacity="0"/>
<stop offset="0.5625" stop-color="#DD285D"/>
</linearGradient>
<linearGradient id="paint2_linear" x1="47.4849" y1="-22.7535" x2="369.236" y2="331.977" gradientUnits="userSpaceOnUse">
<stop stop-color="#F96D96"/>
<stop offset="1" stop-color="#BA1D4B"/>
</linearGradient>
</defs>
</svg>
