<svg width="270" height="145" viewBox="0 0 270 145" fill="none" xmlns="http://www.w3.org/2000/svg">
<rect width="270" height="145" rx="10" fill="#E52E64"/>
<path d="M235.042 17.673H223.957V37.326H235.042V17.673Z" fill="#FF5F00"/>
<path d="M224.661 27.4995C224.661 23.5069 226.561 19.9644 229.482 17.673C227.336 16.0066 224.625 15 221.669 15C214.666 15 209 20.5895 209 27.4995C209 34.4096 214.666 39.999 221.669 39.999C224.625 39.999 227.336 38.9924 229.482 37.326C226.561 35.0693 224.661 31.4921 224.661 27.4995Z" fill="#EB001B"/>
<path d="M250 27.4995C250 34.4096 244.334 40 237.33 40C234.374 40 231.663 38.9924 229.517 37.326C232.473 35.0346 234.338 31.4931 234.338 27.4995C234.338 23.5069 232.438 19.9654 229.517 17.673C231.663 16.0066 234.374 15 237.33 15C244.334 15 250 20.6242 250 27.4995Z" fill="#F79E1B"/>
<path d="M24.7673 20.576C26.2713 20.576 27.3806 20.8533 28.0953 21.408C28.8206 21.9627 29.1833 22.8053 29.1833 23.936C29.1833 24.4907 29.0766 24.9653 28.8633 25.36C28.6606 25.7547 28.3939 26.0853 28.0633 26.352C27.7326 26.608 27.3753 26.816 26.9913 26.976L30.2713 32H27.9673L25.2313 27.488H23.5673V32H21.5193V20.576H24.7673ZM24.6393 22.288H23.5673V25.808H24.7033C25.5459 25.808 26.1539 25.6587 26.5273 25.36C26.9113 25.0507 27.1033 24.5973 27.1033 24C27.1033 23.3813 26.9006 22.944 26.4953 22.688C26.1006 22.4213 25.4819 22.288 24.6393 22.288ZM39.367 23.328V32H37.783L37.511 30.88H37.415C37.127 31.328 36.7377 31.6533 36.247 31.856C35.767 32.0587 35.255 32.16 34.711 32.16C33.7403 32.16 32.9777 31.9093 32.423 31.408C31.879 30.9067 31.607 30.1013 31.607 28.992V23.328H33.623V28.592C33.623 29.8827 34.1563 30.528 35.223 30.528C36.0337 30.528 36.5883 30.2773 36.887 29.776C37.1963 29.264 37.351 28.528 37.351 27.568V23.328H39.367ZM43.9526 22.72C43.9526 23.0613 43.942 23.392 43.9206 23.712C43.8993 24.032 43.878 24.2827 43.8566 24.464H43.9526C44.1873 24.1013 44.5073 23.7973 44.9126 23.552C45.318 23.296 45.846 23.168 46.4966 23.168C47.4993 23.168 48.31 23.5467 48.9286 24.304C49.558 25.0613 49.8726 26.176 49.8726 27.648C49.8726 29.1413 49.558 30.2667 48.9286 31.024C48.2993 31.7813 47.4726 32.16 46.4486 32.16C45.798 32.16 45.2753 32.0427 44.8806 31.808C44.4966 31.5733 44.1873 31.3013 43.9526 30.992H43.8086L43.4406 32H41.9366V19.84H43.9526V22.72ZM45.9206 24.8C45.1953 24.8 44.6886 25.0187 44.4006 25.456C44.1126 25.8933 43.9633 26.5653 43.9526 27.472V27.648C43.9526 28.576 44.0913 29.2853 44.3686 29.776C44.6566 30.2667 45.1846 30.512 45.9526 30.512C46.55 30.512 47.0086 30.2667 47.3286 29.776C47.6486 29.2747 47.8086 28.56 47.8086 27.632C47.8086 26.6827 47.6433 25.9733 47.3126 25.504C46.9926 25.0347 46.5286 24.8 45.9206 24.8ZM50.3438 23.328H52.5358L54.2638 28.224C54.3811 28.5333 54.4771 28.8373 54.5518 29.136C54.6264 29.4347 54.6798 29.7387 54.7118 30.048H54.7758C54.8184 29.7813 54.8824 29.488 54.9678 29.168C55.0531 28.848 55.1491 28.5333 55.2558 28.224L56.9198 23.328H59.0958L55.3998 33.152C55.0691 34.016 54.6158 34.6773 54.0398 35.136C53.4744 35.6053 52.7758 35.84 51.9438 35.84C51.6771 35.84 51.4478 35.824 51.2558 35.792C51.0638 35.7707 50.8931 35.744 50.7438 35.712V34.112C50.8611 34.1333 50.9998 34.1547 51.1598 34.176C51.3304 34.1973 51.5064 34.208 51.6878 34.208C52.1891 34.208 52.5838 34.0587 52.8718 33.76C53.1704 33.472 53.3998 33.1093 53.5598 32.672L53.8158 31.968L50.3438 23.328ZM63.9898 20.576C65.4724 20.576 66.5498 20.8853 67.2218 21.504C67.9044 22.1227 68.2458 22.976 68.2458 24.064C68.2458 24.7147 68.1071 25.328 67.8298 25.904C67.5524 26.4693 67.0831 26.928 66.4218 27.28C65.7711 27.6213 64.8858 27.792 63.7658 27.792H62.6298V32H60.5818V20.576H63.9898ZM63.8618 22.272H62.6298V26.096H63.5578C64.3898 26.096 65.0298 25.9467 65.4778 25.648C65.9364 25.3387 66.1658 24.8373 66.1658 24.144C66.1658 23.5147 65.9791 23.0453 65.6058 22.736C65.2324 22.4267 64.6511 22.272 63.8618 22.272ZM74.84 23.168C74.9787 23.168 75.128 23.1733 75.288 23.184C75.4587 23.1947 75.6027 23.216 75.72 23.248L75.544 25.12C75.4373 25.0987 75.3093 25.0827 75.16 25.072C75.0107 25.0507 74.8773 25.04 74.76 25.04C74.3333 25.04 73.9333 25.1307 73.56 25.312C73.1867 25.4827 72.8827 25.7547 72.648 26.128C72.424 26.4907 72.312 26.9493 72.312 27.504V32H70.296V23.328H71.848L72.136 24.832H72.232C72.488 24.3733 72.84 23.984 73.288 23.664C73.736 23.3333 74.2533 23.168 74.84 23.168ZM84.7587 27.648C84.7587 29.088 84.3854 30.2027 83.6388 30.992C82.8921 31.7707 81.8788 32.16 80.5988 32.16C79.8094 32.16 79.1054 31.984 78.4868 31.632C77.8681 31.28 77.3828 30.768 77.0308 30.096C76.6788 29.424 76.5028 28.608 76.5028 27.648C76.5028 26.208 76.8708 25.104 77.6068 24.336C78.3534 23.5573 79.3668 23.168 80.6468 23.168C81.4468 23.168 82.1561 23.344 82.7748 23.696C83.3934 24.0373 83.8788 24.544 84.2308 25.216C84.5828 25.8773 84.7587 26.688 84.7587 27.648ZM78.5668 27.648C78.5668 28.5653 78.7268 29.2747 79.0468 29.776C79.3774 30.2773 79.9054 30.528 80.6308 30.528C81.3561 30.528 81.8788 30.2773 82.1988 29.776C82.5294 29.2747 82.6948 28.5653 82.6948 27.648C82.6948 26.7307 82.5294 26.0267 82.1988 25.536C81.8788 25.0453 81.3508 24.8 80.6148 24.8C79.9001 24.8 79.3774 25.0453 79.0468 25.536C78.7268 26.0267 78.5668 26.7307 78.5668 27.648ZM96.0551 22.144C95.0098 22.144 94.1991 22.5173 93.6231 23.264C93.0578 24.0107 92.7751 25.024 92.7751 26.304C92.7751 27.5947 93.0418 28.608 93.5751 29.344C94.1085 30.0693 94.9298 30.432 96.0391 30.432C96.5191 30.432 96.9885 30.384 97.4471 30.288C97.9058 30.1813 98.3858 30.0427 98.8871 29.872V31.616C98.4178 31.808 97.9431 31.9467 97.4631 32.032C96.9938 32.1173 96.4498 32.16 95.8311 32.16C94.6578 32.16 93.6871 31.92 92.9191 31.44C92.1511 30.9493 91.5805 30.2667 91.2071 29.392C90.8338 28.5067 90.6471 27.472 90.6471 26.288C90.6471 25.136 90.8551 24.1227 91.2711 23.248C91.6871 22.3627 92.2951 21.6693 93.0951 21.168C93.9058 20.6667 94.8925 20.416 96.0551 20.416C96.6311 20.416 97.1965 20.4853 97.7511 20.624C98.3165 20.752 98.8445 20.9333 99.3351 21.168L98.6311 22.848C98.2258 22.6667 97.8045 22.5067 97.3671 22.368C96.9405 22.2187 96.5031 22.144 96.0551 22.144ZM104.611 23.168C105.731 23.168 106.579 23.4133 107.155 23.904C107.742 24.3947 108.035 25.152 108.035 26.176V32H106.611L106.211 30.8H106.147C105.774 31.2693 105.379 31.616 104.963 31.84C104.547 32.0533 103.982 32.16 103.267 32.16C102.489 32.16 101.843 31.9413 101.331 31.504C100.819 31.0667 100.563 30.3893 100.563 29.472C100.563 28.576 100.889 27.904 101.539 27.456C102.201 27.008 103.198 26.7573 104.531 26.704L106.035 26.656V26.224C106.035 25.68 105.902 25.2907 105.635 25.056C105.369 24.8107 104.995 24.688 104.515 24.688C104.078 24.688 103.657 24.752 103.251 24.88C102.857 25.008 102.462 25.1573 102.067 25.328L101.427 23.92C101.854 23.696 102.339 23.5147 102.883 23.376C103.438 23.2373 104.014 23.168 104.611 23.168ZM104.979 27.936C104.094 27.968 103.481 28.1227 103.139 28.4C102.798 28.6667 102.627 29.0293 102.627 29.488C102.627 29.904 102.745 30.2027 102.979 30.384C103.225 30.5547 103.545 30.64 103.939 30.64C104.526 30.64 105.022 30.4747 105.427 30.144C105.833 29.8027 106.035 29.3013 106.035 28.64V27.904L104.979 27.936ZM115.106 23.168C115.244 23.168 115.394 23.1733 115.554 23.184C115.724 23.1947 115.868 23.216 115.986 23.248L115.81 25.12C115.703 25.0987 115.575 25.0827 115.426 25.072C115.276 25.0507 115.143 25.04 115.026 25.04C114.599 25.04 114.199 25.1307 113.826 25.312C113.452 25.4827 113.148 25.7547 112.914 26.128C112.69 26.4907 112.578 26.9493 112.578 27.504V32H110.562V23.328H112.114L112.402 24.832H112.498C112.754 24.3733 113.106 23.984 113.554 23.664C114.002 23.3333 114.519 23.168 115.106 23.168ZM120.144 32.16C119.131 32.16 118.315 31.7813 117.696 31.024C117.078 30.2667 116.768 29.152 116.768 27.68C116.768 26.1867 117.083 25.0613 117.712 24.304C118.342 23.5467 119.168 23.168 120.192 23.168C120.832 23.168 121.355 23.2907 121.76 23.536C122.176 23.7813 122.507 24.08 122.752 24.432H122.848C122.816 24.2827 122.784 24.0533 122.752 23.744C122.72 23.4347 122.704 23.1467 122.704 22.88V19.84H124.72V32H123.152L122.784 30.864H122.704C122.459 31.2267 122.134 31.536 121.728 31.792C121.323 32.0373 120.795 32.16 120.144 32.16ZM120.752 30.528C121.499 30.528 122.022 30.3147 122.32 29.888C122.63 29.4613 122.79 28.816 122.8 27.952V27.696C122.8 26.768 122.651 26.0587 122.352 25.568C122.064 25.0667 121.52 24.816 120.72 24.816C120.102 24.816 119.627 25.072 119.296 25.584C118.976 26.0853 118.816 26.7947 118.816 27.712C118.816 28.6293 118.982 29.328 119.312 29.808C119.643 30.288 120.123 30.528 120.752 30.528Z" fill="white"/>
<path d="M29.7715 79H27.5815L24.9565 74.725L22.3165 79H20.2765L23.8315 73.45L20.5015 68.29H22.6165L25.0465 72.28L27.4615 68.29H29.5165L26.1715 73.525L29.7715 79ZM41.8576 79H39.6676L37.0426 74.725L34.4026 79H32.3626L35.9176 73.45L32.5876 68.29H34.7026L37.1326 72.28L39.5476 68.29H41.6026L38.2576 73.525L41.8576 79ZM53.9437 79H51.7537L49.1287 74.725L46.4887 79H44.4487L48.0037 73.45L44.6737 68.29H46.7887L49.2187 72.28L51.6337 68.29H53.6887L50.3437 73.525L53.9437 79ZM66.0299 79H63.8399L61.2149 74.725L58.5749 79H56.5349L60.0899 73.45L56.7599 68.29H58.8749L61.3049 72.28L63.7199 68.29H65.7749L62.4299 73.525L66.0299 79ZM91.009 79H88.819L86.194 74.725L83.554 79H81.514L85.069 73.45L81.739 68.29H83.854L86.284 72.28L88.699 68.29H90.754L87.409 73.525L91.009 79ZM103.095 79H100.905L98.2801 74.725L95.6401 79H93.6001L97.1551 73.45L93.8251 68.29H95.9401L98.3701 72.28L100.785 68.29H102.84L99.4951 73.525L103.095 79ZM115.181 79H112.991L110.366 74.725L107.726 79H105.686L109.241 73.45L105.911 68.29H108.026L110.456 72.28L112.871 68.29H114.926L111.581 73.525L115.181 79ZM127.267 79H125.077L122.452 74.725L119.812 79H117.772L121.327 73.45L117.997 68.29H120.112L122.542 72.28L124.957 68.29H127.012L123.667 73.525L127.267 79ZM152.246 79H150.056L147.431 74.725L144.791 79H142.751L146.306 73.45L142.976 68.29H145.091L147.521 72.28L149.936 68.29H151.991L148.646 73.525L152.246 79ZM164.333 79H162.143L159.518 74.725L156.878 79H154.838L158.393 73.45L155.063 68.29H157.178L159.608 72.28L162.023 68.29H164.078L160.733 73.525L164.333 79ZM176.419 79H174.229L171.604 74.725L168.964 79H166.924L170.479 73.45L167.149 68.29H169.264L171.694 72.28L174.109 68.29H176.164L172.819 73.525L176.419 79ZM188.505 79H186.315L183.69 74.725L181.05 79H179.01L182.565 73.45L179.235 68.29H181.35L183.78 72.28L186.195 68.29H188.25L184.905 73.525L188.505 79ZM213.484 79H211.294L208.669 74.725L206.029 79H203.989L207.544 73.45L204.214 68.29H206.329L208.759 72.28L211.174 68.29H213.229L209.884 73.525L213.484 79ZM225.57 79H223.38L220.755 74.725L218.115 79H216.075L219.63 73.45L216.3 68.29H218.415L220.845 72.28L223.26 68.29H225.315L221.97 73.525L225.57 79ZM237.656 79H235.466L232.841 74.725L230.201 79H228.161L231.716 73.45L228.386 68.29H230.501L232.931 72.28L235.346 68.29H237.401L234.056 73.525L237.656 79ZM249.742 79H247.552L244.927 74.725L242.287 79H240.247L243.802 73.45L240.472 68.29H242.587L245.017 72.28L247.432 68.29H249.487L246.142 73.525L249.742 79Z" fill="white"/>
<path d="M23.504 122.44L25.604 118.432H26.996L24.14 123.676V127H22.856V123.724L20 118.432H21.404L23.504 122.44ZM35.1344 123.76C35.1344 124.832 34.8584 125.66 34.3064 126.244C33.7544 126.828 33.0104 127.12 32.0744 127.12C31.4904 127.12 30.9704 126.988 30.5144 126.724C30.0664 126.46 29.7104 126.08 29.4464 125.584C29.1904 125.08 29.0624 124.472 29.0624 123.76C29.0624 122.688 29.3344 121.864 29.8784 121.288C30.4224 120.704 31.1664 120.412 32.1104 120.412C32.7024 120.412 33.2224 120.544 33.6704 120.808C34.1264 121.064 34.4824 121.44 34.7384 121.936C35.0024 122.432 35.1344 123.04 35.1344 123.76ZM30.3704 123.76C30.3704 124.488 30.5064 125.056 30.7784 125.464C31.0584 125.872 31.4984 126.076 32.0984 126.076C32.6984 126.076 33.1344 125.872 33.4064 125.464C33.6864 125.056 33.8264 124.488 33.8264 123.76C33.8264 123.024 33.6864 122.46 33.4064 122.068C33.1264 121.668 32.6864 121.468 32.0864 121.468C31.4864 121.468 31.0504 121.668 30.7784 122.068C30.5064 122.46 30.3704 123.024 30.3704 123.76ZM44.3549 120.532V127H43.3349L43.1549 126.148H43.0949C42.8869 126.484 42.5989 126.732 42.2309 126.892C41.8629 127.044 41.4749 127.12 41.0669 127.12C40.3069 127.12 39.7269 126.932 39.3269 126.556C38.9269 126.18 38.7269 125.584 38.7269 124.768V120.532H40.0109V124.576C40.0109 125.576 40.4469 126.076 41.3189 126.076C41.9829 126.076 42.4429 125.88 42.6989 125.488C42.9549 125.096 43.0829 124.536 43.0829 123.808V120.532H44.3549ZM51.5775 120.412C51.6895 120.412 51.8095 120.42 51.9375 120.436C52.0735 120.444 52.1895 120.456 52.2855 120.472L52.1535 121.66C51.9455 121.604 51.7295 121.576 51.5055 121.576C51.1855 121.576 50.8815 121.656 50.5935 121.816C50.3135 121.976 50.0855 122.208 49.9095 122.512C49.7415 122.808 49.6575 123.168 49.6575 123.592V127H48.3855V120.532H49.3935L49.5615 121.684H49.6095C49.8175 121.34 50.0855 121.044 50.4135 120.796C50.7415 120.54 51.1295 120.412 51.5775 120.412ZM67.8564 127H66.2844L61.9524 120.076H61.9044C61.9204 120.396 61.9404 120.764 61.9644 121.18C61.9884 121.588 62.0004 122.008 62.0004 122.44V127H60.8244V118.432H62.3844L66.7044 125.32H66.7404C66.7324 125.152 66.7204 124.94 66.7044 124.684C66.6964 124.428 66.6884 124.156 66.6804 123.868C66.6724 123.572 66.6644 123.296 66.6564 123.04V118.432H67.8564V127ZM74.5448 120.412C75.3528 120.412 75.9568 120.592 76.3568 120.952C76.7648 121.304 76.9688 121.86 76.9688 122.62V127H76.0688L75.8168 126.1H75.7688C75.4888 126.452 75.1928 126.712 74.8808 126.88C74.5768 127.04 74.1528 127.12 73.6088 127.12C73.0248 127.12 72.5408 126.964 72.1568 126.652C71.7728 126.332 71.5808 125.836 71.5808 125.164C71.5808 124.508 71.8288 124.008 72.3248 123.664C72.8208 123.32 73.5848 123.132 74.6168 123.1L75.7208 123.064V122.704C75.7208 122.232 75.6128 121.9 75.3968 121.708C75.1808 121.508 74.8768 121.408 74.4848 121.408C74.1568 121.408 73.8408 121.456 73.5368 121.552C73.2328 121.648 72.9408 121.764 72.6608 121.9L72.2528 120.976C72.5568 120.816 72.9048 120.684 73.2968 120.58C73.6968 120.468 74.1128 120.412 74.5448 120.412ZM74.8448 123.916C74.1088 123.948 73.5968 124.072 73.3088 124.288C73.0288 124.496 72.8888 124.792 72.8888 125.176C72.8888 125.512 72.9888 125.756 73.1888 125.908C73.3888 126.06 73.6488 126.136 73.9688 126.136C74.4648 126.136 74.8768 125.996 75.2048 125.716C75.5408 125.436 75.7088 125.016 75.7088 124.456V123.892L74.8448 123.916ZM88.2154 120.412C88.9434 120.412 89.4914 120.6 89.8594 120.976C90.2274 121.352 90.4114 121.956 90.4114 122.788V127H89.1394V122.956C89.1394 121.956 88.7354 121.456 87.9274 121.456C87.3514 121.456 86.9394 121.636 86.6914 121.996C86.4434 122.348 86.3194 122.856 86.3194 123.52V127H85.0594V122.956C85.0594 121.956 84.6514 121.456 83.8354 121.456C83.2274 121.456 82.8074 121.652 82.5754 122.044C82.3514 122.436 82.2394 123 82.2394 123.736V127H80.9674V120.532H81.9754L82.1554 121.396H82.2274C82.4194 121.06 82.6874 120.812 83.0314 120.652C83.3754 120.492 83.7394 120.412 84.1234 120.412C85.1234 120.412 85.7794 120.76 86.0914 121.456H86.1874C86.3954 121.096 86.6834 120.832 87.0514 120.664C87.4194 120.496 87.8074 120.412 88.2154 120.412ZM96.942 120.412C97.79 120.412 98.458 120.676 98.946 121.204C99.434 121.724 99.678 122.436 99.678 123.34V124.036H95.334C95.35 124.7 95.522 125.208 95.85 125.56C96.186 125.912 96.654 126.088 97.254 126.088C97.67 126.088 98.038 126.052 98.358 125.98C98.686 125.9 99.022 125.784 99.366 125.632V126.688C99.038 126.832 98.71 126.94 98.382 127.012C98.054 127.084 97.662 127.12 97.206 127.12C96.574 127.12 96.018 126.996 95.538 126.748C95.066 126.5 94.694 126.132 94.422 125.644C94.158 125.148 94.026 124.54 94.026 123.82C94.026 123.092 94.146 122.476 94.386 121.972C94.634 121.468 94.974 121.084 95.406 120.82C95.846 120.548 96.358 120.412 96.942 120.412ZM96.942 121.396C96.486 121.396 96.118 121.544 95.838 121.84C95.566 122.136 95.406 122.556 95.358 123.1H98.406C98.398 122.596 98.274 122.188 98.034 121.876C97.802 121.556 97.438 121.396 96.942 121.396Z" fill="white"/>
<path d="M213.192 113H209.202V105.86H213.192V106.65H210.102V108.88H213.012V109.66H210.102V112.21H213.192V113ZM215.909 110.26L214.059 107.64H215.059L216.439 109.66L217.809 107.64H218.799L216.949 110.26L218.899 113H217.899L216.439 110.86L214.959 113H213.969L215.909 110.26ZM222.482 107.54C223.142 107.54 223.672 107.77 224.072 108.23C224.479 108.69 224.682 109.383 224.682 110.31C224.682 111.223 224.479 111.917 224.072 112.39C223.672 112.863 223.139 113.1 222.472 113.1C222.059 113.1 221.715 113.023 221.442 112.87C221.175 112.71 220.965 112.527 220.812 112.32H220.752C220.765 112.433 220.779 112.577 220.792 112.75C220.805 112.923 220.812 113.073 220.812 113.2V115.4H219.932V107.64H220.652L220.772 108.37H220.812C220.972 108.137 221.182 107.94 221.442 107.78C221.702 107.62 222.049 107.54 222.482 107.54ZM222.322 108.28C221.775 108.28 221.389 108.433 221.162 108.74C220.942 109.047 220.825 109.513 220.812 110.14V110.31C220.812 110.97 220.919 111.48 221.132 111.84C221.352 112.193 221.755 112.37 222.342 112.37C222.669 112.37 222.935 112.28 223.142 112.1C223.355 111.92 223.512 111.677 223.612 111.37C223.719 111.057 223.772 110.7 223.772 110.3C223.772 109.687 223.652 109.197 223.412 108.83C223.179 108.463 222.815 108.28 222.322 108.28ZM234.522 109.36C234.522 110.567 234.192 111.477 233.532 112.09C232.879 112.697 231.965 113 230.792 113H228.802V105.86H231.002C231.722 105.86 232.345 105.993 232.872 106.26C233.399 106.527 233.805 106.92 234.092 107.44C234.379 107.953 234.522 108.593 234.522 109.36ZM233.572 109.39C233.572 108.437 233.335 107.74 232.862 107.3C232.395 106.853 231.732 106.63 230.872 106.63H229.702V112.23H230.672C232.605 112.23 233.572 111.283 233.572 109.39ZM238.017 107.55C238.67 107.55 239.153 107.693 239.467 107.98C239.78 108.267 239.937 108.723 239.937 109.35V113H239.297L239.127 112.24H239.087C238.853 112.533 238.607 112.75 238.347 112.89C238.093 113.03 237.74 113.1 237.287 113.1C236.8 113.1 236.397 112.973 236.077 112.72C235.757 112.46 235.597 112.057 235.597 111.51C235.597 110.977 235.807 110.567 236.227 110.28C236.647 109.987 237.293 109.827 238.167 109.8L239.077 109.77V109.45C239.077 109.003 238.98 108.693 238.787 108.52C238.593 108.347 238.32 108.26 237.967 108.26C237.687 108.26 237.42 108.303 237.167 108.39C236.913 108.47 236.677 108.563 236.457 108.67L236.187 108.01C236.42 107.883 236.697 107.777 237.017 107.69C237.337 107.597 237.67 107.55 238.017 107.55ZM238.277 110.41C237.61 110.437 237.147 110.543 236.887 110.73C236.633 110.917 236.507 111.18 236.507 111.52C236.507 111.82 236.597 112.04 236.777 112.18C236.963 112.32 237.2 112.39 237.487 112.39C237.94 112.39 238.317 112.267 238.617 112.02C238.917 111.767 239.067 111.38 239.067 110.86V110.38L238.277 110.41ZM243.382 112.38C243.516 112.38 243.652 112.37 243.792 112.35C243.932 112.323 244.046 112.297 244.132 112.27V112.94C244.039 112.987 243.906 113.023 243.732 113.05C243.559 113.083 243.392 113.1 243.232 113.1C242.952 113.1 242.692 113.053 242.452 112.96C242.219 112.86 242.029 112.69 241.882 112.45C241.736 112.21 241.662 111.873 241.662 111.44V108.32H240.902V107.9L241.672 107.55L242.022 106.41H242.542V107.64H244.092V108.32H242.542V111.42C242.542 111.747 242.619 111.99 242.772 112.15C242.932 112.303 243.136 112.38 243.382 112.38ZM247.275 107.54C247.735 107.54 248.129 107.64 248.455 107.84C248.789 108.04 249.042 108.323 249.215 108.69C249.395 109.05 249.485 109.473 249.485 109.96V110.49H245.815C245.829 111.097 245.982 111.56 246.275 111.88C246.575 112.193 246.992 112.35 247.525 112.35C247.865 112.35 248.165 112.32 248.425 112.26C248.692 112.193 248.965 112.1 249.245 111.98V112.75C248.972 112.87 248.702 112.957 248.435 113.01C248.169 113.07 247.852 113.1 247.485 113.1C246.979 113.1 246.529 112.997 246.135 112.79C245.749 112.583 245.445 112.277 245.225 111.87C245.012 111.457 244.905 110.953 244.905 110.36C244.905 109.773 245.002 109.27 245.195 108.85C245.395 108.43 245.672 108.107 246.025 107.88C246.385 107.653 246.802 107.54 247.275 107.54ZM247.265 108.26C246.845 108.26 246.512 108.397 246.265 108.67C246.025 108.937 245.882 109.31 245.835 109.79H248.565C248.559 109.337 248.452 108.97 248.245 108.69C248.039 108.403 247.712 108.26 247.265 108.26ZM226.936 127H225.476L223.726 124.15L221.966 127H220.606L222.976 123.3L220.756 119.86H222.166L223.786 122.52L225.396 119.86H226.766L224.536 123.35L226.936 127ZM233.293 127H231.833L230.083 124.15L228.323 127H226.963L229.333 123.3L227.113 119.86H228.523L230.143 122.52L231.753 119.86H233.123L230.893 123.35L233.293 127ZM237.211 119.86L234.551 127H233.381L236.041 119.86H237.211ZM243.635 127H242.175L240.425 124.15L238.665 127H237.305L239.675 123.3L237.455 119.86H238.865L240.485 122.52L242.095 119.86H243.465L241.235 123.35L243.635 127ZM249.993 127H248.533L246.783 124.15L245.023 127H243.663L246.033 123.3L243.813 119.86H245.223L246.843 122.52L248.453 119.86H249.823L247.593 123.35L249.993 127Z" fill="white"/>
</svg>
