<svg id="Layer_1" data-name="Layer 1" xmlns="http://www.w3.org/2000/svg" viewBox="0 0 275.4 51.61"><defs><style>.cls-1{fill:#9f1c34;}</style></defs><title>customer-logo-</title><path class="cls-1" d="M271.51,3.23a3.91,3.91,0,0,1,3.89,4,3.92,3.92,0,1,1-7.84,0,3.94,3.94,0,0,1,3.93-4Zm0,.62a3.27,3.27,0,0,0-3.17,3.35,3.18,3.18,0,1,0,6.36,0,3.26,3.26,0,0,0-3.17-3.37Zm-.74,5.66H270V5.08a7.9,7.9,0,0,1,1.25-.1,2.33,2.33,0,0,1,1.37.33,1.06,1.06,0,0,1,.41.92,1.1,1.1,0,0,1-.86,1.08v0c.39.07.65.42.74,1.07a3.74,3.74,0,0,0,.28,1.09h-.74a3.32,3.32,0,0,1-.3-1.13.82.82,0,0,0-.95-.78h-.49Zm0-2.45h.51c.58,0,1.08-.21,1.08-.76,0-.39-.28-.78-1.08-.78a3.51,3.51,0,0,0-.51,0Z"/><polygon class="cls-1" points="0 38.97 8.79 0 43.55 0 41.93 7.86 22.81 7.86 21.37 14.44 38.05 14.44 36.34 22.21 19.63 22.21 17.79 30.7 37.45 30.7 35.72 38.97 0 38.97"/><path class="cls-1" d="M42.2,16.12C45.76,2.34,55.26,2.46,66.54,2.7c7.73.16,19.71.24,17.58,12.35,0,0-.48,3.44-1.26,7.17H70.69L95.14,51.49H78.91L68.32,38.8A30.82,30.82,0,0,1,57.87,40c-6.41-.24-18.29,0-17.81-11.17a72.06,72.06,0,0,1,2.14-12.7m15-1.9A72.76,72.76,0,0,0,53.83,27.4c-.83,4.63,2.49,6.29,5.7,6.29,2.62,0,6.32-1.55,7.48-4.75a75.42,75.42,0,0,0,3.33-13.3c1.18-7.36-5.7-6.29-5.7-6.29-5.51-.37-7.48,4.87-7.48,4.87"/><path class="cls-1" d="M90.51,4.36h14.18s-4.54,20-5.52,24.88a4.29,4.29,0,0,0,4.48,4.11s5.67.88,6.82-3.78l5.67-25.21h14.4s-5.45,24.94-6.4,28-5.7,7.25-16.51,7.84a52.81,52.81,0,0,1-8.79-.48L85.9,24.43s3.47-16,4.61-20.07"/><polygon class="cls-1" points="135.89 4.36 150.38 4.36 142.56 38.9 128.4 38.9 135.89 4.36"/><polygon class="cls-1" points="162.53 38.9 148.24 38.9 155.76 4.36 186.94 4.36 185.29 11.12 168.87 11.12 167.31 17.48 181.31 17.48 179.84 24.11 165.98 24.11 162.53 38.9"/><path class="cls-1" d="M182.11,38.9h-10L196.46,4.36h17.32l3.45,28L228.87,21.7,217.45,4.36h18.36l5.53,8.79,8.94-8.79h14.07l-18.26,16L258,38.9h-17.7l-6-10.31-9.9,10.31H203l-.67-7.55H187.22Zm10-15.06h9.09l-1.12-11.4Z"/></svg>